<?xml version="1.0" encoding="UTF-8" standalone="no"?>
<svg
   contentStyleType="text/css"
   data-diagram-type="DESCRIPTION"
   height="228px"
   preserveAspectRatio="none"
   style="width:1340px;height:228px;background:#FFFFFF;"
   version="1.1"
   viewBox="0 0 1340 228"
   width="1340px"
   zoomAndPan="magnify"
   id="svg11"
   sodipodi:docname="persistenza.svg"
   xmlns:inkscape="http://www.inkscape.org/namespaces/inkscape"
   xmlns:sodipodi="http://sodipodi.sourceforge.net/DTD/sodipodi-0.dtd"
   xmlns="http://www.w3.org/2000/svg"
   xmlns:svg="http://www.w3.org/2000/svg">
  <sodipodi:namedview
     id="namedview11"
     pagecolor="#ffffff"
     bordercolor="#000000"
     borderopacity="0.25"
     inkscape:showpageshadow="2"
     inkscape:pageopacity="0.0"
     inkscape:pagecheckerboard="0"
     inkscape:deskcolor="#d1d1d1" />
  <defs
     id="defs1" />
  <g
     id="g11">
    <!--cluster Persistenza e Sistema-->
    <g
       class="cluster"
       data-entity="Persistenza e Sistema"
       data-source-line="11"
       data-uid="ent0003"
       id="cluster_Persistenza e Sistema">
      <rect
         fill="none"
         height="215"
         rx="2.5"
         ry="2.5"
         style="stroke:#181818;stroke-width:1;"
         width="1224.87"
         x="109.39"
         y="7"
         id="rect1" />
      <path
         d="m 638.99918,11.9991 q 1.932,0 2.814,0.84 0.896,0.826 0.896,2.282 0,0.658 -0.196,1.26 -0.196,0.588 -0.658,1.064 -0.448,0.462 -1.19,0.728 -0.742,0.266 -1.834,0.266 h -0.91 v 3.556 h -2.114 v -9.996 z m -0.112,1.736 h -0.966 v 2.968 h 0.7 q 0.602,0 1.036,-0.154 0.434,-0.154 0.672,-0.49 0.238,-0.336 0.238,-0.868 0,-0.742 -0.406,-1.092 -0.406,-0.364 -1.274,-0.364 z m 9.84709,0.476 q 1.064,0 1.82,0.406 0.77,0.406 1.19,1.176 0.42,0.77 0.42,1.89 v 1.008 h -4.928 q 0.028,0.882 0.518,1.386 0.504,0.504 1.386,0.504 0.742,0 1.344,-0.14 0.602,-0.154 1.246,-0.462 v 1.61 q -0.56,0.28 -1.19,0.406 -0.616,0.14 -1.498,0.14 -1.148,0 -2.03,-0.42 -0.882,-0.434 -1.386,-1.302 -0.504,-0.868 -0.504,-2.184 0,-1.344 0.448,-2.226 0.462,-0.896 1.274,-1.344 0.812,-0.448 1.89,-0.448 z m 0.014,1.484 q -0.602,0 -1.008,0.392 -0.392,0.392 -0.462,1.218 h 2.926 q 0,-0.462 -0.168,-0.826 -0.154,-0.364 -0.476,-0.574 -0.322,-0.21 -0.812,-0.21 z m 10.53308,-1.484 q 0.154,0 0.364,0.014 0.21,0.014 0.336,0.042 l -0.154,1.96 q -0.098,-0.028 -0.294,-0.042 -0.182,-0.028 -0.322,-0.028 -0.406,0 -0.784,0.112 -0.378,0.098 -0.686,0.322 -0.294,0.224 -0.476,0.602 -0.168,0.364 -0.168,0.91 v 3.892 h -2.086 v -7.644 h 1.582 l 0.308,1.288 h 0.098 q 0.224,-0.392 0.56,-0.714 0.336,-0.322 0.77,-0.518 0.448,-0.196 0.952,-0.196 z m 8.57309,5.516 q 0,0.77 -0.364,1.316 -0.364,0.532 -1.092,0.812 -0.728,0.28 -1.806,0.28 -0.798,0 -1.372,-0.112 -0.574,-0.098 -1.148,-0.336 v -1.722 q 0.616,0.28 1.33,0.462 0.714,0.182 1.26,0.182 0.616,0 0.868,-0.182 0.266,-0.182 0.266,-0.476 0,-0.196 -0.112,-0.35 -0.098,-0.154 -0.448,-0.35 -0.35,-0.196 -1.092,-0.504 -0.714,-0.308 -1.176,-0.602 -0.462,-0.308 -0.686,-0.728 -0.224,-0.434 -0.224,-1.078 0,-1.064 0.826,-1.596 0.826,-0.532 2.198,-0.532 0.714,0 1.358,0.14 0.644,0.14 1.33,0.462 l -0.63,1.498 q -0.56,-0.238 -1.064,-0.392 -0.504,-0.168 -1.022,-0.168 -0.462,0 -0.7,0.126 -0.224,0.126 -0.224,0.378 0,0.182 0.112,0.336 0.126,0.14 0.462,0.308 0.35,0.168 1.022,0.448 0.658,0.266 1.134,0.56 0.476,0.28 0.728,0.714 0.266,0.42 0.266,1.106 z m 4.86308,-5.376 v 7.644 h -2.086 v -7.644 z m -1.036,-2.996 q 0.462,0 0.798,0.224 0.336,0.21 0.336,0.798 0,0.574 -0.336,0.798 -0.336,0.224 -0.798,0.224 -0.476,0 -0.812,-0.224 -0.322,-0.224 -0.322,-0.798 0,-0.588 0.322,-0.798 0.336,-0.224 0.812,-0.224 z m 9.70708,8.372 q 0,0.77 -0.364,1.316 -0.364,0.532 -1.092,0.812 -0.728,0.28 -1.806,0.28 -0.798,0 -1.372,-0.112 -0.574,-0.098 -1.148,-0.336 v -1.722 q 0.616,0.28 1.33,0.462 0.714,0.182 1.26,0.182 0.616,0 0.868,-0.182 0.266,-0.182 0.266,-0.476 0,-0.196 -0.112,-0.35 -0.098,-0.154 -0.448,-0.35 -0.35,-0.196 -1.092,-0.504 -0.714,-0.308 -1.176,-0.602 -0.462,-0.308 -0.686,-0.728 -0.224,-0.434 -0.224,-1.078 0,-1.064 0.826,-1.596 0.826,-0.532 2.198,-0.532 0.714,0 1.358,0.14 0.644,0.14 1.33,0.462 l -0.63,1.498 q -0.56,-0.238 -1.064,-0.392 -0.504,-0.168 -1.022,-0.168 -0.462,0 -0.7,0.126 -0.224,0.126 -0.224,0.378 0,0.182 0.112,0.336 0.126,0.14 0.462,0.308 0.35,0.168 1.022,0.448 0.658,0.266 1.134,0.56 0.476,0.28 0.728,0.714 0.266,0.42 0.266,1.106 z m 5.99708,0.742 q 0.35,0 0.672,-0.07 0.322,-0.07 0.644,-0.168 v 1.554 q -0.336,0.14 -0.84,0.238 -0.49,0.112 -1.078,0.112 -0.686,0 -1.232,-0.224 -0.532,-0.224 -0.854,-0.77 -0.308,-0.56 -0.308,-1.54 v -3.682 h -0.994 v -0.882 l 1.148,-0.7 0.602,-1.61 h 1.33 v 1.624 h 2.142 v 1.568 h -2.142 v 3.682 q 0,0.434 0.252,0.658 0.252,0.21 0.658,0.21 z m 7.15909,-6.258 q 1.064,0 1.82,0.406 0.77,0.406 1.19,1.176 0.42,0.77 0.42,1.89 v 1.008 h -4.928 q 0.028,0.882 0.518,1.386 0.504,0.504 1.386,0.504 0.742,0 1.344,-0.14 0.602,-0.154 1.246,-0.462 v 1.61 q -0.56,0.28 -1.19,0.406 -0.616,0.14 -1.498,0.14 -1.148,0 -2.03,-0.42 -0.882,-0.434 -1.386,-1.302 -0.504,-0.868 -0.504,-2.184 0,-1.344 0.448,-2.226 0.462,-0.896 1.274,-1.344 0.812,-0.448 1.89,-0.448 z m 0.014,1.484 q -0.602,0 -1.008,0.392 -0.392,0.392 -0.462,1.218 h 2.926 q 0,-0.462 -0.168,-0.826 -0.154,-0.364 -0.476,-0.574 -0.322,-0.21 -0.812,-0.21 z m 10.60307,-1.484 q 1.232,0 1.974,0.672 0.742,0.658 0.742,2.128 v 4.984 h -2.086 v -4.466 q 0,-0.826 -0.294,-1.232 -0.294,-0.42 -0.938,-0.42 -0.952,0 -1.302,0.658 -0.35,0.644 -0.35,1.862 v 3.598 h -2.086 v -7.644 h 1.596 l 0.28,0.98 h 0.112 q 0.252,-0.392 0.616,-0.63 0.364,-0.252 0.812,-0.364 0.448,-0.126 0.924,-0.126 z m 11.33108,7.784 h -6.034 v -1.232 l 3.542,-4.816 h -3.332 v -1.596 h 5.698 v 1.358 l -3.444,4.69 h 3.57 z m 5.8011,-7.798 q 1.54,0 2.352,0.672 0.826,0.658 0.826,2.03 v 5.096 h -1.456 l -0.406,-1.036 h -0.056 q -0.322,0.406 -0.672,0.672 -0.336,0.266 -0.784,0.378 -0.434,0.126 -1.078,0.126 -0.672,0 -1.218,-0.252 -0.532,-0.266 -0.84,-0.798 -0.308,-0.546 -0.308,-1.372 0,-1.218 0.854,-1.792 0.854,-0.588 2.562,-0.644 l 1.33,-0.042 v -0.336 q 0,-0.602 -0.322,-0.882 -0.308,-0.28 -0.868,-0.28 -0.56,0 -1.092,0.168 -0.532,0.154 -1.064,0.392 l -0.686,-1.414 q 0.616,-0.322 1.358,-0.504 0.756,-0.182 1.568,-0.182 z m 0.294,4.284 q -1.008,0.028 -1.4,0.364 -0.392,0.336 -0.392,0.882 0,0.476 0.28,0.686 0.28,0.196 0.728,0.196 0.672,0 1.134,-0.392 0.462,-0.406 0.462,-1.134 v -0.63 z m 14.12217,-4.27 q 1.064,0 1.82,0.406 0.77,0.406 1.19,1.176 0.42,0.77 0.42,1.89 v 1.008 h -4.928 q 0.028,0.882 0.518,1.386 0.504,0.504 1.386,0.504 0.742,0 1.344,-0.14 0.602,-0.154 1.246,-0.462 v 1.61 q -0.56,0.28 -1.19,0.406 -0.616,0.14 -1.498,0.14 -1.148,0 -2.03,-0.42 -0.882,-0.434 -1.386,-1.302 -0.504,-0.868 -0.504,-2.184 0,-1.344 0.448,-2.226 0.462,-0.896 1.274,-1.344 0.812,-0.448 1.89,-0.448 z m 0.014,1.484 q -0.602,0 -1.008,0.392 -0.392,0.392 -0.462,1.218 h 2.926 q 0,-0.462 -0.168,-0.826 -0.154,-0.364 -0.476,-0.574 -0.322,-0.21 -0.812,-0.21 z m 17.11816,3.528 q 0,0.882 -0.434,1.54 -0.434,0.658 -1.26,1.022 -0.812,0.35 -1.988,0.35 -0.518,0 -1.022,-0.07 -0.49,-0.07 -0.952,-0.196 -0.448,-0.14 -0.854,-0.336 v -1.974 q 0.714,0.308 1.47,0.574 0.77,0.252 1.526,0.252 0.518,0 0.826,-0.14 0.322,-0.14 0.462,-0.378 0.154,-0.238 0.154,-0.546 0,-0.378 -0.266,-0.644 -0.252,-0.266 -0.686,-0.49 -0.434,-0.238 -0.994,-0.504 -0.35,-0.168 -0.756,-0.392 -0.406,-0.238 -0.784,-0.574 -0.364,-0.35 -0.602,-0.84 -0.238,-0.49 -0.238,-1.176 0,-0.896 0.406,-1.526 0.42,-0.644 1.176,-0.98 0.77,-0.336 1.806,-0.336 0.784,0 1.484,0.182 0.714,0.182 1.484,0.518 l -0.686,1.652 q -0.686,-0.28 -1.232,-0.434 -0.546,-0.154 -1.12,-0.154 -0.392,0 -0.672,0.126 -0.28,0.126 -0.434,0.35 -0.14,0.224 -0.14,0.532 0,0.35 0.21,0.602 0.21,0.238 0.63,0.462 0.42,0.224 1.05,0.532 0.77,0.364 1.302,0.756 0.546,0.392 0.84,0.924 0.294,0.532 0.294,1.316 z m 4.8911,-4.872 v 7.644 h -2.086 v -7.644 z m -1.036,-2.996 q 0.462,0 0.798,0.224 0.336,0.21 0.336,0.798 0,0.574 -0.336,0.798 -0.336,0.224 -0.798,0.224 -0.476,0 -0.812,-0.224 -0.322,-0.224 -0.322,-0.798 0,-0.588 0.322,-0.798 0.336,-0.224 0.812,-0.224 z m 9.70709,8.372 q 0,0.77 -0.364,1.316 -0.364,0.532 -1.092,0.812 -0.728,0.28 -1.806,0.28 -0.798,0 -1.372,-0.112 -0.574,-0.098 -1.148,-0.336 v -1.722 q 0.616,0.28 1.33,0.462 0.714,0.182 1.26,0.182 0.616,0 0.868,-0.182 0.266,-0.182 0.266,-0.476 0,-0.196 -0.112,-0.35 -0.098,-0.154 -0.448,-0.35 -0.35,-0.196 -1.092,-0.504 -0.714,-0.308 -1.176,-0.602 -0.462,-0.308 -0.686,-0.728 -0.224,-0.434 -0.224,-1.078 0,-1.064 0.826,-1.596 0.826,-0.532 2.198,-0.532 0.714,0 1.358,0.14 0.644,0.14 1.33,0.462 l -0.63,1.498 q -0.56,-0.238 -1.064,-0.392 -0.504,-0.168 -1.022,-0.168 -0.462,0 -0.7,0.126 -0.224,0.126 -0.224,0.378 0,0.182 0.112,0.336 0.126,0.14 0.462,0.308 0.35,0.168 1.022,0.448 0.658,0.266 1.134,0.56 0.476,0.28 0.728,0.714 0.266,0.42 0.266,1.106 z m 5.99707,0.742 q 0.35,0 0.672,-0.07 0.322,-0.07 0.644,-0.168 v 1.554 q -0.336,0.14 -0.84,0.238 -0.49,0.112 -1.078,0.112 -0.686,0 -1.232,-0.224 -0.532,-0.224 -0.854,-0.77 -0.308,-0.56 -0.308,-1.54 v -3.682 h -0.994 v -0.882 l 1.148,-0.7 0.602,-1.61 h 1.33 v 1.624 h 2.142 v 1.568 h -2.142 v 3.682 q 0,0.434 0.252,0.658 0.252,0.21 0.658,0.21 z m 7.15909,-6.258 q 1.064,0 1.82,0.406 0.77,0.406 1.19,1.176 0.42,0.77 0.42,1.89 v 1.008 h -4.928 q 0.028,0.882 0.518,1.386 0.504,0.504 1.386,0.504 0.742,0 1.344,-0.14 0.602,-0.154 1.246,-0.462 v 1.61 q -0.56,0.28 -1.19,0.406 -0.616,0.14 -1.498,0.14 -1.148,0 -2.03,-0.42 -0.882,-0.434 -1.386,-1.302 -0.504,-0.868 -0.504,-2.184 0,-1.344 0.448,-2.226 0.462,-0.896 1.274,-1.344 0.812,-0.448 1.89,-0.448 z m 0.014,1.484 q -0.602,0 -1.008,0.392 -0.392,0.392 -0.462,1.218 h 2.926 q 0,-0.462 -0.168,-0.826 -0.154,-0.364 -0.476,-0.574 -0.322,-0.21 -0.812,-0.21 z m 15.23709,-1.484 q 1.302,0 1.96,0.672 0.672,0.658 0.672,2.128 v 4.984 h -2.086 v -4.466 q 0,-0.826 -0.28,-1.232 -0.28,-0.42 -0.868,-0.42 -0.826,0 -1.176,0.588 -0.35,0.588 -0.35,1.694 v 3.836 h -2.086 v -4.466 q 0,-0.546 -0.126,-0.91 -0.126,-0.364 -0.378,-0.546 -0.252,-0.196 -0.644,-0.196 -0.574,0 -0.91,0.294 -0.336,0.294 -0.476,0.854 -0.14,0.56 -0.14,1.372 v 3.598 h -2.086 v -7.644 h 1.596 l 0.28,0.98 h 0.112 q 0.238,-0.392 0.588,-0.63 0.35,-0.252 0.77,-0.364 0.434,-0.126 0.868,-0.126 0.84,0 1.428,0.28 0.588,0.266 0.896,0.84 h 0.182 q 0.35,-0.588 0.966,-0.854 0.63,-0.266 1.288,-0.266 z m 9.06308,-0.014 q 1.54,0 2.352,0.672 0.826,0.658 0.826,2.03 v 5.096 h -1.456 l -0.406,-1.036 h -0.056 q -0.322,0.406 -0.672,0.672 -0.336,0.266 -0.784,0.378 -0.434,0.126 -1.078,0.126 -0.672,0 -1.218,-0.252 -0.532,-0.266 -0.84,-0.798 -0.308,-0.546 -0.308,-1.372 0,-1.218 0.854,-1.792 0.854,-0.588 2.562,-0.644 l 1.33,-0.042 v -0.336 q 0,-0.602 -0.322,-0.882 -0.308,-0.28 -0.868,-0.28 -0.56,0 -1.092,0.168 -0.532,0.154 -1.064,0.392 l -0.686,-1.414 q 0.616,-0.322 1.358,-0.504 0.756,-0.182 1.568,-0.182 z m 0.294,4.284 q -1.008,0.028 -1.4,0.364 -0.392,0.336 -0.392,0.882 0,0.476 0.28,0.686 0.28,0.196 0.728,0.196 0.672,0 1.134,-0.392 0.462,-0.406 0.462,-1.134 v -0.63 z"
         id="text1"
         style="font-weight:bold;font-size:14px"
         aria-label="Persistenza e Sistema" />
    </g>
    <!--entity UC14-->
    <g
       class="entity"
       data-entity="UC14"
       data-source-line="13"
       data-uid="ent0004"
       id="entity_UC14">
      <ellipse
         cx="245.4048"
         cy="102.003"
         fill="#F1F1F1"
         rx="120.0148"
         ry="26.403"
         style="stroke:#181818;stroke-width:0.5;"
         id="ellipse1" />
      <path
         d="m 144.6719,103.1234 q 0,1.036 -0.42,1.876 -0.42,0.826 -1.288,1.316 -0.854,0.476 -2.184,0.476 -1.862,0 -2.842,-1.008 -0.966,-1.022 -0.966,-2.688 v -6.440002 h 1.26 v 6.482002 q 0,1.218 0.644,1.89 0.658,0.672 1.974,0.672 0.91,0 1.47,-0.322 0.574,-0.336 0.84,-0.91 0.266,-0.588 0.266,-1.344 v -6.468002 h 1.246 z m 7.50522,-5.502002 q -0.798,0 -1.442,0.28 -0.644,0.266 -1.092,0.798 -0.448,0.518 -0.686,1.274 -0.238,0.742002 -0.238,1.680002 0,1.232 0.378,2.142 0.392,0.91 1.148,1.4 0.77,0.49 1.918,0.49 0.658,0 1.246,-0.112 0.588,-0.112 1.148,-0.28 v 1.092 q -0.56,0.21 -1.162,0.308 -0.588,0.098 -1.414,0.098 -1.526,0 -2.548,-0.63 -1.022,-0.63 -1.54,-1.792 -0.504,-1.162 -0.504,-2.73 0,-1.134 0.308,-2.072002 0.322,-0.938 0.924,-1.624 0.616,-0.686 1.512,-1.05 0.896,-0.378 2.058,-0.378 0.77,0 1.484,0.154 0.714,0.154 1.274,0.434 l -0.504,1.064 q -0.462,-0.21 -1.036,-0.378 -0.56,-0.168 -1.232,-0.168 z m 4.3552,5.824002 v -1.092 h 3.388 v 1.092 z m 9.50721,3.206 h -1.204 v -6.986002 q 0,-0.406 0,-0.686 0.014,-0.28 0.028,-0.518 0.014,-0.252 0.028,-0.518 -0.224,0.224 -0.406,0.378 -0.182,0.154 -0.462,0.392 l -1.064,0.868 -0.644,-0.826 2.702,-2.1 h 1.022 z m 11.35521,-2.268 h -1.456 v 2.268 h -1.19 v -2.268 h -4.788 v -1.05 l 4.704,-6.734002 h 1.274 v 6.678002 h 1.456 z m -2.646,-4.256 q 0,-0.364002 0,-0.658002 0.014,-0.308 0.028,-0.574 0.014,-0.266 0.014,-0.504 0.014,-0.252 0.028,-0.476 h -0.056 q -0.112,0.266 -0.28,0.574 -0.168,0.308 -0.322,0.518 l -2.996,4.270002 h 3.584 z m 4.52321,5.768 q 0,-0.518 0.252,-0.728 0.252,-0.21 0.602,-0.21 0.364,0 0.616,0.21 0.266,0.21 0.266,0.728 0,0.504 -0.266,0.728 -0.252,0.224 -0.616,0.224 -0.35,0 -0.602,-0.224 -0.252,-0.224 -0.252,-0.728 z m 0,-5.992002 q 0,-0.532 0.252,-0.742 0.252,-0.21 0.602,-0.21 0.364,0 0.616,0.21 0.266,0.21 0.266,0.742 0,0.504002 -0.266,0.728002 -0.252,0.224 -0.616,0.224 -0.35,0 -0.602,-0.224 -0.252,-0.224 -0.252,-0.728002 z m 14.5904,4.074002 q 0,0.896 -0.434,1.526 -0.434,0.616 -1.246,0.952 -0.798,0.336 -1.89,0.336 -0.56,0 -1.078,-0.056 -0.504,-0.056 -0.924,-0.154 -0.42,-0.112 -0.742,-0.266 v -1.204 q 0.504,0.224 1.246,0.406 0.756,0.182 1.554,0.182 0.742,0 1.246,-0.196 0.504,-0.196 0.756,-0.56 0.252,-0.364 0.252,-0.854 0,-0.49 -0.21,-0.826 -0.21,-0.336 -0.728,-0.616 -0.504,-0.294 -1.414,-0.616 -0.644,-0.238 -1.134,-0.504 -0.476,-0.28 -0.798,-0.63 -0.322,-0.35 -0.49,-0.798 -0.154,-0.448002 -0.154,-1.036002 0,-0.798 0.406,-1.358 0.406,-0.574 1.12,-0.882 0.728,-0.308 1.666,-0.308 0.826,0 1.512,0.154 0.686,0.154 1.246,0.406 l -0.392,1.078 q -0.518,-0.224 -1.134,-0.378 -0.602,-0.154 -1.26,-0.154 -0.63,0 -1.05,0.182 -0.42,0.182 -0.63,0.518 -0.21,0.322 -0.21,0.756 0,0.504 0.21,0.84 0.21,0.336002 0.686,0.602002 0.476,0.266 1.288,0.574 0.882,0.322 1.484,0.7 0.616,0.364 0.924,0.882 0.322,0.518 0.322,1.302 z m 5.2792,-4.956002 q 1.372,0 2.03,0.602 0.658,0.602002 0.658,1.918002 v 5.11 h -0.896 l -0.238,-1.064 h -0.056 q -0.322,0.406 -0.672,0.686 -0.336,0.266 -0.784,0.392 -0.434,0.126 -1.064,0.126 -0.672,0 -1.218,-0.238 -0.532,-0.238 -0.84,-0.728 -0.308,-0.504 -0.308,-1.26 0,-1.12 0.882,-1.722 0.882,-0.616 2.716,-0.672 l 1.274,-0.042 v -0.448 q 0,-0.938 -0.406,-1.302 -0.406,-0.364 -1.148,-0.364 -0.588,0 -1.12,0.182 -0.532,0.168 -0.994,0.392 l -0.378,-0.924002 q 0.49,-0.266 1.162,-0.448 0.672,-0.196 1.4,-0.196 z m 0.364,4.004002 q -1.4,0.056 -1.946,0.448 -0.532,0.392 -0.532,1.106 0,0.63 0.378,0.924 0.392,0.294 0.994,0.294 0.952,0 1.582,-0.518 0.63,-0.532 0.63,-1.624 v -0.672 z m 6.46922,3.626 h -1.232 V 96.011398 h 1.232 z m 4.6212,0 -2.842,-7.504002 h 1.316 l 1.596,4.424002 q 0.112,0.308 0.238,0.686 0.126,0.378 0.224,0.728 0.098,0.336 0.14,0.574 h 0.056 q 0.056,-0.238 0.154,-0.588 0.112,-0.35 0.238,-0.728 0.14,-0.378 0.238,-0.672 l 1.596,-4.424002 h 1.316 l -2.856,7.504002 z m 8.89119,-7.630002 q 1.372,0 2.03,0.602 0.658,0.602002 0.658,1.918002 v 5.11 h -0.896 l -0.238,-1.064 h -0.056 q -0.322,0.406 -0.672,0.686 -0.336,0.266 -0.784,0.392 -0.434,0.126 -1.064,0.126 -0.672,0 -1.218,-0.238 -0.532,-0.238 -0.84,-0.728 -0.308,-0.504 -0.308,-1.26 0,-1.12 0.882,-1.722 0.882,-0.616 2.716,-0.672 l 1.274,-0.042 v -0.448 q 0,-0.938 -0.406,-1.302 -0.406,-0.364 -1.148,-0.364 -0.588,0 -1.12,0.182 -0.532,0.168 -0.994,0.392 l -0.378,-0.924002 q 0.49,-0.266 1.162,-0.448 0.672,-0.196 1.4,-0.196 z m 0.364,4.004002 q -1.4,0.056 -1.946,0.448 -0.532,0.392 -0.532,1.106 0,0.63 0.378,0.924 0.392,0.294 0.994,0.294 0.952,0 1.582,-0.518 0.63,-0.532 0.63,-1.624 v -0.672 z m 7.74322,2.758 q 0.28,0 0.574,-0.042 0.294,-0.056 0.476,-0.112 v 0.938 q -0.196,0.098 -0.56,0.154 -0.364,0.07 -0.7,0.07 -0.588,0 -1.092,-0.196 -0.49,-0.21 -0.798,-0.714 -0.308,-0.504 -0.308,-1.414 v -4.368 h -1.064 v -0.588002 l 1.078,-0.49 0.49,-1.596 h 0.728 v 1.722 h 2.17 v 0.952002 h -2.17 v 4.34 q 0,0.686 0.322,1.022 0.336,0.322 0.854,0.322 z m 5.9792,-6.762002 q 1.372,0 2.03,0.602 0.658,0.602002 0.658,1.918002 v 5.11 h -0.896 l -0.238,-1.064 h -0.056 q -0.322,0.406 -0.672,0.686 -0.336,0.266 -0.784,0.392 -0.434,0.126 -1.064,0.126 -0.672,0 -1.218,-0.238 -0.532,-0.238 -0.84,-0.728 -0.308,-0.504 -0.308,-1.26 0,-1.12 0.882,-1.722 0.882,-0.616 2.716,-0.672 l 1.274,-0.042 v -0.448 q 0,-0.938 -0.406,-1.302 -0.406,-0.364 -1.148,-0.364 -0.588,0 -1.12,0.182 -0.532,0.168 -0.994,0.392 l -0.378,-0.924002 q 0.49,-0.266 1.162,-0.448 0.672,-0.196 1.4,-0.196 z m 0.364,4.004002 q -1.4,0.056 -1.946,0.448 -0.532,0.392 -0.532,1.106 0,0.63 0.378,0.924 0.392,0.294 0.994,0.294 0.952,0 1.582,-0.518 0.63,-0.532 0.63,-1.624 v -0.672 z m 7.89721,-4.018002 q 0.742,0 1.33,0.28 0.602,0.28 1.022,0.854002 h 0.07 l 0.168,-0.994002 h 0.98 v 7.630002 q 0,1.064 -0.364,1.778 -0.364,0.728 -1.106,1.092 -0.742,0.364 -1.89,0.364 -0.812,0 -1.498,-0.126 -0.672,-0.112 -1.204,-0.35 v -1.134 q 0.532,0.28 1.246,0.434 0.714,0.154 1.526,0.154 0.966,0 1.512,-0.574 0.56,-0.56 0.56,-1.54 v -0.294 q 0,-0.168 0.014,-0.476 0.014,-0.322 0.028,-0.448 h -0.056 q -0.392,0.574 -0.98,0.854 -0.574,0.28 -1.344,0.28 -1.456,0 -2.282,-1.022 -0.812,-1.022 -0.812,-2.856 0,-1.792 0.812,-2.842 0.826,-1.064002 2.268,-1.064002 z m 0.168,1.036002 q -0.63,0 -1.078,0.336 -0.434,0.336 -0.672,0.98 -0.224,0.644 -0.224,1.568 0,1.386 0.504,2.128 0.518,0.728 1.498,0.728 0.574,0 0.98,-0.14 0.406,-0.154 0.672,-0.462 0.266,-0.322 0.392,-0.812 0.126,-0.49 0.126,-1.162 v -0.294 q 0,-1.022 -0.238,-1.652 -0.224,-0.63 -0.714,-0.924 -0.49,-0.294 -1.246,-0.294 z m 9.03121,-1.036002 q 0.742,0 1.33,0.28 0.602,0.28 1.022,0.854002 h 0.07 l 0.168,-0.994002 h 0.98 v 7.630002 q 0,1.064 -0.364,1.778 -0.364,0.728 -1.106,1.092 -0.742,0.364 -1.89,0.364 -0.812,0 -1.498,-0.126 -0.672,-0.112 -1.204,-0.35 v -1.134 q 0.532,0.28 1.246,0.434 0.714,0.154 1.526,0.154 0.966,0 1.512,-0.574 0.56,-0.56 0.56,-1.54 v -0.294 q 0,-0.168 0.014,-0.476 0.014,-0.322 0.028,-0.448 h -0.056 q -0.392,0.574 -0.98,0.854 -0.574,0.28 -1.344,0.28 -1.456,0 -2.282,-1.022 -0.812,-1.022 -0.812,-2.856 0,-1.792 0.812,-2.842 0.826,-1.064002 2.268,-1.064002 z m 0.168,1.036002 q -0.63,0 -1.078,0.336 -0.434,0.336 -0.672,0.98 -0.224,0.644 -0.224,1.568 0,1.386 0.504,2.128 0.518,0.728 1.498,0.728 0.574,0 0.98,-0.14 0.406,-0.154 0.672,-0.462 0.266,-0.322 0.392,-0.812 0.126,-0.49 0.126,-1.162 v -0.294 q 0,-1.022 -0.238,-1.652 -0.224,-0.63 -0.714,-0.924 -0.49,-0.294 -1.246,-0.294 z m 7.60319,-0.896002 v 7.504002 h -1.232 v -7.504002 z m -0.602,-2.814 q 0.28,0 0.49,0.196 0.224,0.182 0.224,0.588 0,0.392 -0.224,0.588 -0.21,0.196 -0.49,0.196 -0.308,0 -0.518,-0.196 -0.21,-0.196 -0.21,-0.588 0,-0.406 0.21,-0.588 0.21,-0.196 0.518,-0.196 z m 10.0952,6.552002 q 0,0.938 -0.252,1.666 -0.238,0.714 -0.7,1.218 -0.448,0.504 -1.106,0.77 -0.644,0.252 -1.442,0.252 -0.742,0 -1.372,-0.252 -0.63,-0.266 -1.092,-0.77 -0.462,-0.504 -0.728,-1.218 -0.252,-0.728 -0.252,-1.666 0,-1.246 0.42,-2.1 0.42,-0.868002 1.204,-1.316002 0.784,-0.462 1.862,-0.462 1.022,0 1.792,0.462 0.784,0.448 1.218,1.316002 0.448,0.854 0.448,2.1 z m -5.67,0 q 0,0.882 0.224,1.54 0.238,0.644 0.728,0.994 0.49,0.35 1.246,0.35 0.756,0 1.246,-0.35 0.49,-0.35 0.714,-0.994 0.238,-0.658 0.238,-1.54 0,-0.896 -0.238,-1.526 -0.238,-0.63 -0.728,-0.966 -0.476,-0.35 -1.246,-0.35 -1.148,0 -1.666,0.756 -0.518,0.756 -0.518,2.086 z m 18.8744,3.766 -1.204,-3.094 h -3.962 l -1.19,3.094 h -1.274 l 3.906,-10.038002 h 1.134 l 3.892,10.038002 z m -2.702,-7.238002 q -0.042,-0.112 -0.14,-0.406 -0.098,-0.294 -0.196,-0.602 -0.084,-0.322 -0.14,-0.49 -0.07,0.28 -0.154,0.574 -0.07,0.28 -0.154,0.518 -0.07,0.238 -0.126,0.406 l -1.134,3.024002 h 3.164 z m 12.0692,-0.266 v 7.504002 h -1.008 l -0.182,-0.994 h -0.056 q -0.238,0.392 -0.616,0.644 -0.378,0.252 -0.826,0.364 -0.448,0.126 -0.938,0.126 -0.896,0 -1.512,-0.28 -0.602,-0.294 -0.91,-0.896 -0.308,-0.602 -0.308,-1.554 v -4.914002 h 1.246 v 4.830002 q 0,0.896 0.406,1.344 0.406,0.448 1.26,0.448 0.84,0 1.316,-0.308 0.49,-0.322 0.686,-0.924 0.21,-0.616 0.21,-1.484 v -3.906002 z m 5.47521,6.636002 q 0.28,0 0.574,-0.042 0.294,-0.056 0.476,-0.112 v 0.938 q -0.196,0.098 -0.56,0.154 -0.364,0.07 -0.7,0.07 -0.588,0 -1.092,-0.196 -0.49,-0.21 -0.798,-0.714 -0.308,-0.504 -0.308,-1.414 v -4.368 h -1.064 v -0.588002 l 1.078,-0.49 0.49,-1.596 h 0.728 v 1.722 h 2.17 v 0.952002 h -2.17 v 4.34 q 0,0.686 0.322,1.022 0.336,0.322 0.854,0.322 z m 9.6612,-2.898 q 0,0.938 -0.252,1.666 -0.238,0.714 -0.7,1.218 -0.448,0.504 -1.106,0.77 -0.644,0.252 -1.442,0.252 -0.742,0 -1.372,-0.252 -0.63,-0.266 -1.092,-0.77 -0.462,-0.504 -0.728,-1.218 -0.252,-0.728 -0.252,-1.666 0,-1.246 0.42,-2.1 0.42,-0.868002 1.204,-1.316002 0.784,-0.462 1.862,-0.462 1.022,0 1.792,0.462 0.784,0.448 1.218,1.316002 0.448,0.854 0.448,2.1 z m -5.67,0 q 0,0.882 0.224,1.54 0.238,0.644 0.728,0.994 0.49,0.35 1.246,0.35 0.756,0 1.246,-0.35 0.49,-0.35 0.714,-0.994 0.238,-0.658 0.238,-1.54 0,-0.896 -0.238,-1.526 -0.238,-0.63 -0.728,-0.966 -0.476,-0.35 -1.246,-0.35 -1.148,0 -1.666,0.756 -0.518,0.756 -0.518,2.086 z m 16.43721,-3.878002 q 1.274,0 1.904,0.658 0.63,0.644002 0.63,2.100002 v 4.886 h -1.218 v -4.83 q 0,-0.882 -0.378,-1.33 -0.364,-0.448 -1.148,-0.448 -1.092,0 -1.568,0.63 -0.462,0.63 -0.462,1.834 v 4.144 h -1.218 v -4.83 q 0,-0.588 -0.168,-0.98 -0.168,-0.406 -0.504,-0.602 -0.336,-0.196 -0.868,-0.196 -0.756,0 -1.19,0.322 -0.434,0.308 -0.63,0.91 -0.182,0.602 -0.182,1.484 v 3.892 h -1.232 v -7.504002 h 0.994 l 0.182,1.022002 h 0.07 q 0.238,-0.392002 0.574,-0.644002 0.35,-0.266 0.77,-0.392 0.42,-0.126 0.868,-0.126 0.868,0 1.442,0.308 0.588,0.308 0.854,0.952002 h 0.07 q 0.378,-0.644002 1.022,-0.952002 0.658,-0.308 1.386,-0.308 z m 8.28918,0.014 q 1.372,0 2.03,0.602 0.658,0.602002 0.658,1.918002 v 5.11 h -0.896 l -0.238,-1.064 h -0.056 q -0.322,0.406 -0.672,0.686 -0.336,0.266 -0.784,0.392 -0.434,0.126 -1.064,0.126 -0.672,0 -1.218,-0.238 -0.532,-0.238 -0.84,-0.728 -0.308,-0.504 -0.308,-1.26 0,-1.12 0.882,-1.722 0.882,-0.616 2.716,-0.672 l 1.274,-0.042 v -0.448 q 0,-0.938 -0.406,-1.302 -0.406,-0.364 -1.148,-0.364 -0.588,0 -1.12,0.182 -0.532,0.168 -0.994,0.392 l -0.378,-0.924002 q 0.49,-0.266 1.162,-0.448 0.672,-0.196 1.4,-0.196 z m 0.364,4.004002 q -1.4,0.056 -1.946,0.448 -0.532,0.392 -0.532,1.106 0,0.63 0.378,0.924 0.392,0.294 0.994,0.294 0.952,0 1.582,-0.518 0.63,-0.532 0.63,-1.624 v -0.672 z m 7.74322,2.758 q 0.28,0 0.574,-0.042 0.294,-0.056 0.476,-0.112 v 0.938 q -0.196,0.098 -0.56,0.154 -0.364,0.07 -0.7,0.07 -0.588,0 -1.092,-0.196 -0.49,-0.21 -0.798,-0.714 -0.308,-0.504 -0.308,-1.414 v -4.368 h -1.064 v -0.588002 l 1.078,-0.49 0.49,-1.596 h 0.728 v 1.722 h 2.17 v 0.952002 h -2.17 v 4.34 q 0,0.686 0.322,1.022 0.336,0.322 0.854,0.322 z m 4.36921,-6.636002 v 7.504002 h -1.232 v -7.504002 z m -0.602,-2.814 q 0.28,0 0.49,0.196 0.224,0.182 0.224,0.588 0,0.392 -0.224,0.588 -0.21,0.196 -0.49,0.196 -0.308,0 -0.518,-0.196 -0.21,-0.196 -0.21,-0.588 0,-0.406 0.21,-0.588 0.21,-0.196 0.518,-0.196 z m 6.58119,10.458002 q -0.994,0 -1.778,-0.406 -0.77,-0.406 -1.218,-1.26 -0.434,-0.854 -0.434,-2.184 0,-1.386 0.462,-2.254 0.462,-0.868002 1.246,-1.274002 0.798,-0.406 1.806,-0.406 0.574,0 1.106,0.126 0.532,0.112 0.868,0.28 l -0.378,1.022002 q -0.336,-0.126 -0.784,-0.238 -0.448,-0.112 -0.84,-0.112 -0.756,0 -1.246,0.322 -0.49,0.322 -0.728,0.952 -0.238,0.63 -0.238,1.568 0,0.896 0.238,1.526 0.238,0.63 0.714,0.952 0.476,0.322 1.19,0.322 0.616,0 1.078,-0.126 0.476,-0.126 0.868,-0.308 v 1.092 q -0.378,0.196 -0.84,0.294 -0.448,0.112 -1.092,0.112 z m 10.8232,-3.906 q 0,0.938 -0.252,1.666 -0.238,0.714 -0.7,1.218 -0.448,0.504 -1.106,0.77 -0.644,0.252 -1.442,0.252 -0.742,0 -1.372,-0.252 -0.63,-0.266 -1.092,-0.77 -0.462,-0.504 -0.728,-1.218 -0.252,-0.728 -0.252,-1.666 0,-1.246 0.42,-2.1 0.42,-0.868002 1.204,-1.316002 0.784,-0.462 1.862,-0.462 1.022,0 1.792,0.462 0.784,0.448 1.218,1.316002 0.448,0.854 0.448,2.1 z m -5.67,0 q 0,0.882 0.224,1.54 0.238,0.644 0.728,0.994 0.49,0.35 1.246,0.35 0.756,0 1.246,-0.35 0.49,-0.35 0.714,-0.994 0.238,-0.658 0.238,-1.54 0,-0.896 -0.238,-1.526 -0.238,-0.63 -0.728,-0.966 -0.476,-0.35 -1.246,-0.35 -1.148,0 -1.666,0.756 -0.518,0.756 -0.518,2.086 z"
         id="text2"
         style="font-size:14px"
         aria-label="UC-14: Salvataggio Automatico" />
    </g>
    <!--entity UC15-->
    <g
       class="entity"
       data-entity="UC15"
       data-source-line="14"
       data-uid="ent0005"
       id="entity_UC15">
      <ellipse
         cx="599.1383"
         cy="182.0037"
         fill="#F1F1F1"
         rx="108.7183"
         ry="24.1437"
         style="stroke:#181818;stroke-width:0.5;"
         id="ellipse2" />
      <path
         d="m 510.54609,183.1241 q 0,1.036 -0.42,1.876 -0.42,0.826 -1.288,1.316 -0.854,0.476 -2.184,0.476 -1.862,0 -2.842,-1.008 -0.966,-1.022 -0.966,-2.688 v -6.44 h 1.26 v 6.482 q 0,1.218 0.644,1.89 0.658,0.672 1.974,0.672 0.91,0 1.47,-0.322 0.574,-0.336 0.84,-0.91 0.266,-0.588 0.266,-1.344 v -6.468 h 1.246 z m 7.49339,-5.502 q -0.798,0 -1.442,0.28 -0.644,0.266 -1.092,0.798 -0.448,0.518 -0.686,1.274 -0.238,0.742 -0.238,1.68 0,1.232 0.378,2.142 0.392,0.91 1.148,1.4 0.77,0.49 1.918,0.49 0.658,0 1.246,-0.112 0.588,-0.112 1.148,-0.28 v 1.092 q -0.56,0.21 -1.162,0.308 -0.588,0.098 -1.414,0.098 -1.526,0 -2.548,-0.63 -1.022,-0.63 -1.54,-1.792 -0.504,-1.162 -0.504,-2.73 0,-1.134 0.308,-2.072 0.322,-0.938 0.924,-1.624 0.616,-0.686 1.512,-1.05 0.896,-0.378 2.058,-0.378 0.77,0 1.484,0.154 0.714,0.154 1.274,0.434 l -0.504,1.064 q -0.462,-0.21 -1.036,-0.378 -0.56,-0.168 -1.232,-0.168 z m 4.34338,5.824 v -1.092 h 3.388 v 1.092 z m 9.49539,3.206 h -1.204 v -6.986 q 0,-0.406 0,-0.686 0.014,-0.28 0.028,-0.518 0.014,-0.252 0.028,-0.518 -0.224,0.224 -0.406,0.378 -0.182,0.154 -0.462,0.392 l -1.064,0.868 -0.644,-0.826 2.702,-2.1 h 1.022 z m 7.46539,-6.132 q 1.022,0 1.778,0.35 0.756,0.35 1.162,1.008 0.42,0.644 0.42,1.582 0,1.036 -0.448,1.792 -0.448,0.742 -1.288,1.148 -0.826,0.392 -2.002,0.392 -0.77,0 -1.456,-0.14 -0.672,-0.14 -1.134,-0.406 v -1.162 q 0.504,0.308 1.218,0.49 0.728,0.168 1.386,0.168 0.742,0 1.288,-0.224 0.56,-0.238 0.868,-0.714 0.308,-0.49 0.308,-1.218 0,-0.98 -0.602,-1.498 -0.602,-0.532 -1.904,-0.532 -0.392,0 -0.896,0.07 -0.504,0.07 -0.812,0.14 l -0.616,-0.392 0.378,-4.718 h 5.012 v 1.12 h -3.962 l -0.238,2.898 q 0.238,-0.042 0.644,-0.098 0.406,-0.056 0.896,-0.056 z m 5.74338,5.376 q 0,-0.518 0.252,-0.728 0.252,-0.21 0.602,-0.21 0.364,0 0.616,0.21 0.266,0.21 0.266,0.728 0,0.504 -0.266,0.728 -0.252,0.224 -0.616,0.224 -0.35,0 -0.602,-0.224 -0.252,-0.224 -0.252,-0.728 z m 0,-5.992 q 0,-0.532 0.252,-0.742 0.252,-0.21 0.602,-0.21 0.364,0 0.616,0.21 0.266,0.21 0.266,0.742 0,0.504 -0.266,0.728 -0.252,0.224 -0.616,0.224 -0.35,0 -0.602,-0.224 -0.252,-0.224 -0.252,-0.728 z m 13.18076,-2.282 q -0.798,0 -1.442,0.28 -0.644,0.266 -1.092,0.798 -0.448,0.518 -0.686,1.274 -0.238,0.742 -0.238,1.68 0,1.232 0.378,2.142 0.392,0.91 1.148,1.4 0.77,0.49 1.918,0.49 0.658,0 1.246,-0.112 0.588,-0.112 1.148,-0.28 v 1.092 q -0.56,0.21 -1.162,0.308 -0.588,0.098 -1.414,0.098 -1.526,0 -2.548,-0.63 -1.022,-0.63 -1.54,-1.792 -0.504,-1.162 -0.504,-2.73 0,-1.134 0.308,-2.072 0.322,-0.938 0.924,-1.624 0.616,-0.686 1.512,-1.05 0.896,-0.378 2.058,-0.378 0.77,0 1.484,0.154 0.714,0.154 1.274,0.434 l -0.504,1.064 q -0.462,-0.21 -1.036,-0.378 -0.56,-0.168 -1.232,-0.168 z m 7.81538,1.4 q 1.372,0 2.03,0.602 0.658,0.602 0.658,1.918 v 5.11 h -0.896 l -0.238,-1.064 h -0.056 q -0.322,0.406 -0.672,0.686 -0.336,0.266 -0.784,0.392 -0.434,0.126 -1.064,0.126 -0.672,0 -1.218,-0.238 -0.532,-0.238 -0.84,-0.728 -0.308,-0.504 -0.308,-1.26 0,-1.12 0.882,-1.722 0.882,-0.616 2.716,-0.672 l 1.274,-0.042 v -0.448 q 0,-0.938 -0.406,-1.302 -0.406,-0.364 -1.148,-0.364 -0.588,0 -1.12,0.182 -0.532,0.168 -0.994,0.392 l -0.378,-0.924 q 0.49,-0.266 1.162,-0.448 0.672,-0.196 1.4,-0.196 z m 0.364,4.004 q -1.4,0.056 -1.946,0.448 -0.532,0.392 -0.532,1.106 0,0.63 0.378,0.924 0.392,0.294 0.994,0.294 0.952,0 1.582,-0.518 0.63,-0.532 0.63,-1.624 v -0.672 z m 8.72539,-4.018 q 0.21,0 0.448,0.028 0.252,0.014 0.434,0.056 l -0.154,1.134 q -0.182,-0.042 -0.406,-0.07 -0.21,-0.028 -0.406,-0.028 -0.434,0 -0.826,0.182 -0.392,0.182 -0.7,0.518 -0.308,0.322 -0.49,0.784 -0.168,0.462 -0.168,1.036 v 4.004 h -1.232 v -7.504 h 1.008 l 0.14,1.372 h 0.056 q 0.238,-0.42 0.574,-0.756 0.336,-0.35 0.77,-0.546 0.434,-0.21 0.952,-0.21 z m 4.09138,0.14 v 7.504 h -1.232 v -7.504 z m -0.602,-2.814 q 0.28,0 0.49,0.196 0.224,0.182 0.224,0.588 0,0.392 -0.224,0.588 -0.21,0.196 -0.49,0.196 -0.308,0 -0.518,-0.196 -0.21,-0.196 -0.21,-0.588 0,-0.406 0.21,-0.588 0.21,-0.196 0.518,-0.196 z m 6.56937,10.458 q -0.994,0 -1.778,-0.406 -0.77,-0.406 -1.218,-1.26 -0.434,-0.854 -0.434,-2.184 0,-1.386 0.462,-2.254 0.462,-0.868 1.246,-1.274 0.798,-0.406 1.806,-0.406 0.574,0 1.106,0.126 0.532,0.112 0.868,0.28 l -0.378,1.022 q -0.336,-0.126 -0.784,-0.238 -0.448,-0.112 -0.84,-0.112 -0.756,0 -1.246,0.322 -0.49,0.322 -0.728,0.952 -0.238,0.63 -0.238,1.568 0,0.896 0.238,1.526 0.238,0.63 0.714,0.952 0.476,0.322 1.19,0.322 0.616,0 1.078,-0.126 0.476,-0.126 0.868,-0.308 v 1.092 q -0.378,0.196 -0.84,0.294 -0.448,0.112 -1.092,0.112 z m 7.12937,-7.77 q 1.372,0 2.03,0.602 0.658,0.602 0.658,1.918 v 5.11 h -0.896 l -0.238,-1.064 h -0.056 q -0.322,0.406 -0.672,0.686 -0.336,0.266 -0.784,0.392 -0.434,0.126 -1.064,0.126 -0.672,0 -1.218,-0.238 -0.532,-0.238 -0.84,-0.728 -0.308,-0.504 -0.308,-1.26 0,-1.12 0.882,-1.722 0.882,-0.616 2.716,-0.672 l 1.274,-0.042 v -0.448 q 0,-0.938 -0.406,-1.302 -0.406,-0.364 -1.148,-0.364 -0.588,0 -1.12,0.182 -0.532,0.168 -0.994,0.392 l -0.378,-0.924 q 0.49,-0.266 1.162,-0.448 0.672,-0.196 1.4,-0.196 z m 0.364,4.004 q -1.4,0.056 -1.946,0.448 -0.532,0.392 -0.532,1.106 0,0.63 0.378,0.924 0.392,0.294 0.994,0.294 0.952,0 1.582,-0.518 0.63,-0.532 0.63,-1.624 v -0.672 z m 13.4574,-4.018 q 1.274,0 1.904,0.658 0.63,0.644 0.63,2.1 v 4.886 h -1.218 v -4.83 q 0,-0.882 -0.378,-1.33 -0.364,-0.448 -1.148,-0.448 -1.092,0 -1.568,0.63 -0.462,0.63 -0.462,1.834 v 4.144 h -1.218 v -4.83 q 0,-0.588 -0.168,-0.98 -0.168,-0.406 -0.504,-0.602 -0.336,-0.196 -0.868,-0.196 -0.756,0 -1.19,0.322 -0.434,0.308 -0.63,0.91 -0.182,0.602 -0.182,1.484 v 3.892 h -1.232 v -7.504 h 0.994 l 0.182,1.022 h 0.07 q 0.238,-0.392 0.574,-0.644 0.35,-0.266 0.77,-0.392 0.42,-0.126 0.868,-0.126 0.868,0 1.442,0.308 0.588,0.308 0.854,0.952 h 0.07 q 0.378,-0.644 1.022,-0.952 0.658,-0.308 1.386,-0.308 z m 8.33337,0 q 0.966,0 1.652,0.42 0.7,0.42 1.064,1.19 0.378,0.756 0.378,1.778 v 0.742 h -5.138 q 0.028,1.274 0.644,1.946 0.63,0.658 1.75,0.658 0.714,0 1.26,-0.126 0.56,-0.14 1.148,-0.392 v 1.078 q -0.574,0.252 -1.134,0.364 -0.56,0.126 -1.33,0.126 -1.064,0 -1.89,-0.434 -0.812,-0.434 -1.274,-1.288 -0.448,-0.868 -0.448,-2.114 0,-1.232 0.406,-2.114 0.42,-0.882 1.162,-1.358 0.756,-0.476 1.75,-0.476 z m -0.014,1.008 q -0.882,0 -1.4,0.574 -0.504,0.56 -0.602,1.568 h 3.822 q 0,-0.644 -0.196,-1.12 -0.196,-0.476 -0.602,-0.742 -0.392,-0.28 -1.022,-0.28 z m 9.20137,-1.008 q 1.344,0 2.03,0.658 0.686,0.644 0.686,2.1 v 4.886 h -1.218 v -4.802 q 0,-0.91 -0.406,-1.358 -0.406,-0.448 -1.274,-0.448 -1.246,0 -1.722,0.7 -0.476,0.7 -0.476,2.016 v 3.892 h -1.232 v -7.504 h 0.994 l 0.182,1.022 h 0.07 q 0.252,-0.392 0.616,-0.644 0.378,-0.266 0.826,-0.392 0.448,-0.126 0.924,-0.126 z m 8.12338,6.776 q 0.28,0 0.574,-0.042 0.294,-0.056 0.476,-0.112 v 0.938 q -0.196,0.098 -0.56,0.154 -0.364,0.07 -0.7,0.07 -0.588,0 -1.092,-0.196 -0.49,-0.21 -0.798,-0.714 -0.308,-0.504 -0.308,-1.414 v -4.368 h -1.064 v -0.588 l 1.078,-0.49 0.49,-1.596 h 0.728 v 1.722 h 2.17 v 0.952 h -2.17 v 4.34 q 0,0.686 0.322,1.022 0.336,0.322 0.854,0.322 z m 9.64938,-2.898 q 0,0.938 -0.252,1.666 -0.238,0.714 -0.7,1.218 -0.448,0.504 -1.106,0.77 -0.644,0.252 -1.442,0.252 -0.742,0 -1.372,-0.252 -0.63,-0.266 -1.092,-0.77 -0.462,-0.504 -0.728,-1.218 -0.252,-0.728 -0.252,-1.666 0,-1.246 0.42,-2.1 0.42,-0.868 1.204,-1.316 0.784,-0.462 1.862,-0.462 1.022,0 1.792,0.462 0.784,0.448 1.218,1.316 0.448,0.854 0.448,2.1 z m -5.67,0 q 0,0.882 0.224,1.54 0.238,0.644 0.728,0.994 0.49,0.35 1.246,0.35 0.756,0 1.246,-0.35 0.49,-0.35 0.714,-0.994 0.238,-0.658 0.238,-1.54 0,-0.896 -0.238,-1.526 -0.238,-0.63 -0.728,-0.966 -0.476,-0.35 -1.246,-0.35 -1.148,0 -1.666,0.756 -0.518,0.756 -0.518,2.086 z m 15.25275,-3.864 q 1.372,0 2.03,0.602 0.658,0.602 0.658,1.918 v 5.11 h -0.896 l -0.238,-1.064 h -0.056 q -0.322,0.406 -0.672,0.686 -0.336,0.266 -0.784,0.392 -0.434,0.126 -1.064,0.126 -0.672,0 -1.218,-0.238 -0.532,-0.238 -0.84,-0.728 -0.308,-0.504 -0.308,-1.26 0,-1.12 0.882,-1.722 0.882,-0.616 2.716,-0.672 l 1.274,-0.042 v -0.448 q 0,-0.938 -0.406,-1.302 -0.406,-0.364 -1.148,-0.364 -0.588,0 -1.12,0.182 -0.532,0.168 -0.994,0.392 l -0.378,-0.924 q 0.49,-0.266 1.162,-0.448 0.672,-0.196 1.4,-0.196 z m 0.364,4.004 q -1.4,0.056 -1.946,0.448 -0.532,0.392 -0.532,1.106 0,0.63 0.378,0.924 0.392,0.294 0.994,0.294 0.952,0 1.582,-0.518 0.63,-0.532 0.63,-1.624 v -0.672 z m 6.4574,3.626 h -1.232 v -10.64 h 1.232 z m 10.19875,-9.996 q 1.876,0 2.828,0.56 0.966,0.546 0.966,1.918 0,0.588 -0.224,1.05 -0.21,0.448 -0.644,0.756 -0.42,0.294 -1.036,0.406 v 0.07 q 0.63,0.098 1.134,0.364 0.518,0.266 0.812,0.756 0.294,0.49 0.294,1.274 0,0.91 -0.42,1.554 -0.42,0.63 -1.204,0.966 -0.77,0.322 -1.848,0.322 h -3.514 v -9.996 z m 0.252,4.256 q 1.288,0 1.764,-0.406 0.476,-0.42 0.476,-1.232 0,-0.826 -0.588,-1.176 -0.574,-0.364 -1.848,-0.364 h -1.652 v 3.178 z m -1.848,1.05 v 3.626 h 2.016 q 1.33,0 1.848,-0.518 0.518,-0.518 0.518,-1.358 0,-0.532 -0.238,-0.924 -0.224,-0.392 -0.77,-0.602 -0.532,-0.224 -1.456,-0.224 z m 14.77337,0.924 q 0,0.938 -0.252,1.666 -0.238,0.714 -0.7,1.218 -0.448,0.504 -1.106,0.77 -0.644,0.252 -1.442,0.252 -0.742,0 -1.372,-0.252 -0.63,-0.266 -1.092,-0.77 -0.462,-0.504 -0.728,-1.218 -0.252,-0.728 -0.252,-1.666 0,-1.246 0.42,-2.1 0.42,-0.868 1.204,-1.316 0.784,-0.462 1.862,-0.462 1.022,0 1.792,0.462 0.784,0.448 1.218,1.316 0.448,0.854 0.448,2.1 z m -5.67,0 q 0,0.882 0.224,1.54 0.238,0.644 0.728,0.994 0.49,0.35 1.246,0.35 0.756,0 1.246,-0.35 0.49,-0.35 0.714,-0.994 0.238,-0.658 0.238,-1.54 0,-0.896 -0.238,-1.526 -0.238,-0.63 -0.728,-0.966 -0.476,-0.35 -1.246,-0.35 -1.148,0 -1.666,0.756 -0.518,0.756 -0.518,2.086 z m 14.71738,0 q 0,0.938 -0.252,1.666 -0.238,0.714 -0.7,1.218 -0.448,0.504 -1.106,0.77 -0.644,0.252 -1.442,0.252 -0.742,0 -1.372,-0.252 -0.63,-0.266 -1.092,-0.77 -0.462,-0.504 -0.728,-1.218 -0.252,-0.728 -0.252,-1.666 0,-1.246 0.42,-2.1 0.42,-0.868 1.204,-1.316 0.784,-0.462 1.862,-0.462 1.022,0 1.792,0.462 0.784,0.448 1.218,1.316 0.448,0.854 0.448,2.1 z m -5.67,0 q 0,0.882 0.224,1.54 0.238,0.644 0.728,0.994 0.49,0.35 1.246,0.35 0.756,0 1.246,-0.35 0.49,-0.35 0.714,-0.994 0.238,-0.658 0.238,-1.54 0,-0.896 -0.238,-1.526 -0.238,-0.63 -0.728,-0.966 -0.476,-0.35 -1.246,-0.35 -1.148,0 -1.666,0.756 -0.518,0.756 -0.518,2.086 z m 10.69938,2.898 q 0.28,0 0.574,-0.042 0.294,-0.056 0.476,-0.112 v 0.938 q -0.196,0.098 -0.56,0.154 -0.364,0.07 -0.7,0.07 -0.588,0 -1.092,-0.196 -0.49,-0.21 -0.798,-0.714 -0.308,-0.504 -0.308,-1.414 v -4.368 h -1.064 v -0.588 l 1.078,-0.49 0.49,-1.596 h 0.728 v 1.722 h 2.17 v 0.952 h -2.17 v 4.34 q 0,0.686 0.322,1.022 0.336,0.322 0.854,0.322 z"
         id="text3"
         style="font-size:14px"
         aria-label="UC-15: Caricamento al Boot" />
    </g>
    <!--entity NFR07-->
    <g
       class="entity"
       data-entity="NFR07"
       data-source-line="20"
       data-uid="ent0007"
       id="entity_NFR07">
      <ellipse
         cx="599.1415"
         cy="101.0003"
         fill="#F1F1F1"
         rx="96.8515"
         ry="21.7703"
         style="stroke:#181818;stroke-width:0.5;"
         id="ellipse3" />
      <path
         d="m 521.5386,105.6487 h -5.586 v -9.996003 h 5.586 v 1.106 h -4.326 v 3.122 h 4.074 v 1.092003 h -4.074 v 3.57 h 4.326 z m 7.61142,-2.072 q 0,0.728 -0.364,1.218 -0.364,0.49 -1.036,0.742 -0.672,0.252 -1.596,0.252 -0.784,0 -1.358,-0.126 -0.56,-0.126 -0.994,-0.35 v -1.12 q 0.448,0.224 1.078,0.42 0.644,0.182 1.302,0.182 0.938,0 1.358,-0.294 0.42,-0.308 0.42,-0.812 0,-0.28 -0.154,-0.504 -0.154,-0.224 -0.56,-0.448 -0.392,-0.224 -1.134,-0.504 -0.728,-0.28 -1.246,-0.56 -0.518,-0.28 -0.798,-0.672 -0.28,-0.392 -0.28,-1.008003 0,-0.952 0.77,-1.47 0.784,-0.518 2.044,-0.518 0.686,0 1.274,0.14 0.602,0.126 1.12,0.364 l -0.42,0.98 q -0.476,-0.196 -0.994,-0.336 -0.518,-0.14 -1.064,-0.14 -0.756,0 -1.162,0.252 -0.392,0.238 -0.392,0.658 0,0.308003 0.182,0.532003 0.182,0.21 0.602,0.42 0.434,0.196 1.148,0.476 0.714,0.266 1.218,0.546 0.504,0.28 0.77,0.686 0.266,0.392 0.266,0.994 z m 5.41342,-5.572003 q 0.966,0 1.652,0.42 0.7,0.42 1.064,1.19 0.378,0.756003 0.378,1.778003 v 0.742 h -5.138 q 0.028,1.274 0.644,1.946 0.63,0.658 1.75,0.658 0.714,0 1.26,-0.126 0.56,-0.14 1.148,-0.392 v 1.078 q -0.574,0.252 -1.134,0.364 -0.56,0.126 -1.33,0.126 -1.064,0 -1.89,-0.434 -0.812,-0.434 -1.274,-1.288 -0.448,-0.868 -0.448,-2.114 0,-1.232 0.406,-2.114003 0.42,-0.882 1.162,-1.358 0.756,-0.476 1.75,-0.476 z m -0.014,1.008 q -0.882,0 -1.4,0.574 -0.504,0.560003 -0.602,1.568003 h 3.822 q 0,-0.644 -0.196,-1.12 -0.196,-0.476003 -0.602,-0.742003 -0.392,-0.28 -1.022,-0.28 z m 8.36741,-1.008 q 0.742,0 1.33,0.28 0.602,0.28 1.022,0.854 h 0.07 l 0.168,-0.994 h 0.98 v 7.630003 q 0,1.064 -0.364,1.778 -0.364,0.728 -1.106,1.092 -0.742,0.364 -1.89,0.364 -0.812,0 -1.498,-0.126 -0.672,-0.112 -1.204,-0.35 v -1.134 q 0.532,0.28 1.246,0.434 0.714,0.154 1.526,0.154 0.966,0 1.512,-0.574 0.56,-0.56 0.56,-1.54 v -0.294 q 0,-0.168 0.014,-0.476 0.014,-0.322 0.028,-0.448 h -0.056 q -0.392,0.574 -0.98,0.854 -0.574,0.28 -1.344,0.28 -1.456,0 -2.282,-1.022 -0.812,-1.022 -0.812,-2.856 0,-1.792 0.812,-2.842003 0.826,-1.064 2.268,-1.064 z m 0.168,1.036 q -0.63,0 -1.078,0.336 -0.434,0.336 -0.672,0.980003 -0.224,0.644 -0.224,1.568 0,1.386 0.504,2.128 0.518,0.728 1.498,0.728 0.574,0 0.98,-0.14 0.406,-0.154 0.672,-0.462 0.266,-0.322 0.392,-0.812 0.126,-0.49 0.126,-1.162 v -0.294 q 0,-1.022 -0.238,-1.652 -0.224,-0.630003 -0.714,-0.924003 -0.49,-0.294 -1.246,-0.294 z m 12.74942,-0.896 v 7.504003 h -1.008 l -0.182,-0.994 h -0.056 q -0.238,0.392 -0.616,0.644 -0.378,0.252 -0.826,0.364 -0.448,0.126 -0.938,0.126 -0.896,0 -1.512,-0.28 -0.602,-0.294 -0.91,-0.896 -0.308,-0.602 -0.308,-1.554 v -4.914003 h 1.246 v 4.830003 q 0,0.896 0.406,1.344 0.406,0.448 1.26,0.448 0.84,0 1.316,-0.308 0.49,-0.322 0.686,-0.924 0.21,-0.616 0.21,-1.484 v -3.906003 z m 4.30742,0 v 7.504003 h -1.232 v -7.504003 z m -0.602,-2.814 q 0.28,0 0.49,0.196 0.224,0.182 0.224,0.588 0,0.392 -0.224,0.588 -0.21,0.196 -0.49,0.196 -0.308,0 -0.518,-0.196 -0.21,-0.196 -0.21,-0.588 0,-0.406 0.21,-0.588 0.21,-0.196 0.518,-0.196 z m 11.03683,0.322 q 1.876,0 2.828,0.56 0.966,0.546 0.966,1.918 0,0.588 -0.224,1.05 -0.21,0.448 -0.644,0.756 -0.42,0.294003 -1.036,0.406003 v 0.07 q 0.63,0.098 1.134,0.364 0.518,0.266 0.812,0.756 0.294,0.49 0.294,1.274 0,0.91 -0.42,1.554 -0.42,0.63 -1.204,0.966 -0.77,0.322 -1.848,0.322 h -3.514 v -9.996003 z m 0.252,4.256 q 1.288,0 1.764,-0.406 0.476,-0.42 0.476,-1.232 0,-0.826 -0.588,-1.176 -0.574,-0.364 -1.848,-0.364 h -1.652 v 3.178 z m -1.848,1.050003 v 3.626 h 2.016 q 1.33,0 1.848,-0.518 0.518,-0.518 0.518,-1.358 0,-0.532 -0.238,-0.924 -0.224,-0.392 -0.77,-0.602 -0.532,-0.224 -1.456,-0.224 z m 11.20942,-2.940003 q 1.372,0 2.03,0.602 0.658,0.602 0.658,1.918003 v 5.11 h -0.896 l -0.238,-1.064 h -0.056 q -0.322,0.406 -0.672,0.686 -0.336,0.266 -0.784,0.392 -0.434,0.126 -1.064,0.126 -0.672,0 -1.218,-0.238 -0.532,-0.238 -0.84,-0.728 -0.308,-0.504 -0.308,-1.26 0,-1.12 0.882,-1.722 0.882,-0.616 2.716,-0.672 l 1.274,-0.042 v -0.448 q 0,-0.938003 -0.406,-1.302003 -0.406,-0.364 -1.148,-0.364 -0.588,0 -1.12,0.182 -0.532,0.168 -0.994,0.392 l -0.378,-0.924 q 0.49,-0.266 1.162,-0.448 0.672,-0.196 1.4,-0.196 z m 0.364,4.004003 q -1.4,0.056 -1.946,0.448 -0.532,0.392 -0.532,1.106 0,0.63 0.378,0.924 0.392,0.294 0.994,0.294 0.952,0 1.582,-0.518 0.63,-0.532 0.63,-1.624 v -0.672 z m 8.35343,3.766 q -0.994,0 -1.778,-0.406 -0.77,-0.406 -1.218,-1.26 -0.434,-0.854 -0.434,-2.184 0,-1.386 0.462,-2.254003 0.462,-0.868 1.246,-1.274 0.798,-0.406 1.806,-0.406 0.574,0 1.106,0.126 0.532,0.112 0.868,0.28 l -0.378,1.022 q -0.336,-0.126 -0.784,-0.238 -0.448,-0.112 -0.84,-0.112 -0.756,0 -1.246,0.322 -0.49,0.322 -0.728,0.952003 -0.238,0.63 -0.238,1.568 0,0.896 0.238,1.526 0.238,0.63 0.714,0.952 0.476,0.322 1.19,0.322 0.616,0 1.078,-0.126 0.476,-0.126 0.868,-0.308 v 1.092 q -0.378,0.196 -0.84,0.294 -0.448,0.112 -1.092,0.112 z m 5.62341,-5.222 q 0,0.224 -0.028,0.588 -0.014,0.364 -0.028,0.63 h 0.056 q 0.084,-0.112 0.252,-0.322 0.168,-0.21 0.336,-0.42 0.182,-0.224 0.308,-0.364 l 2.394,-2.534003 h 1.442 l -3.038,3.206003 3.248,4.298 h -1.484 l -2.604,-3.5 -0.854,0.742 v 2.758 h -1.218 V 95.008697 h 1.218 z m 13.22543,-2.422003 v 7.504003 h -1.008 l -0.182,-0.994 h -0.056 q -0.238,0.392 -0.616,0.644 -0.378,0.252 -0.826,0.364 -0.448,0.126 -0.938,0.126 -0.896,0 -1.512,-0.28 -0.602,-0.294 -0.91,-0.896 -0.308,-0.602 -0.308,-1.554 v -4.914003 h 1.246 v 4.830003 q 0,0.896 0.406,1.344 0.406,0.448 1.26,0.448 0.84,0 1.316,-0.308 0.49,-0.322 0.686,-0.924 0.21,-0.616 0.21,-1.484 v -3.906003 z m 6.64542,-0.14 q 1.386,0 2.226,0.966 0.854,0.966 0.854,2.912003 0,1.274 -0.392,2.156 -0.378,0.868 -1.078,1.316 -0.686,0.434 -1.624,0.434 -0.574,0 -1.022,-0.154 -0.448,-0.154 -0.77,-0.392 -0.308,-0.252 -0.532,-0.546 h -0.084 q 0.028,0.238 0.056,0.602 0.028,0.364 0.028,0.63 v 3.08 h -1.232 V 98.144697 h 1.008 l 0.168,1.022 h 0.056 q 0.224,-0.322 0.532,-0.588 0.322,-0.266 0.756,-0.42 0.448,-0.154 1.05,-0.154 z m -0.224,1.036 q -0.756,0 -1.218,0.294 -0.462,0.28 -0.672,0.854003 -0.21,0.574 -0.224,1.456 v 0.238 q 0,0.924 0.196,1.568 0.196,0.644 0.658,0.98 0.476,0.336 1.288,0.336 0.686,0 1.12,-0.378 0.448,-0.378 0.658,-1.022 0.224,-0.658 0.224,-1.498 0,-1.288 -0.504,-2.058003 -0.49,-0.77 -1.526,-0.77 z m 9.66484,2.772003 q 0,-1.148 0.21,-2.240003 0.224,-1.092 0.686,-2.086 0.462,-0.994 1.162,-1.834 h 1.162 q -0.98,1.316 -1.484,2.898 -0.49,1.582003 -0.49,3.248003 0,1.078 0.224,2.142 0.224,1.064 0.658,2.044 0.434,0.994 1.078,1.876 h -1.148 q -0.7,-0.826 -1.162,-1.806 -0.462,-0.966 -0.686,-2.044 -0.21,-1.078 -0.21,-2.198 z m 13.61741,3.836 h -1.47 l -5.348,-8.302003 h -0.056 q 0.028,0.322 0.042,0.77 0.028,0.434 0.042,0.938 0.028,0.49 0.028,1.008003 v 5.586 h -1.162 v -9.996003 h 1.456 l 5.334,8.274003 h 0.056 q -0.014,-0.224 -0.042,-0.672 -0.014,-0.448 -0.042,-0.98 -0.014,-0.532 -0.014,-0.98 v -5.642003 h 1.176 z m 4.67143,0 h -1.26 v -9.996003 h 5.586 v 1.106 h -4.326 v 3.542003 h 4.06 v 1.106 h -4.06 z m 9.45941,-9.996003 q 1.246,0 2.044,0.322 0.812,0.308 1.204,0.938 0.392,0.63 0.392,1.582 0,0.798 -0.294,1.33 -0.294,0.532003 -0.756,0.854003 -0.448,0.308 -0.952,0.49 l 2.744,4.48 h -1.47 l -2.422,-4.13 h -1.988 v 4.13 h -1.26 v -9.996003 z m -0.07,1.092 h -1.428 v 3.710003 h 1.498 q 1.218,0 1.778,-0.476003 0.56,-0.49 0.56,-1.428 0,-0.658 -0.266,-1.05 -0.252,-0.392 -0.784,-0.574 -0.532,-0.182 -1.358,-0.182 z m 5.91741,5.698003 v -1.092 h 3.388 v 1.092 z m 11.96543,-1.806 q 0,1.218 -0.182,2.17 -0.182,0.952 -0.588,1.624 -0.392,0.658 -1.036,1.008 -0.63,0.35 -1.526,0.35 -1.12,0 -1.862,-0.616 -0.728,-0.616 -1.092,-1.764 -0.35,-1.162 -0.35,-2.772 0,-1.624003 0.322,-2.772003 0.336,-1.148 1.064,-1.75 0.728,-0.616 1.918,-0.616 1.12,0 1.862,0.616 0.742,0.602 1.106,1.75 0.364,1.148 0.364,2.772003 z m -5.404,0 q 0,1.372 0.196,2.282 0.21,0.91 0.658,1.372 0.462,0.448 1.218,0.448 0.756,0 1.204,-0.448 0.462,-0.448 0.672,-1.358 0.21,-0.924 0.21,-2.296 0,-1.372003 -0.21,-2.268003 -0.21,-0.91 -0.672,-1.358 -0.448,-0.462 -1.204,-0.462 -0.756,0 -1.218,0.462 -0.448,0.448 -0.658,1.358 -0.196,0.896 -0.196,2.268003 z m 8.68941,5.012 4.102,-8.876003 h -5.39 v -1.12 h 6.706 v 0.952 l -4.06,9.044003 z m 10.43943,-3.836 q 0,1.12 -0.224,2.198 -0.21,1.078 -0.672,2.044 -0.448,0.98 -1.162,1.806 h -1.148 q 0.644,-0.882 1.078,-1.876 0.434,-0.98 0.658,-2.044 0.224,-1.064 0.224,-2.142 0,-1.106 -0.224,-2.184003 -0.224,-1.078 -0.658,-2.086 -0.434,-1.008 -1.092,-1.876 h 1.162 q 0.714,0.84 1.162,1.834 0.462,0.994 0.672,2.086 0.224,1.092003 0.224,2.240003 z"
         id="text4"
         style="font-size:14px"
         aria-label="Esegui Backup (NFR-07)" />
    </g>
    <!--entity NFR08-->
    <g
       class="entity"
       data-entity="NFR08"
       data-source-line="21"
       data-uid="ent0008"
       id="entity_NFR08">
      <ellipse
         cx="936.7366"
         cy="118.9973"
         fill="#F1F1F1"
         rx="105.8866"
         ry="23.5773"
         style="stroke:#181818;stroke-width:0.5;"
         id="ellipse4" />
      <path
         d="m 846.3765,113.6498 q 1.246,0 2.044,0.322 0.812,0.308 1.204,0.938 0.392,0.63 0.392,1.582 0,0.798 -0.294,1.33 -0.294,0.532 -0.756,0.854 -0.448,0.308 -0.952,0.49 l 2.744,4.48 h -1.47 l -2.422,-4.13 h -1.988 v 4.13 h -1.26 v -9.996 z m -0.07,1.092 h -1.428 v 3.71 h 1.498 q 1.218,0 1.778,-0.476 0.56,-0.49 0.56,-1.428 0,-0.658 -0.266,-1.05 -0.252,-0.392 -0.784,-0.574 -0.532,-0.182 -1.358,-0.182 z m 7.68016,1.4 v 7.504 h -1.232 v -7.504 z m -0.602,-2.814 q 0.28,0 0.49,0.196 0.224,0.182 0.224,0.588 0,0.392 -0.224,0.588 -0.21,0.196 -0.49,0.196 -0.308,0 -0.518,-0.196 -0.21,-0.196 -0.21,-0.588 0,-0.406 0.21,-0.588 0.21,-0.196 0.518,-0.196 z m 7.14816,2.674 q 1.386,0 2.226,0.966 0.854,0.966 0.854,2.912 0,1.274 -0.392,2.156 -0.378,0.868 -1.078,1.316 -0.686,0.434 -1.624,0.434 -0.574,0 -1.022,-0.154 -0.448,-0.154 -0.77,-0.392 -0.308,-0.252 -0.532,-0.546 h -0.084 q 0.028,0.238 0.056,0.602 0.028,0.364 0.028,0.63 v 3.08 h -1.232 v -10.864 h 1.008 l 0.168,1.022 h 0.056 q 0.224,-0.322 0.532,-0.588 0.322,-0.266 0.756,-0.42 0.448,-0.154 1.05,-0.154 z m -0.224,1.036 q -0.756,0 -1.218,0.294 -0.462,0.28 -0.672,0.854 -0.21,0.574 -0.224,1.456 v 0.238 q 0,0.924 0.196,1.568 0.196,0.644 0.658,0.98 0.476,0.336 1.288,0.336 0.686,0 1.12,-0.378 0.448,-0.378 0.658,-1.022 0.224,-0.658 0.224,-1.498 0,-1.288 -0.504,-2.058 -0.49,-0.77 -1.526,-0.77 z m 9.36016,-1.036 q 0.21,0 0.448,0.028 0.252,0.014 0.434,0.056 l -0.154,1.134 q -0.182,-0.042 -0.406,-0.07 -0.21,-0.028 -0.406,-0.028 -0.434,0 -0.826,0.182 -0.392,0.182 -0.7,0.518 -0.308,0.322 -0.49,0.784 -0.168,0.462 -0.168,1.036 v 4.004 h -1.232 v -7.504 h 1.008 l 0.14,1.372 h 0.056 q 0.238,-0.42 0.574,-0.756 0.336,-0.35 0.77,-0.546 0.434,-0.21 0.952,-0.21 z m 4.11017,0.14 v 7.504 h -1.232 v -7.504 z m -0.602,-2.814 q 0.28,0 0.49,0.196 0.224,0.182 0.224,0.588 0,0.392 -0.224,0.588 -0.21,0.196 -0.49,0.196 -0.308,0 -0.518,-0.196 -0.21,-0.196 -0.21,-0.588 0,-0.406 0.21,-0.588 0.21,-0.196 0.518,-0.196 z m 8.46415,8.246 q 0,0.728 -0.364,1.218 -0.364,0.49 -1.036,0.742 -0.672,0.252 -1.596,0.252 -0.784,0 -1.358,-0.126 -0.56,-0.126 -0.994,-0.35 v -1.12 q 0.448,0.224 1.078,0.42 0.644,0.182 1.302,0.182 0.938,0 1.358,-0.294 0.42,-0.308 0.42,-0.812 0,-0.28 -0.154,-0.504 -0.154,-0.224 -0.56,-0.448 -0.392,-0.224 -1.134,-0.504 -0.728,-0.28 -1.246,-0.56 -0.518,-0.28 -0.798,-0.672 -0.28,-0.392 -0.28,-1.008 0,-0.952 0.77,-1.47 0.784,-0.518 2.044,-0.518 0.686,0 1.274,0.14 0.602,0.126 1.12,0.364 l -0.42,0.98 q -0.476,-0.196 -0.994,-0.336 -0.518,-0.14 -1.064,-0.14 -0.756,0 -1.162,0.252 -0.392,0.238 -0.392,0.658 0,0.308 0.182,0.532 0.182,0.21 0.602,0.42 0.434,0.196 1.148,0.476 0.714,0.266 1.218,0.546 0.504,0.28 0.77,0.686 0.266,0.392 0.266,0.994 z m 4.92217,1.204 q 0.28,0 0.574,-0.042 0.294,-0.056 0.476,-0.112 v 0.938 q -0.196,0.098 -0.56,0.154 -0.364,0.07 -0.7,0.07 -0.588,0 -1.092,-0.196 -0.49,-0.21 -0.798,-0.714 -0.308,-0.504 -0.308,-1.414 v -4.368 h -1.064 v -0.588 l 1.078,-0.49 0.49,-1.596 h 0.728 v 1.722 h 2.17 v 0.952 h -2.17 v 4.34 q 0,0.686 0.322,1.022 0.336,0.322 0.854,0.322 z m 4.37617,-6.636 v 7.504 h -1.232 v -7.504 z m -0.602,-2.814 q 0.28,0 0.49,0.196 0.224,0.182 0.224,0.588 0,0.392 -0.224,0.588 -0.21,0.196 -0.49,0.196 -0.308,0 -0.518,-0.196 -0.21,-0.196 -0.21,-0.588 0,-0.406 0.21,-0.588 0.21,-0.196 0.518,-0.196 z m 7.19016,2.674 q 1.344,0 2.03,0.658 0.686,0.644 0.686,2.1 v 4.886 h -1.218 v -4.802 q 0,-0.91 -0.406,-1.358 -0.406,-0.448 -1.274,-0.448 -1.246,0 -1.722,0.7 -0.476,0.7 -0.476,2.016 v 3.892 h -1.232 v -7.504 h 0.994 l 0.182,1.022 h 0.07 q 0.252,-0.392 0.616,-0.644 0.378,-0.266 0.826,-0.392 0.448,-0.126 0.924,-0.126 z m 12.16016,3.878 q 0,0.938 -0.252,1.666 -0.238,0.714 -0.7,1.218 -0.448,0.504 -1.106,0.77 -0.644,0.252 -1.442,0.252 -0.742,0 -1.372,-0.252 -0.63,-0.266 -1.092,-0.77 -0.462,-0.504 -0.728,-1.218 -0.252,-0.728 -0.252,-1.666 0,-1.246 0.42,-2.1 0.42,-0.868 1.204,-1.316 0.784,-0.462 1.862,-0.462 1.022,0 1.792,0.462 0.784,0.448 1.218,1.316 0.448,0.854 0.448,2.1 z m -5.67,0 q 0,0.882 0.224,1.54 0.238,0.644 0.728,0.994 0.49,0.35 1.246,0.35 0.756,0 1.246,-0.35 0.49,-0.35 0.714,-0.994 0.238,-0.658 0.238,-1.54 0,-0.896 -0.238,-1.526 -0.238,-0.63 -0.728,-0.966 -0.476,-0.35 -1.246,-0.35 -1.148,0 -1.666,0.756 -0.518,0.756 -0.518,2.086 z m 15.47233,-6.23 q 1.876,0 2.828,0.56 0.966,0.546 0.966,1.918 0,0.588 -0.224,1.05 -0.21,0.448 -0.644,0.756 -0.42,0.294 -1.036,0.406 v 0.07 q 0.63,0.098 1.134,0.364 0.518,0.266 0.812,0.756 0.294,0.49 0.294,1.274 0,0.91 -0.42,1.554 -0.42,0.63 -1.204,0.966 -0.77,0.322 -1.848,0.322 h -3.514 v -9.996 z m 0.252,4.256 q 1.288,0 1.764,-0.406 0.476,-0.42 0.476,-1.232 0,-0.826 -0.588,-1.176 -0.574,-0.364 -1.848,-0.364 h -1.652 v 3.178 z m -1.848,1.05 v 3.626 h 2.016 q 1.33,0 1.848,-0.518 0.518,-0.518 0.518,-1.358 0,-0.532 -0.238,-0.924 -0.224,-0.392 -0.77,-0.602 -0.532,-0.224 -1.456,-0.224 z m 11.11016,-2.94 q 1.372,0 2.03,0.602 0.658,0.602 0.658,1.918 v 5.11 h -0.896 l -0.238,-1.064 h -0.056 q -0.322,0.406 -0.672,0.686 -0.336,0.266 -0.784,0.392 -0.434,0.126 -1.064,0.126 -0.672,0 -1.218,-0.238 -0.532,-0.238 -0.84,-0.728 -0.308,-0.504 -0.308,-1.26 0,-1.12 0.882,-1.722 0.882,-0.616 2.716,-0.672 l 1.274,-0.042 v -0.448 q 0,-0.938 -0.406,-1.302 -0.406,-0.364 -1.148,-0.364 -0.588,0 -1.12,0.182 -0.532,0.168 -0.994,0.392 l -0.378,-0.924 q 0.49,-0.266 1.162,-0.448 0.672,-0.196 1.4,-0.196 z m 0.364,4.004 q -1.4,0.056 -1.946,0.448 -0.532,0.392 -0.532,1.106 0,0.63 0.378,0.924 0.392,0.294 0.994,0.294 0.952,0 1.582,-0.518 0.63,-0.532 0.63,-1.624 v -0.672 z m 8.25418,3.766 q -0.994,0 -1.778,-0.406 -0.77,-0.406 -1.218,-1.26 -0.434,-0.854 -0.434,-2.184 0,-1.386 0.462,-2.254 0.462,-0.868 1.246,-1.274 0.798,-0.406 1.806,-0.406 0.574,0 1.106,0.126 0.532,0.112 0.868,0.28 l -0.378,1.022 q -0.336,-0.126 -0.784,-0.238 -0.448,-0.112 -0.84,-0.112 -0.756,0 -1.246,0.322 -0.49,0.322 -0.728,0.952 -0.238,0.63 -0.238,1.568 0,0.896 0.238,1.526 0.238,0.63 0.714,0.952 0.476,0.322 1.19,0.322 0.616,0 1.078,-0.126 0.476,-0.126 0.868,-0.308 v 1.092 q -0.378,0.196 -0.84,0.294 -0.448,0.112 -1.092,0.112 z m 5.52415,-5.222 q 0,0.224 -0.028,0.588 -0.014,0.364 -0.028,0.63 h 0.056 q 0.084,-0.112 0.252,-0.322 0.168,-0.21 0.336,-0.42 0.182,-0.224 0.308,-0.364 l 2.394,-2.534 h 1.442 l -3.038,3.206 3.248,4.298 h -1.484 l -2.604,-3.5 -0.854,0.742 v 2.758 h -1.218 v -10.64 h 1.218 z m 13.12618,-2.422 v 7.504 h -1.008 l -0.182,-0.994 h -0.056 q -0.238,0.392 -0.616,0.644 -0.378,0.252 -0.826,0.364 -0.448,0.126 -0.938,0.126 -0.896,0 -1.512,-0.28 -0.602,-0.294 -0.91,-0.896 -0.308,-0.602 -0.308,-1.554 v -4.914 h 1.246 v 4.83 q 0,0.896 0.406,1.344 0.406,0.448 1.26,0.448 0.84,0 1.316,-0.308 0.49,-0.322 0.686,-0.924 0.21,-0.616 0.21,-1.484 v -3.906 z m 6.54617,-0.14 q 1.386,0 2.226,0.966 0.854,0.966 0.854,2.912 0,1.274 -0.392,2.156 -0.378,0.868 -1.078,1.316 -0.686,0.434 -1.624,0.434 -0.574,0 -1.022,-0.154 -0.448,-0.154 -0.77,-0.392 -0.308,-0.252 -0.532,-0.546 h -0.084 q 0.028,0.238 0.056,0.602 0.028,0.364 0.028,0.63 v 3.08 h -1.232 v -10.864 h 1.008 l 0.168,1.022 h 0.056 q 0.224,-0.322 0.532,-0.588 0.322,-0.266 0.756,-0.42 0.448,-0.154 1.05,-0.154 z m -0.224,1.036 q -0.756,0 -1.218,0.294 -0.462,0.28 -0.672,0.854 -0.21,0.574 -0.224,1.456 v 0.238 q 0,0.924 0.196,1.568 0.196,0.644 0.658,0.98 0.476,0.336 1.288,0.336 0.686,0 1.12,-0.378 0.448,-0.378 0.658,-1.022 0.224,-0.658 0.224,-1.498 0,-1.288 -0.504,-2.058 -0.49,-0.77 -1.526,-0.77 z m 9.46633,2.772 q 0,-1.148 0.21,-2.24 0.224,-1.092 0.686,-2.086 0.462,-0.994 1.162,-1.834 h 1.162 q -0.98,1.316 -1.484,2.898 -0.49,1.582 -0.49,3.248 0,1.078 0.224,2.142 0.224,1.064 0.658,2.044 0.434,0.994 1.078,1.876 h -1.148 q -0.7,-0.826 -1.162,-1.806 -0.462,-0.966 -0.686,-2.044 -0.21,-1.078 -0.21,-2.198 z m 13.51815,3.836 h -1.47 l -5.348,-8.302 h -0.056 q 0.028,0.322 0.042,0.77 0.028,0.434 0.042,0.938 0.028,0.49 0.028,1.008 v 5.586 h -1.162 v -9.996 h 1.456 l 5.334,8.274 h 0.056 q -0.014,-0.224 -0.042,-0.672 -0.014,-0.448 -0.042,-0.98 -0.014,-0.532 -0.014,-0.98 v -5.642 h 1.176 z m 4.57217,0 h -1.26 v -9.996 h 5.586 v 1.106 h -4.326 v 3.542 h 4.06 v 1.106 h -4.06 z m 9.36016,-9.996 q 1.24596,0 2.04396,0.322 0.812,0.308 1.204,0.938 0.392,0.63 0.392,1.582 0,0.798 -0.294,1.33 -0.294,0.532 -0.756,0.854 -0.448,0.308 -0.952,0.49 l 2.744,4.48 h -1.47 l -2.422,-4.13 h -1.98796 v 4.13 h -1.26 v -9.996 z m -0.07,1.092 h -1.428 v 3.71 h 1.498 q 1.21796,0 1.77796,-0.476 0.56,-0.49 0.56,-1.428 0,-0.658 -0.266,-1.05 -0.252,-0.392 -0.784,-0.574 -0.532,-0.182 -1.35796,-0.182 z m 5.81816,5.698 v -1.092 h 3.388 v 1.092 z m 11.8662,-1.806 q 0,1.218 -0.182,2.17 -0.182,0.952 -0.588,1.624 -0.392,0.658 -1.036,1.008 -0.63,0.35 -1.526,0.35 -1.12,0 -1.862,-0.616 -0.728,-0.616 -1.092,-1.764 -0.35,-1.162 -0.35,-2.772 0,-1.624 0.322,-2.772 0.336,-1.148 1.064,-1.75 0.728,-0.616 1.918,-0.616 1.12,0 1.862,0.616 0.742,0.602 1.106,1.75 0.364,1.148 0.364,2.772 z m -5.404,0 q 0,1.372 0.196,2.282 0.21,0.91 0.658,1.372 0.462,0.448 1.218,0.448 0.756,0 1.204,-0.448 0.462,-0.448 0.672,-1.358 0.21,-0.924 0.21,-2.296 0,-1.372 -0.21,-2.268 -0.21,-0.91 -0.672,-1.358 -0.448,-0.462 -1.204,-0.462 -0.756,0 -1.218,0.462 -0.448,0.448 -0.658,1.358 -0.196,0.896 -0.196,2.268 z m 10.6761,-5.124 q 0.882,0 1.554,0.28 0.672,0.266 1.05,0.798 0.392,0.532 0.392,1.316 0,0.602 -0.266,1.05 -0.252,0.448 -0.686,0.798 -0.434,0.336 -0.952,0.602 0.616,0.294 1.12,0.672 0.504,0.364 0.798,0.854 0.308,0.49 0.308,1.176 0,0.84 -0.406,1.456 -0.406,0.602 -1.148,0.938 -0.728,0.336 -1.722,0.336 -1.078,0 -1.834,-0.322 -0.742,-0.322 -1.134,-0.91 -0.378,-0.602 -0.378,-1.456 0,-0.686 0.28,-1.19 0.294,-0.504 0.77,-0.868 0.476,-0.364 1.022,-0.616 -0.49,-0.28 -0.896,-0.63 -0.392,-0.364 -0.63,-0.826 -0.224,-0.462 -0.224,-1.078 0,-0.77 0.392,-1.288 0.392,-0.532 1.064,-0.812 0.672,-0.28 1.526,-0.28 z m -2.1,7.602 q 0,0.728 0.518,1.218 0.518,0.476 1.596,0.476 1.022,0 1.554,-0.476 0.546,-0.49 0.546,-1.26 0,-0.49 -0.266,-0.854 -0.252,-0.378 -0.728,-0.672 -0.462,-0.294 -1.106,-0.532 l -0.224,-0.084 q -0.616,0.266 -1.036,0.574 -0.42,0.308 -0.644,0.7 -0.21,0.392 -0.21,0.91 z m 2.086,-6.608 q -0.77,0 -1.274,0.378 -0.49,0.364 -0.49,1.064 0,0.518 0.238,0.868 0.252,0.35 0.672,0.602 0.42,0.238 0.924,0.462 0.49,-0.21 0.868,-0.462 0.392,-0.252 0.616,-0.602 0.238,-0.364 0.238,-0.868 0,-0.7 -0.49,-1.064 -0.49,-0.378 -1.302,-0.378 z m 8.2682,5.306 q 0,1.12 -0.224,2.198 -0.21,1.078 -0.672,2.044 -0.448,0.98 -1.162,1.806 h -1.148 q 0.644,-0.882 1.078,-1.876 0.434,-0.98 0.658,-2.044 0.224,-1.064 0.224,-2.142 0,-1.106 -0.224,-2.184 -0.224,-1.078 -0.658,-2.086 -0.434,-1.008 -1.092,-1.876 h 1.162 q 0.714,0.84 1.162,1.834 0.462,0.994 0.672,2.086 0.224,1.092 0.224,2.24 z"
         id="text5"
         style="font-size:14px"
         aria-label="Ripristino Backup (NFR-08)" />
    </g>
    <!--entity NFR02_S-->
    <g
       class="entity"
       data-entity="NFR02_S"
       data-source-line="22"
       data-uid="ent0009"
       id="entity_NFR02_S">
      <ellipse
         cx="1210.9465"
         cy="92.0033"
         fill="#F1F1F1"
         rx="107.3165"
         ry="23.8633"
         style="stroke:#181818;stroke-width:0.5;"
         id="ellipse5" />
      <path
         d="m 1124.1972,96.651703 h -1.47 l -5.348,-8.302 h -0.056 q 0.028,0.322 0.042,0.77 0.028,0.434 0.042,0.938 0.028,0.49 0.028,1.008 v 5.586 h -1.162 v -9.996 h 1.456 l 5.334,8.274 h 0.056 q -0.014,-0.224 -0.042,-0.672 -0.014,-0.448 -0.042,-0.98 -0.014,-0.532 -0.014,-0.98 v -5.642 h 1.176 z m 9.5535,-3.766 q 0,0.938 -0.252,1.666 -0.238,0.714 -0.7,1.218 -0.448,0.504 -1.106,0.77 -0.644,0.252 -1.442,0.252 -0.742,0 -1.372,-0.252 -0.63,-0.266 -1.092,-0.77 -0.462,-0.504 -0.728,-1.218 -0.252,-0.728 -0.252,-1.666 0,-1.246 0.42,-2.1 0.42,-0.868 1.204,-1.316 0.784,-0.462 1.862,-0.462 1.022,0 1.792,0.462 0.784,0.448 1.218,1.316 0.448,0.854 0.448,2.1 z m -5.67,0 q 0,0.882 0.224,1.54 0.238,0.644 0.728,0.994 0.49,0.35 1.246,0.35 0.756,0 1.246,-0.35 0.49,-0.35 0.714,-0.994 0.238,-0.658 0.238,-1.54 0,-0.896 -0.238,-1.526 -0.238,-0.63 -0.728,-0.966 -0.476,-0.35 -1.246,-0.35 -1.148,0 -1.666,0.756 -0.518,0.756 -0.518,2.086 z m 10.6036,2.898 q 0.28,0 0.574,-0.042 0.294,-0.056 0.476,-0.112 v 0.938 q -0.196,0.098 -0.56,0.154 -0.364,0.07 -0.7,0.07 -0.588,0 -1.092,-0.196 -0.49,-0.21 -0.798,-0.714 -0.308,-0.504 -0.308,-1.414 v -4.368 h -1.064 v -0.588 l 1.078,-0.49 0.49,-1.596 h 0.728 v 1.722 h 2.17 v 0.952 h -2.17 v 4.34 q 0,0.686 0.322,1.022 0.336,0.322 0.854,0.322 z m 4.2616,-6.636 v 7.504 h -1.232 v -7.504 z m -0.602,-2.814 q 0.28,0 0.49,0.196 0.224,0.182 0.224,0.588 0,0.392 -0.224,0.588 -0.21,0.196 -0.49,0.196 -0.308,0 -0.518,-0.196 -0.21,-0.196 -0.21,-0.588 0,-0.406 0.21,-0.588 0.21,-0.196 0.518,-0.196 z m 6.9216,3.766 h -1.89 v 6.552 h -1.232 v -6.552 h -1.316 v -0.574 l 1.316,-0.42 v -0.434 q 0,-0.966 0.28,-1.568 0.294,-0.602 0.84,-0.882 0.546,-0.28 1.316,-0.28 0.448,0 0.812,0.084 0.378,0.07 0.644,0.168 l -0.322,0.966 q -0.224,-0.07 -0.518,-0.14 -0.294,-0.07 -0.602,-0.07 -0.616,0 -0.924,0.42 -0.294,0.406 -0.294,1.288 v 0.49 h 1.89 z m 2.59,-0.952 v 7.504 h -1.232 v -7.504 z m -0.602,-2.814 q 0.28,0 0.49,0.196 0.224,0.182 0.224,0.588 0,0.392 -0.224,0.588 -0.21,0.196 -0.49,0.196 -0.308,0 -0.518,-0.196 -0.21,-0.196 -0.21,-0.588 0,-0.406 0.21,-0.588 0.21,-0.196 0.518,-0.196 z m 6.9551,10.458 q -0.994,0 -1.778,-0.406 -0.77,-0.406 -1.218,-1.26 -0.434,-0.854 -0.434,-2.184 0,-1.386 0.462,-2.254 0.462,-0.868 1.246,-1.274 0.798,-0.406 1.806,-0.406 0.574,0 1.106,0.126 0.532,0.112 0.868,0.28 l -0.378,1.022 q -0.336,-0.126 -0.784,-0.238 -0.448,-0.112 -0.84,-0.112 -0.756,0 -1.246,0.322 -0.49,0.322 -0.728,0.952 -0.238,0.63 -0.238,1.568 0,0.896 0.238,1.526 0.238,0.63 0.714,0.952 0.476,0.322 1.19,0.322 0.616,0 1.078,-0.126 0.476,-0.126 0.868,-0.308 v 1.092 q -0.378,0.196 -0.84,0.294 -0.448,0.112 -1.092,0.112 z m 7.0336,-7.77 q 1.372,0 2.03,0.602 0.658,0.602 0.658,1.918 v 5.11 h -0.896 l -0.238,-1.064 h -0.056 q -0.322,0.406 -0.672,0.686 -0.336,0.266 -0.784,0.392 -0.434,0.126 -1.064,0.126 -0.672,0 -1.218,-0.238 -0.532,-0.238 -0.84,-0.728 -0.308,-0.504 -0.308,-1.26 0,-1.12 0.882,-1.722 0.882,-0.616 2.716,-0.672 l 1.274,-0.042 v -0.448 q 0,-0.938 -0.406,-1.302 -0.406,-0.364 -1.148,-0.364 -0.588,0 -1.12,0.182 -0.532,0.168 -0.994,0.392 l -0.378,-0.924 q 0.49,-0.266 1.162,-0.448 0.672,-0.196 1.4,-0.196 z m 0.364,4.004 q -1.4,0.056 -1.946,0.448 -0.532,0.392 -0.532,1.106 0,0.63 0.378,0.924 0.392,0.294 0.994,0.294 0.952,0 1.582,-0.518 0.63,-0.532 0.63,-1.624 v -0.672 z m 15.0051,3.626 h -5.586 v -9.996 h 5.586 v 1.106 h -4.326 v 3.122 h 4.074 v 1.092 h -4.074 v 3.57 h 4.326 z m 6.0116,-7.644 q 0.21,0 0.448,0.028 0.252,0.014 0.434,0.056 l -0.154,1.134 q -0.182,-0.042 -0.406,-0.07 -0.21,-0.028 -0.406,-0.028 -0.434,0 -0.826,0.182 -0.392,0.182 -0.7,0.518 -0.308,0.322 -0.49,0.784 -0.168,0.462 -0.168,1.036 v 4.004 h -1.232 v -7.504 h 1.008 l 0.14,1.372 h 0.056 q 0.238,-0.42 0.574,-0.756 0.336,-0.35 0.77,-0.546 0.434,-0.21 0.952,-0.21 z m 6.2636,0 q 0.21,0 0.448,0.028 0.252,0.014 0.434,0.056 l -0.154,1.134 q -0.182,-0.042 -0.406,-0.07 -0.21,-0.028 -0.406,-0.028 -0.434,0 -0.826,0.182 -0.392,0.182 -0.7,0.518 -0.308,0.322 -0.49,0.784 -0.168,0.462 -0.168,1.036 v 4.004 h -1.232 v -7.504 h 1.008 l 0.14,1.372 h 0.056 q 0.238,-0.42 0.574,-0.756 0.336,-0.35 0.77,-0.546 0.434,-0.21 0.952,-0.21 z m 9.0075,3.878 q 0,0.938 -0.252,1.666 -0.238,0.714 -0.7,1.218 -0.448,0.504 -1.106,0.77 -0.644,0.252 -1.442,0.252 -0.742,0 -1.372,-0.252 -0.63,-0.266 -1.092,-0.77 -0.462,-0.504 -0.728,-1.218 -0.252,-0.728 -0.252,-1.666 0,-1.246 0.42,-2.1 0.42,-0.868 1.204,-1.316 0.784,-0.462 1.862,-0.462 1.022,0 1.792,0.462 0.784,0.448 1.218,1.316 0.448,0.854 0.448,2.1 z m -5.67,0 q 0,0.882 0.224,1.54 0.238,0.644 0.728,0.994 0.49,0.35 1.246,0.35 0.756,0 1.246,-0.35 0.49,-0.35 0.714,-0.994 0.238,-0.658 0.238,-1.54 0,-0.896 -0.238,-1.526 -0.238,-0.63 -0.728,-0.966 -0.476,-0.35 -1.246,-0.35 -1.148,0 -1.666,0.756 -0.518,0.756 -0.518,2.086 z m 11.5976,-3.878 q 0.21,0 0.448,0.028 0.252,0.014 0.434,0.056 l -0.154,1.134 q -0.182,-0.042 -0.406,-0.07 -0.21,-0.028 -0.406,-0.028 -0.434,0 -0.826,0.182 -0.392,0.182 -0.7,0.518 -0.308,0.322 -0.49,0.784 -0.168,0.462 -0.168,1.036 v 4.004 h -1.232 v -7.504 h 1.008 l 0.14,1.372 h 0.056 q 0.238,-0.42 0.574,-0.756 0.336,-0.35 0.77,-0.546 0.434,-0.21 0.952,-0.21 z m 5.3816,0 q 0.966,0 1.652,0.42 0.7,0.42 1.064,1.19 0.378,0.756 0.378,1.778 v 0.742 h -5.138 q 0.028,1.274 0.644,1.946 0.63,0.658 1.75,0.658 0.714,0 1.26,-0.126 0.56,-0.14 1.148,-0.392 v 1.078 q -0.574,0.252 -1.134,0.364 -0.56,0.126 -1.33,0.126 -1.064,0 -1.89,-0.434 -0.812,-0.434 -1.274,-1.288 -0.448,-0.868 -0.448,-2.114 0,-1.232 0.406,-2.114 0.42,-0.882 1.162,-1.358 0.756,-0.476 1.75,-0.476 z m -0.014,1.008 q -0.882,0 -1.4,0.574 -0.504,0.56 -0.602,1.568 h 3.822 q 0,-0.644 -0.196,-1.12 -0.196,-0.476 -0.602,-0.742 -0.392,-0.28 -1.022,-0.28 z m 12.5971,6.636 h -3.612 v -0.728 l 1.176,-0.266 v -7.994 l -1.176,-0.28 v -0.728 h 3.612 v 0.728 l -1.176,0.28 v 7.994 l 1.176,0.266 z m 6.1236,-9.996 -3.724,9.996 h -1.204 l 3.724,-9.996 z m 10.7016,4.984 q 0,1.162 -0.294,2.114 -0.294,0.938 -0.882,1.624 -0.574,0.686 -1.442,1.05 -0.854,0.364 -1.988,0.364 -1.176,0 -2.044,-0.364 -0.868,-0.378 -1.442,-1.05 -0.574,-0.686 -0.854,-1.638 -0.28,-0.952 -0.28,-2.114 0,-1.54 0.504,-2.688 0.504,-1.148 1.526,-1.792 1.036,-0.644 2.604,-0.644 1.498,0 2.52,0.644 1.022,0.63 1.54,1.792 0.532,1.148 0.532,2.702 z m -7.896,0 q 0,1.26 0.35,2.17 0.35,0.91 1.078,1.4 0.742,0.49 1.862,0.49 1.134,0 1.848,-0.49 0.728,-0.49 1.078,-1.4 0.35,-0.91 0.35,-2.17 0,-1.89 -0.784,-2.954 -0.784,-1.078 -2.478,-1.078 -1.134,0 -1.876,0.49 -0.728,0.476 -1.078,1.386 -0.35,0.896 -0.35,2.156 z m 13.9131,1.176 q 0,-1.148 0.21,-2.24 0.224,-1.092 0.686,-2.086 0.462,-0.994 1.162,-1.834 h 1.162 q -0.98,1.316 -1.484,2.898 -0.49,1.582 -0.49,3.248 0,1.078 0.224,2.142 0.224,1.064 0.658,2.044 0.434,0.994 1.078,1.876 h -1.148 q -0.7,-0.826 -1.162,-1.806 -0.462,-0.966 -0.686,-2.044 -0.21,-1.078 -0.21,-2.198 z m 13.4036,3.836 h -1.47 l -5.348,-8.302 h -0.056 q 0.028,0.322 0.042,0.77 0.028,0.434 0.042,0.938 0.028,0.49 0.028,1.008 v 5.586 h -1.162 v -9.996 h 1.456 l 5.334,8.274 h 0.056 q -0.014,-0.224 -0.042,-0.672 -0.014,-0.448 -0.042,-0.98 -0.014,-0.532 -0.014,-0.98 v -5.642 h 1.176 z m 4.4576,0 h -1.26 v -9.996 h 5.586 v 1.106 h -4.326 v 3.542 h 4.06 v 1.106 h -4.06 z m 9.2455,-9.996 q 1.246,0 2.044,0.322 0.812,0.308 1.204,0.938 0.392,0.63 0.392,1.582 0,0.798 -0.294,1.33 -0.294,0.532 -0.756,0.854 -0.448,0.308 -0.952,0.49 l 2.744,4.48 h -1.47 l -2.422,-4.13 h -1.988 v 4.13 h -1.26 v -9.996 z m -0.07,1.092 h -1.428 v 3.71 h 1.498 q 1.218,0 1.778,-0.476 0.56,-0.49 0.56,-1.428 0,-0.658 -0.266,-1.05 -0.252,-0.392 -0.784,-0.574 -0.532,-0.182 -1.358,-0.182 z m 5.7036,5.698 v -1.092 h 3.388 v 1.092 z m 11.7516,-1.806 q 0,1.218 -0.182,2.17 -0.182,0.952 -0.588,1.624 -0.392,0.658 -1.036,1.008 -0.63,0.35 -1.526,0.35 -1.12,0 -1.862,-0.616 -0.728,-0.616 -1.092,-1.764 -0.35,-1.162 -0.35,-2.772 0,-1.624 0.322,-2.772 0.336,-1.148 1.064,-1.75 0.728,-0.616 1.918,-0.616 1.12,0 1.862,0.616 0.742,0.602 1.106,1.75 0.364,1.148 0.364,2.772 z m -5.404,0 q 0,1.372 0.196,2.282 0.21,0.91 0.658,1.372 0.462,0.448 1.218,0.448 0.756,0 1.204,-0.448 0.462,-0.448 0.672,-1.358 0.21,-0.924 0.21,-2.296 0,-1.372 -0.21,-2.268 -0.21,-0.91 -0.672,-1.358 -0.448,-0.462 -1.204,-0.462 -0.756,0 -1.218,0.462 -0.448,0.448 -0.658,1.358 -0.196,0.896 -0.196,2.268 z m 13.8516,5.012 h -6.608 v -1.022 l 2.618,-2.646 q 0.756,-0.756 1.274,-1.344 0.518,-0.588 0.784,-1.148 0.266,-0.574 0.266,-1.246 0,-0.826 -0.49,-1.246 -0.49,-0.434 -1.274,-0.434 -0.728,0 -1.288,0.252 -0.546,0.252 -1.12,0.7 l -0.658,-0.826 q 0.392,-0.336 0.854,-0.602 0.476,-0.266 1.022,-0.42 0.56,-0.154 1.19,-0.154 0.938,0 1.61,0.322 0.672,0.322 1.036,0.924 0.378,0.588 0.378,1.414 0,0.784 -0.322,1.47 -0.322,0.686 -0.896,1.358 -0.574,0.658 -1.344,1.414 l -2.086,2.058 v 0.056 h 5.054 z m 4.8496,-3.836 q 0,1.12 -0.224,2.198 -0.21,1.078 -0.672,2.044 -0.448,0.98 -1.162,1.806 h -1.148 q 0.644,-0.882 1.078,-1.876 0.434,-0.98 0.658,-2.044 0.224,-1.064 0.224,-2.142 0,-1.106 -0.224,-2.184 -0.224,-1.078 -0.658,-2.086 -0.434,-1.008 -1.092,-1.876 h 1.162 q 0.714,0.84 1.162,1.834 0.462,0.994 0.672,2.086 0.224,1.092 0.224,2.24 z"
         id="text6"
         style="font-size:14px"
         aria-label="Notifica Errore I/O (NFR-02)" />
    </g>
    <!--entity Sistema-->
    <g
       class="entity"
       data-entity="Sistema"
       data-source-line="9"
       data-uid="ent0002"
       id="entity_Sistema">
      <ellipse
         cx="34.1948"
         cy="138.85"
         fill="#F1F1F1"
         rx="16"
         ry="16"
         style="stroke:#181818;stroke-width:0.5;"
         id="ellipse6" />
      <path
         d="M34.1948,158.85 C38.1948,158.85 41.1948,158.85 45.1948,154.85 C53.1948,154.85 61.1948,162.85 61.1948,170.85 L61.1948,174.85 C61.1948,178.85 57.1948,182.85 53.1948,182.85 L15.1948,182.85 C11.1948,182.85 7.1948,178.85 7.1948,174.85 L7.1948,170.85 C7.1948,162.85 15.1948,154.85 23.1948,154.85 C27.1948,158.85 30.1948,158.85 34.1948,158.85"
         fill="#F1F1F1"
         style="stroke:#181818;stroke-width:0.5;"
         id="path6" />
      <path
         d="m 13.028,193.67109 q 0,0.896 -0.434,1.526 -0.434,0.616 -1.246,0.952 -0.798,0.336 -1.89,0.336 -0.56,0 -1.078,-0.056 -0.504,-0.056 -0.924,-0.154 -0.42,-0.112 -0.742,-0.266 v -1.204 q 0.504,0.224 1.246,0.406 0.756,0.182 1.554,0.182 0.742,0 1.246,-0.196 0.504,-0.196 0.756,-0.56 0.252,-0.364 0.252,-0.854 0,-0.49 -0.21,-0.826 -0.21,-0.336 -0.728,-0.616 -0.504,-0.294 -1.414,-0.616 -0.644,-0.238 -1.134,-0.504 -0.476,-0.28 -0.798,-0.63 -0.322,-0.35 -0.49,-0.798 -0.154,-0.448 -0.154,-1.036 0,-0.798 0.406,-1.358 0.406,-0.574 1.12,-0.882 0.728,-0.308 1.666,-0.308 0.826,0 1.512,0.154 0.686,0.154 1.246,0.406 l -0.392,1.078 q -0.518,-0.224 -1.134,-0.378 -0.602,-0.154 -1.26,-0.154 -0.63,0 -1.05,0.182 -0.42,0.182 -0.63,0.518 -0.21,0.322 -0.21,0.756 0,0.504 0.21,0.84 0.21,0.336 0.686,0.602 0.476,0.266 1.288,0.574 0.882,0.322 1.484,0.7 0.616,0.364 0.924,0.882 0.322,0.518 0.322,1.302 z m 3.8286,-4.83 v 7.504 h -1.232 v -7.504 z m -0.602,-2.814 q 0.28,0 0.49,0.196 0.224,0.182 0.224,0.588 0,0.392 -0.224,0.588 -0.21,0.196 -0.49,0.196 -0.308,0 -0.518,-0.196 -0.21,-0.196 -0.21,-0.588 0,-0.406 0.21,-0.588 0.21,-0.196 0.518,-0.196 z m 8.616594,8.246 q 0,0.728 -0.364,1.218 -0.364,0.49 -1.036,0.742 -0.672,0.252 -1.596,0.252 -0.784,0 -1.358,-0.126 -0.56,-0.126 -0.994,-0.35 v -1.12 q 0.448,0.224 1.078,0.42 0.644,0.182 1.302,0.182 0.938,0 1.358,-0.294 0.42,-0.308 0.42,-0.812 0,-0.28 -0.154,-0.504 -0.154,-0.224 -0.56,-0.448 -0.392,-0.224 -1.134,-0.504 -0.728,-0.28 -1.246,-0.56 -0.518,-0.28 -0.798,-0.672 -0.28,-0.392 -0.28,-1.008 0,-0.952 0.77,-1.47 0.784,-0.518 2.044,-0.518 0.686,0 1.274,0.14 0.602,0.126 1.12,0.364 l -0.42,0.98 q -0.476,-0.196 -0.994,-0.336 -0.518,-0.14 -1.064,-0.14 -0.756,0 -1.162,0.252 -0.392,0.238 -0.392,0.658 0,0.308 0.182,0.532 0.182,0.21 0.602,0.42 0.434,0.196 1.148,0.476 0.714,0.266 1.218,0.546 0.504,0.28 0.77,0.686 0.266,0.392 0.266,0.994 z m 5.074604,1.204 q 0.28,0 0.574,-0.042 0.294,-0.056 0.476,-0.112 v 0.938 q -0.196,0.098 -0.56,0.154 -0.364,0.07 -0.7,0.07 -0.588,0 -1.092,-0.196 -0.49,-0.21 -0.798,-0.714 -0.308,-0.504 -0.308,-1.414 v -4.368 h -1.064 v -0.588 l 1.078,-0.49 0.49,-1.596 h 0.728 v 1.722 h 2.17 v 0.952 h -2.17 v 4.34 q 0,0.686 0.322,1.022 0.336,0.322 0.854,0.322 z m 6.194603,-6.776 q 0.966,0 1.652,0.42 0.7,0.42 1.064,1.19 0.378,0.756 0.378,1.778 v 0.742 h -5.138 q 0.028,1.274 0.644,1.946 0.63,0.658 1.75,0.658 0.714,0 1.26,-0.126 0.56,-0.14 1.148,-0.392 v 1.078 q -0.574,0.252 -1.134,0.364 -0.56,0.126 -1.33,0.126 -1.064,0 -1.89,-0.434 -0.812,-0.434 -1.274,-1.288 -0.448,-0.868 -0.448,-2.114 0,-1.232 0.406,-2.114 0.42,-0.882 1.162,-1.358 0.756,-0.476 1.75,-0.476 z m -0.014,1.008 q -0.882,0 -1.4,0.574 -0.504,0.56 -0.602,1.568 h 3.822 q 0,-0.644 -0.196,-1.12 -0.196,-0.476 -0.602,-0.742 -0.392,-0.28 -1.022,-0.28 z m 13.99259,-1.008 q 1.274,0 1.904,0.658 0.63,0.644 0.63,2.1 v 4.886 h -1.218 v -4.83 q 0,-0.882 -0.378,-1.33 -0.364,-0.448 -1.148,-0.448 -1.092,0 -1.568,0.63 -0.462,0.63 -0.462,1.834 v 4.144 h -1.218 v -4.83 q 0,-0.588 -0.168,-0.98 -0.168,-0.406 -0.504,-0.602 -0.336,-0.196 -0.868,-0.196 -0.756,0 -1.19,0.322 -0.434,0.308 -0.63,0.91 -0.182,0.602 -0.182,1.484 v 3.892 h -1.232 v -7.504 h 0.994 l 0.182,1.022 h 0.07 q 0.238,-0.392 0.574,-0.644 0.35,-0.266 0.77,-0.392 0.42,-0.126 0.868,-0.126 0.868,0 1.442,0.308 0.588,0.308 0.854,0.952 h 0.07 q 0.378,-0.644 1.022,-0.952 0.658,-0.308 1.386,-0.308 z m 8.448596,0.014 q 1.372,0 2.03,0.602 0.658,0.602 0.658,1.918 v 5.11 h -0.896 l -0.238,-1.064 h -0.056 q -0.322,0.406 -0.672,0.686 -0.336,0.266 -0.784,0.392 -0.434,0.126 -1.064,0.126 -0.672,0 -1.218,-0.238 -0.532,-0.238 -0.84,-0.728 -0.308,-0.504 -0.308,-1.26 0,-1.12 0.882,-1.722 0.882,-0.616 2.716,-0.672 l 1.274,-0.042 v -0.448 q 0,-0.938 -0.406,-1.302 -0.406,-0.364 -1.148,-0.364 -0.588,0 -1.12,0.182 -0.532,0.168 -0.994,0.392 l -0.378,-0.924 q 0.49,-0.266 1.162,-0.448 0.672,-0.196 1.4,-0.196 z m 0.364,4.004 q -1.4,0.056 -1.946,0.448 -0.532,0.392 -0.532,1.106 0,0.63 0.378,0.924 0.392,0.294 0.994,0.294 0.952,0 1.582,-0.518 0.63,-0.532 0.63,-1.624 v -0.672 z"
         id="text7"
         style="font-size:14px"
         aria-label="Sistema" />
    </g>
    <!--link UC14 to UC15-->
    <!--link NFR07 to NFR08-->
    <!--link NFR08 to NFR02_S-->
    <!--link Sistema to UC14-->
    <g
       class="link"
       data-entity-1="Sistema"
       data-entity-2="UC14"
       data-source-line="29"
       data-uid="lnk12"
       id="link_Sistema_UC14">
      <path
         d="M62.55,153.29 C89.79,145.6 127.0653,135.0887 164.4353,124.5487"
         fill="none"
         id="Sistema-to-UC14"
         style="stroke:#181818;stroke-width:1;" />
      <polygon
         fill="#181818"
         points="170.21,122.92,160.4621,121.5133,165.3977,124.2773,162.6338,129.2129,170.21,122.92"
         style="stroke:#181818;stroke-width:1;"
         id="polygon7" />
    </g>
    <!--link Sistema to UC15-->
    <g
       class="link"
       data-entity-1="Sistema"
       data-entity-2="UC15"
       data-source-line="30"
       data-uid="lnk13"
       id="link_Sistema_UC15">
      <path
         d="M62.73,162.03 C139.44,164.89 352.6642,172.8463 485.6042,177.8063"
         fill="none"
         id="Sistema-to-UC15"
         style="stroke:#181818;stroke-width:1;" />
      <polygon
         fill="#181818"
         points="491.6,178.03,482.7554,173.6972,486.6035,177.8436,482.4571,181.6917,491.6,178.03"
         style="stroke:#181818;stroke-width:1;"
         id="polygon8" />
    </g>
    <!--link UC14 to NFR07-->
    <g
       class="link"
       data-entity-1="UC14"
       data-entity-2="NFR07"
       data-source-line="33"
       data-uid="lnk14"
       id="link_UC14_NFR07">
      <path
         d="M365.49,101.66 C409.93,101.54 453.79,101.4071 495.92,101.2871"
         fill="none"
         id="UC14-to-NFR07"
         style="stroke:#181818;stroke-width:1;stroke-dasharray:7,7;" />
      <polygon
         fill="#181818"
         points="501.92,101.27,492.9086,97.2957,496.92,101.2842,492.9314,105.2956,501.92,101.27"
         style="stroke:#181818;stroke-width:1;"
         id="polygon9" />
      <path
         d="m 396.94001,94.556902 2.184,-2.613 0.819,0.468 -1.82,2.223 1.82,2.223 -0.819,0.481 -2.184,-2.613 z m 2.574,0 2.21,-2.613 0.806,0.468 -1.82,2.223 1.82,2.223 -0.806,0.481 -2.21,-2.613 z m 6.45074,-3.458 v 6.968 h -1.144 v -6.968 z m -0.559,-2.613 q 0.26,0 0.455,0.182 0.208,0.169 0.208,0.546 0,0.364 -0.208,0.546 -0.195,0.182 -0.455,0.182 -0.286,0 -0.481,-0.182 -0.195,-0.182 -0.195,-0.546 0,-0.377 0.195,-0.546 0.195,-0.182 0.481,-0.182 z m 6.80172,2.483 q 1.248,0 1.885,0.611 0.637,0.598 0.637,1.95 v 4.537 h -1.131 v -4.459 q 0,-0.845 -0.377,-1.261 -0.377,-0.416 -1.183,-0.416 -1.157,0 -1.599,0.65 -0.442,0.65 -0.442,1.872 v 3.614 h -1.144 v -6.968 h 0.923 l 0.169,0.949 h 0.065 q 0.234,-0.364 0.572,-0.598 0.351,-0.247 0.767,-0.364 0.416,-0.117 0.858,-0.117 z m 8.15373,7.228 q -0.923,0 -1.651,-0.377 -0.715,-0.377 -1.131,-1.17 -0.403,-0.793 -0.403,-2.028 0,-1.287 0.429,-2.093 0.429,-0.806 1.157,-1.183 0.741,-0.377 1.677,-0.377 0.533,0 1.027,0.117 0.494,0.104 0.806,0.26 l -0.351,0.949 q -0.312,-0.117 -0.728,-0.221 -0.416,-0.104 -0.78,-0.104 -0.702,0 -1.157,0.299 -0.455,0.299 -0.676,0.884 -0.221,0.585 -0.221,1.456 0,0.832 0.221,1.417 0.221,0.585 0.663,0.884 0.442,0.299 1.105,0.299 0.572,0 1.001,-0.117 0.442,-0.117 0.806,-0.286 v 1.014 q -0.351,0.182 -0.78,0.273 -0.416,0.104 -1.014,0.104 z m 5.26772,-0.13 h -1.144 v -9.88 h 1.144 z m 8.71272,-6.968 v 6.968 h -0.936 l -0.169,-0.923 h -0.052 q -0.221,0.364 -0.572,0.598 -0.351,0.234 -0.767,0.338 -0.416,0.117 -0.871,0.117 -0.832,0 -1.404,-0.26 -0.559,-0.273 -0.845,-0.832 -0.286,-0.559 -0.286,-1.443 v -4.563 h 1.157 v 4.485 q 0,0.832 0.377,1.248 0.377,0.416 1.17,0.416 0.78,0 1.222,-0.286 0.455,-0.299 0.637,-0.858 0.195,-0.572 0.195,-1.378 v -3.627 z m 5.35872,7.098 q -1.3,0 -2.08,-0.897 -0.78,-0.91 -0.78,-2.704 0,-1.794 0.78,-2.704 0.793,-0.923 2.093,-0.923 0.546,0 0.949,0.143 0.403,0.13 0.702,0.364 0.299,0.234 0.507,0.52 h 0.078 q -0.013,-0.169 -0.052,-0.494 -0.026,-0.338 -0.026,-0.533 v -2.782 h 1.144 v 9.88 h -0.923 l -0.169,-0.936 h -0.052 q -0.208,0.299 -0.507,0.546 -0.299,0.234 -0.715,0.377 -0.403,0.143 -0.949,0.143 z m 0.182,-0.949 q 1.105,0 1.547,-0.598 0.455,-0.611 0.455,-1.833 v -0.208 q 0,-1.3 -0.429,-1.989 -0.429,-0.702 -1.586,-0.702 -0.923,0 -1.391,0.741 -0.455,0.728 -0.455,1.963 0,1.248 0.455,1.937 0.468,0.689 1.404,0.689 z m 8.71273,-6.279 q 0.897,0 1.534,0.39 0.65,0.39 0.988,1.105 0.351,0.702 0.351,1.651 v 0.689 h -4.771 q 0.026,1.183 0.598,1.807 0.585,0.611 1.625,0.611 0.663,0 1.17,-0.117 0.52,-0.13 1.066,-0.364 v 1.001 q -0.533,0.234 -1.053,0.338 -0.52,0.117 -1.235,0.117 -0.988,0 -1.755,-0.403 -0.754,-0.403 -1.183,-1.196 -0.416,-0.806 -0.416,-1.963 0,-1.144 0.377,-1.963 0.39,-0.819 1.079,-1.261 0.702,-0.442 1.625,-0.442 z m -0.013,0.936 q -0.819,0 -1.3,0.533 -0.468,0.52 -0.559,1.456 h 3.549 q 0,-0.598 -0.182,-1.04 -0.182,-0.442 -0.559,-0.689 -0.364,-0.26 -0.949,-0.26 z m 10.32471,2.821 -2.21,2.613 -0.806,-0.481 1.82,-2.223 -1.82,-2.223 0.806,-0.468 2.21,2.613 z m -2.587,0 -2.197,2.613 -0.806,-0.481 1.82,-2.223 -1.82,-2.223 0.806,-0.468 2.197,2.613 z"
         id="text9"
         style="font-size:13px"
         aria-label="include" />
    </g>
    <!--reverse link UC15 to NFR08-->
    <g
       class="link"
       data-entity-1="UC15"
       data-entity-2="NFR08"
       data-source-line="35"
       data-uid="lnk15"
       id="link_UC15_NFR08">
      <path
         d="M688.997,165.323 C741.307,155.503 802.65,143.98 854.61,134.23"
         fill="none"
         id="UC15-backto-NFR08"
         style="stroke:#181818;stroke-width:1;stroke-dasharray:7,7;" />
      <polygon
         fill="#181818"
         points="683.1,166.43,692.6835,168.7008,688.0142,165.5075,691.2075,160.8381,683.1,166.43"
         style="stroke:#181818;stroke-width:1;"
         id="polygon10" />
      <path
         d="m 739.37999,137.55689 2.184,-2.613 0.819,0.468 -1.82,2.223 1.82,2.223 -0.819,0.481 -2.184,-2.613 z m 2.574,0 2.21,-2.613 0.806,0.468 -1.82,2.223 1.82,2.223 -0.806,0.481 -2.21,-2.613 z m 8.16874,-3.588 q 0.897,0 1.534,0.39 0.65,0.39 0.988,1.105 0.351,0.702 0.351,1.651 v 0.689 h -4.771 q 0.026,1.183 0.598,1.807 0.585,0.611 1.625,0.611 0.663,0 1.17,-0.117 0.52,-0.13 1.066,-0.364 v 1.001 q -0.533,0.234 -1.053,0.338 -0.52,0.117 -1.235,0.117 -0.988,0 -1.755,-0.403 -0.754,-0.403 -1.183,-1.196 -0.416,-0.806 -0.416,-1.963 0,-1.144 0.377,-1.963 0.39,-0.819 1.079,-1.261 0.702,-0.442 1.625,-0.442 z m -0.013,0.936 q -0.819,0 -1.3,0.533 -0.468,0.52 -0.559,1.456 h 3.549 q 0,-0.598 -0.182,-1.04 -0.182,-0.442 -0.559,-0.689 -0.364,-0.26 -0.949,-0.26 z m 6.89471,2.6 -2.405,-3.406 h 1.3 l 1.794,2.626 1.781,-2.626 h 1.287 l -2.405,3.406 2.535,3.562 h -1.3 l -1.898,-2.782 -1.924,2.782 h -1.287 z m 8.40272,2.756 q 0.26,0 0.533,-0.039 0.273,-0.052 0.442,-0.104 v 0.871 q -0.182,0.091 -0.52,0.143 -0.338,0.065 -0.65,0.065 -0.546,0 -1.014,-0.182 -0.455,-0.195 -0.741,-0.663 -0.286,-0.468 -0.286,-1.313 v -4.056 h -0.988 v -0.546 l 1.001,-0.455 0.455,-1.482 h 0.676 v 1.599 h 2.015 v 0.884 h -2.015 v 4.03 q 0,0.637 0.299,0.949 0.312,0.299 0.793,0.299 z m 5.90673,-6.292 q 0.897,0 1.534,0.39 0.65,0.39 0.988,1.105 0.351,0.702 0.351,1.651 v 0.689 h -4.771 q 0.026,1.183 0.598,1.807 0.585,0.611 1.625,0.611 0.663,0 1.17,-0.117 0.52,-0.13 1.066,-0.364 v 1.001 q -0.533,0.234 -1.053,0.338 -0.52,0.117 -1.235,0.117 -0.988,0 -1.755,-0.403 -0.754,-0.403 -1.183,-1.196 -0.416,-0.806 -0.416,-1.963 0,-1.144 0.377,-1.963 0.39,-0.819 1.079,-1.261 0.702,-0.442 1.625,-0.442 z m -0.013,0.936 q -0.819,0 -1.3,0.533 -0.468,0.52 -0.559,1.456 h 3.549 q 0,-0.598 -0.182,-1.04 -0.182,-0.442 -0.559,-0.689 -0.364,-0.26 -0.949,-0.26 z m 8.85773,-0.936 q 1.248,0 1.885,0.611 0.637,0.598 0.637,1.95 v 4.537 h -1.131 v -4.459 q 0,-0.845 -0.377,-1.261 -0.377,-0.416 -1.183,-0.416 -1.157,0 -1.599,0.65 -0.442,0.65 -0.442,1.872 v 3.614 h -1.144 v -6.968 h 0.923 l 0.169,0.949 h 0.065 q 0.234,-0.364 0.572,-0.598 0.351,-0.247 0.767,-0.364 0.416,-0.117 0.858,-0.117 z m 7.99973,7.228 q -1.3,0 -2.08,-0.897 -0.78,-0.91 -0.78,-2.704 0,-1.794 0.78,-2.704 0.793,-0.923 2.093,-0.923 0.546,0 0.949,0.143 0.403,0.13 0.702,0.364 0.299,0.234 0.507,0.52 h 0.078 q -0.013,-0.169 -0.052,-0.494 -0.026,-0.338 -0.026,-0.533 v -2.782 h 1.144 v 9.88 h -0.923 l -0.169,-0.936 h -0.052 q -0.208,0.299 -0.507,0.546 -0.299,0.234 -0.715,0.377 -0.403,0.143 -0.949,0.143 z m 0.182,-0.949 q 1.105,0 1.547,-0.598 0.455,-0.611 0.455,-1.833 v -0.208 q 0,-1.3 -0.429,-1.989 -0.429,-0.702 -1.586,-0.702 -0.923,0 -1.391,0.741 -0.455,0.728 -0.455,1.963 0,1.248 0.455,1.937 0.468,0.689 1.404,0.689 z m 11.18472,-2.522 -2.21,2.613 -0.806,-0.481 1.82,-2.223 -1.82,-2.223 0.806,-0.468 2.21,2.613 z m -2.587,0 -2.197,2.613 -0.806,-0.481 1.82,-2.223 -1.82,-2.223 0.806,-0.468 2.197,2.613 z"
         id="text10"
         style="font-size:13px"
         aria-label="extend" />
    </g>
    <!--reverse link UC14 to NFR02_S-->
    <g
       class="link"
       data-entity-1="UC14"
       data-entity-2="NFR02_S"
       data-source-line="36"
       data-uid="lnk16"
       id="link_UC14_NFR02_S">
      <path
         d="M340.2495,82.8164 C386.4795,74.2464 438.31,66.09 490.42,62 C714,44.46 977.52,66.23 1115.24,80.83"
         fill="none"
         id="UC14-backto-NFR02_S"
         style="stroke:#181818;stroke-width:1;stroke-dasharray:7,7;" />
      <polygon
         fill="#181818"
         points="334.35,83.91,343.9283,86.2025,339.2662,82.9986,342.4701,78.3366,334.35,83.91"
         style="stroke:#181818;stroke-width:1;"
         id="polygon11" />
      <path
         d="m 739.37999,49.556898 2.184,-2.613 0.819,0.468 -1.82,2.223 1.82,2.223 -0.819,0.481 -2.184,-2.613 z m 2.574,0 2.21,-2.613 0.806,0.468 -1.82,2.223 1.82,2.223 -0.806,0.481 -2.21,-2.613 z m 8.16874,-3.588 q 0.897,0 1.534,0.39 0.65,0.39 0.988,1.105 0.351,0.702 0.351,1.651 v 0.689 h -4.771 q 0.026,1.183 0.598,1.807 0.585,0.611 1.625,0.611 0.663,0 1.17,-0.117 0.52,-0.13 1.066,-0.364 v 1.001 q -0.533,0.234 -1.053,0.338 -0.52,0.117 -1.235,0.117 -0.988,0 -1.755,-0.403 -0.754,-0.403 -1.183,-1.196 -0.416,-0.806 -0.416,-1.963 0,-1.144 0.377,-1.963 0.39,-0.819 1.079,-1.261 0.702,-0.442 1.625,-0.442 z m -0.013,0.936 q -0.819,0 -1.3,0.533 -0.468,0.52 -0.559,1.456 h 3.549 q 0,-0.598 -0.182,-1.04 -0.182,-0.442 -0.559,-0.689 -0.364,-0.26 -0.949,-0.26 z m 6.89471,2.6 -2.405,-3.406 h 1.3 l 1.794,2.626 1.781,-2.626 h 1.287 l -2.405,3.406 2.535,3.562 h -1.3 l -1.898,-2.782 -1.924,2.782 h -1.287 z m 8.40272,2.756 q 0.26,0 0.533,-0.039 0.273,-0.052 0.442,-0.104 v 0.871 q -0.182,0.091 -0.52,0.143 -0.338,0.065 -0.65,0.065 -0.546,0 -1.014,-0.182 -0.455,-0.195 -0.741,-0.663 -0.286,-0.468 -0.286,-1.313 v -4.056 h -0.988 v -0.546 l 1.001,-0.455 0.455,-1.482 h 0.676 v 1.599 h 2.015 v 0.884 h -2.015 v 4.03 q 0,0.637 0.299,0.949 0.312,0.299 0.793,0.299 z m 5.90673,-6.292 q 0.897,0 1.534,0.39 0.65,0.39 0.988,1.105 0.351,0.702 0.351,1.651 v 0.689 h -4.771 q 0.026,1.183 0.598,1.807 0.585,0.611 1.625,0.611 0.663,0 1.17,-0.117 0.52,-0.13 1.066,-0.364 v 1.001 q -0.533,0.234 -1.053,0.338 -0.52,0.117 -1.235,0.117 -0.988,0 -1.755,-0.403 -0.754,-0.403 -1.183,-1.196 -0.416,-0.806 -0.416,-1.963 0,-1.144 0.377,-1.963 0.39,-0.819 1.079,-1.261 0.702,-0.442 1.625,-0.442 z m -0.013,0.936 q -0.819,0 -1.3,0.533 -0.468,0.52 -0.559,1.456 h 3.549 q 0,-0.598 -0.182,-1.04 -0.182,-0.442 -0.559,-0.689 -0.364,-0.26 -0.949,-0.26 z m 8.85773,-0.936 q 1.248,0 1.885,0.611 0.637,0.598 0.637,1.95 v 4.537 h -1.131 v -4.459 q 0,-0.845 -0.377,-1.261 -0.377,-0.416 -1.183,-0.416 -1.157,0 -1.599,0.65 -0.442,0.65 -0.442,1.872 v 3.614 h -1.144 v -6.968 h 0.923 l 0.169,0.949 h 0.065 q 0.234,-0.364 0.572,-0.598 0.351,-0.247 0.767,-0.364 0.416,-0.117 0.858,-0.117 z m 7.99973,7.228 q -1.3,0 -2.08,-0.897 -0.78,-0.91 -0.78,-2.704 0,-1.794 0.78,-2.704 0.793,-0.923 2.093,-0.923 0.546,0 0.949,0.143 0.403,0.13 0.702,0.364 0.299,0.234 0.507,0.52 h 0.078 q -0.013,-0.169 -0.052,-0.494 -0.026,-0.338 -0.026,-0.533 v -2.782 h 1.144 v 9.88 h -0.923 l -0.169,-0.936 h -0.052 q -0.208,0.299 -0.507,0.546 -0.299,0.234 -0.715,0.377 -0.403,0.143 -0.949,0.143 z m 0.182,-0.949 q 1.105,0 1.547,-0.598 0.455,-0.611 0.455,-1.833 v -0.208 q 0,-1.3 -0.429,-1.989 -0.429,-0.702 -1.586,-0.702 -0.923,0 -1.391,0.741 -0.455,0.728 -0.455,1.963 0,1.248 0.455,1.937 0.468,0.689 1.404,0.689 z m 11.18472,-2.522 -2.21,2.613 -0.806,-0.481 1.82,-2.223 -1.82,-2.223 0.806,-0.468 2.21,2.613 z m -2.587,0 -2.197,2.613 -0.806,-0.481 1.82,-2.223 -1.82,-2.223 0.806,-0.468 2.197,2.613 z"
         id="text11"
         style="font-size:13px"
         aria-label="extend" />
    </g>
    <!--SRC=[dP9DJyCm38Rl-HNMBi2XWqrCJDCqgOo29h5kQk42GiXgJOb8aob9nvVuxwHPfz5nGVJa-lNZrqbiNhXSeSOICBDAf_PT4E0h6LKI4_HamIhGl7Ysa7DDcULACiOE80W2k9Y5LqauduTmEe9bbAIpz2QAxqA8m8TES6NC_Cl3rqBAZQKI6QlpA0j7TfQaJPsM7mYqhUZ09mFt7S1qSRs8un1w_hyobA5nrEqqwBanKnHhj5WKN45OMLMYvPdg01gudVPEVpE34KnHymnBacvE572kbDq20myqpg4GN59Jk2RjEgCWBzQz8RX_vdbEyY7Oe7i3zzlcaQ6Yud2EsKkrWiFuCWbEpewyiOjFpjhL2LzfTnDSgZOnt173DX4hov_SX11fhJJ1x7ZHCFqTqtzC_tX2FzFF8-uiVRGlrPs_66kUpotAPFC0Uub1lMm92VnmMy6PlyTkTzBOZM0yvZ8JLKwJ2QlL0OoxtSQnLkdDBKhkH4zkDMVUKhy1]-->
  </g>
</svg>
