<?xml version="1.0" encoding="UTF-8"?>
<svg id="Layer_2" data-name="Layer 2" xmlns="http://www.w3.org/2000/svg" viewBox="0 0 2672 997.06">
  <defs>
    <style>
      .cls-1 {
        letter-spacing: -.02em;
      }

      .cls-2 {
        font-size: 80px;
      }

      .cls-2, .cls-3 {
        fill: #fff;
      }

      .cls-2, .cls-4, .cls-5, .cls-6, .cls-7, .cls-8 {
        stroke: #000;
        stroke-miterlimit: 10;
      }

      .cls-2, .cls-9 {
        font-family: OCRAExtended, 'OCR A Extended';
      }

      .cls-10 {
        font-family: Consolas, Consolas;
        font-size: 20px;
      }

      .cls-11 {
        letter-spacing: 0em;
      }

      .cls-4, .cls-5, .cls-6, .cls-8 {
        fill: none;
      }

      .cls-4, .cls-6 {
        stroke-linecap: round;
      }

      .cls-4, .cls-8 {
        stroke-dasharray: 12 12;
      }

      .cls-5 {
        stroke-width: 2px;
      }

      .cls-12 {
        font-family: Constantia, Constantia;
        font-size: 26px;
      }

      .cls-7 {
        fill: #e6e6e6;
      }

      .cls-13 {
        letter-spacing: 0em;
      }

      .cls-14 {
        letter-spacing: -.03em;
      }

      .cls-15 {
        letter-spacing: -.02em;
      }

      .cls-16 {
        letter-spacing: -.01em;
      }

      .cls-17 {
        letter-spacing: -.01em;
      }

      .cls-18 {
        letter-spacing: -.02em;
      }

      .cls-9 {
        font-size: 25px;
      }
    </style>
  </defs>
  <g id="Livello_1" data-name="Livello 1">
    <rect class="cls-3" width="2672" height="997.06" rx="68" ry="68"/>
    <g>
      <polygon class="cls-3" points="288.61 376.93 173.05 414.48 147.79 533.34 238.09 614.64 353.65 577.09 378.92 458.24 288.61 376.93"/>
      <rect class="cls-5" x="551.88" y="83.47" width="1972.33" height="830.11" rx="68" ry="68"/>
      <g>
        <ellipse class="cls-7" cx="2182.88" cy="498.53" rx="188" ry="69"/>
        <text class="cls-12" transform="translate(2087.3 508.1)"><tspan x="0" y="0">Visuali</tspan><tspan class="cls-13" x="77.28" y="0">z</tspan><tspan x="89.57" y="0">z</tspan><tspan class="cls-1" x="102.04" y="0">a</tspan><tspan x="113.89" y="0" xml:space="preserve"> Er</tspan><tspan class="cls-16" x="145.48" y="0">r</tspan><tspan x="155.06" y="0">o</tspan><tspan class="cls-16" x="169.11" y="0">r</tspan><tspan class="cls-1" x="178.7" y="0">e</tspan></text>
        <text class="cls-10" transform="translate(2072.24 452.05) rotate(163.39)"><tspan x="0" y="0">N</tspan></text>
        <text class="cls-10" transform="translate(2061.62 455.22) rotate(160.79)"><tspan x="0" y="0">U</tspan></text>
        <text class="cls-10" transform="translate(2051.11 458.87) rotate(157.65)"><tspan x="0" y="0">R</tspan></text>
        <text class="cls-10" transform="translate(2040.81 463.1) rotate(153.71)"><tspan x="0" y="0">-</tspan></text>
        <text class="cls-10" transform="translate(2030.75 468.04) rotate(148.41)"><tspan x="0" y="0">0</tspan></text>
        <text class="cls-10" transform="translate(2021.1 473.94) rotate(140.56)"><tspan x="0" y="0">2</tspan></text>
        <text/>
      </g>
      <text class="cls-2" transform="translate(2504.21 812.61) rotate(-90)"><tspan x="0" y="0">Gestione Dati</tspan></text>
      <g>
        <path class="cls-7" d="M344.21,564.74c0,6.45-2.61,12.29-6.84,16.52s-10.07,6.85-16.53,6.85h-114.98c-12.74,0-23.29-10.2-23.37-22.94-.12-19.62,7.79-37.38,20.62-50.22.16-.16.33-.32.49-.49,7.94-7.79,20.07-9.08,29.78-3.64,8.87,4.96,19.09,7.79,29.97,7.79s21.1-2.83,29.97-7.79c9.83-5.5,22.04-4.02,30.04,3.91,12.87,12.76,20.85,30.45,20.85,50.01Z"/>
        <circle class="cls-7" cx="263.35" cy="457.14" r="48.2"/>
        <text class="cls-12" transform="translate(219.65 570.83)"><tspan x="0" y="0">Sis</tspan><tspan class="cls-16" x="31.14" y="0">t</tspan><tspan x="39.94" y="0">em</tspan><tspan class="cls-1" x="74.92" y="0">a</tspan></text>
      </g>
      <g>
        <line class="cls-4" x1="1046.21" y1="387.3" x2="1320.48" y2="387.3"/>
        <path d="M1332.55,387.3c-5.68,2.11-12.73,5.7-17.09,9.51l3.44-9.51-3.44-9.51c4.37,3.81,11.42,7.4,17.09,9.51Z"/>
      </g>
      <g>
        <line class="cls-4" x1="1046.21" y1="609.3" x2="1320.48" y2="609.3"/>
        <path d="M1332.55,609.3c-5.68,2.11-12.73,5.7-17.09,9.51l3.44-9.51-3.44-9.51c4.37,3.81,11.42,7.4,17.09,9.51Z"/>
      </g>
      <text class="cls-10" transform="translate(2082.2 311.3)"><tspan x="0" y="0">&lt;&lt;extend&gt;&gt;</tspan></text>
      <text class="cls-10" transform="translate(2082.2 701.44)"><tspan x="0" y="0">&lt;&lt;extend&gt;&gt;</tspan></text>
      <text class="cls-10" transform="translate(1128.94 374.74)"><tspan x="0" y="0">&lt;&lt;include&gt;&gt;</tspan></text>
      <text class="cls-10" transform="translate(1128.94 596.74)"><tspan x="0" y="0">&lt;&lt;include&gt;&gt;</tspan></text>
      <g>
        <ellipse class="cls-7" cx="2182.88" cy="498.52" rx="188" ry="69"/>
        <text class="cls-12" transform="translate(2087.3 508.09)"><tspan x="0" y="0">Visuali</tspan><tspan class="cls-13" x="77.28" y="0">z</tspan><tspan x="89.57" y="0">z</tspan><tspan class="cls-1" x="102.04" y="0">a</tspan><tspan x="113.89" y="0" xml:space="preserve"> Er</tspan><tspan class="cls-16" x="145.48" y="0">r</tspan><tspan x="155.06" y="0">o</tspan><tspan class="cls-16" x="169.11" y="0">r</tspan><tspan class="cls-1" x="178.7" y="0">e</tspan></text>
        <text class="cls-10" transform="translate(2285.23 547.15) rotate(-14.85)"><tspan x="0" y="0">N</tspan></text>
        <text class="cls-10" transform="translate(2295.95 544.31) rotate(-17.17)"><tspan x="0" y="0">U</tspan></text>
        <text class="cls-10" transform="translate(2306.54 541.05) rotate(-19.87)"><tspan x="0" y="0">R</tspan></text>
        <text class="cls-10" transform="translate(2317.02 537.27) rotate(-23.16)"><tspan x="0" y="0">-</tspan></text>
        <text class="cls-10" transform="translate(2327.28 532.89) rotate(-27.35)"><tspan x="0" y="0">0</tspan></text>
        <text class="cls-10" transform="translate(2337.25 527.76) rotate(-33.09)"><tspan x="0" y="0">2</tspan></text>
        <text/>
      </g>
      <g>
        <ellipse class="cls-7" cx="1520.55" cy="387.52" rx="188" ry="69"/>
        <text class="cls-12" transform="translate(1410.64 397.09)"><tspan x="0" y="0">Richiest</tspan><tspan class="cls-1" x="90.37" y="0">a</tspan><tspan x="102.21" y="0"> </tspan><tspan class="cls-17" x="108.74" y="0">C</tspan><tspan x="125.35" y="0">on</tspan><tspan class="cls-13" x="154.54" y="0">f</tspan><tspan x="162.4" y="0">erm</tspan><tspan class="cls-1" x="207.34" y="0">a</tspan></text>
        <text class="cls-10" transform="translate(1409.91 341.05) rotate(163.39)"><tspan x="0" y="0">N</tspan></text>
        <text class="cls-10" transform="translate(1399.29 344.21) rotate(160.79)"><tspan x="0" y="0">U</tspan></text>
        <text class="cls-10" transform="translate(1388.78 347.86) rotate(157.65)"><tspan x="0" y="0">R</tspan></text>
        <text class="cls-10" transform="translate(1378.47 352.09) rotate(153.71)"><tspan x="0" y="0">-</tspan></text>
        <text class="cls-10" transform="translate(1368.42 357.03) rotate(148.41)"><tspan x="0" y="0">0</tspan></text>
        <text class="cls-10" transform="translate(1358.77 362.93) rotate(140.56)"><tspan x="0" y="0">3</tspan></text>
        <text/>
      </g>
      <g>
        <ellipse class="cls-7" cx="858.21" cy="387.52" rx="188" ry="69"/>
        <text class="cls-12" transform="translate(725.93 397.09)"><tspan x="0" y="0">Sa</tspan><tspan class="cls-11" x="25.73" y="0">lv</tspan><tspan x="45.08" y="0">ataggi</tspan><tspan class="cls-1" x="112.99" y="0">o</tspan><tspan class="cls-16" x="126.41" y="0"> </tspan><tspan class="cls-11" x="132.55" y="0">A</tspan><tspan x="149.83" y="0">u</tspan><tspan class="cls-16" x="164.63" y="0">t</tspan><tspan x="173.43" y="0">omati</tspan><tspan class="cls-18" x="239.03" y="0">c</tspan><tspan class="cls-1" x="250.52" y="0">o</tspan></text>
        <text class="cls-10" transform="translate(960.56 436.15) rotate(-14.85)"><tspan x="0" y="0">F</tspan></text>
        <text class="cls-10" transform="translate(971.28 433.31) rotate(-17.17)"><tspan x="0" y="0">D</tspan></text>
        <text class="cls-10" transform="translate(981.88 430.05) rotate(-19.87)"><tspan x="0" y="0">R</tspan></text>
        <text class="cls-10" transform="translate(992.35 426.27) rotate(-23.16)"><tspan x="0" y="0">-</tspan></text>
        <text class="cls-10" transform="translate(1002.61 421.89) rotate(-27.35)"><tspan x="0" y="0">0</tspan></text>
        <text class="cls-10" transform="translate(1012.59 416.76) rotate(-33.09)"><tspan x="0" y="0">5</tspan></text>
        <text class="cls-9" transform="translate(821.98 343.41) rotate(-3.38)"><tspan x="0" y="0">U</tspan></text>
        <text class="cls-9" transform="translate(836.4 342.55) rotate(-1.65)"><tspan x="0" y="0">C</tspan></text>
        <text class="cls-9" transform="translate(850.7 342.09) rotate(.34)"><tspan x="0" y="0">-</tspan></text>
        <text class="cls-9" transform="translate(865.15 342.12) rotate(1.68)"><tspan x="0" y="0">1</tspan></text>
        <text class="cls-9" transform="translate(879.55 342.53) rotate(3.4)"><tspan x="0" y="0">7</tspan></text>
      </g>
      <g>
        <ellipse class="cls-7" cx="858.21" cy="609.52" rx="188" ry="69"/>
        <text class="cls-12" transform="translate(726.88 594.09)"><tspan x="0" y="0">Visuali</tspan><tspan class="cls-13" x="77.28" y="0">z</tspan><tspan x="89.57" y="0">zazion</tspan><tspan class="cls-1" x="163.55" y="0">e</tspan><tspan x="175.37" y="0" xml:space="preserve"> P</tspan><tspan class="cls-16" x="197.02" y="0">r</tspan><tspan x="206.6" y="0">estiti</tspan><tspan x="21.95" y="25">o</tspan><tspan class="cls-16" x="36" y="25">r</tspan><tspan x="45.59" y="25">dinat</tspan><tspan class="cls-1" x="104.5" y="25">a</tspan><tspan class="cls-16" x="116.34" y="25"> </tspan><tspan x="122.48" y="25">pe</tspan><tspan class="cls-14" x="149.49" y="25">r</tspan><tspan class="cls-1" x="158.56" y="25"> </tspan><tspan x="164.46" y="25">dat</tspan><tspan class="cls-1" x="200.87" y="25">a </tspan><tspan x="218.6" y="25">di </tspan><tspan class="cls-16" x="64.05" y="50">r</tspan><tspan x="73.63" y="50">estituzion</tspan><tspan class="cls-1" x="186.16" y="50">e</tspan></text>
        <text class="cls-10" transform="translate(960.56 658.15) rotate(-14.85)"><tspan x="0" y="0">F</tspan></text>
        <text class="cls-10" transform="translate(971.28 655.31) rotate(-17.17)"><tspan x="0" y="0">L</tspan></text>
        <text class="cls-10" transform="translate(981.88 652.05) rotate(-19.87)"><tspan x="0" y="0">R</tspan></text>
        <text class="cls-10" transform="translate(992.35 648.27) rotate(-23.16)"><tspan x="0" y="0">-</tspan></text>
        <text class="cls-10" transform="translate(1002.61 643.89) rotate(-27.35)"><tspan x="0" y="0">0</tspan></text>
        <text class="cls-10" transform="translate(1012.59 638.76) rotate(-33.09)"><tspan x="0" y="0">4</tspan></text>
        <text class="cls-9" transform="translate(821.98 565.41) rotate(-3.38)"><tspan x="0" y="0">U</tspan></text>
        <text class="cls-9" transform="translate(836.4 564.55) rotate(-1.65)"><tspan x="0" y="0">C</tspan></text>
        <text class="cls-9" transform="translate(850.7 564.09) rotate(.34)"><tspan x="0" y="0">-</tspan></text>
        <text class="cls-9" transform="translate(865.15 564.12) rotate(1.68)"><tspan x="0" y="0">1</tspan></text>
        <text class="cls-9" transform="translate(879.55 564.53) rotate(3.4)"><tspan x="0" y="0">4</tspan></text>
      </g>
      <g>
        <ellipse class="cls-7" cx="1520.55" cy="609.52" rx="188" ry="69"/>
        <text class="cls-12" transform="translate(1378.64 606.59)"><tspan class="cls-15" x="0" y="0">E</tspan><tspan x="14.52" y="0">videnziamen</tspan><tspan class="cls-16" x="159.21" y="0">t</tspan><tspan class="cls-1" x="168.01" y="0">o</tspan><tspan x="181.43" y="0" xml:space="preserve"> manca</tspan><tspan class="cls-16" x="262.56" y="0">t</tspan><tspan class="cls-1" x="271.36" y="0">e</tspan><tspan class="cls-16" x="77.17" y="25">r</tspan><tspan x="86.75" y="25">estituzioni</tspan></text>
        <text class="cls-10" transform="translate(1612.11 660.61) rotate(-12.82)"><tspan x="0" y="0">F</tspan></text>
        <text class="cls-10" transform="translate(1622.89 658.15) rotate(-14.85)"><tspan x="0" y="0">L</tspan></text>
        <text class="cls-10" transform="translate(1633.62 655.31) rotate(-17.17)"><tspan x="0" y="0">R</tspan></text>
        <text class="cls-10" transform="translate(1644.21 652.05) rotate(-19.87)"><tspan x="0" y="0">-</tspan></text>
        <text class="cls-10" transform="translate(1654.69 648.27) rotate(-23.16)"><tspan x="0" y="0">0</tspan></text>
        <text class="cls-10" transform="translate(1664.95 643.89) rotate(-27.35)"><tspan x="0" y="0">4</tspan></text>
        <text class="cls-10" transform="translate(1674.92 638.76) rotate(-33.09)"><tspan x="0" y="0">.</tspan></text>
        <text class="cls-10" transform="translate(1684.47 632.58) rotate(-41.87)"><tspan x="0" y="0">1</tspan></text>
        <text/>
      </g>
      <g>
        <path class="cls-6" d="M378.92,460.98c87.93-34.7,205.21-69.5,279.23-73.15"/>
        <path d="M670.21,387.52c-5.61,2.28-12.55,6.08-16.8,10.02l3.15-9.61-3.73-9.4c4.48,3.68,11.63,7.06,17.37,8.99Z"/>
      </g>
      <g>
        <path class="cls-6" d="M378.92,536.08c87.93,34.7,205.21,69.5,279.23,73.15"/>
        <path d="M670.21,609.54c-5.74,1.94-12.89,5.32-17.37,8.99l3.73-9.4-3.15-9.61c4.25,3.94,11.19,7.74,16.8,10.02Z"/>
      </g>
      <g>
        <ellipse class="cls-7" cx="1520.55" cy="387.3" rx="188" ry="69"/>
        <text class="cls-12" transform="translate(1438.93 396.87)"><tspan x="0" y="0">Esegui Backu</tspan><tspan class="cls-1" x="148.67" y="0">p</tspan></text>
        <text class="cls-10" transform="translate(1624.81 435.46) rotate(-15.24)"><tspan x="0" y="0">N</tspan></text>
        <text class="cls-10" transform="translate(1635.49 432.56) rotate(-17.61)"><tspan x="0" y="0">R</tspan></text>
        <text class="cls-10" transform="translate(1646.07 429.2) rotate(-20.4)"><tspan x="0" y="0">R</tspan></text>
        <text class="cls-10" transform="translate(1656.51 425.33) rotate(-23.82)"><tspan x="0" y="0">-</tspan></text>
        <text class="cls-10" transform="translate(1666.72 420.84) rotate(-28.22)"><tspan x="0" y="0">0</tspan></text>
        <text class="cls-10" transform="translate(1676.64 415.54) rotate(-34.35)"><tspan x="0" y="0">4</tspan></text>
        <text/>
      </g>
      <g>
        <ellipse class="cls-7" cx="1520.55" cy="609.3" rx="188" ry="69"/>
        <text class="cls-12" transform="translate(1420.02 618.87)"><tspan x="0" y="0">Ripristin</tspan><tspan class="cls-1" x="97.86" y="0">o</tspan><tspan x="111.27" y="0" xml:space="preserve"> Backu</tspan><tspan class="cls-1" x="186.51" y="0">p</tspan></text>
        <text class="cls-10" transform="translate(1624.81 657.46) rotate(-15.24)"><tspan x="0" y="0">N</tspan></text>
        <text class="cls-10" transform="translate(1635.49 654.55) rotate(-17.61)"><tspan x="0" y="0">R</tspan></text>
        <text class="cls-10" transform="translate(1646.07 651.2) rotate(-20.4)"><tspan x="0" y="0">R</tspan></text>
        <text class="cls-10" transform="translate(1656.51 647.33) rotate(-23.82)"><tspan x="0" y="0">-</tspan></text>
        <text class="cls-10" transform="translate(1666.72 642.84) rotate(-28.22)"><tspan x="0" y="0">0</tspan></text>
        <text class="cls-10" transform="translate(1676.64 637.54) rotate(-34.35)"><tspan x="0" y="0">5</tspan></text>
        <text/>
      </g>
      <g>
        <ellipse class="cls-7" cx="858.21" cy="609.3" rx="188" ry="69"/>
        <text class="cls-12" transform="translate(717.36 618.87)"><tspan x="0" y="0">Caricamen</tspan><tspan class="cls-16" x="121.33" y="0">t</tspan><tspan class="cls-1" x="130.13" y="0">o</tspan><tspan class="cls-16" x="143.55" y="0"> </tspan><tspan class="cls-11" x="149.69" y="0">A</tspan><tspan x="166.97" y="0">u</tspan><tspan class="cls-16" x="181.77" y="0">t</tspan><tspan x="190.57" y="0">omati</tspan><tspan class="cls-18" x="256.17" y="0">c</tspan><tspan class="cls-1" x="267.66" y="0">o</tspan></text>
        <text class="cls-10" transform="translate(960.56 657.94) rotate(-14.85)"><tspan x="0" y="0">F</tspan></text>
        <text class="cls-10" transform="translate(971.28 655.1) rotate(-17.17)"><tspan x="0" y="0">D</tspan></text>
        <text class="cls-10" transform="translate(981.88 651.83) rotate(-19.87)"><tspan x="0" y="0">R</tspan></text>
        <text class="cls-10" transform="translate(992.35 648.05) rotate(-23.16)"><tspan x="0" y="0">-</tspan></text>
        <text class="cls-10" transform="translate(1002.61 643.68) rotate(-27.35)"><tspan x="0" y="0">0</tspan></text>
        <text class="cls-10" transform="translate(1012.59 638.54) rotate(-33.09)"><tspan x="0" y="0">5</tspan></text>
        <text class="cls-9" transform="translate(821.98 565.2) rotate(-3.38)"><tspan x="0" y="0">U</tspan></text>
        <text class="cls-9" transform="translate(836.4 564.34) rotate(-1.65)"><tspan x="0" y="0">C</tspan></text>
        <text class="cls-9" transform="translate(850.7 563.87) rotate(.34)"><tspan x="0" y="0">-</tspan></text>
        <text class="cls-9" transform="translate(865.15 563.9) rotate(1.68)"><tspan x="0" y="0">1</tspan></text>
        <text class="cls-9" transform="translate(879.55 564.31) rotate(3.4)"><tspan x="0" y="0">8</tspan></text>
      </g>
      <g>
        <path class="cls-8" d="M1008.21,334.87c178.52-102.88,1174.45-156.91,1174.67,94.65"/>
        <path d="M998.07,341.41c5.93-1.24,13.81-1.96,19.53-1.06l-7.98-6.22-2.16-9.88c-1.67,5.55-5.71,12.35-9.4,17.16Z"/>
      </g>
      <g>
        <path class="cls-8" d="M1008.21,662.19c178.52,102.88,1174.45,156.91,1174.67-94.65"/>
        <path d="M998.07,655.65c3.68,4.81,7.73,11.61,9.4,17.16l2.16-9.88,7.98-6.21c-5.73.89-13.6.18-19.53-1.06Z"/>
      </g>
    </g>
  </g>
</svg>