<svg xmlns="http://www.w3.org/2000/svg" viewBox="0 0 2672 1560"><defs><style>.cls-1,.cls-11{fill:#fff;}.cls-14,.cls-15,.cls-17,.cls-2{fill:none;}.cls-11,.cls-14,.cls-15,.cls-17,.cls-2,.cls-3{stroke:#000;stroke-miterlimit:10;}.cls-2{stroke-width:2px;}.cls-3{fill:#e6e6e6;}.cls-4{font-size:26px;font-family:Constantia;}.cls-5{letter-spacing:-0.01em;}.cls-6{letter-spacing:-0.02em;}.cls-7{letter-spacing:-0.01em;}.cls-8{font-size:20px;font-family:Consolas;}.cls-9{font-size:25px;}.cls-11,.cls-9{font-family:OCRAExtended, OCR A Extended;}.cls-10{letter-spacing:-0.02em;}.cls-11{font-size:80px;}.cls-12{letter-spacing:-0.01em;}.cls-13{letter-spacing:-0.03em;}.cls-14,.cls-15{stroke-linecap:round;}.cls-15,.cls-17{stroke-dasharray:12 12;}.cls-16{letter-spacing:-0.07em;}</style></defs><g id="Livello_2" data-name="Livello 2"><g id="Livello_1-2" data-name="Livello 1"><rect class="cls-1" width="2672" height="1560" rx="68"/><polygon class="cls-1" points="266.32 658.49 180.4 694.08 144.81 780 180.4 865.92 266.32 901.51 352.25 865.92 387.84 780 352.25 694.08 266.32 658.49"/><rect class="cls-2" x="554.85" y="96" width="1972.33" height="1368" rx="68"/><ellipse class="cls-3" cx="2185.85" cy="780" rx="188" ry="69"/><text class="cls-4" transform="translate(2090.59 789.57)">Visuali<tspan class="cls-5" x="77.28" y="0">z</tspan><tspan x="89.57" y="0">z</tspan><tspan class="cls-6" x="102.04" y="0">a</tspan><tspan x="113.89" y="0" xml:space="preserve"> Er</tspan><tspan class="cls-7" x="145.48" y="0">r</tspan><tspan x="155.06" y="0">o</tspan><tspan class="cls-7" x="169.11" y="0">r</tspan><tspan class="cls-6" x="178.7" y="0">e</tspan></text><text class="cls-8" transform="matrix(0.97, -0.25, 0.25, 0.97, 2285.39, 829.31)">N</text><text class="cls-8" transform="translate(2296.12 826.58) rotate(-16.53)">U</text><text class="cls-8" transform="matrix(0.94, -0.33, 0.33, 0.94, 2306.77, 823.42)">R</text><text class="cls-8" transform="matrix(0.93, -0.38, 0.38, 0.93, 2317.26, 819.79)">-</text><text class="cls-8" transform="translate(2327.58 815.59) rotate(-26.14)">0</text><text class="cls-8" transform="translate(2337.65 810.66) rotate(-31.38)">2</text><text/><ellipse class="cls-3" cx="861.19" cy="336" rx="188" ry="69"/><text class="cls-4" transform="translate(759.97 345.57)">Inserimen<tspan class="cls-7" x="114.38" y="0">t</tspan><tspan class="cls-6" x="123.18" y="0">o</tspan><tspan x="136.6" y="0" xml:space="preserve"> Lib</tspan><tspan class="cls-7" x="179.42" y="0">r</tspan><tspan class="cls-6" x="189.01" y="0">o</tspan></text><text class="cls-9" transform="translate(824.82 291.9) rotate(-3.4)">U</text><text class="cls-9" transform="translate(839.2 291.04) rotate(-1.67)">C</text><text class="cls-9" transform="translate(853.5 290.57) rotate(0.34)">-</text><text class="cls-9" transform="translate(867.94 290.6) rotate(1.66)">0</text><text class="cls-9" transform="matrix(1, 0.06, -0.06, 1, 882.38, 291)">1</text><ellipse class="cls-3" cx="861.19" cy="558" rx="188" ry="69"/><text class="cls-4" transform="translate(779.16 567.57)"><tspan class="cls-10">M</tspan><tspan x="23.03" y="0">odific</tspan><tspan class="cls-6" x="86.38" y="0">a</tspan><tspan x="98.22" y="0" xml:space="preserve"> Lib</tspan><tspan class="cls-7" x="141.04" y="0">r</tspan><tspan class="cls-6" x="150.63" y="0">o</tspan></text><text class="cls-9" transform="translate(824.82 513.9) rotate(-3.4)">U</text><text class="cls-9" transform="translate(839.2 513.04) rotate(-1.67)">C</text><text class="cls-9" transform="translate(853.5 512.57) rotate(0.34)">-</text><text class="cls-9" transform="translate(867.94 512.6) rotate(1.66)">0</text><text class="cls-9" transform="matrix(1, 0.06, -0.06, 1, 882.38, 513)">2</text><ellipse class="cls-3" cx="861.19" cy="780" rx="188" ry="69"/><text class="cls-4" transform="translate(754.22 789.57)">Eliminazion<tspan class="cls-6" x="136.28" y="0">e</tspan><tspan x="148.1" y="0" xml:space="preserve"> Lib</tspan><tspan class="cls-7" x="190.92" y="0">r</tspan><tspan class="cls-6" x="200.51" y="0">o</tspan></text><text class="cls-9" transform="translate(824.82 735.9) rotate(-3.4)">U</text><text class="cls-9" transform="translate(839.2 735.04) rotate(-1.67)">C</text><text class="cls-9" transform="translate(853.5 734.57) rotate(0.34)">-</text><text class="cls-9" transform="translate(867.94 734.6) rotate(1.66)">0</text><text class="cls-9" transform="matrix(1, 0.06, -0.06, 1, 882.38, 735)">3</text><ellipse class="cls-3" cx="861.19" cy="1002" rx="188" ry="69"/><text class="cls-4" transform="translate(689.54 1011.57)">Visuali<tspan class="cls-5" x="77.28" y="0">z</tspan><tspan x="89.57" y="0">zazion</tspan><tspan class="cls-6" x="163.55" y="0">e</tspan><tspan x="175.37" y="0" xml:space="preserve"> O</tspan><tspan class="cls-7" x="202.81" y="0">r</tspan><tspan x="212.39" y="0">dinat</tspan><tspan class="cls-6" x="271.3" y="0">a</tspan><tspan x="283.14" y="0" xml:space="preserve"> Libri</tspan></text><text class="cls-9" transform="translate(824.82 957.9) rotate(-3.4)">U</text><text class="cls-9" transform="translate(839.2 957.04) rotate(-1.67)">C</text><text class="cls-9" transform="translate(853.5 956.57) rotate(0.34)">-</text><text class="cls-9" transform="translate(867.94 956.6) rotate(1.66)">0</text><text class="cls-9" transform="matrix(1, 0.06, -0.06, 1, 882.38, 957)">4</text><ellipse class="cls-3" cx="861.19" cy="1224" rx="188" ry="69"/><text class="cls-4" transform="translate(787.7 1233.57)">Ri<tspan class="cls-10" x="23.78" y="0">c</tspan><tspan x="35.27" y="0">e</tspan><tspan class="cls-7" x="47.72" y="0">r</tspan><tspan x="57.31" y="0">c</tspan><tspan class="cls-6" x="69.3" y="0">a</tspan><tspan x="81.15" y="0" xml:space="preserve"> Lib</tspan><tspan class="cls-7" x="123.97" y="0">r</tspan><tspan class="cls-6" x="133.55" y="0">o</tspan></text><text class="cls-9" transform="translate(824.82 1179.9) rotate(-3.4)">U</text><text class="cls-9" transform="translate(839.2 1179.04) rotate(-1.67)">C</text><text class="cls-9" transform="translate(853.5 1178.56) rotate(0.34)">-</text><text class="cls-9" transform="translate(867.94 1178.6) rotate(1.66)">0</text><text class="cls-9" transform="matrix(1, 0.06, -0.06, 1, 882.38, 1179)">5</text><text class="cls-11" transform="translate(2507.19 1142.4) rotate(-90)">Gestione Utenti</text><ellipse class="cls-3" cx="1523.52" cy="780" rx="188" ry="69"/><text class="cls-4" transform="translate(1413.93 789.57)">Richiest<tspan class="cls-6" x="90.37" y="0">a</tspan><tspan x="102.21" y="0"> </tspan><tspan class="cls-12" x="108.74" y="0">C</tspan><tspan x="125.35" y="0">on</tspan><tspan class="cls-5" x="154.54" y="0">f</tspan><tspan x="162.4" y="0">erm</tspan><tspan class="cls-6" x="207.34" y="0">a</tspan></text><text class="cls-8" transform="matrix(0.97, -0.25, 0.25, 0.97, 1623.05, 829.31)">N</text><text class="cls-8" transform="translate(1633.79 826.58) rotate(-16.53)">U</text><text class="cls-8" transform="matrix(0.94, -0.33, 0.33, 0.94, 1644.43, 823.42)">R</text><text class="cls-8" transform="matrix(0.93, -0.38, 0.38, 0.93, 1654.93, 819.79)">-</text><text class="cls-8" transform="translate(1665.25 815.59) rotate(-26.14)">0</text><text class="cls-8" transform="translate(1675.32 810.66) rotate(-31.38)">3</text><text/><ellipse class="cls-3" cx="1523.52" cy="1002" rx="188" ry="69"/><text class="cls-4" transform="translate(1424.09 999.07)">Vist<tspan class="cls-6" x="44.51" y="0">a </tspan><tspan x="62.25" y="0">o</tspan><tspan class="cls-7" x="76.3" y="0">r</tspan><tspan x="85.88" y="0">dinat</tspan><tspan class="cls-6" x="144.79" y="0">a</tspan><tspan class="cls-7" x="156.63" y="0"> </tspan><tspan x="162.78" y="0">pe</tspan><tspan class="cls-13" x="189.78" y="0">r</tspan><tspan class="cls-5" x="45.92" y="25">M</tspan><tspan x="69.27" y="25">atri</tspan><tspan class="cls-10" x="108.25" y="25">c</tspan><tspan x="119.74" y="25">ol</tspan><tspan class="cls-6" x="141.1" y="25">a</tspan></text><text class="cls-8" transform="translate(1612.25 1053.67) rotate(-12.32)">F</text><text class="cls-8" transform="matrix(0.97, -0.25, 0.25, 0.97, 1623.05, 1051.31)">B</text><text class="cls-8" transform="translate(1633.79 1048.58) rotate(-16.53)">R</text><text class="cls-8" transform="matrix(0.94, -0.33, 0.33, 0.94, 1644.43, 1045.42)">-</text><text class="cls-8" transform="matrix(0.93, -0.38, 0.38, 0.93, 1654.93, 1041.79)">0</text><text class="cls-8" transform="translate(1665.25 1037.59) rotate(-26.14)">4</text><text class="cls-8" transform="translate(1675.32 1032.66) rotate(-31.38)">.</text><text class="cls-8" transform="matrix(0.78, -0.63, 0.63, 0.78, 1685, 1026.8)">1</text><text/><path class="cls-3" d="M347.18,846.21a23.37,23.37,0,0,1-23.37,23.37h-115a23.27,23.27,0,0,1-23.37-22.94,70.23,70.23,0,0,1,20.62-50.22l.49-.49a25,25,0,0,1,29.78-3.64,61.55,61.55,0,0,0,59.94,0,25.13,25.13,0,0,1,30,3.91A70.18,70.18,0,0,1,347.18,846.21Z"/><circle class="cls-3" cx="266.32" cy="738.62" r="48.2"/><text class="cls-4" transform="translate(195.04 852.3)">Biblio<tspan class="cls-7" x="66.09" y="0">t</tspan><tspan x="74.89" y="0">ecari</tspan><tspan class="cls-6" x="129.15" y="0">o</tspan></text><path class="cls-14" d="M266.32,658.49c0-201,252.68-315.9,394.8-322.22"/><path d="M673.19,336c-5.63,2.25-12.58,6-16.85,9.94l3.2-9.6-3.68-9.42C660.32,330.62,667.46,334,673.19,336Z"/><path class="cls-14" d="M352.25,694.08c100.42-105.18,263.59-130,308.92-135"/><path d="M673.19,558c-5.44,2.67-12.09,7-16.05,11.19l2.46-9.81-4.38-9.12C660,553.61,667.32,556.48,673.19,558Z"/><line class="cls-14" x1="387.84" y1="780" x2="661.12" y2="780"/><path d="M673.19,780c-5.68,2.11-12.73,5.7-17.1,9.51l3.44-9.51-3.44-9.51C660.46,774.3,667.51,777.89,673.19,780Z"/><path class="cls-14" d="M352.25,865.92c100.38,116.25,263.48,133.19,308.88,135.66"/><path d="M673.19,1002c-5.76,1.88-12.94,5.2-17.46,8.84l3.81-9.37-3.06-9.64C660.69,995.81,667.59,999.67,673.19,1002Z"/><path class="cls-14" d="M266.32,901.51c0,294.94,327.35,320.24,394.8,322.32"/><path d="M673.19,1224c-5.72,2-12.84,5.46-17.28,9.19l3.62-9.45-3.26-9.57C660.57,1218.06,667.55,1221.79,673.19,1224Z"/><line class="cls-15" x1="1049.19" y1="780" x2="1323.45" y2="780"/><path d="M1335.52,780c-5.68,2.11-12.73,5.7-17.09,9.51l3.44-9.51-3.44-9.51C1322.79,774.3,1329.84,777.89,1335.52,780Z"/><line class="cls-15" x1="1061.26" y1="1002" x2="1335.52" y2="1002"/><path d="M1049.19,1002c5.68,2.11,12.72,5.7,17.09,9.51l-3.44-9.51,3.44-9.51C1061.91,996.3,1054.87,999.89,1049.19,1002Z"/><path class="cls-15" d="M1033.62,585.52c14.08,16,250.61,17.75,306.33,4.66"/><path d="M1351.08,585.52c-4.49,4.06-9.71,10-12.36,15.17l-.32-10.11-6.72-7.56C1337.15,584.94,1345,585.67,1351.08,585.52Z"/><path class="cls-15" d="M1033.62,308.51c14.08-16,250.61-17.74,306.33-4.65"/><path d="M1351.08,308.51c-6-.14-13.93.59-19.4,2.51l6.72-7.56.32-10.11C1341.37,298.51,1346.59,304.46,1351.08,308.51Z"/><path class="cls-15" d="M1061.26,1224c886.75-1.32,1124.59-148.37,1124.59-375"/><path d="M1049.19,1224c5.69,2.08,12.75,5.64,17.14,9.42l-3.49-9.49,3.39-9.53C1061.88,1218.23,1054.85,1221.86,1049.19,1224Z"/><text class="cls-8" transform="translate(2032.67 461.66)">&lt;&lt;extend&gt;&gt;</text><text class="cls-8" transform="translate(1823.49 658.45)">&lt;&lt;extend&gt;&gt;</text><text class="cls-8" transform="translate(1823.49 858.92)">&lt;&lt;extend&gt;&gt;</text><text class="cls-8" transform="translate(2081.46 1073.64)">&lt;&lt;extend&gt;&gt;</text><text class="cls-8" transform="translate(1146.89 992.79)">&lt;&lt;extend&gt;&gt;</text><text class="cls-8" transform="translate(1131.92 767.43)">&lt;&lt;include&gt;&gt;</text><text class="cls-8" transform="translate(1131.87 626)">&lt;&lt;include&gt;&gt;</text><text class="cls-8" transform="translate(1131.87 284.98)">&lt;&lt;include&gt;&gt;</text><text class="cls-8" transform="translate(1039.16 451.53)">&lt;&lt;include&gt;&gt;</text><text class="cls-8" transform="translate(1220.33 451.53)">&lt;&lt;include&gt;&gt;</text><ellipse class="cls-3" cx="861.19" cy="336" rx="188" ry="69"/><text class="cls-4" transform="translate(751.65 345.57)">Inserimen<tspan class="cls-7" x="114.38" y="0">t</tspan><tspan class="cls-6" x="123.18" y="0">o</tspan><tspan x="136.6" y="0"> </tspan><tspan class="cls-7" x="143.13" y="0">Ut</tspan><tspan x="170.88" y="0">en</tspan><tspan class="cls-7" x="198.47" y="0">t</tspan><tspan class="cls-6" x="207.26" y="0">e</tspan></text><text class="cls-8" transform="matrix(0.97, -0.25, 0.25, 0.97, 960.72, 385.31)">F</text><text class="cls-8" transform="translate(971.45 382.58) rotate(-16.53)">U</text><text class="cls-8" transform="matrix(0.94, -0.33, 0.33, 0.94, 982.1, 379.42)">R</text><text class="cls-8" transform="matrix(0.93, -0.38, 0.38, 0.93, 992.59, 375.79)">-</text><text class="cls-8" transform="translate(1002.92 371.59) rotate(-26.14)">0</text><text class="cls-8" transform="translate(1012.99 366.66) rotate(-31.38)">1</text><text class="cls-9" transform="translate(824.82 291.9) rotate(-3.4)">U</text><text class="cls-9" transform="translate(839.2 291.04) rotate(-1.67)">C</text><text class="cls-9" transform="translate(853.5 290.56) rotate(0.34)">-</text><text class="cls-9" transform="translate(867.94 290.6) rotate(1.66)">0</text><text class="cls-9" transform="matrix(1, 0.06, -0.06, 1, 882.38, 291)">6</text><ellipse class="cls-3" cx="861.19" cy="558" rx="188" ry="69"/><text class="cls-4" transform="translate(770.83 567.57)"><tspan class="cls-10">M</tspan><tspan x="23.03" y="0">odific</tspan><tspan class="cls-6" x="86.38" y="0">a</tspan><tspan x="98.22" y="0"> </tspan><tspan class="cls-7" x="104.75" y="0">Ut</tspan><tspan x="132.5" y="0">en</tspan><tspan class="cls-7" x="160.09" y="0">t</tspan><tspan class="cls-6" x="168.89" y="0">e</tspan></text><text class="cls-8" transform="matrix(0.97, -0.25, 0.25, 0.97, 960.72, 607.31)">F</text><text class="cls-8" transform="translate(971.45 604.58) rotate(-16.53)">U</text><text class="cls-8" transform="matrix(0.94, -0.33, 0.33, 0.94, 982.1, 601.42)">R</text><text class="cls-8" transform="matrix(0.93, -0.38, 0.38, 0.93, 992.59, 597.79)">-</text><text class="cls-8" transform="translate(1002.92 593.59) rotate(-26.14)">0</text><text class="cls-8" transform="translate(1012.99 588.66) rotate(-31.38)">2</text><text class="cls-9" transform="translate(824.82 513.9) rotate(-3.4)">U</text><text class="cls-9" transform="translate(839.2 513.04) rotate(-1.67)">C</text><text class="cls-9" transform="translate(853.5 512.57) rotate(0.34)">-</text><text class="cls-9" transform="translate(867.94 512.6) rotate(1.66)">0</text><text class="cls-9" transform="matrix(1, 0.06, -0.06, 1, 882.38, 513)">7</text><ellipse class="cls-3" cx="861.19" cy="780" rx="188" ry="69"/><text class="cls-4" transform="translate(745.89 789.57)">Eliminazion<tspan class="cls-6" x="136.28" y="0">e</tspan><tspan x="148.1" y="0"> </tspan><tspan class="cls-7" x="154.63" y="0">Ut</tspan><tspan x="182.38" y="0">en</tspan><tspan class="cls-7" x="209.97" y="0">t</tspan><tspan class="cls-6" x="218.77" y="0">e</tspan></text><text class="cls-8" transform="matrix(0.97, -0.25, 0.25, 0.97, 960.72, 829.31)">F</text><text class="cls-8" transform="translate(971.45 826.58) rotate(-16.53)">U</text><text class="cls-8" transform="matrix(0.94, -0.33, 0.33, 0.94, 982.1, 823.42)">R</text><text class="cls-8" transform="matrix(0.93, -0.38, 0.38, 0.93, 992.59, 819.79)">-</text><text class="cls-8" transform="translate(1002.92 815.59) rotate(-26.14)">0</text><text class="cls-8" transform="translate(1012.99 810.66) rotate(-31.38)">3</text><text class="cls-9" transform="translate(824.82 735.9) rotate(-3.4)">U</text><text class="cls-9" transform="translate(839.2 735.04) rotate(-1.67)">C</text><text class="cls-9" transform="translate(853.5 734.57) rotate(0.34)">-</text><text class="cls-9" transform="translate(867.94 734.6) rotate(1.66)">0</text><text class="cls-9" transform="matrix(1, 0.06, -0.06, 1, 882.38, 735)">8</text><ellipse class="cls-3" cx="861.19" cy="1224.01" rx="188" ry="69"/><text class="cls-4" transform="translate(779.37 1233.58)">Ri<tspan class="cls-10" x="23.78" y="0">c</tspan><tspan x="35.27" y="0">e</tspan><tspan class="cls-7" x="47.72" y="0">r</tspan><tspan x="57.31" y="0">c</tspan><tspan class="cls-6" x="69.3" y="0">a</tspan><tspan x="81.15" y="0"> </tspan><tspan class="cls-7" x="87.67" y="0">Ut</tspan><tspan x="115.43" y="0">en</tspan><tspan class="cls-7" x="143.01" y="0">t</tspan><tspan class="cls-6" x="151.81" y="0">e</tspan></text><text class="cls-8" transform="matrix(0.98, -0.2, 0.2, 0.98, 944.49, 1276.73)">F</text><text class="cls-8" transform="matrix(0.97, -0.23, 0.23, 0.97, 955.33, 1274.54)">U</text><text class="cls-8" transform="translate(966.11 1272) rotate(-15.38)">R</text><text class="cls-8" transform="translate(976.81 1269.06) rotate(-17.77)">-</text><text class="cls-8" transform="translate(987.38 1265.68) rotate(-20.6)">0</text><text class="cls-8" transform="translate(997.8 1261.77) rotate(-24.07)">5</text><text class="cls-8" transform="translate(1007.99 1257.24) rotate(-28.54)">&amp;</text><text class="cls-8" transform="matrix(0.82, -0.57, 0.57, 0.82, 1017.89, 1251.88)">.</text><text class="cls-8" transform="matrix(0.71, -0.7, 0.7, 0.71, 1027.28, 1245.41)">1</text><text class="cls-9" transform="translate(824.82 1179.91) rotate(-3.4)">U</text><text class="cls-9" transform="translate(839.2 1179.05) rotate(-1.67)">C</text><text class="cls-9" transform="translate(853.5 1178.57) rotate(0.34)">-</text><text class="cls-9" transform="translate(867.94 1178.61) rotate(1.66)">1</text><text class="cls-9" transform="matrix(1, 0.06, -0.06, 1, 882.38, 1179.01)">0</text><ellipse class="cls-3" cx="861.19" cy="1002" rx="188" ry="69"/><text class="cls-4" transform="translate(734.3 986.57)">Visuali<tspan class="cls-5" x="77.28" y="0">z</tspan><tspan x="89.57" y="0">zazion</tspan><tspan class="cls-6" x="163.55" y="0">e</tspan><tspan x="175.37" y="0"> </tspan><tspan class="cls-7" x="181.9" y="0">Ut</tspan><tspan x="209.65" y="0">enti</tspan><tspan x="1.62" y="25">o</tspan><tspan class="cls-7" x="15.67" y="25">r</tspan><tspan x="25.26" y="25">dinat</tspan><tspan class="cls-6" x="84.16" y="25">a</tspan><tspan class="cls-7" x="96.01" y="25"> </tspan><tspan x="102.15" y="25">pe</tspan><tspan class="cls-13" x="129.16" y="25">r</tspan><tspan x="138.23" y="25"> </tspan><tspan class="cls-12" x="144.76" y="25">C</tspan><tspan x="161.38" y="25">ognom</tspan><tspan class="cls-6" x="240.34" y="25">e</tspan><tspan x="252.16" y="25"> </tspan><tspan class="cls-6" x="83.97" y="50">e</tspan><tspan x="95.79" y="50"> </tspan><tspan class="cls-7" x="102.32" y="50">N</tspan><tspan x="121.41" y="50">om</tspan><tspan class="cls-6" x="157.99" y="50">e</tspan><tspan x="169.81" y="50"> </tspan></text><text class="cls-8" transform="matrix(0.97, -0.25, 0.25, 0.97, 960.72, 1051.31)">F</text><text class="cls-8" transform="translate(971.45 1048.58) rotate(-16.53)">U</text><text class="cls-8" transform="matrix(0.94, -0.33, 0.33, 0.94, 982.1, 1045.42)">R</text><text class="cls-8" transform="matrix(0.93, -0.38, 0.38, 0.93, 992.59, 1041.79)">-</text><text class="cls-8" transform="translate(1002.92 1037.59) rotate(-26.14)">0</text><text class="cls-8" transform="translate(1012.99 1032.66) rotate(-31.38)">4</text><text class="cls-9" transform="translate(824.82 957.9) rotate(-3.4)">U</text><text class="cls-9" transform="translate(839.2 957.04) rotate(-1.67)">C</text><text class="cls-9" transform="translate(853.5 956.57) rotate(0.34)">-</text><text class="cls-9" transform="translate(867.94 956.6) rotate(1.66)">0</text><text class="cls-9" transform="matrix(1, 0.06, -0.06, 1, 882.38, 957)">9</text><ellipse class="cls-3" cx="1523.52" cy="336" rx="188" ry="69"/><text class="cls-4" transform="translate(1422.43 345.57)"><tspan class="cls-16">V</tspan><tspan x="15.67" y="0">alidazion</tspan><tspan class="cls-6" x="119.07" y="0">e</tspan><tspan x="130.89" y="0" xml:space="preserve"> Email</tspan></text><text class="cls-8" transform="matrix(0.97, -0.25, 0.25, 0.97, 1623.05, 385.31)">N</text><text class="cls-8" transform="translate(1633.79 382.58) rotate(-16.53)">R</text><text class="cls-8" transform="matrix(0.94, -0.33, 0.33, 0.94, 1644.43, 379.42)">R</text><text class="cls-8" transform="matrix(0.93, -0.38, 0.38, 0.93, 1654.93, 375.79)">-</text><text class="cls-8" transform="translate(1665.25 371.59) rotate(-26.14)">0</text><text class="cls-8" transform="translate(1675.32 366.66) rotate(-31.38)">1</text><text/><ellipse class="cls-3" cx="1523.52" cy="558" rx="188" ry="69"/><text class="cls-4" transform="translate(1401.3 567.57)"><tspan class="cls-16">V</tspan><tspan x="15.67" y="0">alidazion</tspan><tspan class="cls-6" x="119.07" y="0">e</tspan><tspan x="130.89" y="0"> </tspan><tspan class="cls-5" x="137.41" y="0">M</tspan><tspan x="160.76" y="0">atri</tspan><tspan class="cls-10" x="199.75" y="0">c</tspan><tspan x="211.24" y="0">ol</tspan><tspan class="cls-6" x="232.59" y="0">a</tspan></text><text class="cls-8" transform="matrix(0.97, -0.25, 0.25, 0.97, 1623.05, 607.31)">N</text><text class="cls-8" transform="translate(1633.79 604.58) rotate(-16.53)">R</text><text class="cls-8" transform="matrix(0.94, -0.33, 0.33, 0.94, 1644.43, 601.42)">R</text><text class="cls-8" transform="matrix(0.93, -0.38, 0.38, 0.93, 1654.93, 597.79)">-</text><text class="cls-8" transform="translate(1665.25 593.59) rotate(-26.14)">0</text><text class="cls-8" transform="translate(1675.32 588.66) rotate(-31.38)">2</text><text/><path class="cls-17" d="M1033.62,530.47c10.53-15.59,255.31-126.49,307.91-159.58"/><path d="M1351.08,363.52c-3.25,5.11-6.7,12.23-7.88,17.9l-3-9.66-8.49-5.5C1337.5,366.66,1345.28,365.27,1351.08,363.52Z"/><path class="cls-17" d="M1033.89,363.24c10.53,15.6,255.31,126.49,307.91,159.58"/><path d="M1351.36,530.19c-5.8-1.75-13.59-3.14-19.37-2.74l8.48-5.5,3-9.66C1344.66,518,1348.1,525.08,1351.36,530.19Z"/><path class="cls-17" d="M1723.58,336.36c158.88,9.33,462.27,195.94,462.27,374.64"/><path d="M1711.52,336c5.6,2.3,12.52,6.14,16.76,10.1l-3.11-9.63,3.76-9.38C1724.44,330.74,1717.27,334.09,1711.52,336Z"/><path class="cls-17" d="M1723.58,558.44c114.33,8,297.85,124.68,342.67,168.32"/><path d="M1711.52,558c5.58,2.35,12.47,6.25,16.67,10.24l-3-9.65,3.85-9.35C1724.48,552.86,1717.29,556.14,1711.52,558Z"/><path class="cls-17" d="M1037.16,818.19c222.24,98.09,964.58,76.8,1029.09,15"/><path d="M1026.24,813.06c4.26,4.3,9.14,10.53,11.5,15.82l.88-10.07,7.13-7.18C1040.18,813.25,1032.27,813.54,1026.24,813.06Z"/></g></g></svg>