<?xml version="1.0" encoding="UTF-8"?>
<svg id="Layer_2" data-name="Layer 2" xmlns="http://www.w3.org/2000/svg" viewBox="0 0 2672 1560">
  <defs>
    <style>
      .cls-1, .cls-2, .cls-3, .cls-4, .cls-5, .cls-6, .cls-7, .cls-8, .cls-9 {
        stroke: #000;
        stroke-miterlimit: 10;
      }

      .cls-1, .cls-3, .cls-4, .cls-5, .cls-6, .cls-8, .cls-9 {
        fill: none;
      }

      .cls-10 {
        letter-spacing: -.02em;
      }

      .cls-2 {
        font-size: 80px;
      }

      .cls-2, .cls-11 {
        fill: #fff;
      }

      .cls-2, .cls-12 {
        font-family: OCRAExtended, 'OCR A Extended';
      }

      .cls-13 {
        letter-spacing: -.02em;
      }

      .cls-14 {
        font-family: Consolas, Consolas;
        font-size: 20px;
      }

      .cls-3, .cls-6 {
        stroke-linecap: round;
      }

      .cls-3, .cls-9 {
        stroke-dasharray: 12 12;
      }

      .cls-4 {
        stroke-dasharray: 12.06 12.06;
      }

      .cls-5 {
        stroke-width: 2px;
      }

      .cls-15 {
        font-family: Constantia, Constantia;
        font-size: 26px;
      }

      .cls-7 {
        fill: #e6e6e6;
      }

      .cls-16 {
        letter-spacing: 0em;
      }

      .cls-17 {
        letter-spacing: -.03em;
      }

      .cls-18 {
        letter-spacing: -.02em;
      }

      .cls-8 {
        stroke-dasharray: 11.89 11.89;
      }

      .cls-19 {
        letter-spacing: -.01em;
      }

      .cls-20 {
        letter-spacing: -.01em;
      }

      .cls-21 {
        letter-spacing: -.02em;
      }

      .cls-12 {
        font-size: 25px;
      }
    </style>
  </defs>
  <g id="Livello_1" data-name="Livello 1">
    <g>
      <rect class="cls-11" width="2672" height="1560" rx="68" ry="68"/>
      <polygon class="cls-11" points="263.35 658.49 191.93 681.7 147.79 742.45 147.79 817.55 191.93 878.3 263.35 901.51 334.77 878.3 378.92 817.55 378.92 742.45 334.77 681.7 263.35 658.49"/>
      <rect class="cls-5" x="551.88" y="96" width="1972.33" height="1368" rx="68" ry="68"/>
      <g>
        <ellipse class="cls-7" cx="2182.88" cy="780" rx="188" ry="69"/>
        <text class="cls-15" transform="translate(2087.3 789.57)"><tspan x="0" y="0">Visuali</tspan><tspan class="cls-16" x="77.28" y="0">z</tspan><tspan x="89.57" y="0">z</tspan><tspan class="cls-10" x="102.04" y="0">a</tspan><tspan x="113.89" y="0" xml:space="preserve"> Er</tspan><tspan class="cls-19" x="145.48" y="0">r</tspan><tspan x="155.06" y="0">o</tspan><tspan class="cls-19" x="169.11" y="0">r</tspan><tspan class="cls-10" x="178.7" y="0">e</tspan></text>
        <text class="cls-14" transform="translate(2072.24 733.52) rotate(163.39)"><tspan x="0" y="0">N</tspan></text>
        <text class="cls-14" transform="translate(2061.62 736.69) rotate(160.79)"><tspan x="0" y="0">U</tspan></text>
        <text class="cls-14" transform="translate(2051.11 740.34) rotate(157.65)"><tspan x="0" y="0">R</tspan></text>
        <text class="cls-14" transform="translate(2040.81 744.57) rotate(153.71)"><tspan x="0" y="0">-</tspan></text>
        <text class="cls-14" transform="translate(2030.75 749.51) rotate(148.41)"><tspan x="0" y="0">0</tspan></text>
        <text class="cls-14" transform="translate(2021.1 755.41) rotate(140.56)"><tspan x="0" y="0">2</tspan></text>
        <text/>
      </g>
      <text class="cls-2" transform="translate(2504.21 1190.72) rotate(-90)"><tspan x="0" y="0">Gestione Prestiti</tspan></text>
      <g>
        <path class="cls-7" d="M344.21,846.21c0,6.45-2.61,12.29-6.84,16.52s-10.07,6.85-16.53,6.85h-114.98c-12.74,0-23.29-10.2-23.37-22.94-.12-19.62,7.79-37.38,20.62-50.22.16-.16.33-.32.49-.49,7.94-7.79,20.07-9.08,29.78-3.64,8.87,4.96,19.09,7.79,29.97,7.79s21.1-2.83,29.97-7.79c9.83-5.5,22.04-4.02,30.04,3.91,12.87,12.76,20.85,30.45,20.85,50.01Z"/>
        <circle class="cls-7" cx="263.35" cy="738.62" r="48.2"/>
        <text class="cls-15" transform="translate(191.75 852.3)"><tspan x="0" y="0">Biblio</tspan><tspan class="cls-19" x="66.09" y="0">t</tspan><tspan x="74.89" y="0">ecari</tspan><tspan class="cls-10" x="129.15" y="0">o</tspan></text>
      </g>
      <g>
        <path class="cls-6" d="M263.35,658.49c0-201,252.69-420.76,394.81-432.97"/>
        <path d="M670.21,224.99c-5.57,2.38-12.44,6.31-16.61,10.33l2.98-9.67-3.9-9.33c4.55,3.59,11.76,6.84,17.53,8.67Z"/>
      </g>
      <g>
        <path class="cls-6" d="M334.77,681.7c92.07-132.25,224.79-226.15,323.38-234.15"/>
        <path d="M670.21,446.99c-5.56,2.41-12.4,6.37-16.56,10.41l2.93-9.68-3.94-9.31c4.57,3.57,11.79,6.78,17.58,8.58Z"/>
      </g>
      <g>
        <path class="cls-6" d="M349.27,865.92c111.17,128.73,235.63,235.02,308.91,246.12"/>
        <path d="M670.21,1113c-5.84,1.6-13.18,4.56-17.87,7.97l4.26-9.17-2.59-9.78c4.02,4.18,10.72,8.38,16.19,10.98Z"/>
      </g>
      <g>
        <path class="cls-6" d="M263.35,901.51c0,314.68,296.22,424.08,394.81,432.91"/>
        <path d="M670.21,1335.01c-5.79,1.78-13.03,4.96-17.61,8.51l3.98-9.3-2.89-9.69c4.14,4.05,10.97,8.05,16.52,10.48Z"/>
      </g>
      <g>
        <line class="cls-3" x1="1046.21" y1="668.77" x2="1320.48" y2="668.77"/>
        <path d="M1332.55,668.77c-5.68,2.11-12.73,5.7-17.09,9.51l3.44-9.51-3.44-9.51c4.37,3.81,11.42,7.4,17.09,9.51Z"/>
      </g>
      <g>
        <line class="cls-3" x1="1046.21" y1="890.77" x2="1320.48" y2="890.77"/>
        <path d="M1332.55,890.77c-5.68,2.11-12.73,5.7-17.09,9.51l3.44-9.51-3.44-9.51c4.37,3.81,11.42,7.4,17.09,9.51Z"/>
      </g>
      <g>
        <path class="cls-3" d="M1058.28,1112.98c576.48-2.09,915.16-153.86,1004.99-279.74"/>
        <path d="M1046.21,1113c5.7,2.06,12.77,5.6,17.17,9.37l-3.52-9.48,3.36-9.54c-4.34,3.84-11.35,7.5-17.02,9.65Z"/>
      </g>
      <text class="cls-14" transform="translate(1854.67 807.99)"><tspan x="0" y="0">&lt;&lt;extend&gt;&gt;</tspan></text>
      <text class="cls-14" transform="translate(1856.01 673.94)"><tspan x="0" y="0">&lt;&lt;extend&gt;&gt;</tspan></text>
      <text class="cls-14" transform="translate(1856.01 991.98)"><tspan x="0" y="0">&lt;&lt;extend&gt;&gt;</tspan></text>
      <text class="cls-14" transform="translate(2082.2 582.52)"><tspan x="0" y="0">&lt;&lt;extend&gt;&gt;</tspan></text>
      <text class="cls-14" transform="translate(1128.94 656.21)"><tspan x="0" y="0">&lt;&lt;include&gt;&gt;</tspan></text>
      <text class="cls-14" transform="translate(1128.94 878.21)"><tspan x="0" y="0">&lt;&lt;include&gt;&gt;</tspan></text>
      <g>
        <path class="cls-9" d="M1023.73,716.16c217.84,97.67,826.96,65.96,971.15,63.84"/>
        <path d="M1012.82,710.99c4.25,4.32,9.11,10.56,11.45,15.87l.92-10.07,7.15-7.15c-5.57,1.6-13.48,1.86-19.51,1.36Z"/>
      </g>
      <g>
        <ellipse class="cls-7" cx="2182.88" cy="779.99" rx="188" ry="69"/>
        <text class="cls-15" transform="translate(2087.3 789.56)"><tspan x="0" y="0">Visuali</tspan><tspan class="cls-16" x="77.28" y="0">z</tspan><tspan x="89.57" y="0">z</tspan><tspan class="cls-10" x="102.04" y="0">a</tspan><tspan x="113.89" y="0" xml:space="preserve"> Er</tspan><tspan class="cls-19" x="145.48" y="0">r</tspan><tspan x="155.06" y="0">o</tspan><tspan class="cls-19" x="169.11" y="0">r</tspan><tspan class="cls-10" x="178.7" y="0">e</tspan></text>
        <text class="cls-14" transform="translate(2285.23 828.63) rotate(-14.85)"><tspan x="0" y="0">N</tspan></text>
        <text class="cls-14" transform="translate(2295.95 825.79) rotate(-17.17)"><tspan x="0" y="0">U</tspan></text>
        <text class="cls-14" transform="translate(2306.54 822.52) rotate(-19.87)"><tspan x="0" y="0">R</tspan></text>
        <text class="cls-14" transform="translate(2317.02 818.74) rotate(-23.16)"><tspan x="0" y="0">-</tspan></text>
        <text class="cls-14" transform="translate(2327.28 814.36) rotate(-27.35)"><tspan x="0" y="0">0</tspan></text>
        <text class="cls-14" transform="translate(2337.25 809.23) rotate(-33.09)"><tspan x="0" y="0">2</tspan></text>
        <text/>
      </g>
      <g>
        <ellipse class="cls-7" cx="1520.55" cy="668.99" rx="188" ry="69"/>
        <text class="cls-15" transform="translate(1410.64 678.56)"><tspan x="0" y="0">Richiest</tspan><tspan class="cls-10" x="90.37" y="0">a</tspan><tspan x="102.21" y="0"> </tspan><tspan class="cls-20" x="108.74" y="0">C</tspan><tspan x="125.35" y="0">on</tspan><tspan class="cls-16" x="154.54" y="0">f</tspan><tspan x="162.4" y="0">erm</tspan><tspan class="cls-10" x="207.34" y="0">a</tspan></text>
        <text class="cls-14" transform="translate(1409.91 622.52) rotate(163.39)"><tspan x="0" y="0">N</tspan></text>
        <text class="cls-14" transform="translate(1399.29 625.68) rotate(160.79)"><tspan x="0" y="0">U</tspan></text>
        <text class="cls-14" transform="translate(1388.78 629.33) rotate(157.65)"><tspan x="0" y="0">R</tspan></text>
        <text class="cls-14" transform="translate(1378.47 633.56) rotate(153.71)"><tspan x="0" y="0">-</tspan></text>
        <text class="cls-14" transform="translate(1368.42 638.5) rotate(148.41)"><tspan x="0" y="0">0</tspan></text>
        <text class="cls-14" transform="translate(1358.77 644.4) rotate(140.56)"><tspan x="0" y="0">3</tspan></text>
        <text/>
      </g>
      <g>
        <ellipse class="cls-7" cx="858.21" cy="224.99" rx="188" ry="69"/>
        <text class="cls-15" transform="translate(735.61 234.56)"><tspan class="cls-19" x="0" y="0">R</tspan><tspan x="16.03" y="0">egist</tspan><tspan class="cls-13" x="68.76" y="0">r</tspan><tspan x="78.28" y="0">azion</tspan><tspan class="cls-10" x="139.79" y="0">e</tspan><tspan x="151.61" y="0" xml:space="preserve"> P</tspan><tspan class="cls-19" x="173.25" y="0">r</tspan><tspan x="182.84" y="0">esti</tspan><tspan class="cls-19" x="222.36" y="0">t</tspan><tspan class="cls-10" x="231.16" y="0">o</tspan></text>
        <text class="cls-14" transform="translate(956.78 274.53) rotate(-14.11)"><tspan x="0" y="0">F</tspan></text>
        <text class="cls-14" transform="translate(967.52 271.83) rotate(-16.31)"><tspan x="0" y="0">L</tspan></text>
        <text class="cls-14" transform="translate(978.15 268.72) rotate(-18.86)"><tspan x="0" y="0">R</tspan></text>
        <text class="cls-14" transform="translate(988.66 265.14) rotate(-21.92)"><tspan x="0" y="0">-</tspan></text>
        <text class="cls-14" transform="translate(999.01 260.99) rotate(-25.74)"><tspan x="0" y="0">0</tspan></text>
        <text class="cls-14" transform="translate(1009.1 256.14) rotate(-30.82)"><tspan x="0" y="0">1</tspan></text>
        <text class="cls-12" transform="translate(821.98 180.88) rotate(-3.38)"><tspan x="0" y="0">U</tspan></text>
        <text class="cls-12" transform="translate(836.4 180.02) rotate(-1.65)"><tspan x="0" y="0">C</tspan></text>
        <text class="cls-12" transform="translate(850.7 179.56) rotate(.34)"><tspan x="0" y="0">-</tspan></text>
        <text class="cls-12" transform="translate(865.15 179.59) rotate(1.68)"><tspan x="0" y="0">1</tspan></text>
        <text class="cls-12" transform="translate(879.55 180) rotate(3.4)"><tspan x="0" y="0">1</tspan></text>
      </g>
      <g>
        <ellipse class="cls-7" cx="858.21" cy="446.99" rx="188" ry="69"/>
        <text class="cls-15" transform="translate(705.71 456.56)"><tspan class="cls-21" x="0" y="0">M</tspan><tspan x="23.03" y="0">odific</tspan><tspan class="cls-10" x="86.38" y="0">a</tspan><tspan x="98.22" y="0"> </tspan><tspan class="cls-20" x="104.75" y="0">D</tspan><tspan x="123.96" y="0">at</tspan><tspan class="cls-10" x="145.62" y="0">a</tspan><tspan x="157.46" y="0"> </tspan><tspan class="cls-19" x="163.99" y="0">R</tspan><tspan x="180.02" y="0">estituzion</tspan><tspan class="cls-10" x="292.55" y="0">e</tspan></text>
        <text class="cls-14" transform="translate(958.68 496.08) rotate(-14.48)"><tspan x="0" y="0">F</tspan></text>
        <text class="cls-14" transform="translate(969.38 493.32) rotate(-16.73)"><tspan x="0" y="0">L</tspan></text>
        <text class="cls-14" transform="translate(980.02 490.13) rotate(-19.36)"><tspan x="0" y="0">R</tspan></text>
        <text class="cls-14" transform="translate(990.5 486.45) rotate(-22.52)"><tspan x="0" y="0">-</tspan></text>
        <text class="cls-14" transform="translate(1000.81 482.19) rotate(-26.52)"><tspan x="0" y="0">0</tspan></text>
        <text class="cls-14" transform="translate(1010.86 477.2) rotate(-31.92)"><tspan x="0" y="0">2</tspan></text>
        <text class="cls-12" transform="translate(821.98 402.88) rotate(-3.38)"><tspan x="0" y="0">U</tspan></text>
        <text class="cls-12" transform="translate(836.4 402.02) rotate(-1.65)"><tspan x="0" y="0">C</tspan></text>
        <text class="cls-12" transform="translate(850.7 401.56) rotate(.34)"><tspan x="0" y="0">-</tspan></text>
        <text class="cls-12" transform="translate(865.15 401.59) rotate(1.68)"><tspan x="0" y="0">1</tspan></text>
        <text class="cls-12" transform="translate(879.55 402) rotate(3.4)"><tspan x="0" y="0">2</tspan></text>
      </g>
      <g>
        <ellipse class="cls-7" cx="858.21" cy="668.99" rx="188" ry="69"/>
        <text class="cls-15" transform="translate(737.36 678.56)"><tspan x="0" y="0">Eliminazion</tspan><tspan class="cls-10" x="136.28" y="0">e</tspan><tspan x="148.1" y="0" xml:space="preserve"> P</tspan><tspan class="cls-19" x="169.75" y="0">r</tspan><tspan x="179.33" y="0">esti</tspan><tspan class="cls-19" x="218.85" y="0">t</tspan><tspan class="cls-10" x="227.65" y="0">o</tspan></text>
        <text class="cls-14" transform="translate(958.68 718.08) rotate(-14.48)"><tspan x="0" y="0">F</tspan></text>
        <text class="cls-14" transform="translate(969.38 715.32) rotate(-16.73)"><tspan x="0" y="0">L</tspan></text>
        <text class="cls-14" transform="translate(980.02 712.13) rotate(-19.36)"><tspan x="0" y="0">R</tspan></text>
        <text class="cls-14" transform="translate(990.5 708.45) rotate(-22.52)"><tspan x="0" y="0">-</tspan></text>
        <text class="cls-14" transform="translate(1000.81 704.19) rotate(-26.52)"><tspan x="0" y="0">0</tspan></text>
        <text class="cls-14" transform="translate(1010.86 699.2) rotate(-31.92)"><tspan x="0" y="0">3</tspan></text>
        <text class="cls-12" transform="translate(821.98 624.88) rotate(-3.38)"><tspan x="0" y="0">U</tspan></text>
        <text class="cls-12" transform="translate(836.4 624.02) rotate(-1.65)"><tspan x="0" y="0">C</tspan></text>
        <text class="cls-12" transform="translate(850.7 623.56) rotate(.34)"><tspan x="0" y="0">-</tspan></text>
        <text class="cls-12" transform="translate(865.15 623.59) rotate(1.68)"><tspan x="0" y="0">1</tspan></text>
        <text class="cls-12" transform="translate(879.55 624) rotate(3.4)"><tspan x="0" y="0">3</tspan></text>
      </g>
      <g>
        <ellipse class="cls-7" cx="858.21" cy="890.99" rx="188" ry="69"/>
        <text class="cls-15" transform="translate(726.88 875.56)"><tspan x="0" y="0">Visuali</tspan><tspan class="cls-16" x="77.28" y="0">z</tspan><tspan x="89.57" y="0">zazion</tspan><tspan class="cls-10" x="163.55" y="0">e</tspan><tspan x="175.37" y="0" xml:space="preserve"> P</tspan><tspan class="cls-19" x="197.02" y="0">r</tspan><tspan x="206.6" y="0">estiti</tspan><tspan x="21.95" y="25">o</tspan><tspan class="cls-19" x="36" y="25">r</tspan><tspan x="45.59" y="25">dinat</tspan><tspan class="cls-10" x="104.5" y="25">a</tspan><tspan class="cls-19" x="116.34" y="25"> </tspan><tspan x="122.48" y="25">pe</tspan><tspan class="cls-17" x="149.49" y="25">r</tspan><tspan class="cls-10" x="158.56" y="25"> </tspan><tspan x="164.46" y="25">dat</tspan><tspan class="cls-10" x="200.87" y="25">a </tspan><tspan x="218.6" y="25">di </tspan><tspan class="cls-19" x="64.05" y="50">r</tspan><tspan x="73.63" y="50">estituzion</tspan><tspan class="cls-10" x="186.16" y="50">e</tspan></text>
        <text class="cls-14" transform="translate(960.56 939.63) rotate(-14.85)"><tspan x="0" y="0">F</tspan></text>
        <text class="cls-14" transform="translate(971.28 936.79) rotate(-17.17)"><tspan x="0" y="0">L</tspan></text>
        <text class="cls-14" transform="translate(981.88 933.52) rotate(-19.87)"><tspan x="0" y="0">R</tspan></text>
        <text class="cls-14" transform="translate(992.35 929.74) rotate(-23.16)"><tspan x="0" y="0">-</tspan></text>
        <text class="cls-14" transform="translate(1002.61 925.36) rotate(-27.35)"><tspan x="0" y="0">0</tspan></text>
        <text class="cls-14" transform="translate(1012.59 920.23) rotate(-33.09)"><tspan x="0" y="0">4</tspan></text>
        <text class="cls-12" transform="translate(821.98 846.88) rotate(-3.38)"><tspan x="0" y="0">U</tspan></text>
        <text class="cls-12" transform="translate(836.4 846.02) rotate(-1.65)"><tspan x="0" y="0">C</tspan></text>
        <text class="cls-12" transform="translate(850.7 845.56) rotate(.34)"><tspan x="0" y="0">-</tspan></text>
        <text class="cls-12" transform="translate(865.15 845.59) rotate(1.68)"><tspan x="0" y="0">1</tspan></text>
        <text class="cls-12" transform="translate(879.55 846) rotate(3.4)"><tspan x="0" y="0">4</tspan></text>
      </g>
      <g>
        <ellipse class="cls-7" cx="1520.55" cy="890.99" rx="188" ry="69"/>
        <text class="cls-15" transform="translate(1378.64 888.06)"><tspan class="cls-18" x="0" y="0">E</tspan><tspan x="14.52" y="0">videnziamen</tspan><tspan class="cls-19" x="159.21" y="0">t</tspan><tspan class="cls-10" x="168.01" y="0">o</tspan><tspan x="181.43" y="0" xml:space="preserve"> manca</tspan><tspan class="cls-19" x="262.56" y="0">t</tspan><tspan class="cls-10" x="271.36" y="0">e</tspan><tspan class="cls-19" x="77.17" y="25">r</tspan><tspan x="86.75" y="25">estituzioni</tspan></text>
        <text class="cls-14" transform="translate(1612.11 942.08) rotate(-12.82)"><tspan x="0" y="0">F</tspan></text>
        <text class="cls-14" transform="translate(1622.89 939.63) rotate(-14.85)"><tspan x="0" y="0">L</tspan></text>
        <text class="cls-14" transform="translate(1633.62 936.79) rotate(-17.17)"><tspan x="0" y="0">R</tspan></text>
        <text class="cls-14" transform="translate(1644.21 933.52) rotate(-19.87)"><tspan x="0" y="0">-</tspan></text>
        <text class="cls-14" transform="translate(1654.69 929.74) rotate(-23.16)"><tspan x="0" y="0">0</tspan></text>
        <text class="cls-14" transform="translate(1664.94 925.36) rotate(-27.35)"><tspan x="0" y="0">4</tspan></text>
        <text class="cls-14" transform="translate(1674.92 920.23) rotate(-33.09)"><tspan x="0" y="0">.</tspan></text>
        <text class="cls-14" transform="translate(1684.47 914.06) rotate(-41.87)"><tspan x="0" y="0">1</tspan></text>
        <text/>
      </g>
      <g>
        <ellipse class="cls-7" cx="1520.55" cy="668.99" rx="188" ry="69"/>
        <text class="cls-15" transform="translate(1410.64 678.56)"><tspan x="0" y="0">Richiest</tspan><tspan class="cls-10" x="90.37" y="0">a</tspan><tspan x="102.21" y="0"> </tspan><tspan class="cls-20" x="108.74" y="0">C</tspan><tspan x="125.35" y="0">on</tspan><tspan class="cls-16" x="154.54" y="0">f</tspan><tspan x="162.4" y="0">erm</tspan><tspan class="cls-10" x="207.34" y="0">a</tspan></text>
        <text class="cls-14" transform="translate(1622.89 717.63) rotate(-14.85)"><tspan x="0" y="0">N</tspan></text>
        <text class="cls-14" transform="translate(1633.62 714.79) rotate(-17.17)"><tspan x="0" y="0">U</tspan></text>
        <text class="cls-14" transform="translate(1644.21 711.52) rotate(-19.87)"><tspan x="0" y="0">R</tspan></text>
        <text class="cls-14" transform="translate(1654.69 707.74) rotate(-23.16)"><tspan x="0" y="0">-</tspan></text>
        <text class="cls-14" transform="translate(1664.94 703.36) rotate(-27.35)"><tspan x="0" y="0">0</tspan></text>
        <text class="cls-14" transform="translate(1674.92 698.23) rotate(-33.09)"><tspan x="0" y="0">3</tspan></text>
        <text/>
      </g>
      <g>
        <ellipse class="cls-7" cx="858.21" cy="1113" rx="188" ry="69"/>
        <text class="cls-15" transform="translate(770.84 1122.57)"><tspan x="0" y="0">Ri</tspan><tspan class="cls-21" x="23.78" y="0">c</tspan><tspan x="35.27" y="0">e</tspan><tspan class="cls-19" x="47.72" y="0">r</tspan><tspan x="57.31" y="0">c</tspan><tspan class="cls-10" x="69.3" y="0">a</tspan><tspan x="81.15" y="0" xml:space="preserve"> P</tspan><tspan class="cls-19" x="102.79" y="0">r</tspan><tspan x="112.38" y="0">esti</tspan><tspan class="cls-19" x="151.9" y="0">t</tspan><tspan class="cls-10" x="160.7" y="0">o</tspan></text>
        <text class="cls-14" transform="translate(962.48 1161.16) rotate(-15.24)"><tspan x="0" y="0">F</tspan></text>
        <text class="cls-14" transform="translate(973.16 1158.25) rotate(-17.61)"><tspan x="0" y="0">L</tspan></text>
        <text class="cls-14" transform="translate(983.74 1154.9) rotate(-20.4)"><tspan x="0" y="0">R</tspan></text>
        <text class="cls-14" transform="translate(994.17 1151.03) rotate(-23.82)"><tspan x="0" y="0">-</tspan></text>
        <text class="cls-14" transform="translate(1004.39 1146.53) rotate(-28.22)"><tspan x="0" y="0">0</tspan></text>
        <text class="cls-14" transform="translate(1014.3 1141.24) rotate(-34.35)"><tspan x="0" y="0">5</tspan></text>
        <text class="cls-12" transform="translate(821.98 1068.89) rotate(-3.38)"><tspan x="0" y="0">U</tspan></text>
        <text class="cls-12" transform="translate(836.4 1068.03) rotate(-1.65)"><tspan x="0" y="0">C</tspan></text>
        <text class="cls-12" transform="translate(850.7 1067.56) rotate(.34)"><tspan x="0" y="0">-</tspan></text>
        <text class="cls-12" transform="translate(865.15 1067.6) rotate(1.68)"><tspan x="0" y="0">1</tspan></text>
        <text class="cls-12" transform="translate(879.55 1068.01) rotate(3.4)"><tspan x="0" y="0">5</tspan></text>
      </g>
      <g>
        <ellipse class="cls-7" cx="858.21" cy="1335.01" rx="188" ry="69"/>
        <text class="cls-15" transform="translate(708.64 1344.58)"><tspan class="cls-19" x="0" y="0">R</tspan><tspan x="16.03" y="0">egist</tspan><tspan class="cls-13" x="68.76" y="0">r</tspan><tspan x="78.28" y="0">azion</tspan><tspan class="cls-10" x="139.79" y="0">e</tspan><tspan x="151.61" y="0"> </tspan><tspan class="cls-19" x="158.13" y="0">R</tspan><tspan x="174.17" y="0">estituzion</tspan><tspan class="cls-10" x="286.7" y="0">e</tspan></text>
        <text class="cls-14" transform="translate(962.48 1383.17) rotate(-15.24)"><tspan x="0" y="0">F</tspan></text>
        <text class="cls-14" transform="translate(973.16 1380.26) rotate(-17.61)"><tspan x="0" y="0">L</tspan></text>
        <text class="cls-14" transform="translate(983.74 1376.91) rotate(-20.4)"><tspan x="0" y="0">R</tspan></text>
        <text class="cls-14" transform="translate(994.17 1373.04) rotate(-23.82)"><tspan x="0" y="0">-</tspan></text>
        <text class="cls-14" transform="translate(1004.39 1368.54) rotate(-28.22)"><tspan x="0" y="0">0</tspan></text>
        <text class="cls-14" transform="translate(1014.3 1363.25) rotate(-34.35)"><tspan x="0" y="0">6</tspan></text>
        <text class="cls-12" transform="translate(823.33 1290.8) rotate(-3.21)"><tspan x="0" y="0">U</tspan></text>
        <text class="cls-12" transform="translate(837.68 1289.99) rotate(-1.5)"><tspan x="0" y="0">C</tspan></text>
        <text class="cls-12" transform="translate(852.08 1289.58) rotate(.34)"><tspan x="0" y="0">-</tspan></text>
        <text class="cls-12" transform="translate(866.43 1289.63) rotate(1.83)"><tspan x="0" y="0">1</tspan></text>
        <text class="cls-12" transform="translate(880.89 1290.08) rotate(3.56)"><tspan x="0" y="0">6</tspan></text>
      </g>
      <g>
        <path class="cls-1" d="M1058.28,225.09c1.99.03,3.99.07,6,.12"/>
        <path class="cls-8" d="M1076.16,225.59c400.08,15.59,1067.93,332.19,1105.1,473.6"/>
        <path class="cls-1" d="M2182.45,705.01c.29,2.03.43,4.03.43,5.98"/>
        <path d="M1046.21,224.99c5.65,2.18,12.65,5.87,16.97,9.73l-3.32-9.56,3.56-9.46c-4.42,3.75-11.51,7.25-17.22,9.29Z"/>
      </g>
      <g>
        <path class="cls-1" d="M1058.28,437.54c1.98.04,3.97.08,5.99.14"/>
        <path class="cls-4" d="M1076.32,438.09c267.68,11.05,886.26,158.28,980.31,278.66"/>
        <path class="cls-1" d="M2060.18,721.63c1.14,1.72,2.18,3.43,3.1,5.14"/>
        <path d="M1046.21,437.42c5.64,2.21,12.62,5.94,16.91,9.83l-3.26-9.57,3.62-9.44c-4.44,3.73-11.55,7.19-17.27,9.19Z"/>
      </g>
      <g>
        <path class="cls-6" d="M378.92,742.45c87.93-34.7,205.21-69.5,279.23-73.15"/>
        <path d="M670.21,668.99c-5.61,2.28-12.55,6.08-16.8,10.02l3.15-9.61-3.73-9.4c4.48,3.68,11.63,7.06,17.37,8.99Z"/>
      </g>
      <g>
        <path class="cls-6" d="M378.92,817.55c87.93,34.7,205.21,69.5,279.23,73.15"/>
        <path d="M670.21,891.01c-5.74,1.94-12.89,5.32-17.37,8.99l3.73-9.4-3.15-9.61c4.25,3.94,11.19,7.74,16.8,10.02Z"/>
      </g>
    </g>
  </g>
</svg>