<svg xmlns="http://www.w3.org/2000/svg" viewBox="0 0 2672 1560"><defs><style>.cls-1,.cls-11{fill:#fff;}.cls-16,.cls-17,.cls-18,.cls-19,.cls-2,.cls-20,.cls-21{fill:none;}.cls-11,.cls-16,.cls-17,.cls-18,.cls-19,.cls-2,.cls-20,.cls-21,.cls-3{stroke:#000;stroke-miterlimit:10;}.cls-2{stroke-width:2px;}.cls-3{fill:#e6e6e6;}.cls-4{font-size:26px;font-family:Constantia;}.cls-5{letter-spacing:-0.01em;}.cls-6{letter-spacing:-0.02em;}.cls-7{letter-spacing:-0.01em;}.cls-8{font-size:20px;font-family:Consolas;}.cls-9{font-size:25px;}.cls-11,.cls-9{font-family:OCRAExtended, OCR A Extended;}.cls-10{letter-spacing:-0.02em;}.cls-11{font-size:80px;}.cls-12{letter-spacing:-0.07em;}.cls-13{letter-spacing:-0.01em;}.cls-14{letter-spacing:-0.03em;}.cls-15{letter-spacing:-0.01em;}.cls-16,.cls-17,.cls-18{stroke-linecap:round;}.cls-17{stroke-dasharray:12.13 12.13;}.cls-18,.cls-21{stroke-dasharray:12 12;}.cls-20{stroke-dasharray:12.22 12.22;}</style></defs><g id="Livello_2" data-name="Livello 2"><g id="Livello_1-2" data-name="Livello 1"><rect class="cls-1" width="2672" height="1560" rx="68"/><polygon class="cls-1" points="266.32 658.49 180.4 694.08 144.81 780 180.4 865.92 266.32 901.51 352.25 865.92 387.84 780 352.25 694.08 266.32 658.49"/><rect class="cls-2" x="554.85" y="96" width="1972.33" height="1368" rx="68"/><ellipse class="cls-3" cx="2185.85" cy="780" rx="188" ry="69"/><text class="cls-4" transform="translate(2090.59 789.57)">Visuali<tspan class="cls-5" x="77.28" y="0">z</tspan><tspan x="89.57" y="0">z</tspan><tspan class="cls-6" x="102.04" y="0">a</tspan><tspan x="113.89" y="0" xml:space="preserve"> Er</tspan><tspan class="cls-7" x="145.48" y="0">r</tspan><tspan x="155.06" y="0">o</tspan><tspan class="cls-7" x="169.11" y="0">r</tspan><tspan class="cls-6" x="178.7" y="0">e</tspan></text><text class="cls-8" transform="matrix(0.97, -0.25, 0.25, 0.97, 2285.39, 829.31)">N</text><text class="cls-8" transform="translate(2296.12 826.58) rotate(-16.53)">U</text><text class="cls-8" transform="matrix(0.94, -0.33, 0.33, 0.94, 2306.77, 823.42)">R</text><text class="cls-8" transform="matrix(0.93, -0.38, 0.38, 0.93, 2317.26, 819.79)">-</text><text class="cls-8" transform="translate(2327.58 815.59) rotate(-26.14)">0</text><text class="cls-8" transform="translate(2337.65 810.66) rotate(-31.38)">2</text><text/><ellipse class="cls-3" cx="861.19" cy="336" rx="188" ry="69"/><text class="cls-4" transform="translate(759.97 345.57)">Inserimen<tspan class="cls-7" x="114.38" y="0">t</tspan><tspan class="cls-6" x="123.18" y="0">o</tspan><tspan x="136.6" y="0" xml:space="preserve"> Lib</tspan><tspan class="cls-7" x="179.42" y="0">r</tspan><tspan class="cls-6" x="189.01" y="0">o</tspan></text><text class="cls-9" transform="translate(824.82 291.9) rotate(-3.4)">U</text><text class="cls-9" transform="translate(839.2 291.04) rotate(-1.67)">C</text><text class="cls-9" transform="translate(853.5 290.56) rotate(0.34)">-</text><text class="cls-9" transform="translate(867.94 290.6) rotate(1.66)">0</text><text class="cls-9" transform="matrix(1, 0.06, -0.06, 1, 882.38, 291)">1</text><ellipse class="cls-3" cx="861.19" cy="558" rx="188" ry="69"/><text class="cls-4" transform="translate(779.16 567.57)"><tspan class="cls-10">M</tspan><tspan x="23.03" y="0">odific</tspan><tspan class="cls-6" x="86.38" y="0">a</tspan><tspan x="98.22" y="0" xml:space="preserve"> Lib</tspan><tspan class="cls-7" x="141.04" y="0">r</tspan><tspan class="cls-6" x="150.63" y="0">o</tspan></text><text class="cls-9" transform="translate(824.82 513.9) rotate(-3.4)">U</text><text class="cls-9" transform="translate(839.2 513.04) rotate(-1.67)">C</text><text class="cls-9" transform="translate(853.5 512.56) rotate(0.34)">-</text><text class="cls-9" transform="translate(867.94 512.6) rotate(1.66)">0</text><text class="cls-9" transform="matrix(1, 0.06, -0.06, 1, 882.38, 513)">2</text><ellipse class="cls-3" cx="861.19" cy="780" rx="188" ry="69"/><text class="cls-4" transform="translate(754.22 789.57)">Eliminazion<tspan class="cls-6" x="136.28" y="0">e</tspan><tspan x="148.1" y="0" xml:space="preserve"> Lib</tspan><tspan class="cls-7" x="190.92" y="0">r</tspan><tspan class="cls-6" x="200.51" y="0">o</tspan></text><text class="cls-9" transform="translate(824.82 735.9) rotate(-3.4)">U</text><text class="cls-9" transform="translate(839.2 735.04) rotate(-1.67)">C</text><text class="cls-9" transform="translate(853.5 734.56) rotate(0.34)">-</text><text class="cls-9" transform="translate(867.94 734.6) rotate(1.66)">0</text><text class="cls-9" transform="matrix(1, 0.06, -0.06, 1, 882.38, 735)">3</text><ellipse class="cls-3" cx="861.19" cy="1002" rx="188" ry="69"/><text class="cls-4" transform="translate(689.54 1011.57)">Visuali<tspan class="cls-5" x="77.28" y="0">z</tspan><tspan x="89.57" y="0">zazion</tspan><tspan class="cls-6" x="163.55" y="0">e</tspan><tspan x="175.37" y="0" xml:space="preserve"> O</tspan><tspan class="cls-7" x="202.81" y="0">r</tspan><tspan x="212.39" y="0">dinat</tspan><tspan class="cls-6" x="271.3" y="0">a</tspan><tspan x="283.14" y="0" xml:space="preserve"> Libri</tspan></text><text class="cls-9" transform="translate(824.82 957.9) rotate(-3.4)">U</text><text class="cls-9" transform="translate(839.2 957.04) rotate(-1.67)">C</text><text class="cls-9" transform="translate(853.5 956.56) rotate(0.34)">-</text><text class="cls-9" transform="translate(867.94 956.6) rotate(1.66)">0</text><text class="cls-9" transform="matrix(1, 0.06, -0.06, 1, 882.38, 957)">4</text><ellipse class="cls-3" cx="861.19" cy="1224" rx="188" ry="69"/><text class="cls-4" transform="translate(787.7 1233.57)">Ri<tspan class="cls-10" x="23.78" y="0">c</tspan><tspan x="35.27" y="0">e</tspan><tspan class="cls-7" x="47.72" y="0">r</tspan><tspan x="57.31" y="0">c</tspan><tspan class="cls-6" x="69.3" y="0">a</tspan><tspan x="81.15" y="0" xml:space="preserve"> Lib</tspan><tspan class="cls-7" x="123.97" y="0">r</tspan><tspan class="cls-6" x="133.55" y="0">o</tspan></text><text class="cls-9" transform="translate(824.82 1179.9) rotate(-3.4)">U</text><text class="cls-9" transform="translate(839.2 1179.04) rotate(-1.67)">C</text><text class="cls-9" transform="translate(853.5 1178.57) rotate(0.34)">-</text><text class="cls-9" transform="translate(867.94 1178.6) rotate(1.66)">0</text><text class="cls-9" transform="matrix(1, 0.06, -0.06, 1, 882.38, 1179)">5</text><text class="cls-11" transform="translate(2507.19 1118.24) rotate(-90)">Gestione Libri</text><ellipse class="cls-3" cx="1523.52" cy="447" rx="188" ry="69"/><text class="cls-4" transform="translate(1426.27 456.57)"><tspan class="cls-12">V</tspan><tspan x="15.67" y="0">alidazion</tspan><tspan class="cls-6" x="119.07" y="0">e</tspan><tspan x="130.89" y="0" xml:space="preserve"> ISBN</tspan></text><text class="cls-8" transform="matrix(0.97, -0.25, 0.25, 0.97, 1623.06, 496.31)">N</text><text class="cls-8" transform="translate(1633.79 493.58) rotate(-16.53)">R</text><text class="cls-8" transform="matrix(0.94, -0.33, 0.33, 0.94, 1644.43, 490.42)">R</text><text class="cls-8" transform="matrix(0.93, -0.38, 0.38, 0.93, 1654.93, 486.79)">-</text><text class="cls-8" transform="translate(1665.25 482.59) rotate(-26.14)">0</text><text class="cls-8" transform="translate(1675.32 477.66) rotate(-31.38)">3</text><text/><ellipse class="cls-3" cx="1523.52" cy="780" rx="188" ry="69"/><text class="cls-4" transform="translate(1413.93 789.57)">Richiest<tspan class="cls-6" x="90.37" y="0">a</tspan><tspan x="102.21" y="0"> </tspan><tspan class="cls-13" x="108.74" y="0">C</tspan><tspan x="125.35" y="0">on</tspan><tspan class="cls-5" x="154.54" y="0">f</tspan><tspan x="162.4" y="0">erm</tspan><tspan class="cls-6" x="207.34" y="0">a</tspan></text><text class="cls-8" transform="matrix(0.97, -0.25, 0.25, 0.97, 1623.06, 829.31)">N</text><text class="cls-8" transform="translate(1633.79 826.58) rotate(-16.53)">U</text><text class="cls-8" transform="matrix(0.94, -0.33, 0.33, 0.94, 1644.43, 823.42)">R</text><text class="cls-8" transform="matrix(0.93, -0.38, 0.38, 0.93, 1654.93, 819.79)">-</text><text class="cls-8" transform="translate(1665.25 815.59) rotate(-26.14)">0</text><text class="cls-8" transform="translate(1675.32 810.66) rotate(-31.38)">3</text><text/><ellipse class="cls-3" cx="1523.52" cy="1098.71" rx="188" ry="69"/><text class="cls-4" transform="translate(1379.21 1095.78)">Vist<tspan class="cls-6" x="44.51" y="0">a </tspan><tspan x="62.25" y="0">o</tspan><tspan class="cls-7" x="76.3" y="0">r</tspan><tspan x="85.88" y="0">dinat</tspan><tspan class="cls-6" x="144.79" y="0">a</tspan><tspan class="cls-7" x="156.63" y="0"> </tspan><tspan x="162.78" y="0">pe</tspan><tspan class="cls-14" x="189.78" y="0">r</tspan><tspan class="cls-7" x="198.86" y="0"> </tspan><tspan class="cls-15" x="205" y="0">A</tspan><tspan x="222.28" y="0">u</tspan><tspan class="cls-7" x="237.08" y="0">t</tspan><tspan x="245.88" y="0">o</tspan><tspan class="cls-7" x="259.94" y="0">r</tspan><tspan x="269.52" y="0">e, </tspan><tspan x="25.71" y="25">Ann</tspan><tspan class="cls-6" x="73.51" y="25">o</tspan><tspan x="86.93" y="25">, </tspan><tspan class="cls-7" x="100.11" y="25">N</tspan><tspan x="119.2" y="25">ume</tspan><tspan class="cls-7" x="168.98" y="25">r</tspan><tspan class="cls-6" x="178.57" y="25">o</tspan><tspan x="191.98" y="25"> </tspan><tspan class="cls-13" x="198.51" y="25">C</tspan><tspan x="215.13" y="25">opi</tspan><tspan class="cls-6" x="251.09" y="25">e</tspan></text><text class="cls-8" transform="translate(1612.25 1150.38) rotate(-12.32)">F</text><text class="cls-8" transform="matrix(0.97, -0.25, 0.25, 0.97, 1623.06, 1148.02)">B</text><text class="cls-8" transform="translate(1633.79 1145.29) rotate(-16.53)">R</text><text class="cls-8" transform="matrix(0.94, -0.33, 0.33, 0.94, 1644.43, 1142.14)">-</text><text class="cls-8" transform="matrix(0.93, -0.38, 0.38, 0.93, 1654.93, 1138.5)">0</text><text class="cls-8" transform="translate(1665.25 1134.3) rotate(-26.14)">4</text><text class="cls-8" transform="translate(1675.32 1129.38) rotate(-31.38)">.</text><text class="cls-8" transform="matrix(0.78, -0.63, 0.63, 0.78, 1685, 1123.51)">1</text><text/><path class="cls-3" d="M347.18,846.21a23.37,23.37,0,0,1-23.37,23.37h-115a23.27,23.27,0,0,1-23.37-22.94,70.23,70.23,0,0,1,20.62-50.22l.49-.49a25,25,0,0,1,29.78-3.64,61.55,61.55,0,0,0,59.94,0,25.13,25.13,0,0,1,30,3.91A70.18,70.18,0,0,1,347.18,846.21Z"/><circle class="cls-3" cx="266.32" cy="738.62" r="48.2"/><text class="cls-4" transform="translate(195.04 852.3)">Biblio<tspan class="cls-7" x="66.09" y="0">t</tspan><tspan x="74.89" y="0">ecari</tspan><tspan class="cls-6" x="129.15" y="0">o</tspan></text><path class="cls-16" d="M266.32,658.49c0-201,252.68-315.9,394.8-322.22"/><path d="M673.19,336c-5.63,2.25-12.58,6-16.85,9.94l3.2-9.6-3.68-9.42C660.32,330.62,667.46,334,673.19,336Z"/><path class="cls-16" d="M352.25,694.08c100.42-105.18,263.59-130,308.92-135"/><path d="M673.19,558c-5.44,2.67-12.09,7-16.05,11.19l2.46-9.81-4.38-9.12C660,553.61,667.32,556.48,673.19,558Z"/><line class="cls-16" x1="387.84" y1="780" x2="661.12" y2="780"/><path d="M673.19,780c-5.68,2.11-12.73,5.7-17.1,9.51l3.44-9.51-3.44-9.51C660.46,774.3,667.51,777.89,673.19,780Z"/><path class="cls-16" d="M352.25,865.92c100.39,116.25,263.48,133.19,308.88,135.66"/><path d="M673.19,1002c-5.76,1.88-12.94,5.2-17.46,8.84l3.81-9.37-3.06-9.64C660.69,995.81,667.59,999.67,673.19,1002Z"/><path class="cls-16" d="M266.32,901.51c0,294.94,327.35,320.24,394.8,322.32"/><path d="M673.19,1224c-5.72,2-12.84,5.46-17.28,9.19l3.62-9.45-3.25-9.57C660.57,1218.06,667.55,1221.79,673.19,1224Z"/><path class="cls-16" d="M1340.46,414.1c-1.65-.74-3.48-1.55-5.48-2.41"/><path class="cls-17" d="M1323.8,407c-50.56-20.66-163.46-58.94-278.44-44.92"/><path class="cls-16" d="M1039.34,362.85c-2,.28-4,.56-5.94.87"/><path d="M1351.4,419.21c-4.29-4.28-9.2-10.48-11.59-15.76l-.83,10.08-7.09,7.22C1337.45,419.1,1345.36,418.76,1351.4,419.21Z"/><path class="cls-18" d="M1033.4,530.29c38.48-28.73,243.33-26.27,299.43-54.83"/><path d="M1342.74,468.56c-3.54,4.91-7.39,11.82-8.9,17.42l-2.44-9.82-8.15-6C1329,470.91,1336.85,470,1342.74,468.56Z"/><path class="cls-18" d="M1048.49,1031.24c61.55,22.56,272.48,4.52,304.84,38.13"/><path d="M1037.73,1025.77c4.18,4.39,8.92,10.72,11.17,16.06l1.1-10,7.27-7C1051.67,1026.25,1043.76,1026.38,1037.73,1025.77Z"/><line class="cls-18" x1="1049.19" y1="780" x2="1323.45" y2="780"/><path d="M1335.52,780c-5.68,2.11-12.73,5.7-17.09,9.51l3.44-9.51-3.44-9.51C1322.79,774.3,1329.84,777.89,1335.52,780Z"/><path class="cls-18" d="M1061.26,1224c886.75-1.32,1124.59-148.37,1124.59-375"/><path d="M1049.19,1224c5.69,2.08,12.75,5.64,17.14,9.42l-3.49-9.49,3.39-9.53C1061.88,1218.23,1054.86,1221.86,1049.19,1224Z"/><text class="cls-8" transform="translate(2013.56 522.76)">&lt;&lt;extend&gt;&gt;</text><text class="cls-8" transform="translate(2081.46 1073.64)">&lt;&lt;extend&gt;&gt;</text><text class="cls-8" transform="translate(1233.37 1042.96)">&lt;&lt;extend&gt;&gt;</text><text class="cls-8" transform="translate(1207.37 364.67)">&lt;&lt;include&gt;&gt;</text><text class="cls-8" transform="translate(1208.3 522.02)">&lt;&lt;include&gt;&gt;</text><text class="cls-8" transform="translate(1131.92 767.43)">&lt;&lt;include&gt;&gt;</text><ellipse class="cls-3" cx="861.19" cy="336" rx="188" ry="69"/><text class="cls-4" transform="translate(759.97 345.57)">Inserimen<tspan class="cls-7" x="114.38" y="0">t</tspan><tspan class="cls-6" x="123.18" y="0">o</tspan><tspan x="136.6" y="0" xml:space="preserve"> Lib</tspan><tspan class="cls-7" x="179.42" y="0">r</tspan><tspan class="cls-6" x="189.01" y="0">o</tspan></text><text class="cls-8" transform="matrix(0.97, -0.25, 0.25, 0.97, 960.72, 385.31)">F</text><text class="cls-8" transform="translate(971.45 382.58) rotate(-16.53)">B</text><text class="cls-8" transform="matrix(0.94, -0.33, 0.33, 0.94, 982.1, 379.42)">R</text><text class="cls-8" transform="matrix(0.93, -0.38, 0.38, 0.93, 992.59, 375.79)">-</text><text class="cls-8" transform="translate(1002.92 371.59) rotate(-26.14)">0</text><text class="cls-8" transform="translate(1012.99 366.66) rotate(-31.38)">1</text><text class="cls-9" transform="translate(824.82 291.9) rotate(-3.4)">U</text><text class="cls-9" transform="translate(839.2 291.04) rotate(-1.67)">C</text><text class="cls-9" transform="translate(853.5 290.56) rotate(0.34)">-</text><text class="cls-9" transform="translate(867.94 290.6) rotate(1.66)">0</text><text class="cls-9" transform="matrix(1, 0.06, -0.06, 1, 882.38, 291)">1</text><ellipse class="cls-3" cx="861.19" cy="558" rx="188" ry="69"/><text class="cls-4" transform="translate(779.16 567.57)"><tspan class="cls-10">M</tspan><tspan x="23.03" y="0">odific</tspan><tspan class="cls-6" x="86.38" y="0">a</tspan><tspan x="98.22" y="0" xml:space="preserve"> Lib</tspan><tspan class="cls-7" x="141.04" y="0">r</tspan><tspan class="cls-6" x="150.63" y="0">o</tspan></text><text class="cls-8" transform="matrix(0.97, -0.25, 0.25, 0.97, 960.72, 607.31)">F</text><text class="cls-8" transform="translate(971.45 604.58) rotate(-16.53)">B</text><text class="cls-8" transform="matrix(0.94, -0.33, 0.33, 0.94, 982.1, 601.42)">R</text><text class="cls-8" transform="matrix(0.93, -0.38, 0.38, 0.93, 992.59, 597.79)">-</text><text class="cls-8" transform="translate(1002.92 593.59) rotate(-26.14)">0</text><text class="cls-8" transform="translate(1012.99 588.66) rotate(-31.38)">2</text><text class="cls-9" transform="translate(824.82 513.9) rotate(-3.4)">U</text><text class="cls-9" transform="translate(839.2 513.04) rotate(-1.67)">C</text><text class="cls-9" transform="translate(853.5 512.56) rotate(0.34)">-</text><text class="cls-9" transform="translate(867.94 512.6) rotate(1.66)">0</text><text class="cls-9" transform="matrix(1, 0.06, -0.06, 1, 882.38, 513)">2</text><ellipse class="cls-3" cx="861.19" cy="780" rx="188" ry="69"/><text class="cls-4" transform="translate(754.22 789.57)">Eliminazion<tspan class="cls-6" x="136.28" y="0">e</tspan><tspan x="148.1" y="0" xml:space="preserve"> Lib</tspan><tspan class="cls-7" x="190.92" y="0">r</tspan><tspan class="cls-6" x="200.51" y="0">o</tspan></text><text class="cls-8" transform="matrix(0.97, -0.25, 0.25, 0.97, 960.72, 829.31)">F</text><text class="cls-8" transform="translate(971.45 826.58) rotate(-16.53)">B</text><text class="cls-8" transform="matrix(0.94, -0.33, 0.33, 0.94, 982.1, 823.42)">R</text><text class="cls-8" transform="matrix(0.93, -0.38, 0.38, 0.93, 992.59, 819.79)">-</text><text class="cls-8" transform="translate(1002.92 815.59) rotate(-26.14)">0</text><text class="cls-8" transform="translate(1012.99 810.66) rotate(-31.38)">3</text><text class="cls-9" transform="translate(824.82 735.9) rotate(-3.4)">U</text><text class="cls-9" transform="translate(839.2 735.04) rotate(-1.67)">C</text><text class="cls-9" transform="translate(853.5 734.56) rotate(0.34)">-</text><text class="cls-9" transform="translate(867.94 734.6) rotate(1.66)">0</text><text class="cls-9" transform="matrix(1, 0.06, -0.06, 1, 882.38, 735)">3</text><ellipse class="cls-3" cx="861.19" cy="1224.01" rx="188" ry="69"/><text class="cls-4" transform="translate(787.7 1233.58)">Ri<tspan class="cls-10" x="23.78" y="0">c</tspan><tspan x="35.27" y="0">e</tspan><tspan class="cls-7" x="47.72" y="0">r</tspan><tspan x="57.31" y="0">c</tspan><tspan class="cls-6" x="69.3" y="0">a</tspan><tspan x="81.15" y="0" xml:space="preserve"> Lib</tspan><tspan class="cls-7" x="123.97" y="0">r</tspan><tspan class="cls-6" x="133.55" y="0">o</tspan></text><text class="cls-8" transform="matrix(0.97, -0.25, 0.25, 0.97, 960.72, 1273.32)">F</text><text class="cls-8" transform="translate(971.45 1270.59) rotate(-16.53)">B</text><text class="cls-8" transform="matrix(0.94, -0.33, 0.33, 0.94, 982.1, 1267.43)">R</text><text class="cls-8" transform="matrix(0.93, -0.38, 0.38, 0.93, 992.59, 1263.8)">-</text><text class="cls-8" transform="translate(1002.92 1259.59) rotate(-26.14)">0</text><text class="cls-8" transform="translate(1012.99 1254.67) rotate(-31.38)">5</text><text class="cls-9" transform="translate(824.82 1179.91) rotate(-3.4)">U</text><text class="cls-9" transform="translate(839.2 1179.05) rotate(-1.67)">C</text><text class="cls-9" transform="translate(853.5 1178.57) rotate(0.34)">-</text><text class="cls-9" transform="translate(867.94 1178.61) rotate(1.66)">0</text><text class="cls-9" transform="matrix(1, 0.06, -0.06, 1, 882.38, 1179.01)">5</text><ellipse class="cls-3" cx="861.19" cy="1002" rx="188" ry="69"/><text class="cls-4" transform="translate(743.42 999.07)">Visuali<tspan class="cls-5" x="77.28" y="0">z</tspan><tspan x="89.57" y="0">zazion</tspan><tspan class="cls-6" x="163.55" y="0">e</tspan><tspan x="175.37" y="0" xml:space="preserve"> Libri</tspan><tspan x="13.01" y="25">o</tspan><tspan class="cls-7" x="27.06" y="25">r</tspan><tspan x="36.65" y="25">dinat</tspan><tspan class="cls-6" x="95.55" y="25">a</tspan><tspan class="cls-7" x="107.4" y="25"> </tspan><tspan x="113.54" y="25">pe</tspan><tspan class="cls-14" x="140.54" y="25">r</tspan><tspan class="cls-10" x="149.62" y="25"> </tspan><tspan x="155.64" y="25">Ti</tspan><tspan class="cls-7" x="178.95" y="25">t</tspan><tspan x="187.74" y="25">ol</tspan><tspan class="cls-6" x="209.1" y="25">o</tspan></text><text class="cls-8" transform="matrix(0.97, -0.25, 0.25, 0.97, 960.72, 1051.31)">F</text><text class="cls-8" transform="translate(971.45 1048.58) rotate(-16.53)">B</text><text class="cls-8" transform="matrix(0.94, -0.33, 0.33, 0.94, 982.1, 1045.42)">R</text><text class="cls-8" transform="matrix(0.93, -0.38, 0.38, 0.93, 992.59, 1041.79)">-</text><text class="cls-8" transform="translate(1002.92 1037.59) rotate(-26.14)">0</text><text class="cls-8" transform="translate(1012.99 1032.66) rotate(-31.38)">4</text><text class="cls-9" transform="translate(824.82 957.9) rotate(-3.4)">U</text><text class="cls-9" transform="translate(839.2 957.04) rotate(-1.67)">C</text><text class="cls-9" transform="translate(853.5 956.56) rotate(0.34)">-</text><text class="cls-9" transform="translate(867.94 956.6) rotate(1.66)">0</text><text class="cls-9" transform="matrix(1, 0.06, -0.06, 1, 882.38, 957)">4</text><path class="cls-19" d="M1723.58,447.34c2,.1,4,.23,6,.38"/><path class="cls-20" d="M1741.74,448.86c138.88,15.37,425.75,124,443.27,250.07"/><path class="cls-19" d="M2185.65,705q.2,3,.2,6"/><path d="M1711.52,447c5.61,2.29,12.54,6.1,16.78,10.05l-3.13-9.62,3.74-9.39C1724.42,441.7,1717.26,445.08,1711.52,447Z"/><path class="cls-21" d="M1038.15,818.89c222.24,98.09,964.58,76.8,1029.09,15.05"/><path d="M1027.23,813.76c4.26,4.3,9.14,10.53,11.5,15.82l.88-10.07,7.12-7.18C1041.17,813.94,1033.26,814.24,1027.23,813.76Z"/></g></g></svg>