<?xml version="1.0" encoding="UTF-8" standalone="no"?>
<svg
   contentStyleType="text/css"
   data-diagram-type="DESCRIPTION"
   height="215px"
   preserveAspectRatio="none"
   style="width:1054px;height:215px;background:#FFFFFF;"
   version="1.1"
   viewBox="0 0 1054 215"
   width="1054px"
   zoomAndPan="magnify"
   id="svg9"
   sodipodi:docname="gestionePrestiti.svg"
   xmlns:inkscape="http://www.inkscape.org/namespaces/inkscape"
   xmlns:sodipodi="http://sodipodi.sourceforge.net/DTD/sodipodi-0.dtd"
   xmlns="http://www.w3.org/2000/svg"
   xmlns:svg="http://www.w3.org/2000/svg">
  <sodipodi:namedview
     id="namedview9"
     pagecolor="#ffffff"
     bordercolor="#000000"
     borderopacity="0.25"
     inkscape:showpageshadow="2"
     inkscape:pageopacity="0.0"
     inkscape:pagecheckerboard="0"
     inkscape:deskcolor="#d1d1d1" />
  <defs
     id="defs1" />
  <g
     id="g9">
    <!--cluster Gestione Prestiti-->
    <g
       class="cluster"
       data-entity="Gestione Prestiti"
       data-source-line="13"
       data-uid="ent0003"
       id="cluster_Gestione Prestiti">
      <rect
         fill="none"
         height="172"
         rx="2.5"
         ry="2.5"
         style="stroke:#181818;stroke-width:1;"
         width="908.13"
         x="140.32"
         y="7"
         id="rect1" />
      <path
         d="m 533.06889,16.3811 h 3.962 v 5.18 q -0.784,0.266 -1.638,0.42 -0.84,0.154 -1.918,0.154 -1.484,0 -2.534,-0.588 -1.036,-0.588 -1.582,-1.736 -0.532,-1.148 -0.532,-2.828 0,-1.568 0.602,-2.716 0.616,-1.148 1.778,-1.778 1.162,-0.63 2.842,-0.63 0.798,0 1.568,0.168 0.77,0.168 1.4,0.448 l -0.7,1.694 q -0.462,-0.238 -1.05,-0.392 -0.588,-0.154 -1.232,-0.154 -0.924,0 -1.61,0.42 -0.672,0.42 -1.05,1.19 -0.364,0.756 -0.364,1.792 0,0.98 0.266,1.736 0.266,0.756 0.84,1.19 0.574,0.42 1.498,0.42 0.448,0 0.756,-0.042 0.322,-0.042 0.588,-0.098 v -2.086 h -1.89 z m 10.35253,-2.17 q 1.064,0 1.82,0.406 0.77,0.406 1.19,1.176 0.42,0.77 0.42,1.89 v 1.008 h -4.928 q 0.028,0.882 0.518,1.386 0.504,0.504 1.386,0.504 0.742,0 1.344,-0.14 0.602,-0.154 1.246,-0.462 v 1.61 q -0.56,0.28 -1.19,0.406 -0.616,0.14 -1.498,0.14 -1.148,0 -2.03,-0.42 -0.882,-0.434 -1.386,-1.302 -0.504,-0.868 -0.504,-2.184 0,-1.344 0.448,-2.226 0.462,-0.896 1.274,-1.344 0.812,-0.448 1.89,-0.448 z m 0.014,1.484 q -0.602,0 -1.008,0.392 -0.392,0.392 -0.462,1.218 h 2.926 q 0,-0.462 -0.168,-0.826 -0.154,-0.364 -0.476,-0.574 -0.322,-0.21 -0.812,-0.21 z m 11.47251,4.032 q 0,0.77 -0.364,1.316 -0.364,0.532 -1.092,0.812 -0.728,0.28 -1.806,0.28 -0.798,0 -1.372,-0.112 -0.574,-0.098 -1.148,-0.336 v -1.722 q 0.616,0.28 1.33,0.462 0.714,0.182 1.26,0.182 0.616,0 0.868,-0.182 0.266,-0.182 0.266,-0.476 0,-0.196 -0.112,-0.35 -0.098,-0.154 -0.448,-0.35 -0.35,-0.196 -1.092,-0.504 -0.714,-0.308 -1.176,-0.602 -0.462,-0.308 -0.686,-0.728 -0.224,-0.434 -0.224,-1.078 0,-1.064 0.826,-1.596 0.826,-0.532 2.198,-0.532 0.714,0 1.358,0.14 0.644,0.14 1.33,0.462 l -0.63,1.498 q -0.56,-0.238 -1.064,-0.392 -0.504,-0.168 -1.022,-0.168 -0.462,0 -0.7,0.126 -0.224,0.126 -0.224,0.378 0,0.182 0.112,0.336 0.126,0.14 0.462,0.308 0.35,0.168 1.022,0.448 0.658,0.266 1.134,0.56 0.476,0.28 0.728,0.714 0.266,0.42 0.266,1.106 z m 5.87251,0.742 q 0.35,0 0.672,-0.07 0.322,-0.07 0.644,-0.168 v 1.554 q -0.336,0.14 -0.84,0.238 -0.49,0.112 -1.078,0.112 -0.686,0 -1.232,-0.224 -0.532,-0.224 -0.854,-0.77 -0.308,-0.56 -0.308,-1.54 v -3.682 h -0.994 v -0.882 l 1.148,-0.7 0.602,-1.61 h 1.33 v 1.624 h 2.142 v 1.568 h -2.142 v 3.682 q 0,0.434 0.252,0.658 0.252,0.21 0.658,0.21 z m 5.97051,-6.118 v 7.644 h -2.086 v -7.644 z m -1.036,-2.996 q 0.462,0 0.798,0.224 0.336,0.21 0.336,0.798 0,0.574 -0.336,0.798 -0.336,0.224 -0.798,0.224 -0.476,0 -0.812,-0.224 -0.322,-0.224 -0.322,-0.798 0,-0.588 0.322,-0.798 0.336,-0.224 0.812,-0.224 z m 11.19252,6.804 q 0,0.952 -0.266,1.694 -0.252,0.742 -0.742,1.26 -0.476,0.504 -1.162,0.77 -0.686,0.252 -1.554,0.252 -0.798,0 -1.484,-0.252 -0.672,-0.266 -1.162,-0.77 -0.49,-0.518 -0.77,-1.26 -0.266,-0.742 -0.266,-1.694 0,-1.274 0.448,-2.142 0.448,-0.882 1.288,-1.344 0.84,-0.462 1.988,-0.462 1.078,0 1.904,0.462 0.826,0.462 1.302,1.344 0.476,0.868 0.476,2.142 z m -5.278,0 q 0,0.756 0.154,1.274 0.168,0.504 0.518,0.77 0.35,0.252 0.91,0.252 0.56,0 0.896,-0.252 0.35,-0.266 0.504,-0.77 0.168,-0.518 0.168,-1.274 0,-0.756 -0.168,-1.26 -0.154,-0.504 -0.504,-0.756 -0.35,-0.252 -0.91,-0.252 -0.826,0 -1.204,0.574 -0.364,0.56 -0.364,1.694 z m 12.3685,-3.948 q 1.232,0 1.974,0.672 0.742,0.658 0.742,2.128 v 4.984 h -2.086 v -4.466 q 0,-0.826 -0.294,-1.232 -0.294,-0.42 -0.938,-0.42 -0.952,0 -1.302,0.658 -0.35,0.644 -0.35,1.862 v 3.598 h -2.086 v -7.644 h 1.596 l 0.28,0.98 h 0.112 q 0.252,-0.392 0.616,-0.63 0.364,-0.252 0.812,-0.364 0.448,-0.126 0.924,-0.126 z m 9.03651,0 q 1.064,0 1.82,0.406 0.77,0.406 1.19,1.176 0.42,0.77 0.42,1.89 v 1.008 h -4.928 q 0.028,0.882 0.518,1.386 0.504,0.504 1.386,0.504 0.742,0 1.344,-0.14 0.602,-0.154 1.246,-0.462 v 1.61 q -0.56,0.28 -1.19,0.406 -0.616,0.14 -1.498,0.14 -1.148,0 -2.03,-0.42 -0.882,-0.434 -1.386,-1.302 -0.504,-0.868 -0.504,-2.184 0,-1.344 0.448,-2.226 0.462,-0.896 1.274,-1.344 0.812,-0.448 1.89,-0.448 z m 0.014,1.484 q -0.602,0 -1.008,0.392 -0.392,0.392 -0.462,1.218 h 2.926 q 0,-0.462 -0.168,-0.826 -0.154,-0.364 -0.476,-0.574 -0.322,-0.21 -0.812,-0.21 z m 14.16702,-3.696 q 1.932,0 2.814,0.84 0.896,0.826 0.896,2.282 0,0.658 -0.196,1.26 -0.196,0.588 -0.658,1.064 -0.448,0.462 -1.19,0.728 -0.742,0.266 -1.834,0.266 h -0.91 v 3.556 h -2.114 v -9.996 z m -0.112,1.736 h -0.966 v 2.968 h 0.7 q 0.602,0 1.036,-0.154 0.434,-0.154 0.672,-0.49 0.238,-0.336 0.238,-0.868 0,-0.742 -0.406,-1.092 -0.406,-0.364 -1.274,-0.364 z m 10.84251,0.476 q 0.154,0 0.364,0.014 0.21,0.014 0.336,0.042 l -0.154,1.96 q -0.098,-0.028 -0.294,-0.042 -0.182,-0.028 -0.322,-0.028 -0.406,0 -0.784,0.112 -0.378,0.098 -0.686,0.322 -0.294,0.224 -0.476,0.602 -0.168,0.364 -0.168,0.91 v 3.892 h -2.086 v -7.644 h 1.582 l 0.308,1.288 h 0.098 q 0.224,-0.392 0.56,-0.714 0.336,-0.322 0.77,-0.518 0.448,-0.196 0.952,-0.196 z m 5.98452,0 q 1.064,0 1.82,0.406 0.77,0.406 1.19,1.176 0.42,0.77 0.42,1.89 v 1.008 h -4.928 q 0.028,0.882 0.518,1.386 0.504,0.504 1.386,0.504 0.742,0 1.344,-0.14 0.602,-0.154 1.246,-0.462 v 1.61 q -0.56,0.28 -1.19,0.406 -0.616,0.14 -1.498,0.14 -1.148,0 -2.03,-0.42 -0.882,-0.434 -1.386,-1.302 -0.504,-0.868 -0.504,-2.184 0,-1.344 0.448,-2.226 0.462,-0.896 1.274,-1.344 0.812,-0.448 1.89,-0.448 z m 0.014,1.484 q -0.602,0 -1.008,0.392 -0.392,0.392 -0.462,1.218 h 2.926 q 0,-0.462 -0.168,-0.826 -0.154,-0.364 -0.476,-0.574 -0.322,-0.21 -0.812,-0.21 z m 11.47251,4.032 q 0,0.77 -0.364,1.316 -0.364,0.532 -1.092,0.812 -0.728,0.28 -1.806,0.28 -0.798,0 -1.372,-0.112 -0.574,-0.098 -1.148,-0.336 v -1.722 q 0.616,0.28 1.33,0.462 0.714,0.182 1.26,0.182 0.616,0 0.868,-0.182 0.266,-0.182 0.266,-0.476 0,-0.196 -0.112,-0.35 -0.098,-0.154 -0.448,-0.35 -0.35,-0.196 -1.092,-0.504 -0.714,-0.308 -1.176,-0.602 -0.462,-0.308 -0.686,-0.728 -0.224,-0.434 -0.224,-1.078 0,-1.064 0.826,-1.596 0.826,-0.532 2.198,-0.532 0.714,0 1.358,0.14 0.644,0.14 1.33,0.462 l -0.63,1.498 q -0.56,-0.238 -1.064,-0.392 -0.504,-0.168 -1.022,-0.168 -0.462,0 -0.7,0.126 -0.224,0.126 -0.224,0.378 0,0.182 0.112,0.336 0.126,0.14 0.462,0.308 0.35,0.168 1.022,0.448 0.658,0.266 1.134,0.56 0.476,0.28 0.728,0.714 0.266,0.42 0.266,1.106 z m 5.87251,0.742 q 0.35,0 0.672,-0.07 0.322,-0.07 0.644,-0.168 v 1.554 q -0.336,0.14 -0.84,0.238 -0.49,0.112 -1.078,0.112 -0.686,0 -1.232,-0.224 -0.532,-0.224 -0.854,-0.77 -0.308,-0.56 -0.308,-1.54 v -3.682 h -0.994 v -0.882 l 1.148,-0.7 0.602,-1.61 h 1.33 v 1.624 h 2.142 v 1.568 h -2.142 v 3.682 q 0,0.434 0.252,0.658 0.252,0.21 0.658,0.21 z m 5.97051,-6.118 v 7.644 h -2.086 v -7.644 z m -1.036,-2.996 q 0.462,0 0.798,0.224 0.336,0.21 0.336,0.798 0,0.574 -0.336,0.798 -0.336,0.224 -0.798,0.224 -0.476,0 -0.812,-0.224 -0.322,-0.224 -0.322,-0.798 0,-0.588 0.322,-0.798 0.336,-0.224 0.812,-0.224 z m 7.46852,9.114 q 0.35,0 0.672,-0.07 0.322,-0.07 0.644,-0.168 v 1.554 q -0.336,0.14 -0.84,0.238 -0.49,0.112 -1.078,0.112 -0.686,0 -1.232,-0.224 -0.532,-0.224 -0.854,-0.77 -0.308,-0.56 -0.308,-1.54 v -3.682 h -0.994 v -0.882 l 1.148,-0.7 0.602,-1.61 h 1.33 v 1.624 h 2.142 v 1.568 h -2.142 v 3.682 q 0,0.434 0.252,0.658 0.252,0.21 0.658,0.21 z m 5.97051,-6.118 v 7.644 h -2.086 v -7.644 z m -1.036,-2.996 q 0.462,0 0.798,0.224 0.336,0.21 0.336,0.798 0,0.574 -0.336,0.798 -0.336,0.224 -0.798,0.224 -0.476,0 -0.812,-0.224 -0.322,-0.224 -0.322,-0.798 0,-0.588 0.322,-0.798 0.336,-0.224 0.812,-0.224 z"
         id="text1"
         style="font-weight:bold;font-size:14px"
         aria-label="Gestione Prestiti" />
    </g>
    <!--entity UC11-->
    <g
       class="entity"
       data-entity="UC11"
       data-source-line="15"
       data-uid="ent0004"
       id="entity_UC11">
      <ellipse
         cx="269.8754"
         cy="67.0031"
         fill="#F1F1F1"
         rx="113.5654"
         ry="25.1131"
         style="stroke:#181818;stroke-width:0.5;"
         id="ellipse1" />
      <path
         d="m 176.0503,68.123497 q 0,1.036 -0.42,1.876 -0.42,0.826 -1.288,1.316 -0.854,0.476 -2.184,0.476 -1.862,0 -2.842,-1.008 -0.966,-1.022 -0.966,-2.688 v -6.44 h 1.26 v 6.482 q 0,1.218 0.644,1.89 0.658,0.672 1.974,0.672 0.91,0 1.47,-0.322 0.574,-0.336 0.84,-0.91 0.266,-0.588 0.266,-1.344 v -6.468 h 1.246 z m 7.45231,-5.502 q -0.798,0 -1.442,0.28 -0.644,0.266 -1.092,0.798 -0.448,0.518 -0.686,1.274 -0.238,0.742 -0.238,1.68 0,1.232 0.378,2.142 0.392,0.91 1.148,1.4 0.77,0.49 1.918,0.49 0.658,0 1.246,-0.112 0.588,-0.112 1.148,-0.28 v 1.092 q -0.56,0.21 -1.162,0.308 -0.588,0.098 -1.414,0.098 -1.526,0 -2.548,-0.63 -1.022,-0.63 -1.54,-1.792 -0.504,-1.162 -0.504,-2.73 0,-1.134 0.308,-2.072 0.322,-0.938 0.924,-1.624 0.616,-0.686 1.512,-1.05 0.896,-0.378 2.058,-0.378 0.77,0 1.484,0.154 0.714,0.154 1.274,0.434 l -0.504,1.064 q -0.462,-0.21 -1.036,-0.378 -0.56,-0.168 -1.232,-0.168 z m 4.3023,5.824 v -1.092 h 3.388 v 1.092 z m 9.45431,3.206 h -1.204 v -6.986 q 0,-0.406 0,-0.686 0.014,-0.28 0.028,-0.518 0.014,-0.252 0.028,-0.518 -0.224,0.224 -0.406,0.378 -0.182,0.154 -0.462,0.392 l -1.064,0.868 -0.644,-0.826 2.702,-2.1 h 1.022 z m 8.5443,0 h -1.204 v -6.986 q 0,-0.406 0,-0.686 0.014,-0.28 0.028,-0.518 0.014,-0.252 0.028,-0.518 -0.224,0.224 -0.406,0.378 -0.182,0.154 -0.462,0.392 l -1.064,0.868 -0.644,-0.826 2.702,-2.1 h 1.022 z m 4.5823,-0.756 q 0,-0.518 0.252,-0.728 0.252,-0.21 0.602,-0.21 0.364,0 0.616,0.21 0.266,0.21 0.266,0.728 0,0.504 -0.266,0.728 -0.252,0.224 -0.616,0.224 -0.35,0 -0.602,-0.224 -0.252,-0.224 -0.252,-0.728 z m 0,-5.992 q 0,-0.532 0.252,-0.742 0.252,-0.21 0.602,-0.21 0.364,0 0.616,0.21 0.266,0.21 0.266,0.742 0,0.504 -0.266,0.728 -0.252,0.224 -0.616,0.224 -0.35,0 -0.602,-0.224 -0.252,-0.224 -0.252,-0.728 z m 11.5726,-3.248 q 1.246,0 2.044,0.322 0.812,0.308 1.204,0.938 0.392,0.63 0.392,1.582 0,0.798 -0.294,1.33 -0.294,0.532 -0.756,0.854 -0.448,0.308 -0.952,0.49 l 2.744,4.48 h -1.47 l -2.422,-4.13 h -1.988 v 4.13 h -1.26 v -9.996 z m -0.07,1.092 h -1.428 v 3.71 h 1.498 q 1.218,0 1.778,-0.476 0.56,-0.49 0.56,-1.428 0,-0.658 -0.266,-1.05 -0.252,-0.392 -0.784,-0.574 -0.532,-0.182 -1.358,-0.182 z m 9.28629,1.26 q 0.966,0 1.652,0.42 0.7,0.42 1.064,1.19 0.378,0.756 0.378,1.778 v 0.742 h -5.138 q 0.028,1.274 0.644,1.946 0.63,0.658 1.75,0.658 0.714,0 1.26,-0.126 0.56,-0.14 1.148,-0.392 v 1.078 q -0.574,0.252 -1.134,0.364 -0.56,0.126 -1.33,0.126 -1.064,0 -1.89,-0.434 -0.812,-0.434 -1.274,-1.288 -0.448,-0.868 -0.448,-2.114 0,-1.232 0.406,-2.114 0.42,-0.882 1.162,-1.358 0.756,-0.476 1.75,-0.476 z m -0.014,1.008 q -0.882,0 -1.4,0.574 -0.504,0.56 -0.602,1.568 h 3.822 q 0,-0.644 -0.196,-1.12 -0.196,-0.476 -0.602,-0.742 -0.392,-0.28 -1.022,-0.28 z m 8.20829,-1.008 q 0.742,0 1.33,0.28 0.602,0.28 1.022,0.854 h 0.07 l 0.168,-0.994 h 0.98 v 7.63 q 0,1.064 -0.364,1.778 -0.364,0.728 -1.106,1.092 -0.742,0.364 -1.89,0.364 -0.812,0 -1.498,-0.126 -0.672,-0.112 -1.204,-0.35 v -1.134 q 0.532,0.28 1.246,0.434 0.714,0.154 1.526,0.154 0.966,0 1.512,-0.574 0.56,-0.56 0.56,-1.54 v -0.294 q 0,-0.168 0.014,-0.476 0.014,-0.322 0.028,-0.448 h -0.056 q -0.392,0.574 -0.98,0.854 -0.574,0.28 -1.344,0.28 -1.456,0 -2.282,-1.022 -0.812,-1.022 -0.812,-2.856 0,-1.792 0.812,-2.842 0.826,-1.064 2.268,-1.064 z m 0.168,1.036 q -0.63,0 -1.078,0.336 -0.434,0.336 -0.672,0.98 -0.224,0.644 -0.224,1.568 0,1.386 0.504,2.128 0.518,0.728 1.498,0.728 0.574,0 0.98,-0.14 0.406,-0.154 0.672,-0.462 0.266,-0.322 0.392,-0.812 0.126,-0.49 0.126,-1.162 v -0.294 q 0,-1.022 -0.238,-1.652 -0.224,-0.63 -0.714,-0.924 -0.49,-0.294 -1.246,-0.294 z m 7.55029,-0.896 v 7.504 h -1.232 v -7.504 z m -0.602,-2.814 q 0.28,0 0.49,0.196 0.224,0.182 0.224,0.588 0,0.392 -0.224,0.588 -0.21,0.196 -0.49,0.196 -0.308,0 -0.518,-0.196 -0.21,-0.196 -0.21,-0.588 0,-0.406 0.21,-0.588 0.21,-0.196 0.518,-0.196 z m 8.40429,8.246 q 0,0.728 -0.364,1.218 -0.364,0.49 -1.036,0.742 -0.672,0.252 -1.596,0.252 -0.784,0 -1.358,-0.126 -0.56,-0.126 -0.994,-0.35 v -1.12 q 0.448,0.224 1.078,0.42 0.644,0.182 1.302,0.182 0.938,0 1.358,-0.294 0.42,-0.308 0.42,-0.812 0,-0.28 -0.154,-0.504 -0.154,-0.224 -0.56,-0.448 -0.392,-0.224 -1.134,-0.504 -0.728,-0.28 -1.246,-0.56 -0.518,-0.28 -0.798,-0.672 -0.28,-0.392 -0.28,-1.008 0,-0.952 0.77,-1.47 0.784,-0.518 2.044,-0.518 0.686,0 1.274,0.14 0.602,0.126 1.12,0.364 l -0.42,0.98 q -0.476,-0.196 -0.994,-0.336 -0.518,-0.14 -1.064,-0.14 -0.756,0 -1.162,0.252 -0.392,0.238 -0.392,0.658 0,0.308 0.182,0.532 0.182,0.21 0.602,0.42 0.434,0.196 1.148,0.476 0.714,0.266 1.218,0.546 0.504,0.28 0.77,0.686 0.266,0.392 0.266,0.994 z m 4.86231,1.204 q 0.28,0 0.574,-0.042 0.294,-0.056 0.476,-0.112 v 0.938 q -0.196,0.098 -0.56,0.154 -0.364,0.07 -0.7,0.07 -0.588,0 -1.092,-0.196 -0.49,-0.21 -0.798,-0.714 -0.308,-0.504 -0.308,-1.414 v -4.368 h -1.064 v -0.588 l 1.078,-0.49 0.49,-1.596 h 0.728 v 1.722 h 2.17 v 0.952 h -2.17 v 4.34 q 0,0.686 0.322,1.022 0.336,0.322 0.854,0.322 z m 6.58429,-6.776 q 0.21,0 0.448,0.028 0.252,0.014 0.434,0.056 l -0.154,1.134 q -0.182,-0.042 -0.406,-0.07 -0.21,-0.028 -0.406,-0.028 -0.434,0 -0.826,0.182 -0.392,0.182 -0.7,0.518 -0.308,0.322 -0.49,0.784 -0.168,0.462 -0.168,1.036 v 4.004 h -1.232 v -7.504 h 1.008 l 0.14,1.372 h 0.056 q 0.238,-0.42 0.574,-0.756 0.336,-0.35 0.77,-0.546 0.434,-0.21 0.952,-0.21 z m 5.3803,0.014 q 1.372,0 2.03,0.602 0.658,0.602 0.658,1.918 v 5.11 h -0.896 l -0.238,-1.064 h -0.056 q -0.322,0.406 -0.672,0.686 -0.336,0.266 -0.784,0.392 -0.434,0.126 -1.064,0.126 -0.672,0 -1.218,-0.238 -0.532,-0.238 -0.84,-0.728 -0.308,-0.504 -0.308,-1.26 0,-1.12 0.882,-1.722 0.882,-0.616 2.716,-0.672 l 1.274,-0.042 v -0.448 q 0,-0.938 -0.406,-1.302 -0.406,-0.364 -1.148,-0.364 -0.588,0 -1.12,0.182 -0.532,0.168 -0.994,0.392 l -0.378,-0.924 q 0.49,-0.266 1.162,-0.448 0.672,-0.196 1.4,-0.196 z m 0.364,4.004 q -1.4,0.056 -1.946,0.448 -0.532,0.392 -0.532,1.106 0,0.63 0.378,0.924 0.392,0.294 0.994,0.294 0.952,0 1.582,-0.518 0.63,-0.532 0.63,-1.624 v -0.672 z m 10.0283,3.626 h -5.488 v -0.812 l 4.032,-5.74 h -3.794 v -0.952 h 5.152 v 0.924 l -3.976,5.628 h 4.074 z m 3.50429,-7.504 v 7.504 h -1.232 v -7.504 z m -0.602,-2.814 q 0.28,0 0.49,0.196 0.224,0.182 0.224,0.588 0,0.392 -0.224,0.588 -0.21,0.196 -0.49,0.196 -0.308,0 -0.518,-0.196 -0.21,-0.196 -0.21,-0.588 0,-0.406 0.21,-0.588 0.21,-0.196 0.518,-0.196 z m 10.04229,6.552 q 0,0.938 -0.252,1.666 -0.238,0.714 -0.7,1.218 -0.448,0.504 -1.106,0.77 -0.644,0.252 -1.442,0.252 -0.742,0 -1.372,-0.252 -0.63,-0.266 -1.092,-0.77 -0.462,-0.504 -0.728,-1.218 -0.252,-0.728 -0.252,-1.666 0,-1.246 0.42,-2.1 0.42,-0.868 1.204,-1.316 0.784,-0.462 1.862,-0.462 1.022,0 1.792,0.462 0.784,0.448 1.218,1.316 0.448,0.854 0.448,2.1 z m -5.67,0 q 0,0.882 0.224,1.54 0.238,0.644 0.728,0.994 0.49,0.35 1.246,0.35 0.756,0 1.246,-0.35 0.49,-0.35 0.714,-0.994 0.238,-0.658 0.238,-1.54 0,-0.896 -0.238,-1.526 -0.238,-0.63 -0.728,-0.966 -0.476,-0.35 -1.246,-0.35 -1.148,0 -1.666,0.756 -0.518,0.756 -0.518,2.086 z m 11.7643,-3.878 q 1.344,0 2.03,0.658 0.686,0.644 0.686,2.1 v 4.886 h -1.218 v -4.802 q 0,-0.91 -0.406,-1.358 -0.406,-0.448 -1.274,-0.448 -1.246,0 -1.722,0.7 -0.476,0.7 -0.476,2.016 v 3.892 h -1.232 v -7.504 h 0.994 l 0.182,1.022 h 0.07 q 0.252,-0.392 0.616,-0.644 0.378,-0.266 0.826,-0.392 0.448,-0.126 0.924,-0.126 z m 8.47429,0 q 0.966,0 1.652,0.42 0.7,0.42 1.064,1.19 0.378,0.756 0.378,1.778 v 0.742 h -5.138 q 0.028,1.274 0.644,1.946 0.63,0.658 1.75,0.658 0.714,0 1.26,-0.126 0.56,-0.14 1.148,-0.392 v 1.078 q -0.574,0.252 -1.134,0.364 -0.56,0.126 -1.33,0.126 -1.064,0 -1.89,-0.434 -0.812,-0.434 -1.274,-1.288 -0.448,-0.868 -0.448,-2.114 0,-1.232 0.406,-2.114 0.42,-0.882 1.162,-1.358 0.756,-0.476 1.75,-0.476 z m -0.014,1.008 q -0.882,0 -1.4,0.574 -0.504,0.56 -0.602,1.568 h 3.822 q 0,-0.644 -0.196,-1.12 -0.196,-0.476 -0.602,-0.742 -0.392,-0.28 -1.022,-0.28 z m 12.5386,-3.36 q 1.96,0 2.856,0.77 0.896,0.77 0.896,2.17 0,0.616 -0.21,1.19 -0.196,0.56 -0.658,1.008 -0.462,0.448 -1.232,0.714 -0.77,0.252 -1.89,0.252 h -1.148 v 3.892 h -1.26 v -9.996 z m -0.112,1.078 h -1.274 v 3.948 h 1.008 q 0.952,0 1.582,-0.196 0.63,-0.21 0.938,-0.658 0.308,-0.448 0.308,-1.176 0,-0.966 -0.616,-1.442 -0.616,-0.476 -1.946,-0.476 z m 9.80428,1.274 q 0.21,0 0.448,0.028 0.252,0.014 0.434,0.056 l -0.154,1.134 q -0.182,-0.042 -0.406,-0.07 -0.21,-0.028 -0.406,-0.028 -0.434,0 -0.826,0.182 -0.392,0.182 -0.7,0.518 -0.308,0.322 -0.49,0.784 -0.168,0.462 -0.168,1.036 v 4.004 h -1.232 v -7.504 h 1.008 l 0.14,1.372 h 0.056 q 0.238,-0.42 0.574,-0.756 0.336,-0.35 0.77,-0.546 0.434,-0.21 0.952,-0.21 z m 5.43629,0 q 0.966,0 1.652,0.42 0.7,0.42 1.064,1.19 0.378,0.756 0.378,1.778 v 0.742 h -5.138 q 0.028,1.274 0.644,1.946 0.63,0.658 1.75,0.658 0.714,0 1.26,-0.126 0.56,-0.14 1.148,-0.392 v 1.078 q -0.574,0.252 -1.134,0.364 -0.56,0.126 -1.33,0.126 -1.064,0 -1.89,-0.434 -0.812,-0.434 -1.274,-1.288 -0.448,-0.868 -0.448,-2.114 0,-1.232 0.406,-2.114 0.42,-0.882 1.162,-1.358 0.756,-0.476 1.75,-0.476 z m -0.014,1.008 q -0.882,0 -1.4,0.574 -0.504,0.56 -0.602,1.568 h 3.822 q 0,-0.644 -0.196,-1.12 -0.196,-0.476 -0.602,-0.742 -0.392,-0.28 -1.022,-0.28 z m 10.4343,4.564 q 0,0.728 -0.364,1.218 -0.364,0.49 -1.036,0.742 -0.672,0.252 -1.596,0.252 -0.784,0 -1.358,-0.126 -0.56,-0.126 -0.994,-0.35 v -1.12 q 0.448,0.224 1.078,0.42 0.644,0.182 1.302,0.182 0.938,0 1.358,-0.294 0.42,-0.308 0.42,-0.812 0,-0.28 -0.154,-0.504 -0.154,-0.224 -0.56,-0.448 -0.392,-0.224 -1.134,-0.504 -0.728,-0.28 -1.246,-0.56 -0.518,-0.28 -0.798,-0.672 -0.28,-0.392 -0.28,-1.008 0,-0.952 0.77,-1.47 0.784,-0.518 2.044,-0.518 0.686,0 1.274,0.14 0.602,0.126 1.12,0.364 l -0.42,0.98 q -0.476,-0.196 -0.994,-0.336 -0.518,-0.14 -1.064,-0.14 -0.756,0 -1.162,0.252 -0.392,0.238 -0.392,0.658 0,0.308 0.182,0.532 0.182,0.21 0.602,0.42 0.434,0.196 1.148,0.476 0.714,0.266 1.218,0.546 0.504,0.28 0.77,0.686 0.266,0.392 0.266,0.994 z m 4.86229,1.204 q 0.28,0 0.574,-0.042 0.294,-0.056 0.476,-0.112 v 0.938 q -0.196,0.098 -0.56,0.154 -0.364,0.07 -0.7,0.07 -0.588,0 -1.092,-0.196 -0.49,-0.21 -0.798,-0.714 -0.308,-0.504 -0.308,-1.414 v -4.368 h -1.064 v -0.588 l 1.078,-0.49 0.49,-1.596 h 0.728 v 1.722 h 2.17 v 0.952 h -2.17 v 4.34 q 0,0.686 0.322,1.022 0.336,0.322 0.854,0.322 z m 4.3163,-6.636 v 7.504 h -1.232 v -7.504 z m -0.602,-2.814 q 0.28,0 0.49,0.196 0.224,0.182 0.224,0.588 0,0.392 -0.224,0.588 -0.21,0.196 -0.49,0.196 -0.308,0 -0.518,-0.196 -0.21,-0.196 -0.21,-0.588 0,-0.406 0.21,-0.588 0.21,-0.196 0.518,-0.196 z m 6.02429,9.45 q 0.28,0 0.574,-0.042 0.294,-0.056 0.476,-0.112 v 0.938 q -0.196,0.098 -0.56,0.154 -0.364,0.07 -0.7,0.07 -0.588,0 -1.092,-0.196 -0.49,-0.21 -0.798,-0.714 -0.308,-0.504 -0.308,-1.414 v -4.368 h -1.064 v -0.588 l 1.078,-0.49 0.49,-1.596 h 0.728 v 1.722 h 2.17 v 0.952 h -2.17 v 4.34 q 0,0.686 0.322,1.022 0.336,0.322 0.854,0.322 z m 9.6083,-2.898 q 0,0.938 -0.252,1.666 -0.238,0.714 -0.7,1.218 -0.448,0.504 -1.106,0.77 -0.644,0.252 -1.442,0.252 -0.742,0 -1.372,-0.252 -0.63,-0.266 -1.092,-0.77 -0.462,-0.504 -0.728,-1.218 -0.252,-0.728 -0.252,-1.666 0,-1.246 0.42,-2.1 0.42,-0.868 1.204,-1.316 0.784,-0.462 1.862,-0.462 1.022,0 1.792,0.462 0.784,0.448 1.218,1.316 0.448,0.854 0.448,2.1 z m -5.67,0 q 0,0.882 0.224,1.54 0.238,0.644 0.728,0.994 0.49,0.35 1.246,0.35 0.756,0 1.246,-0.35 0.49,-0.35 0.714,-0.994 0.238,-0.658 0.238,-1.54 0,-0.896 -0.238,-1.526 -0.238,-0.63 -0.728,-0.966 -0.476,-0.35 -1.246,-0.35 -1.148,0 -1.666,0.756 -0.518,0.756 -0.518,2.086 z"
         id="text2"
         style="font-size:14px"
         aria-label="UC-11: Registrazione Prestito" />
    </g>
    <!--entity UC12-->
    <g
       class="entity"
       data-entity="UC12"
       data-source-line="16"
       data-uid="ent0005"
       id="entity_UC12">
      <ellipse
         cx="609.8373"
         cy="143.0035"
         fill="#F1F1F1"
         rx="89.1673"
         ry="20.2335"
         style="stroke:#181818;stroke-width:0.5;"
         id="ellipse2" />
      <path
         d="m 542.87052,144.1239 q 0,1.036 -0.42,1.876 -0.42,0.826 -1.288,1.316 -0.854,0.476 -2.184,0.476 -1.862,0 -2.842,-1.008 -0.966,-1.022 -0.966,-2.688 v -6.44 h 1.26 v 6.482 q 0,1.218 0.644,1.89 0.658,0.672 1.974,0.672 0.91,0 1.47,-0.322 0.574,-0.336 0.84,-0.91 0.266,-0.588 0.266,-1.344 v -6.468 h 1.246 z m 7.4958,-5.502 q -0.798,0 -1.442,0.28 -0.644,0.266 -1.092,0.798 -0.448,0.518 -0.686,1.274 -0.238,0.742 -0.238,1.68 0,1.232 0.378,2.142 0.392,0.91 1.148,1.4 0.77,0.49 1.918,0.49 0.658,0 1.246,-0.112 0.588,-0.112 1.148,-0.28 v 1.092 q -0.56,0.21 -1.162,0.308 -0.588,0.098 -1.414,0.098 -1.526,0 -2.548,-0.63 -1.022,-0.63 -1.54,-1.792 -0.504,-1.162 -0.504,-2.73 0,-1.134 0.308,-2.072 0.322,-0.938 0.924,-1.624 0.616,-0.686 1.512,-1.05 0.896,-0.378 2.058,-0.378 0.77,0 1.484,0.154 0.714,0.154 1.274,0.434 l -0.504,1.064 q -0.462,-0.21 -1.036,-0.378 -0.56,-0.168 -1.232,-0.168 z m 4.34579,5.824 v -1.092 h 3.388 v 1.092 z m 9.49779,3.206 h -1.204 v -6.986 q 0,-0.406 0,-0.686 0.014,-0.28 0.028,-0.518 0.014,-0.252 0.028,-0.518 -0.224,0.224 -0.406,0.378 -0.182,0.154 -0.462,0.392 l -1.064,0.868 -0.644,-0.826 2.702,-2.1 h 1.022 z m 10.8978,0 h -6.608 v -1.022 l 2.618,-2.646 q 0.756,-0.756 1.274,-1.344 0.518,-0.588 0.784,-1.148 0.266,-0.574 0.266,-1.246 0,-0.826 -0.49,-1.246 -0.49,-0.434 -1.274,-0.434 -0.728,0 -1.288,0.252 -0.546,0.252 -1.12,0.7 l -0.658,-0.826 q 0.392,-0.336 0.854,-0.602 0.476,-0.266 1.022,-0.42 0.56,-0.154 1.19,-0.154 0.938,0 1.61,0.322 0.672,0.322 1.036,0.924 0.378,0.588 0.378,1.414 0,0.784 -0.322,1.47 -0.322,0.686 -0.896,1.358 -0.574,0.658 -1.344,1.414 l -2.086,2.058 v 0.056 h 5.054 z m 2.31579,-0.756 q 0,-0.518 0.252,-0.728 0.252,-0.21 0.602,-0.21 0.364,0 0.616,0.21 0.266,0.21 0.266,0.728 0,0.504 -0.266,0.728 -0.252,0.224 -0.616,0.224 -0.35,0 -0.602,-0.224 -0.252,-0.224 -0.252,-0.728 z m 0,-5.992 q 0,-0.532 0.252,-0.742 0.252,-0.21 0.602,-0.21 0.364,0 0.616,0.21 0.266,0.21 0.266,0.742 0,0.504 -0.266,0.728 -0.252,0.224 -0.616,0.224 -0.35,0 -0.602,-0.224 -0.252,-0.224 -0.252,-0.728 z m 14.48758,6.748 h -5.586 v -9.996 h 5.586 v 1.106 h -4.326 v 3.122 h 4.074 v 1.092 h -4.074 v 3.57 h 4.326 z m 3.84178,0 h -1.232 v -10.64 h 1.232 z m 5.85778,-7.644 q 0.966,0 1.652,0.42 0.7,0.42 1.064,1.19 0.378,0.756 0.378,1.778 v 0.742 h -5.138 q 0.028,1.274 0.644,1.946 0.63,0.658 1.75,0.658 0.714,0 1.26,-0.126 0.56,-0.14 1.148,-0.392 v 1.078 q -0.574,0.252 -1.134,0.364 -0.56,0.126 -1.33,0.126 -1.064,0 -1.89,-0.434 -0.812,-0.434 -1.274,-1.288 -0.448,-0.868 -0.448,-2.114 0,-1.232 0.406,-2.114 0.42,-0.882 1.162,-1.358 0.756,-0.476 1.75,-0.476 z m -0.014,1.008 q -0.882,0 -1.4,0.574 -0.504,0.56 -0.602,1.568 h 3.822 q 0,-0.644 -0.196,-1.12 -0.196,-0.476 -0.602,-0.742 -0.392,-0.28 -1.022,-0.28 z m 9.20378,-1.008 q 1.344,0 2.03,0.658 0.686,0.644 0.686,2.1 v 4.886 h -1.218 v -4.802 q 0,-0.91 -0.406,-1.358 -0.406,-0.448 -1.274,-0.448 -1.246,0 -1.722,0.7 -0.476,0.7 -0.476,2.016 v 3.892 h -1.232 v -7.504 h 0.994 l 0.182,1.022 h 0.07 q 0.252,-0.392 0.616,-0.644 0.378,-0.266 0.826,-0.392 0.448,-0.126 0.924,-0.126 z m 8.62978,7.784 q -0.994,0 -1.778,-0.406 -0.77,-0.406 -1.218,-1.26 -0.434,-0.854 -0.434,-2.184 0,-1.386 0.462,-2.254 0.462,-0.868 1.246,-1.274 0.798,-0.406 1.806,-0.406 0.574,0 1.106,0.126 0.532,0.112 0.868,0.28 l -0.378,1.022 q -0.336,-0.126 -0.784,-0.238 -0.448,-0.112 -0.84,-0.112 -0.756,0 -1.246,0.322 -0.49,0.322 -0.728,0.952 -0.238,0.63 -0.238,1.568 0,0.896 0.238,1.526 0.238,0.63 0.714,0.952 0.476,0.322 1.19,0.322 0.616,0 1.078,-0.126 0.476,-0.126 0.868,-0.308 v 1.092 q -0.378,0.196 -0.84,0.294 -0.448,0.112 -1.092,0.112 z m 10.81379,-3.906 q 0,0.938 -0.252,1.666 -0.238,0.714 -0.7,1.218 -0.448,0.504 -1.106,0.77 -0.644,0.252 -1.442,0.252 -0.742,0 -1.372,-0.252 -0.63,-0.266 -1.092,-0.77 -0.462,-0.504 -0.728,-1.218 -0.252,-0.728 -0.252,-1.666 0,-1.246 0.42,-2.1 0.42,-0.868 1.204,-1.316 0.784,-0.462 1.862,-0.462 1.022,0 1.792,0.462 0.784,0.448 1.218,1.316 0.448,0.854 0.448,2.1 z m -5.67,0 q 0,0.882 0.224,1.54 0.238,0.644 0.728,0.994 0.49,0.35 1.246,0.35 0.756,0 1.246,-0.35 0.49,-0.35 0.714,-0.994 0.238,-0.658 0.238,-1.54 0,-0.896 -0.238,-1.526 -0.238,-0.63 -0.728,-0.966 -0.476,-0.35 -1.246,-0.35 -1.148,0 -1.666,0.756 -0.518,0.756 -0.518,2.086 z m 15.22957,-6.23 q 1.96,0 2.856,0.77 0.896,0.77 0.896,2.17 0,0.616 -0.21,1.19 -0.196,0.56 -0.658,1.008 -0.462,0.448 -1.232,0.714 -0.77,0.252 -1.89,0.252 h -1.148 v 3.892 h -1.26 v -9.996 z m -0.112,1.078 h -1.274 v 3.948 h 1.008 q 0.952,0 1.582,-0.196 0.63,-0.21 0.938,-0.658 0.308,-0.448 0.308,-1.176 0,-0.966 -0.616,-1.442 -0.616,-0.476 -1.946,-0.476 z m 9.84778,1.274 q 0.21,0 0.448,0.028 0.252,0.014 0.434,0.056 l -0.154,1.134 q -0.182,-0.042 -0.406,-0.07 -0.21,-0.028 -0.406,-0.028 -0.434,0 -0.826,0.182 -0.392,0.182 -0.7,0.518 -0.308,0.322 -0.49,0.784 -0.168,0.462 -0.168,1.036 v 4.004 h -1.232 v -7.504 h 1.008 l 0.14,1.372 h 0.056 q 0.238,-0.42 0.574,-0.756 0.336,-0.35 0.77,-0.546 0.434,-0.21 0.952,-0.21 z m 5.47978,0 q 0.966,0 1.652,0.42 0.7,0.42 1.064,1.19 0.378,0.756 0.378,1.778 v 0.742 h -5.138 q 0.028,1.274 0.644,1.946 0.63,0.658 1.75,0.658 0.714,0 1.26,-0.126 0.56,-0.14 1.148,-0.392 v 1.078 q -0.574,0.252 -1.134,0.364 -0.56,0.126 -1.33,0.126 -1.064,0 -1.89,-0.434 -0.812,-0.434 -1.274,-1.288 -0.448,-0.868 -0.448,-2.114 0,-1.232 0.406,-2.114 0.42,-0.882 1.162,-1.358 0.756,-0.476 1.75,-0.476 z m -0.014,1.008 q -0.882,0 -1.4,0.574 -0.504,0.56 -0.602,1.568 h 3.822 q 0,-0.644 -0.196,-1.12 -0.196,-0.476 -0.602,-0.742 -0.392,-0.28 -1.022,-0.28 z m 10.47777,4.564 q 0,0.728 -0.364,1.218 -0.364,0.49 -1.036,0.742 -0.672,0.252 -1.596,0.252 -0.784,0 -1.358,-0.126 -0.56,-0.126 -0.994,-0.35 v -1.12 q 0.448,0.224 1.078,0.42 0.644,0.182 1.302,0.182 0.938,0 1.358,-0.294 0.42,-0.308 0.42,-0.812 0,-0.28 -0.154,-0.504 -0.154,-0.224 -0.56,-0.448 -0.392,-0.224 -1.134,-0.504 -0.728,-0.28 -1.246,-0.56 -0.518,-0.28 -0.798,-0.672 -0.28,-0.392 -0.28,-1.008 0,-0.952 0.77,-1.47 0.784,-0.518 2.044,-0.518 0.686,0 1.274,0.14 0.602,0.126 1.12,0.364 l -0.42,0.98 q -0.476,-0.196 -0.994,-0.336 -0.518,-0.14 -1.064,-0.14 -0.756,0 -1.162,0.252 -0.392,0.238 -0.392,0.658 0,0.308 0.182,0.532 0.182,0.21 0.602,0.42 0.434,0.196 1.148,0.476 0.714,0.266 1.218,0.546 0.504,0.28 0.77,0.686 0.266,0.392 0.266,0.994 z m 4.90579,1.204 q 0.28,0 0.574,-0.042 0.294,-0.056 0.476,-0.112 v 0.938 q -0.196,0.098 -0.56,0.154 -0.364,0.07 -0.7,0.07 -0.588,0 -1.092,-0.196 -0.49,-0.21 -0.798,-0.714 -0.308,-0.504 -0.308,-1.414 v -4.368 h -1.064 v -0.588 l 1.078,-0.49 0.49,-1.596 h 0.728 v 1.722 h 2.17 v 0.952 h -2.17 v 4.34 q 0,0.686 0.322,1.022 0.336,0.322 0.854,0.322 z m 4.35979,-6.636 v 7.504 h -1.232 v -7.504 z m -0.602,-2.814 q 0.28,0 0.49,0.196 0.224,0.182 0.224,0.588 0,0.392 -0.224,0.588 -0.21,0.196 -0.49,0.196 -0.308,0 -0.518,-0.196 -0.21,-0.196 -0.21,-0.588 0,-0.406 0.21,-0.588 0.21,-0.196 0.518,-0.196 z m 6.06779,9.45 q 0.28,0 0.574,-0.042 0.294,-0.056 0.476,-0.112 v 0.938 q -0.196,0.098 -0.56,0.154 -0.364,0.07 -0.7,0.07 -0.588,0 -1.092,-0.196 -0.49,-0.21 -0.798,-0.714 -0.308,-0.504 -0.308,-1.414 v -4.368 h -1.064 v -0.588 l 1.078,-0.49 0.49,-1.596 h 0.728 v 1.722 h 2.17 v 0.952 h -2.17 v 4.34 q 0,0.686 0.322,1.022 0.336,0.322 0.854,0.322 z m 4.35977,-6.636 v 7.504 h -1.232 v -7.504 z m -0.602,-2.814 q 0.28,0 0.49,0.196 0.224,0.182 0.224,0.588 0,0.392 -0.224,0.588 -0.21,0.196 -0.49,0.196 -0.308,0 -0.518,-0.196 -0.21,-0.196 -0.21,-0.588 0,-0.406 0.21,-0.588 0.21,-0.196 0.518,-0.196 z"
         id="text3"
         style="font-size:14px"
         aria-label="UC-12: Elenco Prestiti" />
    </g>
    <!--entity UC13-->
    <g
       class="entity"
       data-entity="UC13"
       data-source-line="17"
       data-uid="ent0006"
       id="entity_UC13">
      <ellipse
         cx="903.3411"
         cy="135.0022"
         fill="#F1F1F1"
         rx="129.1111"
         ry="28.2222"
         style="stroke:#181818;stroke-width:0.5;"
         id="ellipse3" />
      <path
         d="m 792.95249,136.1227 q 0,1.036 -0.42,1.876 -0.42,0.826 -1.288,1.316 -0.854,0.476 -2.184,0.476 -1.862,0 -2.842,-1.008 -0.966,-1.022 -0.966,-2.688 v -6.44 h 1.26 v 6.482 q 0,1.218 0.644,1.89 0.658,0.672 1.974,0.672 0.91,0 1.47,-0.322 0.574,-0.336 0.84,-0.91 0.266,-0.588 0.266,-1.344 v -6.468 h 1.246 z m 7.479,-5.502 q -0.798,0 -1.442,0.28 -0.644,0.266 -1.092,0.798 -0.448,0.518 -0.686,1.274 -0.238,0.742 -0.238,1.68 0,1.232 0.378,2.142 0.392,0.91 1.148,1.4 0.77,0.49 1.918,0.49 0.658,0 1.246,-0.112 0.588,-0.112 1.148,-0.28 v 1.092 q -0.56,0.21 -1.162,0.308 -0.588,0.098 -1.414,0.098 -1.526,0 -2.548,-0.63 -1.022,-0.63 -1.54,-1.792 -0.504,-1.162 -0.504,-2.73 0,-1.134 0.308,-2.072 0.322,-0.938 0.924,-1.624 0.616,-0.686 1.512,-1.05 0.896,-0.378 2.058,-0.378 0.77,0 1.484,0.154 0.714,0.154 1.274,0.434 l -0.504,1.064 q -0.462,-0.21 -1.036,-0.378 -0.56,-0.168 -1.232,-0.168 z m 4.32898,5.824 v -1.092 h 3.388 v 1.092 z m 9.48098,3.206 h -1.204 v -6.986 q 0,-0.406 0,-0.686 0.014,-0.28 0.028,-0.518 0.014,-0.252 0.028,-0.518 -0.224,0.224 -0.406,0.378 -0.182,0.154 -0.462,0.392 l -1.064,0.868 -0.644,-0.826 2.702,-2.1 h 1.022 z m 10.50299,-7.658 q 0,0.672 -0.252,1.162 -0.252,0.49 -0.728,0.798 -0.462,0.308 -1.092,0.434 v 0.056 q 1.204,0.14 1.792,0.756 0.588,0.616 0.588,1.61 0,0.868 -0.406,1.554 -0.406,0.672 -1.26,1.05 -0.84,0.378 -2.17,0.378 -0.784,0 -1.456,-0.126 -0.672,-0.112 -1.288,-0.42 v -1.148 q 0.63,0.308 1.358,0.49 0.728,0.168 1.4,0.168 1.344,0 1.932,-0.518 0.602,-0.532 0.602,-1.456 0,-0.63 -0.336,-1.008 -0.322,-0.392 -0.952,-0.574 -0.63,-0.182 -1.512,-0.182 h -0.966 v -1.05 h 0.98 q 0.826,0 1.372,-0.238 0.56,-0.238 0.84,-0.658 0.294,-0.434 0.294,-0.994 0,-0.728 -0.49,-1.12 -0.49,-0.406 -1.33,-0.406 -0.532,0 -0.966,0.112 -0.434,0.098 -0.812,0.294 -0.364,0.182 -0.742,0.434 l -0.616,-0.84 q 0.532,-0.42 1.316,-0.728 0.798,-0.308 1.806,-0.308 1.568,0 2.324,0.7 0.77,0.7 0.77,1.778 z m 2.67699,6.902 q 0,-0.518 0.252,-0.728 0.252,-0.21 0.602,-0.21 0.364,0 0.616,0.21 0.266,0.21 0.266,0.728 0,0.504 -0.266,0.728 -0.252,0.224 -0.616,0.224 -0.35,0 -0.602,-0.224 -0.252,-0.224 -0.252,-0.728 z m 0,-5.992 q 0,-0.532 0.252,-0.742 0.252,-0.21 0.602,-0.21 0.364,0 0.616,0.21 0.266,0.21 0.266,0.742 0,0.504 -0.266,0.728 -0.252,0.224 -0.616,0.224 -0.35,0 -0.602,-0.224 -0.252,-0.224 -0.252,-0.728 z m 11.62596,-3.248 q 1.246,0 2.044,0.322 0.812,0.308 1.204,0.938 0.392,0.63 0.392,1.582 0,0.798 -0.294,1.33 -0.294,0.532 -0.756,0.854 -0.448,0.308 -0.952,0.49 l 2.744,4.48 h -1.47 l -2.422,-4.13 h -1.988 v 4.13 h -1.26 v -9.996 z m -0.07,1.092 h -1.428 v 3.71 h 1.498 q 1.218,0 1.778,-0.476 0.56,-0.49 0.56,-1.428 0,-0.658 -0.266,-1.05 -0.252,-0.392 -0.784,-0.574 -0.532,-0.182 -1.358,-0.182 z m 9.31297,1.26 q 0.966,0 1.652,0.42 0.7,0.42 1.064,1.19 0.378,0.756 0.378,1.778 v 0.742 h -5.138 q 0.028,1.274 0.644,1.946 0.63,0.658 1.75,0.658 0.714,0 1.26,-0.126 0.56,-0.14 1.148,-0.392 v 1.078 q -0.574,0.252 -1.134,0.364 -0.56,0.126 -1.33,0.126 -1.064,0 -1.89,-0.434 -0.812,-0.434 -1.274,-1.288 -0.448,-0.868 -0.448,-2.114 0,-1.232 0.406,-2.114 0.42,-0.882 1.162,-1.358 0.756,-0.476 1.75,-0.476 z m -0.014,1.008 q -0.882,0 -1.4,0.574 -0.504,0.56 -0.602,1.568 h 3.822 q 0,-0.644 -0.196,-1.12 -0.196,-0.476 -0.602,-0.742 -0.392,-0.28 -1.022,-0.28 z m 8.23497,-1.008 q 0.742,0 1.33,0.28 0.602,0.28 1.022,0.854 h 0.07 l 0.168,-0.994 h 0.98 v 7.63 q 0,1.064 -0.364,1.778 -0.364,0.728 -1.106,1.092 -0.742,0.364 -1.89,0.364 -0.812,0 -1.498,-0.126 -0.672,-0.112 -1.204,-0.35 v -1.134 q 0.532,0.28 1.246,0.434 0.714,0.154 1.526,0.154 0.966,0 1.512,-0.574 0.56,-0.56 0.56,-1.54 v -0.294 q 0,-0.168 0.014,-0.476 0.014,-0.322 0.028,-0.448 h -0.056 q -0.392,0.574 -0.98,0.854 -0.574,0.28 -1.344,0.28 -1.456,0 -2.282,-1.022 -0.812,-1.022 -0.812,-2.856 0,-1.792 0.812,-2.842 0.826,-1.064 2.268,-1.064 z m 0.168,1.036 q -0.63,0 -1.078,0.336 -0.434,0.336 -0.672,0.98 -0.224,0.644 -0.224,1.568 0,1.386 0.504,2.128 0.518,0.728 1.498,0.728 0.574,0 0.98,-0.14 0.406,-0.154 0.672,-0.462 0.266,-0.322 0.392,-0.812 0.126,-0.49 0.126,-1.162 v -0.294 q 0,-1.022 -0.238,-1.652 -0.224,-0.63 -0.714,-0.924 -0.49,-0.294 -1.246,-0.294 z m 7.57697,-0.896 v 7.504 h -1.232 v -7.504 z m -0.602,-2.814 q 0.28,0 0.49,0.196 0.224,0.182 0.224,0.588 0,0.392 -0.224,0.588 -0.21,0.196 -0.49,0.196 -0.308,0 -0.518,-0.196 -0.21,-0.196 -0.21,-0.588 0,-0.406 0.21,-0.588 0.21,-0.196 0.518,-0.196 z m 8.43098,8.246 q 0,0.728 -0.364,1.218 -0.364,0.49 -1.036,0.742 -0.672,0.252 -1.596,0.252 -0.784,0 -1.358,-0.126 -0.56,-0.126 -0.994,-0.35 v -1.12 q 0.448,0.224 1.078,0.42 0.644,0.182 1.302,0.182 0.938,0 1.358,-0.294 0.42,-0.308 0.42,-0.812 0,-0.28 -0.154,-0.504 -0.154,-0.224 -0.56,-0.448 -0.392,-0.224 -1.134,-0.504 -0.728,-0.28 -1.246,-0.56 -0.518,-0.28 -0.798,-0.672 -0.28,-0.392 -0.28,-1.008 0,-0.952 0.77,-1.47 0.784,-0.518 2.044,-0.518 0.686,0 1.274,0.14 0.602,0.126 1.12,0.364 l -0.42,0.98 q -0.476,-0.196 -0.994,-0.336 -0.518,-0.14 -1.064,-0.14 -0.756,0 -1.162,0.252 -0.392,0.238 -0.392,0.658 0,0.308 0.182,0.532 0.182,0.21 0.602,0.42 0.434,0.196 1.148,0.476 0.714,0.266 1.218,0.546 0.504,0.28 0.77,0.686 0.266,0.392 0.266,0.994 z m 4.88898,1.204 q 0.28,0 0.574,-0.042 0.294,-0.056 0.476,-0.112 v 0.938 q -0.196,0.098 -0.56,0.154 -0.364,0.07 -0.7,0.07 -0.588,0 -1.092,-0.196 -0.49,-0.21 -0.798,-0.714 -0.308,-0.504 -0.308,-1.414 v -4.368 h -1.064 v -0.588 l 1.078,-0.49 0.49,-1.596 h 0.728 v 1.722 h 2.17 v 0.952 h -2.17 v 4.34 q 0,0.686 0.322,1.022 0.336,0.322 0.854,0.322 z m 6.61098,-6.776 q 0.21,0 0.448,0.028 0.252,0.014 0.434,0.056 l -0.154,1.134 q -0.182,-0.042 -0.406,-0.07 -0.21,-0.028 -0.406,-0.028 -0.434,0 -0.826,0.182 -0.392,0.182 -0.7,0.518 -0.308,0.322 -0.49,0.784 -0.168,0.462 -0.168,1.036 v 4.004 h -1.232 v -7.504 h 1.008 l 0.14,1.372 h 0.056 q 0.238,-0.42 0.574,-0.756 0.336,-0.35 0.77,-0.546 0.434,-0.21 0.952,-0.21 z m 5.40698,0.014 q 1.372,0 2.03,0.602 0.658,0.602 0.658,1.918 v 5.11 h -0.896 l -0.238,-1.064 h -0.056 q -0.322,0.406 -0.672,0.686 -0.336,0.266 -0.784,0.392 -0.434,0.126 -1.064,0.126 -0.672,0 -1.218,-0.238 -0.532,-0.238 -0.84,-0.728 -0.308,-0.504 -0.308,-1.26 0,-1.12 0.882,-1.722 0.882,-0.616 2.716,-0.672 l 1.274,-0.042 v -0.448 q 0,-0.938 -0.406,-1.302 -0.406,-0.364 -1.148,-0.364 -0.588,0 -1.12,0.182 -0.532,0.168 -0.994,0.392 l -0.378,-0.924 q 0.49,-0.266 1.162,-0.448 0.672,-0.196 1.4,-0.196 z m 0.364,4.004 q -1.4,0.056 -1.946,0.448 -0.532,0.392 -0.532,1.106 0,0.63 0.378,0.924 0.392,0.294 0.994,0.294 0.952,0 1.582,-0.518 0.63,-0.532 0.63,-1.624 v -0.672 z m 10.05499,3.626 h -5.488 v -0.812 l 4.032,-5.74 h -3.794 v -0.952 h 5.152 v 0.924 l -3.976,5.628 h 4.074 z m 3.53097,-7.504 v 7.504 h -1.232 v -7.504 z m -0.602,-2.814 q 0.28,0 0.49,0.196 0.224,0.182 0.224,0.588 0,0.392 -0.224,0.588 -0.21,0.196 -0.49,0.196 -0.308,0 -0.518,-0.196 -0.21,-0.196 -0.21,-0.588 0,-0.406 0.21,-0.588 0.21,-0.196 0.518,-0.196 z m 10.06897,6.552 q 0,0.938 -0.252,1.666 -0.238,0.714 -0.7,1.218 -0.448,0.504 -1.106,0.77 -0.644,0.252 -1.442,0.252 -0.742,0 -1.372,-0.252 -0.63,-0.266 -1.092,-0.77 -0.462,-0.504 -0.728,-1.218 -0.252,-0.728 -0.252,-1.666 0,-1.246 0.42,-2.1 0.42,-0.868 1.204,-1.316 0.784,-0.462 1.862,-0.462 1.022,0 1.792,0.462 0.784,0.448 1.218,1.316 0.448,0.854 0.448,2.1 z m -5.67,0 q 0,0.882 0.224,1.54 0.238,0.644 0.728,0.994 0.49,0.35 1.246,0.35 0.756,0 1.246,-0.35 0.49,-0.35 0.714,-0.994 0.238,-0.658 0.238,-1.54 0,-0.896 -0.238,-1.526 -0.238,-0.63 -0.728,-0.966 -0.476,-0.35 -1.246,-0.35 -1.148,0 -1.666,0.756 -0.518,0.756 -0.518,2.086 z m 11.79097,-3.878 q 1.344,0 2.03,0.658 0.686,0.644 0.686,2.1 v 4.886 h -1.218 v -4.802 q 0,-0.91 -0.406,-1.358 -0.406,-0.448 -1.274,-0.448 -1.246,0 -1.722,0.7 -0.476,0.7 -0.476,2.016 v 3.892 h -1.232 v -7.504 h 0.994 l 0.182,1.022 h 0.07 q 0.252,-0.392 0.616,-0.644 0.378,-0.266 0.826,-0.392 0.448,-0.126 0.924,-0.126 z m 8.50098,0 q 0.966,0 1.652,0.42 0.7,0.42 1.064,1.19 0.378,0.756 0.378,1.778 v 0.742 h -5.138 q 0.028,1.274 0.644,1.946 0.63,0.658 1.75,0.658 0.714,0 1.26,-0.126 0.56,-0.14 1.148,-0.392 v 1.078 q -0.574,0.252 -1.134,0.364 -0.56,0.126 -1.33,0.126 -1.064,0 -1.89,-0.434 -0.812,-0.434 -1.274,-1.288 -0.448,-0.868 -0.448,-2.114 0,-1.232 0.406,-2.114 0.42,-0.882 1.162,-1.358 0.756,-0.476 1.75,-0.476 z m -0.014,1.008 q -0.882,0 -1.4,0.574 -0.504,0.56 -0.602,1.568 h 3.822 q 0,-0.644 -0.196,-1.12 -0.196,-0.476 -0.602,-0.742 -0.392,-0.28 -1.022,-0.28 z m 12.70396,-3.36 q 1.246,0 2.044,0.322 0.812,0.308 1.204,0.938 0.392,0.63 0.392,1.582 0,0.798 -0.294,1.33 -0.294,0.532 -0.756,0.854 -0.448,0.308 -0.952,0.49 l 2.744,4.48 h -1.47 l -2.422,-4.13 h -1.988 v 4.13 h -1.26 v -9.996 z m -0.07,1.092 h -1.428 v 3.71 h 1.498 q 1.218,0 1.778,-0.476 0.56,-0.49 0.56,-1.428 0,-0.658 -0.266,-1.05 -0.252,-0.392 -0.784,-0.574 -0.532,-0.182 -1.358,-0.182 z m 9.31298,1.26 q 0.966,0 1.652,0.42 0.7,0.42 1.064,1.19 0.378,0.756 0.378,1.778 v 0.742 h -5.138 q 0.028,1.274 0.644,1.946 0.63,0.658 1.75,0.658 0.714,0 1.26,-0.126 0.56,-0.14 1.148,-0.392 v 1.078 q -0.574,0.252 -1.134,0.364 -0.56,0.126 -1.33,0.126 -1.064,0 -1.89,-0.434 -0.812,-0.434 -1.274,-1.288 -0.448,-0.868 -0.448,-2.114 0,-1.232 0.406,-2.114 0.42,-0.882 1.162,-1.358 0.756,-0.476 1.75,-0.476 z m -0.014,1.008 q -0.882,0 -1.4,0.574 -0.504,0.56 -0.602,1.568 h 3.822 q 0,-0.644 -0.196,-1.12 -0.196,-0.476 -0.602,-0.742 -0.392,-0.28 -1.022,-0.28 z m 10.46097,4.564 q 0,0.728 -0.364,1.218 -0.364,0.49 -1.036,0.742 -0.672,0.252 -1.596,0.252 -0.784,0 -1.358,-0.126 -0.56,-0.126 -0.994,-0.35 v -1.12 q 0.448,0.224 1.078,0.42 0.644,0.182 1.302,0.182 0.938,0 1.358,-0.294 0.42,-0.308 0.42,-0.812 0,-0.28 -0.154,-0.504 -0.154,-0.224 -0.56,-0.448 -0.392,-0.224 -1.134,-0.504 -0.728,-0.28 -1.246,-0.56 -0.518,-0.28 -0.798,-0.672 -0.28,-0.392 -0.28,-1.008 0,-0.952 0.77,-1.47 0.784,-0.518 2.044,-0.518 0.686,0 1.274,0.14 0.602,0.126 1.12,0.364 l -0.42,0.98 q -0.476,-0.196 -0.994,-0.336 -0.518,-0.14 -1.064,-0.14 -0.756,0 -1.162,0.252 -0.392,0.238 -0.392,0.658 0,0.308 0.182,0.532 0.182,0.21 0.602,0.42 0.434,0.196 1.148,0.476 0.714,0.266 1.218,0.546 0.504,0.28 0.77,0.686 0.266,0.392 0.266,0.994 z m 4.88898,1.204 q 0.28,0 0.574,-0.042 0.294,-0.056 0.476,-0.112 v 0.938 q -0.196,0.098 -0.56,0.154 -0.364,0.07 -0.7,0.07 -0.588,0 -1.092,-0.196 -0.49,-0.21 -0.798,-0.714 -0.308,-0.504 -0.308,-1.414 v -4.368 h -1.064 v -0.588 l 1.078,-0.49 0.49,-1.596 h 0.728 v 1.722 h 2.17 v 0.952 h -2.17 v 4.34 q 0,0.686 0.322,1.022 0.336,0.322 0.854,0.322 z m 4.34297,-6.636 v 7.504 h -1.232 v -7.504 z m -0.602,-2.814 q 0.28,0 0.49,0.196 0.224,0.182 0.224,0.588 0,0.392 -0.224,0.588 -0.21,0.196 -0.49,0.196 -0.308,0 -0.518,-0.196 -0.21,-0.196 -0.21,-0.588 0,-0.406 0.21,-0.588 0.21,-0.196 0.518,-0.196 z m 6.05098,9.45 q 0.28,0 0.574,-0.042 0.294,-0.056 0.476,-0.112 v 0.938 q -0.196,0.098 -0.56,0.154 -0.364,0.07 -0.7,0.07 -0.588,0 -1.092,-0.196 -0.49,-0.21 -0.798,-0.714 -0.308,-0.504 -0.308,-1.414 v -4.368 h -1.064 v -0.588 l 1.078,-0.49 0.49,-1.596 h 0.728 v 1.722 h 2.17 v 0.952 h -2.17 v 4.34 q 0,0.686 0.322,1.022 0.336,0.322 0.854,0.322 z m 9.38298,-6.636 v 7.504 h -1.008 l -0.182,-0.994 h -0.056 q -0.238,0.392 -0.616,0.644 -0.378,0.252 -0.826,0.364 -0.448,0.126 -0.938,0.126 -0.896,0 -1.512,-0.28 -0.602,-0.294 -0.91,-0.896 -0.308,-0.602 -0.308,-1.554 v -4.914 h 1.246 v 4.83 q 0,0.896 0.406,1.344 0.406,0.448 1.26,0.448 0.84,0 1.316,-0.308 0.49,-0.322 0.686,-0.924 0.21,-0.616 0.21,-1.484 v -3.906 z m 7.78699,7.504 h -5.488 v -0.812 l 4.032,-5.74 h -3.794 v -0.952 h 5.152 v 0.924 l -3.976,5.628 h 4.074 z m 3.53095,-7.504 v 7.504 h -1.232 v -7.504 z m -0.602,-2.814 q 0.28,0 0.49,0.196 0.224,0.182 0.224,0.588 0,0.392 -0.224,0.588 -0.21,0.196 -0.49,0.196 -0.308,0 -0.518,-0.196 -0.21,-0.196 -0.21,-0.588 0,-0.406 0.21,-0.588 0.21,-0.196 0.518,-0.196 z m 10.06894,6.552 q 0,0.938 -0.252,1.666 -0.238,0.714 -0.7,1.218 -0.448,0.504 -1.106,0.77 -0.644,0.252 -1.442,0.252 -0.742,0 -1.37196,-0.252 -0.63,-0.266 -1.092,-0.77 -0.462,-0.504 -0.728,-1.218 -0.252,-0.728 -0.252,-1.666 0,-1.246 0.42,-2.1 0.42,-0.868 1.204,-1.316 0.784,-0.462 1.86196,-0.462 1.022,0 1.792,0.462 0.784,0.448 1.218,1.316 0.448,0.854 0.448,2.1 z m -5.66996,0 q 0,0.882 0.224,1.54 0.238,0.644 0.728,0.994 0.48996,0.35 1.24596,0.35 0.756,0 1.246,-0.35 0.49,-0.35 0.714,-0.994 0.238,-0.658 0.238,-1.54 0,-0.896 -0.238,-1.526 -0.238,-0.63 -0.728,-0.966 -0.476,-0.35 -1.246,-0.35 -1.14796,0 -1.66596,0.756 -0.518,0.756 -0.518,2.086 z m 11.79096,-3.878 q 1.344,0 2.03,0.658 0.686,0.644 0.686,2.1 v 4.886 h -1.218 v -4.802 q 0,-0.91 -0.406,-1.358 -0.406,-0.448 -1.274,-0.448 -1.246,0 -1.722,0.7 -0.476,0.7 -0.476,2.016 v 3.892 h -1.232 v -7.504 h 0.994 l 0.182,1.022 h 0.07 q 0.252,-0.392 0.616,-0.644 0.378,-0.266 0.826,-0.392 0.448,-0.126 0.924,-0.126 z m 8.501,0 q 0.966,0 1.652,0.42 0.7,0.42 1.064,1.19 0.378,0.756 0.378,1.778 v 0.742 h -5.138 q 0.028,1.274 0.644,1.946 0.63,0.658 1.75,0.658 0.714,0 1.26,-0.126 0.56,-0.14 1.148,-0.392 v 1.078 q -0.574,0.252 -1.134,0.364 -0.56,0.126 -1.33,0.126 -1.064,0 -1.89,-0.434 -0.812,-0.434 -1.274,-1.288 -0.448,-0.868 -0.448,-2.114 0,-1.232 0.406,-2.114 0.42,-0.882 1.162,-1.358 0.756,-0.476 1.75,-0.476 z m -0.014,1.008 q -0.882,0 -1.4,0.574 -0.504,0.56 -0.602,1.568 h 3.822 q 0,-0.644 -0.196,-1.12 -0.196,-0.476 -0.602,-0.742 -0.392,-0.28 -1.022,-0.28 z"
         id="text4"
         style="font-size:14px"
         aria-label="UC-13: Registrazione Restituzione" />
    </g>
    <!--entity NFR02_P-->
    <g
       class="entity"
       data-entity="NFR02_P"
       data-source-line="24"
       data-uid="ent0009"
       id="entity_NFR02_P">
      <ellipse
         cx="609.841"
         cy="64.9982"
         fill="#F1F1F1"
         rx="103.391"
         ry="23.0782"
         style="stroke:#181818;stroke-width:0.5;"
         id="ellipse4" />
      <path
         d="m 526.48899,59.650599 -3.57,9.996 h -1.26 l -3.57,-9.996 h 1.316 l 2.254,6.412 q 0.154,0.406 0.266,0.784 0.112,0.378 0.196,0.728 0.098,0.336 0.168,0.672 0.07,-0.336 0.154,-0.686 0.098,-0.35 0.21,-0.728 0.126,-0.378 0.266,-0.798 l 2.24,-6.384 z m 3.07352,2.492 v 7.504 h -1.232 v -7.504 z m -0.602,-2.814 q 0.28,0 0.49,0.196 0.224,0.182 0.224,0.588 0,0.392 -0.224,0.588 -0.21,0.196 -0.49,0.196 -0.308,0 -0.518,-0.196 -0.21,-0.196 -0.21,-0.588 0,-0.406 0.21,-0.588 0.21,-0.196 0.518,-0.196 z m 8.51951,8.246 q 0,0.728 -0.364,1.218 -0.364,0.49 -1.036,0.742 -0.672,0.252 -1.596,0.252 -0.784,0 -1.358,-0.126 -0.56,-0.126 -0.994,-0.35 v -1.12 q 0.448,0.224 1.078,0.42 0.644,0.182 1.302,0.182 0.938,0 1.358,-0.294 0.42,-0.308 0.42,-0.812 0,-0.28 -0.154,-0.504 -0.154,-0.224 -0.56,-0.448 -0.392,-0.224 -1.134,-0.504 -0.728,-0.28 -1.246,-0.56 -0.518,-0.28 -0.798,-0.672 -0.28,-0.392 -0.28,-1.008 0,-0.952 0.77,-1.47 0.784,-0.518 2.044,-0.518 0.686,0 1.274,0.14 0.602,0.126 1.12,0.364 l -0.42,0.98 q -0.476,-0.196 -0.994,-0.336 -0.518,-0.14 -1.064,-0.14 -0.756,0 -1.162,0.252 -0.392,0.238 -0.392,0.658 0,0.308 0.182,0.532 0.182,0.21 0.602,0.42 0.434,0.196 1.148,0.476 0.714,0.266 1.218,0.546 0.504,0.28 0.77,0.686 0.266,0.392 0.266,0.994 z m 8.74352,-5.432 v 7.504 h -1.008 l -0.182,-0.994 h -0.056 q -0.238,0.392 -0.616,0.644 -0.378,0.252 -0.826,0.364 -0.448,0.126 -0.938,0.126 -0.896,0 -1.512,-0.28 -0.602,-0.294 -0.91,-0.896 -0.308,-0.602 -0.308,-1.554 v -4.914 h 1.246 v 4.83 q 0,0.896 0.406,1.344 0.406,0.448 1.26,0.448 0.84,0 1.316,-0.308 0.49,-0.322 0.686,-0.924 0.21,-0.616 0.21,-1.484 v -3.906 z m 5.87352,-0.126 q 1.372,0 2.03,0.602 0.658,0.602 0.658,1.918 v 5.11 h -0.896 l -0.238,-1.064 h -0.056 q -0.322,0.406 -0.672,0.686 -0.336,0.266 -0.784,0.392 -0.434,0.126 -1.064,0.126 -0.672,0 -1.218,-0.238 -0.532,-0.238 -0.84,-0.728 -0.308,-0.504 -0.308,-1.26 0,-1.12 0.882,-1.722 0.882,-0.616 2.716,-0.672 l 1.274,-0.042 v -0.448 q 0,-0.938 -0.406,-1.302 -0.406,-0.364 -1.148,-0.364 -0.588,0 -1.12,0.182 -0.532,0.168 -0.994,0.392 l -0.378,-0.924 q 0.49,-0.266 1.162,-0.448 0.672,-0.196 1.4,-0.196 z m 0.364,4.004 q -1.4,0.056 -1.946,0.448 -0.532,0.392 -0.532,1.106 0,0.63 0.378,0.924 0.392,0.294 0.994,0.294 0.952,0 1.582,-0.518 0.63,-0.532 0.63,-1.624 v -0.672 z m 6.53153,3.626 h -1.232 v -10.64 h 1.232 z m 4.26351,-7.504 v 7.504 h -1.232 v -7.504 z m -0.602,-2.814 q 0.28,0 0.49,0.196 0.224,0.182 0.224,0.588 0,0.392 -0.224,0.588 -0.21,0.196 -0.49,0.196 -0.308,0 -0.518,-0.196 -0.21,-0.196 -0.21,-0.588 0,-0.406 0.21,-0.588 0.21,-0.196 0.518,-0.196 z m 8.47751,10.318 h -5.488 v -0.812 l 4.032,-5.74 h -3.794 v -0.952 h 5.152 v 0.924 l -3.976,5.628 h 4.074 z m 7.23151,0 h -5.488 v -0.812 l 4.032,-5.74 h -3.794 v -0.952 h 5.152 v 0.924 l -3.976,5.628 h 4.074 z m 5.22951,-7.63 q 1.372,0 2.03,0.602 0.658,0.602 0.658,1.918 v 5.11 h -0.896 l -0.238,-1.064 h -0.056 q -0.322,0.406 -0.672,0.686 -0.336,0.266 -0.784,0.392 -0.434,0.126 -1.064,0.126 -0.672,0 -1.218,-0.238 -0.532,-0.238 -0.84,-0.728 -0.308,-0.504 -0.308,-1.26 0,-1.12 0.882,-1.722 0.882,-0.616 2.716,-0.672 l 1.274,-0.042 v -0.448 q 0,-0.938 -0.406,-1.302 -0.406,-0.364 -1.148,-0.364 -0.588,0 -1.12,0.182 -0.532,0.168 -0.994,0.392 l -0.378,-0.924 q 0.49,-0.266 1.162,-0.448 0.672,-0.196 1.4,-0.196 z m 0.364,4.004 q -1.4,0.056 -1.946,0.448 -0.532,0.392 -0.532,1.106 0,0.63 0.378,0.924 0.392,0.294 0.994,0.294 0.952,0 1.582,-0.518 0.63,-0.532 0.63,-1.624 v -0.672 z m 15.34505,3.626 h -5.586 v -9.996 h 5.586 v 1.106 h -4.326 v 3.122 h 4.074 v 1.092 h -4.074 v 3.57 h 4.326 z m 6.18152,-7.644 q 0.21,0 0.448,0.028 0.252,0.014 0.434,0.056 l -0.154,1.134 q -0.182,-0.042 -0.406,-0.07 -0.21,-0.028 -0.406,-0.028 -0.434,0 -0.826,0.182 -0.392,0.182 -0.7,0.518 -0.308,0.322 -0.49,0.784 -0.168,0.462 -0.168,1.036 v 4.004 h -1.232 v -7.504 h 1.008 l 0.14,1.372 h 0.056 q 0.238,-0.42 0.574,-0.756 0.336,-0.35 0.77,-0.546 0.434,-0.21 0.952,-0.21 z m 6.43352,0 q 0.21,0 0.448,0.028 0.252,0.014 0.434,0.056 l -0.154,1.134 q -0.182,-0.042 -0.406,-0.07 -0.21,-0.028 -0.406,-0.028 -0.434,0 -0.826,0.182 -0.392,0.182 -0.7,0.518 -0.308,0.322 -0.49,0.784 -0.168,0.462 -0.168,1.036 v 4.004 h -1.232 v -7.504 h 1.008 l 0.14,1.372 h 0.056 q 0.238,-0.42 0.574,-0.756 0.336,-0.35 0.77,-0.546 0.434,-0.21 0.952,-0.21 z m 9.17751,3.878 q 0,0.938 -0.252,1.666 -0.238,0.714 -0.7,1.218 -0.448,0.504 -1.106,0.77 -0.644,0.252 -1.442,0.252 -0.742,0 -1.372,-0.252 -0.63,-0.266 -1.092,-0.77 -0.462,-0.504 -0.728,-1.218 -0.252,-0.728 -0.252,-1.666 0,-1.246 0.42,-2.1 0.42,-0.868 1.204,-1.316 0.784,-0.462 1.862,-0.462 1.022,0 1.792,0.462 0.784,0.448 1.218,1.316 0.448,0.854 0.448,2.1 z m -5.67,0 q 0,0.882 0.224,1.54 0.238,0.644 0.728,0.994 0.49,0.35 1.246,0.35 0.756,0 1.246,-0.35 0.49,-0.35 0.714,-0.994 0.238,-0.658 0.238,-1.54 0,-0.896 -0.238,-1.526 -0.238,-0.63 -0.728,-0.966 -0.476,-0.35 -1.246,-0.35 -1.148,0 -1.666,0.756 -0.518,0.756 -0.518,2.086 z m 11.76752,-3.878 q 0.21,0 0.448,0.028 0.252,0.014 0.434,0.056 l -0.154,1.134 q -0.182,-0.042 -0.406,-0.07 -0.21,-0.028 -0.406,-0.028 -0.434,0 -0.826,0.182 -0.392,0.182 -0.7,0.518 -0.308,0.322 -0.49,0.784 -0.168,0.462 -0.168,1.036 v 4.004 h -1.232 v -7.504 h 1.008 l 0.14,1.372 h 0.056 q 0.238,-0.42 0.574,-0.756 0.336,-0.35 0.77,-0.546 0.434,-0.21 0.952,-0.21 z m 5.55151,0 q 0.966,0 1.652,0.42 0.7,0.42 1.064,1.19 0.378,0.756 0.378,1.778 v 0.742 h -5.138 q 0.028,1.274 0.644,1.946 0.63,0.658 1.75,0.658 0.714,0 1.26,-0.126 0.56,-0.14 1.148,-0.392 v 1.078 q -0.574,0.252 -1.134,0.364 -0.56,0.126 -1.33,0.126 -1.064,0 -1.89,-0.434 -0.812,-0.434 -1.274,-1.288 -0.448,-0.868 -0.448,-2.114 0,-1.232 0.406,-2.114 0.42,-0.882 1.162,-1.358 0.756,-0.476 1.75,-0.476 z m -0.014,1.008 q -0.882,0 -1.4,0.574 -0.504,0.56 -0.602,1.568 h 3.822 q 0,-0.644 -0.196,-1.12 -0.196,-0.476 -0.602,-0.742 -0.392,-0.28 -1.022,-0.28 z m 9.32503,2.8 q 0,-1.148 0.21,-2.24 0.224,-1.092 0.686,-2.086 0.462,-0.994 1.162,-1.834 h 1.162 q -0.98,1.316 -1.484,2.898 -0.49,1.582 -0.49,3.248 0,1.078 0.224,2.142 0.224,1.064 0.658,2.044 0.434,0.994 1.078,1.876 h -1.148 q -0.7,-0.826 -1.162,-1.806 -0.462,-0.966 -0.686,-2.044 -0.21,-1.078 -0.21,-2.198 z m 13.5735,3.836 h -1.47 l -5.348,-8.302 h -0.056 q 0.028,0.322 0.042,0.77 0.028,0.434 0.042,0.938 0.028,0.49 0.028,1.008 v 5.586 h -1.162 v -9.996 h 1.456 l 5.334,8.274 h 0.056 q -0.014,-0.224 -0.042,-0.672 -0.014,-0.448 -0.042,-0.98 -0.014,-0.532 -0.014,-0.98 v -5.642 h 1.176 z m 4.62752,0 h -1.26 v -9.996 h 5.586 v 1.106 h -4.326 v 3.542 h 4.06 v 1.106 h -4.06 z m 9.41551,-9.996 q 1.246,0 2.044,0.322 0.812,0.308 1.204,0.938 0.392,0.63 0.392,1.582 0,0.798 -0.294,1.33 -0.294,0.532 -0.756,0.854 -0.448,0.308 -0.952,0.49 l 2.744,4.48 h -1.47 l -2.422,-4.13 h -1.988 v 4.13 h -1.26 v -9.996 z m -0.07,1.092 h -1.428 v 3.71 h 1.498 q 1.218,0 1.778,-0.476 0.56,-0.49 0.56,-1.428 0,-0.658 -0.266,-1.05 -0.252,-0.392 -0.784,-0.574 -0.532,-0.182 -1.358,-0.182 z m 5.87352,5.698 v -1.092 h 3.388 v 1.092 z m 11.92153,-1.806 q 0,1.218 -0.182,2.17 -0.182,0.952 -0.588,1.624 -0.392,0.658 -1.036,1.008 -0.63,0.35 -1.526,0.35 -1.12,0 -1.862,-0.616 -0.728,-0.616 -1.092,-1.764 -0.35,-1.162 -0.35,-2.772 0,-1.624 0.322,-2.772 0.336,-1.148 1.064,-1.75 0.728,-0.616 1.918,-0.616 1.12,0 1.862,0.616 0.742,0.602 1.106,1.75 0.364,1.148 0.364,2.772 z m -5.404,0 q 0,1.372 0.196,2.282 0.21,0.91 0.658,1.372 0.462,0.448 1.218,0.448 0.756,0 1.204,-0.448 0.462,-0.448 0.672,-1.358 0.21,-0.924 0.21,-2.296 0,-1.372 -0.21,-2.268 -0.21,-0.91 -0.672,-1.358 -0.448,-0.462 -1.204,-0.462 -0.756,0 -1.218,0.462 -0.448,0.448 -0.658,1.358 -0.196,0.896 -0.196,2.268 z m 14.02151,5.012 h -6.608 v -1.022 l 2.618,-2.646 q 0.756,-0.756 1.274,-1.344 0.518,-0.588 0.784,-1.148 0.266,-0.574 0.266,-1.246 0,-0.826 -0.49,-1.246 -0.49,-0.434 -1.274,-0.434 -0.728,0 -1.288,0.252 -0.546,0.252 -1.12,0.7 l -0.658,-0.826 q 0.392,-0.336 0.854,-0.602 0.476,-0.266 1.022,-0.42 0.56,-0.154 1.19,-0.154 0.938,0 1.61,0.322 0.672,0.322 1.036,0.924 0.378,0.588 0.378,1.414 0,0.784 -0.322,1.47 -0.322,0.686 -0.896,1.358 -0.574,0.658 -1.344,1.414 l -2.086,2.058 v 0.056 h 5.054 z m 5.01953,-3.836 q 0,1.12 -0.224,2.198 -0.21,1.078 -0.672,2.044 -0.448,0.98 -1.162,1.806 h -1.148 q 0.644,-0.882 1.078,-1.876 0.434,-0.98 0.658,-2.044 0.224,-1.064 0.224,-2.142 0,-1.106 -0.224,-2.184 -0.224,-1.078 -0.658,-2.086 -0.434,-1.008 -1.092,-1.876 h 1.162 q 0.714,0.84 1.162,1.834 0.462,0.994 0.672,2.086 0.224,1.092 0.224,2.24 z"
         id="text5"
         style="font-size:14px"
         aria-label="Visualizza Errore (NFR-02)" />
    </g>
    <!--entity Bibliotecario-->
    <g
       class="entity"
       data-entity="Bibliotecario"
       data-source-line="11"
       data-uid="ent0002"
       id="entity_Bibliotecario">
      <ellipse
         cx="49.6577"
         cy="122.85"
         fill="#F1F1F1"
         rx="16"
         ry="16"
         style="stroke:#181818;stroke-width:0.5;"
         id="ellipse5" />
      <path
         d="M49.6577,142.85 C53.6577,142.85 56.6577,142.85 60.6577,138.85 C68.6577,138.85 76.6577,146.85 76.6577,154.85 L76.6577,158.85 C76.6577,162.85 72.6577,166.85 68.6577,166.85 L30.6577,166.85 C26.6577,166.85 22.6577,162.85 22.6577,158.85 L22.6577,154.85 C22.6577,146.85 30.6577,138.85 38.6577,138.85 C42.6577,142.85 45.6577,142.85 49.6577,142.85"
         fill="#F1F1F1"
         style="stroke:#181818;stroke-width:0.5;"
         id="path5" />
      <path
         d="m 10.214,170.34909 q 1.876,0 2.828,0.56 0.966,0.546 0.966,1.918 0,0.588 -0.224,1.05 -0.21,0.448 -0.644,0.756 -0.42,0.294 -1.036,0.406 v 0.07 q 0.63,0.098 1.134,0.364 0.518,0.266 0.812,0.756 0.294,0.49 0.294,1.274 0,0.91 -0.42,1.554 -0.42,0.63 -1.204,0.966 -0.77,0.322 -1.848,0.322 H 7.358 v -9.996 z m 0.252,4.256 q 1.288,0 1.764,-0.406 0.476,-0.42 0.476,-1.232 0,-0.826 -0.588,-1.176 -0.574,-0.364 -1.848,-0.364 H 8.618 v 3.178 z m -1.848,1.05 v 3.626 h 2.016 q 1.33,0 1.848,-0.518 0.518,-0.518 0.518,-1.358 0,-0.532 -0.238,-0.924 -0.224,-0.392 -0.77,-0.602 -0.532,-0.224 -1.456,-0.224 z m 9.313282,-2.814 v 7.504 h -1.232 v -7.504 z m -0.602,-2.814 q 0.28,0 0.49,0.196 0.224,0.182 0.224,0.588 0,0.392 -0.224,0.588 -0.21,0.196 -0.49,0.196 -0.308,0 -0.518,-0.196 -0.21,-0.196 -0.21,-0.588 0,-0.406 0.21,-0.588 0.21,-0.196 0.518,-0.196 z m 4.62328,2.268 q 0,0.476 -0.028,0.896 -0.014,0.406 -0.042,0.644 h 0.07 q 0.322,-0.476 0.882,-0.798 0.56,-0.322 1.442,-0.322 1.4,0 2.24,0.98 0.854,0.966 0.854,2.898 0,1.288 -0.392,2.156 -0.378,0.868 -1.078,1.302 -0.7,0.434 -1.624,0.434 -0.882,0 -1.442,-0.322 -0.56,-0.322 -0.882,-0.77 h -0.098 l -0.252,0.952 h -0.882 v -10.64 h 1.232 z m 2.114,1.442 q -0.798,0 -1.26,0.308 -0.462,0.294 -0.658,0.924 -0.196,0.616 -0.196,1.582 v 0.056 q 0,1.386 0.448,2.128 0.462,0.728 1.694,0.728 1.008,0 1.498,-0.742 0.504,-0.742 0.504,-2.142 0,-1.414 -0.504,-2.128 -0.49,-0.714 -1.526,-0.714 z m 6.905285,6.608 h -1.232 v -10.64 h 1.232 z m 4.02128,-7.504 v 7.504 h -1.232 v -7.504 z m -0.602,-2.814 q 0.28,0 0.49,0.196 0.224,0.182 0.224,0.588 0,0.392 -0.224,0.588 -0.21,0.196 -0.49,0.196 -0.308,0 -0.518,-0.196 -0.21,-0.196 -0.21,-0.588 0,-0.406 0.21,-0.588 0.21,-0.196 0.518,-0.196 z m 9.915278,6.552 q 0,0.938 -0.252,1.666 -0.238,0.714 -0.7,1.218 -0.448,0.504 -1.106,0.77 -0.644,0.252 -1.442,0.252 -0.742,0 -1.372,-0.252 -0.63,-0.266 -1.092,-0.77 -0.462,-0.504 -0.728,-1.218 -0.252,-0.728 -0.252,-1.666 0,-1.246 0.42,-2.1 0.42,-0.868 1.204,-1.316 0.784,-0.462 1.862,-0.462 1.022,0 1.792,0.462 0.784,0.448 1.218,1.316 0.448,0.854 0.448,2.1 z m -5.67,0 q 0,0.882 0.224,1.54 0.238,0.644 0.728,0.994 0.49,0.35 1.246,0.35 0.756,0 1.246,-0.35 0.49,-0.35 0.714,-0.994 0.238,-0.658 0.238,-1.54 0,-0.896 -0.238,-1.526 -0.238,-0.63 -0.728,-0.966 -0.476,-0.35 -1.246,-0.35 -1.148,0 -1.666,0.756 -0.518,0.756 -0.518,2.086 z m 10.531282,2.898 q 0.28,0 0.574,-0.042 0.294,-0.056 0.476,-0.112 v 0.938 q -0.196,0.098 -0.56,0.154 -0.364,0.07 -0.7,0.07 -0.588,0 -1.092,-0.196 -0.49,-0.21 -0.798,-0.714 -0.308,-0.504 -0.308,-1.414 v -4.368 h -1.064 v -0.588 l 1.078,-0.49 0.49,-1.596 h 0.728 v 1.722 h 2.17 v 0.952 h -2.17 v 4.34 q 0,0.686 0.322,1.022 0.336,0.322 0.854,0.322 z m 5.855288,-6.776 q 0.966,0 1.652,0.42 0.7,0.42 1.064,1.19 0.378,0.756 0.378,1.778 v 0.742 h -5.138 q 0.028,1.274 0.644,1.946 0.63,0.658 1.75,0.658 0.714,0 1.26,-0.126 0.56,-0.14 1.148,-0.392 v 1.078 q -0.574,0.252 -1.134,0.364 -0.56,0.126 -1.33,0.126 -1.064,0 -1.89,-0.434 -0.812,-0.434 -1.274,-1.288 -0.448,-0.868 -0.448,-2.114 0,-1.232 0.406,-2.114 0.42,-0.882 1.162,-1.358 0.756,-0.476 1.75,-0.476 z m -0.014,1.008 q -0.882,0 -1.4,0.574 -0.504,0.56 -0.602,1.568 h 3.822 q 0,-0.644 -0.196,-1.12 -0.196,-0.476 -0.602,-0.742 -0.392,-0.28 -1.022,-0.28 z m 8.431278,6.776 q -0.994,0 -1.778,-0.406 -0.77,-0.406 -1.218,-1.26 -0.434,-0.854 -0.434,-2.184 0,-1.386 0.462,-2.254 0.462,-0.868 1.246,-1.274 0.798,-0.406 1.806,-0.406 0.574,0 1.106,0.126 0.532,0.112 0.868,0.28 l -0.378,1.022 q -0.336,-0.126 -0.784,-0.238 -0.448,-0.112 -0.84,-0.112 -0.756,0 -1.246,0.322 -0.49,0.322 -0.728,0.952 -0.238,0.63 -0.238,1.568 0,0.896 0.238,1.526 0.238,0.63 0.714,0.952 0.476,0.322 1.19,0.322 0.616,0 1.078,-0.126 0.476,-0.126 0.868,-0.308 v 1.092 q -0.378,0.196 -0.84,0.294 -0.448,0.112 -1.092,0.112 z m 6.961281,-7.77 q 1.372,0 2.03,0.602 0.658,0.602 0.658,1.918 v 5.11 h -0.896 l -0.238,-1.064 h -0.056 q -0.322,0.406 -0.672,0.686 -0.336,0.266 -0.784,0.392 -0.434,0.126 -1.064,0.126 -0.672,0 -1.218,-0.238 -0.532,-0.238 -0.84,-0.728 -0.308,-0.504 -0.308,-1.26 0,-1.12 0.882,-1.722 0.882,-0.616 2.716,-0.672 l 1.274,-0.042 v -0.448 q 0,-0.938 -0.406,-1.302 -0.406,-0.364 -1.148,-0.364 -0.588,0 -1.12,0.182 -0.532,0.168 -0.994,0.392 l -0.378,-0.924 q 0.49,-0.266 1.162,-0.448 0.672,-0.196 1.4,-0.196 z m 0.364,4.004 q -1.4,0.056 -1.946,0.448 -0.532,0.392 -0.532,1.106 0,0.63 0.378,0.924 0.392,0.294 0.994,0.294 0.952,0 1.582,-0.518 0.63,-0.532 0.63,-1.624 v -0.672 z m 8.557301,-4.018 q 0.21,0 0.448,0.028 0.252,0.014 0.434,0.056 l -0.154,1.134 q -0.182,-0.042 -0.406,-0.07 -0.21,-0.028 -0.406,-0.028 -0.434,0 -0.826,0.182 -0.392,0.182 -0.7,0.518 -0.308,0.322 -0.49,0.784 -0.168,0.462 -0.168,1.036 v 4.004 h -1.232 v -7.504 h 1.008 l 0.14,1.372 h 0.056 q 0.238,-0.42 0.574,-0.756 0.336,-0.35 0.77,-0.546 0.434,-0.21 0.952,-0.21 z m 3.923285,0.14 v 7.504 h -1.232 v -7.504 z m -0.602,-2.814 q 0.28,0 0.49,0.196 0.224,0.182 0.224,0.588 0,0.392 -0.224,0.588 -0.21,0.196 -0.49,0.196 -0.308,0 -0.518,-0.196 -0.21,-0.196 -0.21,-0.588 0,-0.406 0.21,-0.588 0.21,-0.196 0.518,-0.196 z m 9.915278,6.552 q 0,0.938 -0.252,1.666 -0.238,0.714 -0.7,1.218 -0.448,0.504 -1.106,0.77 -0.644,0.252 -1.442,0.252 -0.742,0 -1.372,-0.252 -0.63,-0.266 -1.092,-0.77 -0.462,-0.504 -0.728,-1.218 -0.252,-0.728 -0.252,-1.666 0,-1.246 0.42,-2.1 0.42,-0.868 1.204,-1.316 0.784,-0.462 1.862,-0.462 1.022,0 1.792,0.462 0.784,0.448 1.218,1.316 0.448,0.854 0.448,2.1 z m -5.67,0 q 0,0.882 0.224,1.54 0.238,0.644 0.728,0.994 0.49,0.35 1.246,0.35 0.756,0 1.246,-0.35 0.49,-0.35 0.714,-0.994 0.238,-0.658 0.238,-1.54 0,-0.896 -0.238,-1.526 -0.238,-0.63 -0.728,-0.966 -0.476,-0.35 -1.246,-0.35 -1.148,0 -1.666,0.756 -0.518,0.756 -0.518,2.086 z"
         id="text6"
         style="font-size:14px"
         aria-label="Bibliotecario" />
    </g>
    <!--link UC11 to UC12-->
    <!--link UC12 to UC13-->
    <!--link Bibliotecario to UC11-->
    <g
       class="link"
       data-entity-1="Bibliotecario"
       data-entity-2="UC11"
       data-source-line="27"
       data-uid="lnk10"
       id="link_Bibliotecario_UC11">
      <path
         d="M93.69,129.6 C103.43,126.11 113.73,122.43 123.32,119 C151.36,108.97 176.8093,99.8772 203.0293,90.5172"
         fill="none"
         id="Bibliotecario-to-UC11"
         style="stroke:#181818;stroke-width:1;" />
      <polygon
         fill="#181818"
         points="208.68,88.5,198.8591,87.7586,203.971,90.181,201.5487,95.293,208.68,88.5"
         style="stroke:#181818;stroke-width:1;"
         id="polygon6" />
    </g>
    <!--link Bibliotecario to UC12-->
    <g
       class="link"
       data-entity-1="Bibliotecario"
       data-entity-2="UC12"
       data-source-line="28"
       data-uid="lnk11"
       id="link_Bibliotecario_UC12">
      <path
         d="M93.53,144.85 C184.54,144.52 392.64,143.7712 514.3,143.3412"
         fill="none"
         id="Bibliotecario-to-UC12"
         style="stroke:#181818;stroke-width:1;" />
      <polygon
         fill="#181818"
         points="520.3,143.32,511.2859,139.3518,515.3,143.3377,511.3142,147.3518,520.3,143.32"
         style="stroke:#181818;stroke-width:1;"
         id="polygon7" />
    </g>
    <!--link Bibliotecario to UC13-->
    <g
       class="link"
       data-entity-1="Bibliotecario"
       data-entity-2="UC13"
       data-source-line="29"
       data-uid="lnk12"
       id="link_Bibliotecario_UC13">
      <path
         d="M93.46,152.44 C199.08,169.7 480.46,208.9 713.23,181 C750.8,176.5 785.9036,168.6798 820.0136,159.5598"
         fill="none"
         id="Bibliotecario-to-UC13"
         style="stroke:#181818;stroke-width:1;" />
      <polygon
         fill="#181818"
         points="825.81,158.01,816.0822,156.4704,820.9797,159.3015,818.1486,164.1989,825.81,158.01"
         style="stroke:#181818;stroke-width:1;"
         id="polygon8" />
    </g>
    <!--reverse link UC11 to NFR02_P-->
    <g
       class="link"
       data-entity-1="UC11"
       data-entity-2="NFR02_P"
       data-source-line="32"
       data-uid="lnk13"
       id="link_UC11_NFR02_P">
      <path
         d="M389.8899,66.2951 C429.4099,66.0651 467.55,65.84 506.19,65.61"
         fill="none"
         id="UC11-backto-NFR02_P"
         style="stroke:#181818;stroke-width:1;stroke-dasharray:7,7;" />
      <polygon
         fill="#181818"
         points="383.89,66.33,392.9131,70.2776,388.8899,66.3009,392.8666,62.2777,383.89,66.33"
         style="stroke:#181818;stroke-width:1;"
         id="polygon9" />
      <path
         d="m 414.97001,58.556898 2.184,-2.613 0.819,0.468 -1.82,2.223 1.82,2.223 -0.819,0.481 -2.184,-2.613 z m 2.574,0 2.21,-2.613 0.806,0.468 -1.82,2.223 1.82,2.223 -0.806,0.481 -2.21,-2.613 z m 8.16874,-3.588 q 0.897,0 1.534,0.39 0.65,0.39 0.988,1.105 0.351,0.702 0.351,1.651 v 0.689 h -4.771 q 0.026,1.183 0.598,1.807 0.585,0.611 1.625,0.611 0.663,0 1.17,-0.117 0.52,-0.13 1.066,-0.364 v 1.001 q -0.533,0.234 -1.053,0.338 -0.52,0.117 -1.235,0.117 -0.988,0 -1.755,-0.403 -0.754,-0.403 -1.183,-1.196 -0.416,-0.806 -0.416,-1.963 0,-1.144 0.377,-1.963 0.39,-0.819 1.079,-1.261 0.702,-0.442 1.625,-0.442 z m -0.013,0.936 q -0.819,0 -1.3,0.533 -0.468,0.52 -0.559,1.456 h 3.549 q 0,-0.598 -0.182,-1.04 -0.182,-0.442 -0.559,-0.689 -0.364,-0.26 -0.949,-0.26 z m 6.89472,2.6 -2.405,-3.406 h 1.3 l 1.794,2.626 1.781,-2.626 h 1.287 l -2.405,3.406 2.535,3.562 h -1.3 l -1.898,-2.782 -1.924,2.782 h -1.287 z m 8.40272,2.756 q 0.26,0 0.533,-0.039 0.273,-0.052 0.442,-0.104 v 0.871 q -0.182,0.091 -0.52,0.143 -0.338,0.065 -0.65,0.065 -0.546,0 -1.014,-0.182 -0.455,-0.195 -0.741,-0.663 -0.286,-0.468 -0.286,-1.313 v -4.056 h -0.988 v -0.546 l 1.001,-0.455 0.455,-1.482 h 0.676 v 1.599 h 2.015 v 0.884 h -2.015 v 4.03 q 0,0.637 0.299,0.949 0.312,0.299 0.793,0.299 z m 5.90673,-6.292 q 0.897,0 1.534,0.39 0.65,0.39 0.988,1.105 0.351,0.702 0.351,1.651 v 0.689 h -4.771 q 0.026,1.183 0.598,1.807 0.585,0.611 1.625,0.611 0.663,0 1.17,-0.117 0.52,-0.13 1.066,-0.364 v 1.001 q -0.533,0.234 -1.053,0.338 -0.52,0.117 -1.235,0.117 -0.988,0 -1.755,-0.403 -0.754,-0.403 -1.183,-1.196 -0.416,-0.806 -0.416,-1.963 0,-1.144 0.377,-1.963 0.39,-0.819 1.079,-1.261 0.702,-0.442 1.625,-0.442 z m -0.013,0.936 q -0.819,0 -1.3,0.533 -0.468,0.52 -0.559,1.456 h 3.549 q 0,-0.598 -0.182,-1.04 -0.182,-0.442 -0.559,-0.689 -0.364,-0.26 -0.949,-0.26 z m 8.85772,-0.936 q 1.248,0 1.885,0.611 0.637,0.598 0.637,1.95 v 4.537 h -1.131 v -4.459 q 0,-0.845 -0.377,-1.261 -0.377,-0.416 -1.183,-0.416 -1.157,0 -1.599,0.65 -0.442,0.65 -0.442,1.872 v 3.614 h -1.144 v -6.968 h 0.923 l 0.169,0.949 h 0.065 q 0.234,-0.364 0.572,-0.598 0.351,-0.247 0.767,-0.364 0.416,-0.117 0.858,-0.117 z m 7.99973,7.228 q -1.3,0 -2.08,-0.897 -0.78,-0.91 -0.78,-2.704 0,-1.794 0.78,-2.704 0.793,-0.923 2.093,-0.923 0.546,0 0.949,0.143 0.403,0.13 0.702,0.364 0.299,0.234 0.507,0.52 h 0.078 q -0.013,-0.169 -0.052,-0.494 -0.026,-0.338 -0.026,-0.533 v -2.782 h 1.144 v 9.88 h -0.923 l -0.169,-0.936 h -0.052 q -0.208,0.299 -0.507,0.546 -0.299,0.234 -0.715,0.377 -0.403,0.143 -0.949,0.143 z m 0.182,-0.949 q 1.105,0 1.547,-0.598 0.455,-0.611 0.455,-1.833 v -0.208 q 0,-1.3 -0.429,-1.989 -0.429,-0.702 -1.586,-0.702 -0.923,0 -1.391,0.741 -0.455,0.728 -0.455,1.963 0,1.248 0.455,1.937 0.468,0.689 1.404,0.689 z m 11.18473,-2.522 -2.21,2.613 -0.806,-0.481 1.82,-2.223 -1.82,-2.223 0.806,-0.468 2.21,2.613 z m -2.587,0 -2.197,2.613 -0.806,-0.481 1.82,-2.223 -1.82,-2.223 0.806,-0.468 2.197,2.613 z"
         id="text9"
         style="font-size:13px"
         aria-label="extend" />
    </g>
    <!--SRC=[dL9DJm8n4BttLqoue8SITlUs8IGhheH45hA85sDCtHrXOcbDM_p0-D_T5b54JixfTUQzlfbfxIEf9s742aJbj9cvDuaWNj3g5JA93mwS1aEBfOEQ35QEj68-si0vX_DHDYopyJY398LXFhiQJOeSfgL7LoDFOVPV3e4BPtGlIJkiX27DcAyAjMZqhI5QJqIO6eySjU2TGHDj64mk9qMHGHJEQzkeRQEO3tWKfL3YWgmpOhElrYqG5kQ3w8WcJY6Ng2gzPxKbnt_9oQ516IJhSDZf4lRLQIObAHGhLCqAdj4ugeJ4KFIz0BzPKbsZkkK_TXuS5Bxlsqr-qDWrsRMGjDa8o8tH1k6ak2XvDpuD7JMu6zzDsGTZl_RTl5v_kvEZwVXuEl5VeqGPvYSMvkXrEZiNIA7NmrU7gkxtFm40]-->
  </g>
</svg>
