<svg xmlns="http://www.w3.org/2000/svg" xmlns:xlink="http://www.w3.org/1999/xlink" contentStyleType="text/css" data-diagram-type="ACTIVITY" height="975px" preserveAspectRatio="none" style="width:1000px;height:975px;background:#FFFFFF;" version="1.1" viewBox="0 0 1000 975" width="1000px" zoomAndPan="magnify"><defs/><g><ellipse cx="343.8197" cy="20" fill="#222222" rx="10" ry="10" style="stroke:#222222;stroke-width:1;"/><rect fill="#F1F1F1" height="47.9375" rx="12.5" ry="12.5" style="stroke:#181818;stroke-width:0.5;" width="132.9277" x="277.3558" y="50"/><text fill="#000000" font-family="sans-serif" font-size="12" lengthAdjust="spacing" textLength="112.9277" x="287.3558" y="71.1387">Avvio Applicazione</text><text fill="#000000" font-family="sans-serif" font-size="12" lengthAdjust="spacing" textLength="94.0898" x="287.3558" y="85.1074">(Launcher.java)</text><rect fill="#F1F1F1" height="47.9375" rx="12.5" ry="12.5" style="stroke:#181818;stroke-width:0.5;" width="246.7637" x="220.4379" y="117.9375"/><text fill="#000000" font-family="sans-serif" font-size="12" lengthAdjust="spacing" textLength="197.6191" x="230.4379" y="139.0762">Inizializzazione Componenti MVC</text><text fill="#000000" font-family="sans-serif" font-size="12" lengthAdjust="spacing" textLength="226.7637" x="230.4379" y="153.0449">(PocoLibApplication -&gt; PocoLibModel)</text><rect fill="none" height="610.3438" style="stroke:#000000;stroke-width:1.5;" width="978.8442" x="11" y="175.875"/><path d="M203.5879,175.875 L203.5879,185.1719 L193.5879,195.1719 L11,195.1719" fill="none" style="stroke:#000000;stroke-width:1.5;"/><text fill="#000000" font-family="sans-serif" font-size="14" lengthAdjust="spacing" textLength="182.5879" x="14" y="189.8701">Gestione Persistenza (DB)</text><rect fill="#F1F1F1" height="33.9688" rx="12.5" ry="12.5" style="stroke:#181818;stroke-width:0.5;" width="235.7832" x="225.9281" y="212.1719"/><text fill="#000000" font-family="sans-serif" font-size="12" lengthAdjust="spacing" textLength="215.7832" x="235.9281" y="233.3105">Verifica esistenza file di salvataggio</text><polygon fill="#F1F1F1" points="306.5336,266.1406,381.1058,266.1406,393.1058,278.1406,381.1058,290.1406,306.5336,290.1406,294.5336,278.1406,306.5336,266.1406" style="stroke:#181818;stroke-width:0.5;"/><text fill="#000000" font-family="sans-serif" font-size="11" lengthAdjust="spacing" textLength="74.5723" x="306.5336" y="281.9487">File esistono?</text><text fill="#000000" font-family="sans-serif" font-size="11" lengthAdjust="spacing" textLength="91.4053" x="203.1283" y="275.5464">No - Primo Avvio</text><text fill="#000000" font-family="sans-serif" font-size="11" lengthAdjust="spacing" textLength="10.0386" x="393.1058" y="275.5464">S&#236;</text><path d="M184.6992,311.543 L184.6992,320.1094 L164.6992,324.1094 L184.6992,328.1094 L184.6992,336.6758 A0,0 0 0 0 184.6992,336.6758 L326.5396,336.6758 A0,0 0 0 0 326.5396,336.6758 L326.5396,321.543 L316.5396,311.543 L184.6992,311.543 A0,0 0 0 0 184.6992,311.543" fill="#FEFFDD" style="stroke:#181818;stroke-width:0.5;"/><path d="M316.5396,311.543 L316.5396,321.543 L326.5396,321.543 L316.5396,311.543" fill="#FEFFDD" style="stroke:#181818;stroke-width:0.5;"/><text fill="#000000" font-family="sans-serif" font-size="13" lengthAdjust="spacing" textLength="120.8403" x="190.6992" y="328.6099">UC-18 Scenario 3a</text><rect fill="#F1F1F1" height="47.9375" rx="12.5" ry="12.5" style="stroke:#181818;stroke-width:0.5;" width="141.6992" x="23" y="300.1406"/><text fill="#000000" font-family="sans-serif" font-size="12" lengthAdjust="spacing" textLength="90.0469" x="33" y="321.2793">Inizializzazione</text><text fill="#000000" font-family="sans-serif" font-size="12" lengthAdjust="spacing" textLength="121.6992" x="33" y="335.248">Strutture Dati Vuote</text><rect fill="#F1F1F1" height="33.9688" rx="12.5" ry="12.5" style="stroke:#181818;stroke-width:0.5;" width="207.3066" x="490.1365" y="300.1406"/><text fill="#000000" font-family="sans-serif" font-size="12" lengthAdjust="spacing" textLength="187.3066" x="500.1365" y="321.2793">Tentativo Lettura File Principali</text><polygon fill="#F1F1F1" points="549.0244,368.0781,638.5552,368.0781,650.5552,380.0781,638.5552,392.0781,549.0244,392.0781,537.0244,380.0781,549.0244,368.0781" style="stroke:#181818;stroke-width:0.5;"/><text fill="#000000" font-family="sans-serif" font-size="11" lengthAdjust="spacing" textLength="89.5308" x="549.0244" y="383.8862">Lettura riuscita?</text><text fill="#000000" font-family="sans-serif" font-size="11" lengthAdjust="spacing" textLength="10.0386" x="526.9858" y="377.4839">S&#236;</text><text fill="#000000" font-family="sans-serif" font-size="11" lengthAdjust="spacing" textLength="144.4663" x="650.5552" y="377.4839">No - Eccezione/Corruzione</text><rect fill="#F1F1F1" height="33.9688" rx="12.5" ry="12.5" style="stroke:#181818;stroke-width:0.5;" width="152.9082" x="356.5396" y="402.0781"/><text fill="#000000" font-family="sans-serif" font-size="12" lengthAdjust="spacing" textLength="132.9082" x="366.5396" y="423.2168">Deserializzazione Dati</text><rect fill="#F1F1F1" height="33.9688" rx="12.5" ry="12.5" style="stroke:#181818;stroke-width:0.5;" width="182.3516" x="663.4102" y="402.0781"/><text fill="#000000" font-family="sans-serif" font-size="12" lengthAdjust="spacing" textLength="162.3516" x="673.4102" y="423.2168">Mostra Errore Caricamento</text><rect fill="none" height="268.1719" style="stroke:#000000;stroke-width:1.5;" width="448.3965" x="529.4478" y="446.0469"/><path d="M673.8765,446.0469 L673.8765,455.3438 L663.8765,465.3438 L529.4478,465.3438" fill="none" style="stroke:#000000;stroke-width:1.5;"/><text fill="#000000" font-family="sans-serif" font-size="14" lengthAdjust="spacing" textLength="134.4287" x="532.4478" y="460.042">Ripristino (NRR-05)</text><rect fill="#F1F1F1" height="33.9688" rx="12.5" ry="12.5" style="stroke:#181818;stroke-width:0.5;" width="170.8379" x="669.167" y="482.3438"/><text fill="#000000" font-family="sans-serif" font-size="12" lengthAdjust="spacing" textLength="150.8379" x="679.167" y="503.4824">Accesso ai File di Backup</text><polygon fill="#F1F1F1" points="676.4849,536.3125,832.687,536.3125,844.687,548.3125,832.687,560.3125,676.4849,560.3125,664.4849,548.3125,676.4849,536.3125" style="stroke:#181818;stroke-width:0.5;"/><text fill="#000000" font-family="sans-serif" font-size="11" lengthAdjust="spacing" textLength="156.2021" x="676.4849" y="552.1206">Backup disponibile e valido?</text><text fill="#000000" font-family="sans-serif" font-size="11" lengthAdjust="spacing" textLength="10.0386" x="654.4463" y="545.7183">S&#236;</text><text fill="#000000" font-family="sans-serif" font-size="11" lengthAdjust="spacing" textLength="14.9585" x="844.687" y="545.7183">No</text><rect fill="#F1F1F1" height="33.9688" rx="12.5" ry="12.5" style="stroke:#181818;stroke-width:0.5;" width="192.0781" x="549.4478" y="570.3125"/><text fill="#000000" font-family="sans-serif" font-size="12" lengthAdjust="spacing" textLength="172.0781" x="559.4478" y="591.4512">Caricamento Dati da Backup</text><rect fill="#F1F1F1" height="33.9688" rx="12.5" ry="12.5" style="stroke:#181818;stroke-width:0.5;" width="187.3438" x="551.8149" y="624.2813"/><text fill="#000000" font-family="sans-serif" font-size="12" lengthAdjust="spacing" textLength="167.3438" x="561.8149" y="645.4199">Notifica Ripristino Avvenuto</text><rect fill="#F1F1F1" height="33.9688" rx="12.5" ry="12.5" style="stroke:#181818;stroke-width:0.5;" width="192.5234" x="767.4233" y="570.3125"/><text fill="#000000" font-family="sans-serif" font-size="12" lengthAdjust="spacing" textLength="172.5234" x="777.4233" y="591.4512">Mostra Errore Critico &#171;Error&#187;</text><rect fill="#F1F1F1" height="47.9375" rx="12.5" ry="12.5" style="stroke:#181818;stroke-width:0.5;" width="204.3184" x="761.5259" y="624.2813"/><text fill="#000000" font-family="sans-serif" font-size="12" lengthAdjust="spacing" textLength="90.0469" x="771.5259" y="645.4199">Inizializzazione</text><text fill="#000000" font-family="sans-serif" font-size="12" lengthAdjust="spacing" textLength="184.3184" x="771.5259" y="659.3887">Strutture Dati Vuote (Fallback)</text><polygon fill="#F1F1F1" points="754.5859,678.2188,766.5859,690.2188,754.5859,702.2188,742.5859,690.2188,754.5859,678.2188" style="stroke:#181818;stroke-width:0.5;"/><polygon fill="#F1F1F1" points="593.7898,720.2188,605.7898,732.2188,593.7898,744.2188,581.7898,732.2188,593.7898,720.2188" style="stroke:#181818;stroke-width:0.5;"/><polygon fill="#F1F1F1" points="343.8197,750.2188,355.8197,762.2188,343.8197,774.2188,331.8197,762.2188,343.8197,750.2188" style="stroke:#181818;stroke-width:0.5;"/><rect fill="#F1F1F1" height="47.9375" rx="12.5" ry="12.5" style="stroke:#181818;stroke-width:0.5;" width="209.75" x="238.9447" y="806.2188"/><text fill="#000000" font-family="sans-serif" font-size="12" lengthAdjust="spacing" textLength="189.75" x="248.9447" y="827.3574">Popolamento Model in Memoria</text><text fill="#000000" font-family="sans-serif" font-size="12" lengthAdjust="spacing" textLength="185.3145" x="248.9447" y="841.3262">(Catalog, UserSet, LendingSet)</text><rect fill="#F1F1F1" height="47.9375" rx="12.5" ry="12.5" style="stroke:#181818;stroke-width:0.5;" width="167.4395" x="260.1" y="874.1563"/><text fill="#000000" font-family="sans-serif" font-size="12" lengthAdjust="spacing" textLength="147.4395" x="270.1" y="895.2949">Avvio Interfaccia Grafica</text><text fill="#000000" font-family="sans-serif" font-size="12" lengthAdjust="spacing" textLength="84.2578" x="270.1" y="909.2637">(PocoLibView)</text><ellipse cx="343.8197" cy="953.0938" fill="none" rx="11" ry="11" style="stroke:#222222;stroke-width:1;"/><ellipse cx="343.8197" cy="953.0938" fill="#222222" rx="6" ry="6" style="stroke:#222222;stroke-width:1;"/><line style="stroke:#181818;stroke-width:1;" x1="343.8197" x2="343.8197" y1="30" y2="50"/><polygon fill="#181818" points="339.8197,40,343.8197,50,347.8197,40,343.8197,44" style="stroke:#181818;stroke-width:1;"/><line style="stroke:#181818;stroke-width:1;" x1="343.8197" x2="343.8197" y1="97.9375" y2="117.9375"/><polygon fill="#181818" points="339.8197,107.9375,343.8197,117.9375,347.8197,107.9375,343.8197,111.9375" style="stroke:#181818;stroke-width:1;"/><line style="stroke:#181818;stroke-width:1;" x1="645.4868" x2="645.4868" y1="604.2813" y2="624.2813"/><polygon fill="#181818" points="641.4868,614.2813,645.4868,624.2813,649.4868,614.2813,645.4868,618.2813" style="stroke:#181818;stroke-width:1;"/><line style="stroke:#181818;stroke-width:1;" x1="863.6851" x2="863.6851" y1="604.2813" y2="624.2813"/><polygon fill="#181818" points="859.6851,614.2813,863.6851,624.2813,867.6851,614.2813,863.6851,618.2813" style="stroke:#181818;stroke-width:1;"/><line style="stroke:#181818;stroke-width:1;" x1="664.4849" x2="645.4868" y1="548.3125" y2="548.3125"/><line style="stroke:#181818;stroke-width:1;" x1="645.4868" x2="645.4868" y1="548.3125" y2="570.3125"/><polygon fill="#181818" points="641.4868,560.3125,645.4868,570.3125,649.4868,560.3125,645.4868,564.3125" style="stroke:#181818;stroke-width:1;"/><line style="stroke:#181818;stroke-width:1;" x1="844.687" x2="863.6851" y1="548.3125" y2="548.3125"/><line style="stroke:#181818;stroke-width:1;" x1="863.6851" x2="863.6851" y1="548.3125" y2="570.3125"/><polygon fill="#181818" points="859.6851,560.3125,863.6851,570.3125,867.6851,560.3125,863.6851,564.3125" style="stroke:#181818;stroke-width:1;"/><line style="stroke:#181818;stroke-width:1;" x1="645.4868" x2="645.4868" y1="658.25" y2="690.2188"/><line style="stroke:#181818;stroke-width:1;" x1="645.4868" x2="742.5859" y1="690.2188" y2="690.2188"/><polygon fill="#181818" points="732.5859,686.2188,742.5859,690.2188,732.5859,694.2188,736.5859,690.2188" style="stroke:#181818;stroke-width:1;"/><line style="stroke:#181818;stroke-width:1;" x1="863.6851" x2="863.6851" y1="672.2188" y2="690.2188"/><line style="stroke:#181818;stroke-width:1;" x1="863.6851" x2="766.5859" y1="690.2188" y2="690.2188"/><polygon fill="#181818" points="776.5859,686.2188,766.5859,690.2188,776.5859,694.2188,772.5859,690.2188" style="stroke:#181818;stroke-width:1;"/><line style="stroke:#181818;stroke-width:1;" x1="754.5859" x2="754.5859" y1="516.3125" y2="536.3125"/><polygon fill="#181818" points="750.5859,526.3125,754.5859,536.3125,758.5859,526.3125,754.5859,530.3125" style="stroke:#181818;stroke-width:1;"/><line style="stroke:#181818;stroke-width:1;" x1="754.5859" x2="754.5859" y1="436.0469" y2="482.3438"/><polygon fill="#181818" points="750.5859,472.3438,754.5859,482.3438,758.5859,472.3438,754.5859,476.3438" style="stroke:#181818;stroke-width:1;"/><line style="stroke:#181818;stroke-width:1;" x1="537.0244" x2="432.9937" y1="380.0781" y2="380.0781"/><line style="stroke:#181818;stroke-width:1;" x1="432.9937" x2="432.9937" y1="380.0781" y2="402.0781"/><polygon fill="#181818" points="428.9937,392.0781,432.9937,402.0781,436.9937,392.0781,432.9937,396.0781" style="stroke:#181818;stroke-width:1;"/><line style="stroke:#181818;stroke-width:1;" x1="650.5552" x2="754.5859" y1="380.0781" y2="380.0781"/><line style="stroke:#181818;stroke-width:1;" x1="754.5859" x2="754.5859" y1="380.0781" y2="402.0781"/><polygon fill="#181818" points="750.5859,392.0781,754.5859,402.0781,758.5859,392.0781,754.5859,396.0781" style="stroke:#181818;stroke-width:1;"/><line style="stroke:#181818;stroke-width:1;" x1="432.9937" x2="432.9937" y1="436.0469" y2="732.2188"/><line style="stroke:#181818;stroke-width:1;" x1="432.9937" x2="581.7898" y1="732.2188" y2="732.2188"/><polygon fill="#181818" points="571.7898,728.2188,581.7898,732.2188,571.7898,736.2188,575.7898,732.2188" style="stroke:#181818;stroke-width:1;"/><line style="stroke:#181818;stroke-width:1;" x1="754.5859" x2="754.5859" y1="702.2188" y2="732.2188"/><line style="stroke:#181818;stroke-width:1;" x1="754.5859" x2="605.7898" y1="732.2188" y2="732.2188"/><polygon fill="#181818" points="615.7898,728.2188,605.7898,732.2188,615.7898,736.2188,611.7898,732.2188" style="stroke:#181818;stroke-width:1;"/><line style="stroke:#181818;stroke-width:1;" x1="593.7898" x2="593.7898" y1="334.1094" y2="368.0781"/><polygon fill="#181818" points="589.7898,358.0781,593.7898,368.0781,597.7898,358.0781,593.7898,362.0781" style="stroke:#181818;stroke-width:1;"/><line style="stroke:#181818;stroke-width:1;" x1="294.5336" x2="93.8496" y1="278.1406" y2="278.1406"/><line style="stroke:#181818;stroke-width:1;" x1="93.8496" x2="93.8496" y1="278.1406" y2="300.1406"/><polygon fill="#181818" points="89.8496,290.1406,93.8496,300.1406,97.8496,290.1406,93.8496,294.1406" style="stroke:#181818;stroke-width:1;"/><line style="stroke:#181818;stroke-width:1;" x1="393.1058" x2="593.7898" y1="278.1406" y2="278.1406"/><line style="stroke:#181818;stroke-width:1;" x1="593.7898" x2="593.7898" y1="278.1406" y2="300.1406"/><polygon fill="#181818" points="589.7898,290.1406,593.7898,300.1406,597.7898,290.1406,593.7898,294.1406" style="stroke:#181818;stroke-width:1;"/><line style="stroke:#181818;stroke-width:1;" x1="93.8496" x2="93.8496" y1="348.0781" y2="762.2188"/><line style="stroke:#181818;stroke-width:1;" x1="93.8496" x2="331.8197" y1="762.2188" y2="762.2188"/><polygon fill="#181818" points="321.8197,758.2188,331.8197,762.2188,321.8197,766.2188,325.8197,762.2188" style="stroke:#181818;stroke-width:1;"/><line style="stroke:#181818;stroke-width:1;" x1="593.7898" x2="593.7898" y1="744.2188" y2="762.2188"/><line style="stroke:#181818;stroke-width:1;" x1="593.7898" x2="355.8197" y1="762.2188" y2="762.2188"/><polygon fill="#181818" points="365.8197,758.2188,355.8197,762.2188,365.8197,766.2188,361.8197,762.2188" style="stroke:#181818;stroke-width:1;"/><line style="stroke:#181818;stroke-width:1;" x1="343.8197" x2="343.8197" y1="246.1406" y2="266.1406"/><polygon fill="#181818" points="339.8197,256.1406,343.8197,266.1406,347.8197,256.1406,343.8197,260.1406" style="stroke:#181818;stroke-width:1;"/><line style="stroke:#181818;stroke-width:1;" x1="343.8197" x2="343.8197" y1="165.875" y2="212.1719"/><polygon fill="#181818" points="339.8197,202.1719,343.8197,212.1719,347.8197,202.1719,343.8197,206.1719" style="stroke:#181818;stroke-width:1;"/><line style="stroke:#181818;stroke-width:1;" x1="343.8197" x2="343.8197" y1="774.2188" y2="806.2188"/><polygon fill="#181818" points="339.8197,796.2188,343.8197,806.2188,347.8197,796.2188,343.8197,800.2188" style="stroke:#181818;stroke-width:1;"/><line style="stroke:#181818;stroke-width:1;" x1="343.8197" x2="343.8197" y1="854.1563" y2="874.1563"/><polygon fill="#181818" points="339.8197,864.1563,343.8197,874.1563,347.8197,864.1563,343.8197,868.1563" style="stroke:#181818;stroke-width:1;"/><line style="stroke:#181818;stroke-width:1;" x1="343.8197" x2="343.8197" y1="922.0938" y2="942.0938"/><polygon fill="#181818" points="339.8197,932.0938,343.8197,942.0938,347.8197,932.0938,343.8197,936.0938" style="stroke:#181818;stroke-width:1;"/><!--SRC=[ZLJ1RjD04BtxAqPm894QA498AAcAMhTKbPegQcXElKpNQtUeisFDheq8wX_n5_mOutLmavH8-92ilM_dpNipisyWPPTJKGkkY9q57wYqYNyaLw7W4j04QYZyW9y9m2cQnqAuTbdA9SlHqRa8o_4nlCvpeqyBOScix6uRSwXFyfGaFg2491cVD0qnd5HLIQQZldE3AwoTUR3ozXisE9mexDBHYh2arMgTNyhBIlzT89WkKZqpOyDNTB-E51G4esDOVvroPiisa8e953TVNLWVOgYP5Ky-MBT269oT3bz5ZG3ZXHNADHZOVZzNLo0Zy5Ws6B0eY2SH77yeXy6N5X4FiEFFGmWFri7Wcc44Cw6bQcqL3oC-iknAktFp87K8jLWuKo6mg3dOIN_0wHi85GzX3BVfwFqdc1lhKDJ63nXHjlGM1lFVlpPOlgfL6gnXkB9jR8IOgARa35LA_qpGBrevVz52jJSKi5Uq5JvId5clXcqMgKt_EMwNLdJYt1WR8UzI5gdZSYVQb7rGtjWwMcxLPt2f8dYoXTjwsQZk3LMYDI37IdbpCphysDTrY-P4C_6U0QapH6lRTdTTJLvWMpkwFKLvxJwwZxM6HZLdlD-Pdcn3HLVQ3FUonGFN7BeEt92Z_MDTlUl3fi5xs7SS5NNACFJJkIU5_sjFxNiiotlLCln7NYwZVElhK_9ohrlfrJ2USSNbsgOukK0EfdR9sbqwwQaENid50TnglyrjED2MrhEkq7MyBBexvT85ApaQGmWNWgsDpzV4Wkpt5gjJMlq1]--></g></svg>