<svg xmlns="http://www.w3.org/2000/svg" xmlns:xlink="http://www.w3.org/1999/xlink" contentStyleType="text/css" data-diagram-type="ACTIVITY" height="690px" preserveAspectRatio="none" style="width:1026px;height:690px;background:#FFFFFF;" version="1.1" viewBox="0 0 1026 690" width="1026px" zoomAndPan="magnify"><title>Avvio Applicazione e Caricamento Dati</title><defs/><g><g class="title" data-source-line="1"><text fill="#000000" font-family="sans-serif" font-size="14" font-weight="bold" lengthAdjust="spacing" textLength="304.835" x="359.2944" y="32.9951">Avvio Applicazione e Caricamento Dati</text></g><ellipse cx="336.3516" cy="57.2969" fill="#222222" rx="10" ry="10" style="stroke:#222222;stroke-width:1;"/><rect fill="#F1F1F1" height="33.9688" rx="12.5" ry="12.5" style="stroke:#181818;stroke-width:0.5;" width="201.875" x="235.4141" y="87.2969"/><text fill="#000000" font-family="sans-serif" font-size="12" lengthAdjust="spacing" textLength="181.875" x="245.4141" y="108.4355">Avvio Applicazione (Launcher)</text><polygon fill="#F1F1F1" points="272.3577,141.2656,400.3455,141.2656,412.3455,153.2656,400.3455,165.2656,272.3577,165.2656,260.3577,153.2656,272.3577,141.2656" style="stroke:#181818;stroke-width:0.5;"/><text fill="#000000" font-family="sans-serif" font-size="11" lengthAdjust="spacing" textLength="127.9878" x="272.3577" y="157.0737">File salvataggio esiste?</text><text fill="#000000" font-family="sans-serif" font-size="11" lengthAdjust="spacing" textLength="14.9585" x="245.3992" y="150.6714">No</text><text fill="#000000" font-family="sans-serif" font-size="11" lengthAdjust="spacing" textLength="10.0386" x="412.3455" y="150.6714">S&#236;</text><rect fill="#F1F1F1" height="33.9688" rx="12.5" ry="12.5" style="stroke:#181818;stroke-width:0.5;" width="170.1465" x="27.1719" y="175.2656"/><text fill="#000000" font-family="sans-serif" font-size="12" lengthAdjust="spacing" textLength="150.1465" x="37.1719" y="196.4043">Crea nuovo file DB vuoto</text><rect fill="#F1F1F1" height="33.9688" rx="12.5" ry="12.5" style="stroke:#181818;stroke-width:0.5;" width="202.4902" x="11" y="229.2344"/><text fill="#000000" font-family="sans-serif" font-size="12" lengthAdjust="spacing" textLength="182.4902" x="21" y="250.373">Inizializza Strutture Dati vuote</text><rect fill="#F1F1F1" height="33.9688" rx="12.5" ry="12.5" style="stroke:#181818;stroke-width:0.5;" width="291.541" x="429.7228" y="175.2656"/><text fill="#000000" font-family="sans-serif" font-size="12" lengthAdjust="spacing" textLength="271.541" x="439.7228" y="196.4043">Tenta caricamento dati (LoadFromSerialized)</text><polygon fill="#F1F1F1" points="515.4686,229.2344,635.5179,229.2344,647.5179,241.2344,635.5179,253.2344,515.4686,253.2344,503.4686,241.2344,515.4686,229.2344" style="stroke:#181818;stroke-width:0.5;"/><text fill="#000000" font-family="sans-serif" font-size="11" lengthAdjust="spacing" textLength="120.0493" x="515.4686" y="245.0425">Caricamento riuscito?</text><text fill="#000000" font-family="sans-serif" font-size="11" lengthAdjust="spacing" textLength="10.0386" x="493.4301" y="238.6401">S&#236;</text><text fill="#000000" font-family="sans-serif" font-size="11" lengthAdjust="spacing" textLength="94.166" x="647.5179" y="238.6401">No - File Corrotto</text><rect fill="#F1F1F1" height="33.9688" rx="12.5" ry="12.5" style="stroke:#181818;stroke-width:0.5;" width="313.8418" x="228.455" y="263.2344"/><text fill="#000000" font-family="sans-serif" font-size="12" lengthAdjust="spacing" textLength="293.8418" x="238.455" y="284.373">Popola il Modello (BookSet, UserSet, LendingSet)</text><rect fill="#F1F1F1" height="33.9688" rx="12.5" ry="12.5" style="stroke:#181818;stroke-width:0.5;" width="222.6699" x="654.2758" y="263.2344"/><text fill="#000000" font-family="sans-serif" font-size="12" lengthAdjust="spacing" textLength="202.6699" x="664.2758" y="284.373">Mostra avviso errore caricamento</text><rect fill="#F1F1F1" height="33.9688" rx="12.5" ry="12.5" style="stroke:#181818;stroke-width:0.5;" width="282.4063" x="624.4076" y="317.2031"/><text fill="#000000" font-family="sans-serif" font-size="12" lengthAdjust="spacing" textLength="262.4063" x="634.4076" y="338.3418">Tenta Ripristino da Backup (restoreBackup)</text><polygon fill="#F1F1F1" points="714.6981,371.1719,816.5233,371.1719,828.5233,383.1719,816.5233,395.1719,714.6981,395.1719,702.6981,383.1719,714.6981,371.1719" style="stroke:#181818;stroke-width:0.5;"/><text fill="#000000" font-family="sans-serif" font-size="11" lengthAdjust="spacing" textLength="101.8252" x="714.6981" y="386.98">Ripristino riuscito?</text><text fill="#000000" font-family="sans-serif" font-size="11" lengthAdjust="spacing" textLength="10.0386" x="692.6595" y="380.5776">S&#236;</text><text fill="#000000" font-family="sans-serif" font-size="11" lengthAdjust="spacing" textLength="14.9585" x="828.5233" y="380.5776">No</text><rect fill="#F1F1F1" height="33.9688" rx="12.5" ry="12.5" style="stroke:#181818;stroke-width:0.5;" width="155.0645" x="572.2968" y="405.1719"/><text fill="#000000" font-family="sans-serif" font-size="12" lengthAdjust="spacing" textLength="135.0645" x="582.2968" y="426.3105">Carica dati dal Backup</text><rect fill="#F1F1F1" height="33.9688" rx="12.5" ry="12.5" style="stroke:#181818;stroke-width:0.5;" width="121.2266" x="589.2157" y="459.1406"/><text fill="#000000" font-family="sans-serif" font-size="12" lengthAdjust="spacing" textLength="101.2266" x="599.2157" y="480.2793">Popola il Modello</text><rect fill="#F1F1F1" height="33.9688" rx="12.5" ry="12.5" style="stroke:#181818;stroke-width:0.5;" width="144.3008" x="809.2421" y="405.1719"/><text fill="#000000" font-family="sans-serif" font-size="12" lengthAdjust="spacing" textLength="124.3008" x="819.2421" y="426.3105">Mostra Errore Critico</text><rect fill="#F1F1F1" height="33.9688" rx="12.5" ry="12.5" style="stroke:#181818;stroke-width:0.5;" width="268.0625" x="747.3612" y="459.1406"/><text fill="#000000" font-family="sans-serif" font-size="12" lengthAdjust="spacing" textLength="248.0625" x="757.3612" y="480.2793">Inizializza nuovo file DB e strutture vuote</text><polygon fill="#F1F1F1" points="765.6107,499.1094,777.6107,511.1094,765.6107,523.1094,753.6107,511.1094,765.6107,499.1094" style="stroke:#181818;stroke-width:0.5;"/><polygon fill="#F1F1F1" points="575.4933,529.1094,587.4933,541.1094,575.4933,553.1094,563.4933,541.1094,575.4933,529.1094" style="stroke:#181818;stroke-width:0.5;"/><polygon fill="#F1F1F1" points="336.3516,559.1094,348.3516,571.1094,336.3516,583.1094,324.3516,571.1094,336.3516,559.1094" style="stroke:#181818;stroke-width:0.5;"/><rect fill="#F1F1F1" height="33.9688" rx="12.5" ry="12.5" style="stroke:#181818;stroke-width:0.5;" width="225.7227" x="223.4902" y="603.1094"/><text fill="#000000" font-family="sans-serif" font-size="12" lengthAdjust="spacing" textLength="205.7227" x="233.4902" y="624.248">Mostra Interfaccia Principale (GUI)</text><ellipse cx="336.3516" cy="668.0781" fill="none" rx="11" ry="11" style="stroke:#222222;stroke-width:1;"/><ellipse cx="336.3516" cy="668.0781" fill="#222222" rx="6" ry="6" style="stroke:#222222;stroke-width:1;"/><line style="stroke:#181818;stroke-width:1;" x1="336.3516" x2="336.3516" y1="67.2969" y2="87.2969"/><polygon fill="#181818" points="332.3516,77.2969,336.3516,87.2969,340.3516,77.2969,336.3516,81.2969" style="stroke:#181818;stroke-width:1;"/><line style="stroke:#181818;stroke-width:1;" x1="112.2451" x2="112.2451" y1="209.2344" y2="229.2344"/><polygon fill="#181818" points="108.2451,219.2344,112.2451,229.2344,116.2451,219.2344,112.2451,223.2344" style="stroke:#181818;stroke-width:1;"/><line style="stroke:#181818;stroke-width:1;" x1="765.6107" x2="765.6107" y1="297.2031" y2="317.2031"/><polygon fill="#181818" points="761.6107,307.2031,765.6107,317.2031,769.6107,307.2031,765.6107,311.2031" style="stroke:#181818;stroke-width:1;"/><line style="stroke:#181818;stroke-width:1;" x1="649.829" x2="649.829" y1="439.1406" y2="459.1406"/><polygon fill="#181818" points="645.829,449.1406,649.829,459.1406,653.829,449.1406,649.829,453.1406" style="stroke:#181818;stroke-width:1;"/><line style="stroke:#181818;stroke-width:1;" x1="881.3925" x2="881.3925" y1="439.1406" y2="459.1406"/><polygon fill="#181818" points="877.3925,449.1406,881.3925,459.1406,885.3925,449.1406,881.3925,453.1406" style="stroke:#181818;stroke-width:1;"/><line style="stroke:#181818;stroke-width:1;" x1="702.6981" x2="649.829" y1="383.1719" y2="383.1719"/><line style="stroke:#181818;stroke-width:1;" x1="649.829" x2="649.829" y1="383.1719" y2="405.1719"/><polygon fill="#181818" points="645.829,395.1719,649.829,405.1719,653.829,395.1719,649.829,399.1719" style="stroke:#181818;stroke-width:1;"/><line style="stroke:#181818;stroke-width:1;" x1="828.5233" x2="881.3925" y1="383.1719" y2="383.1719"/><line style="stroke:#181818;stroke-width:1;" x1="881.3925" x2="881.3925" y1="383.1719" y2="405.1719"/><polygon fill="#181818" points="877.3925,395.1719,881.3925,405.1719,885.3925,395.1719,881.3925,399.1719" style="stroke:#181818;stroke-width:1;"/><line style="stroke:#181818;stroke-width:1;" x1="649.829" x2="649.829" y1="493.1094" y2="511.1094"/><line style="stroke:#181818;stroke-width:1;" x1="649.829" x2="753.6107" y1="511.1094" y2="511.1094"/><polygon fill="#181818" points="743.6107,507.1094,753.6107,511.1094,743.6107,515.1094,747.6107,511.1094" style="stroke:#181818;stroke-width:1;"/><line style="stroke:#181818;stroke-width:1;" x1="881.3925" x2="881.3925" y1="493.1094" y2="511.1094"/><line style="stroke:#181818;stroke-width:1;" x1="881.3925" x2="777.6107" y1="511.1094" y2="511.1094"/><polygon fill="#181818" points="787.6107,507.1094,777.6107,511.1094,787.6107,515.1094,783.6107,511.1094" style="stroke:#181818;stroke-width:1;"/><line style="stroke:#181818;stroke-width:1;" x1="765.6107" x2="765.6107" y1="351.1719" y2="371.1719"/><polygon fill="#181818" points="761.6107,361.1719,765.6107,371.1719,769.6107,361.1719,765.6107,365.1719" style="stroke:#181818;stroke-width:1;"/><line style="stroke:#181818;stroke-width:1;" x1="503.4686" x2="385.3759" y1="241.2344" y2="241.2344"/><line style="stroke:#181818;stroke-width:1;" x1="385.3759" x2="385.3759" y1="241.2344" y2="263.2344"/><polygon fill="#181818" points="381.3759,253.2344,385.3759,263.2344,389.3759,253.2344,385.3759,257.2344" style="stroke:#181818;stroke-width:1;"/><line style="stroke:#181818;stroke-width:1;" x1="647.5179" x2="765.6107" y1="241.2344" y2="241.2344"/><line style="stroke:#181818;stroke-width:1;" x1="765.6107" x2="765.6107" y1="241.2344" y2="263.2344"/><polygon fill="#181818" points="761.6107,253.2344,765.6107,263.2344,769.6107,253.2344,765.6107,257.2344" style="stroke:#181818;stroke-width:1;"/><line style="stroke:#181818;stroke-width:1;" x1="385.3759" x2="385.3759" y1="297.2031" y2="541.1094"/><line style="stroke:#181818;stroke-width:1;" x1="385.3759" x2="563.4933" y1="541.1094" y2="541.1094"/><polygon fill="#181818" points="553.4933,537.1094,563.4933,541.1094,553.4933,545.1094,557.4933,541.1094" style="stroke:#181818;stroke-width:1;"/><line style="stroke:#181818;stroke-width:1;" x1="765.6107" x2="765.6107" y1="523.1094" y2="541.1094"/><line style="stroke:#181818;stroke-width:1;" x1="765.6107" x2="587.4933" y1="541.1094" y2="541.1094"/><polygon fill="#181818" points="597.4933,537.1094,587.4933,541.1094,597.4933,545.1094,593.4933,541.1094" style="stroke:#181818;stroke-width:1;"/><line style="stroke:#181818;stroke-width:1;" x1="575.4933" x2="575.4933" y1="209.2344" y2="229.2344"/><polygon fill="#181818" points="571.4933,219.2344,575.4933,229.2344,579.4933,219.2344,575.4933,223.2344" style="stroke:#181818;stroke-width:1;"/><line style="stroke:#181818;stroke-width:1;" x1="260.3577" x2="112.2451" y1="153.2656" y2="153.2656"/><line style="stroke:#181818;stroke-width:1;" x1="112.2451" x2="112.2451" y1="153.2656" y2="175.2656"/><polygon fill="#181818" points="108.2451,165.2656,112.2451,175.2656,116.2451,165.2656,112.2451,169.2656" style="stroke:#181818;stroke-width:1;"/><line style="stroke:#181818;stroke-width:1;" x1="412.3455" x2="575.4933" y1="153.2656" y2="153.2656"/><line style="stroke:#181818;stroke-width:1;" x1="575.4933" x2="575.4933" y1="153.2656" y2="175.2656"/><polygon fill="#181818" points="571.4933,165.2656,575.4933,175.2656,579.4933,165.2656,575.4933,169.2656" style="stroke:#181818;stroke-width:1;"/><line style="stroke:#181818;stroke-width:1;" x1="112.2451" x2="112.2451" y1="263.2031" y2="571.1094"/><line style="stroke:#181818;stroke-width:1;" x1="112.2451" x2="324.3516" y1="571.1094" y2="571.1094"/><polygon fill="#181818" points="314.3516,567.1094,324.3516,571.1094,314.3516,575.1094,318.3516,571.1094" style="stroke:#181818;stroke-width:1;"/><line style="stroke:#181818;stroke-width:1;" x1="575.4933" x2="575.4933" y1="553.1094" y2="571.1094"/><line style="stroke:#181818;stroke-width:1;" x1="575.4933" x2="348.3516" y1="571.1094" y2="571.1094"/><polygon fill="#181818" points="358.3516,567.1094,348.3516,571.1094,358.3516,575.1094,354.3516,571.1094" style="stroke:#181818;stroke-width:1;"/><line style="stroke:#181818;stroke-width:1;" x1="336.3516" x2="336.3516" y1="121.2656" y2="141.2656"/><polygon fill="#181818" points="332.3516,131.2656,336.3516,141.2656,340.3516,131.2656,336.3516,135.2656" style="stroke:#181818;stroke-width:1;"/><line style="stroke:#181818;stroke-width:1;" x1="336.3516" x2="336.3516" y1="583.1094" y2="603.1094"/><polygon fill="#181818" points="332.3516,593.1094,336.3516,603.1094,340.3516,593.1094,336.3516,597.1094" style="stroke:#181818;stroke-width:1;"/><line style="stroke:#181818;stroke-width:1;" x1="336.3516" x2="336.3516" y1="637.0781" y2="657.0781"/><polygon fill="#181818" points="332.3516,647.0781,336.3516,657.0781,340.3516,647.0781,336.3516,651.0781" style="stroke:#181818;stroke-width:1;"/><!--SRC=[VL9TRjim37xNAVXe0zi5weUXITSYG5eKote0GcPIegfeKBGVSgRUeXURRBcEsmtpWq11vFTd6biWk1u65hZkki0UpooHW62Bcc-l54tW1esTIuPgpbtzextQOn_zCsdTECT7g6uvuoOC0ngUJhcT4YUZ7pNOCqMe7gHsaB-hhH92x6KGE8upDniOUZ5folCkyfanyFcCS33jpNgbIS_KHesZa3B_uVrj1loT5IFubVfsxAxsWksjokk1T0AajYuSqp5gNZjMxfDdaqNmGZ2HF4ed0O43t4jB8GXK6v6N0zatU4gaKx6ds78yvNfcAb8V1Bx3bCzMLCLCLi3taamHC4USScZvFTjTcMakhSNeB-uq9yjnz0aRz2zz1vLIiZnPhlLbQ2b6lwlH_zijFseIKS9iCSnKpUUcltAvl7-O_m8x6_vPd6wLZRryGLqlmUTLoJksBCMy3mjV3l_eBbKvtGVXBXhf4RrdX4VbwBd3Z5dTFUt67SxnTNy0]--></g></svg>