<svg xmlns="http://www.w3.org/2000/svg" viewBox="0 0 1667.77 908.49"><defs><style>.cls-1{fill:#fff;}.cls-2{fill:#e6e6e6;}.cls-13,.cls-16,.cls-2,.cls-3,.cls-4,.cls-5{stroke:#000;}.cls-12,.cls-13,.cls-16,.cls-2,.cls-3,.cls-4,.cls-5{stroke-miterlimit:10;}.cls-13,.cls-2{stroke-width:2px;}.cls-3{font-size:80px;}.cls-16,.cls-3{fill:none;}.cls-12,.cls-3{font-family:OCRAExtended, OCR A Extended;}.cls-4{fill:#f2f2f2;}.cls-12,.cls-5{fill:#d3e6cf;}.cls-6{font-size:26px;font-family:Constantia;}.cls-7{letter-spacing:-0.01em;}.cls-8{letter-spacing:-0.01em;}.cls-9{letter-spacing:-0.07em;}.cls-10{letter-spacing:-0.02em;}.cls-11{letter-spacing:-0.02em;}.cls-12{font-size:50px;stroke:#284f1d;}.cls-13{fill:#e0e6db;}.cls-14{letter-spacing:-0.01em;}.cls-15{letter-spacing:-0.03em;}</style></defs><g id="Livello_2" data-name="Livello 2"><g id="Livello_2-2" data-name="Livello 2"><rect class="cls-1" width="1667.77" height="908.49" rx="69"/></g><g id="Livello_1-2" data-name="Livello 1"><path class="cls-2" d="M840.72,251.45h576.49a38,38,0,0,1,38,38V527A130.08,130.08,0,0,1,1325.09,657H878.68a38,38,0,0,1-38-38V251.45A0,0,0,0,1,840.72,251.45Z"/><text class="cls-3" transform="translate(858.46 320.82)">exceptions</text><rect class="cls-4" x="882.45" y="385.23" width="460.44" height="93.15" rx="46.57"/><circle class="cls-5" cx="929.02" cy="431.81" r="37.68"/><text class="cls-6" transform="translate(981.46 440.48)">Book<tspan class="cls-7" x="57.54" y="0">D</tspan><tspan x="76.74" y="0">ata</tspan><tspan class="cls-8" x="110.88" y="0">N</tspan><tspan x="129.97" y="0">ot</tspan><tspan class="cls-9" x="153.21" y="0">V</tspan><tspan x="168.87" y="0">alidE</tspan><tspan class="cls-10" x="225.86" y="0">x</tspan><tspan class="cls-11" x="237.72" y="0">c</tspan><tspan x="249.21" y="0">eptio</tspan><tspan class="cls-8" x="306.81" y="0">n</tspan></text><text class="cls-12" transform="translate(911.92 448.03)">C</text><rect class="cls-4" x="882.45" y="519.02" width="460.44" height="93.15" rx="46.57"/><circle class="cls-5" cx="929.02" cy="565.59" r="37.68"/><text class="cls-6" transform="translate(981.46 574.26)"><tspan class="cls-11">U</tspan><tspan x="18.83" y="0">ser</tspan><tspan class="cls-7" x="51.77" y="0">D</tspan><tspan x="70.98" y="0">ata</tspan><tspan class="cls-8" x="105.12" y="0">N</tspan><tspan x="124.21" y="0">ot</tspan><tspan class="cls-9" x="147.44" y="0">V</tspan><tspan x="163.11" y="0">alidE</tspan><tspan class="cls-10" x="220.1" y="0">x</tspan><tspan class="cls-11" x="231.96" y="0">c</tspan><tspan x="243.45" y="0">eptio</tspan><tspan class="cls-8" x="301.04" y="0">n</tspan></text><text class="cls-12" transform="translate(911.92 581.82)">C</text><path class="cls-13" d="M212.6,251.45H703.17a20,20,0,0,1,20,20V557a100,100,0,0,1-100,100H232.6a20,20,0,0,1-20-20V251.45A0,0,0,0,1,212.6,251.45Z"/><text class="cls-3" transform="translate(228.12 319.33)">mvc/model</text><rect class="cls-4" x="367.26" y="385.23" width="201.26" height="93.15" rx="46.57"/><circle class="cls-5" cx="413.82" cy="431.81" r="37.68"/><text class="cls-6" transform="translate(466.27 440.48)">Boo<tspan class="cls-14" x="43.63" y="0">k</tspan></text><text class="cls-12" transform="translate(396.72 448.03)">C</text><rect class="cls-4" x="371.38" y="519.02" width="193" height="93.15" rx="46.57"/><circle class="cls-5" cx="417.95" cy="565.59" r="37.68"/><text class="cls-6" transform="translate(470.4 574.26)"><tspan class="cls-11">U</tspan><tspan x="18.83" y="0">se</tspan><tspan class="cls-15" x="41.81" y="0">r</tspan></text><text class="cls-12" transform="translate(400.85 581.82)">C</text><line class="cls-16" x1="568.51" y1="431.81" x2="868.33" y2="431.81"/><polygon points="882.45 431.81 862.55 439.94 867.27 431.81 862.55 423.68 882.45 431.81"/><line class="cls-16" x1="564.38" y1="565.59" x2="868.33" y2="565.59"/><polygon points="882.45 565.59 862.55 573.72 867.27 565.59 862.55 557.46 882.45 565.59"/></g></g></svg>