<svg xmlns="http://www.w3.org/2000/svg" viewBox="0 0 1850.67 1569.93"><defs><style>.cls-1,.cls-15,.cls-16{fill:#fff;}.cls-2{fill:#e6e6e6;}.cls-13,.cls-14,.cls-15,.cls-16,.cls-2,.cls-3,.cls-4,.cls-5,.cls-6,.cls-7{stroke:#000;}.cls-10,.cls-13,.cls-14,.cls-2,.cls-3,.cls-4,.cls-5,.cls-6,.cls-7{stroke-miterlimit:10;}.cls-2,.cls-3,.cls-4{stroke-width:2px;}.cls-3{fill:#d9d9d9;}.cls-4{fill:#e0e6db;}.cls-5{font-size:80px;}.cls-13,.cls-14,.cls-5{fill:none;}.cls-10,.cls-5{font-family:OCRAExtended, OCR A Extended;}.cls-6{fill:#f2f2f2;}.cls-10,.cls-7{fill:#d3e6cf;}.cls-8{font-size:26px;font-family:Constantia;}.cls-9{letter-spacing:-0.02em;}.cls-10{font-size:50px;stroke:#284f1d;}.cls-11{font-size:13px;font-family:Consolas;}.cls-12{text-decoration:underline;}.cls-13,.cls-16{stroke-linecap:round;}.cls-15,.cls-16{stroke-linejoin:round;}.cls-17{letter-spacing:-0.01em;}.cls-18{letter-spacing:-0.01em;}.cls-19{letter-spacing:-0.07em;}.cls-20{letter-spacing:-0.02em;}.cls-21{letter-spacing:-0.01em;}</style></defs><g id="Livello_2" data-name="Livello 2"><g id="Livello_2-2" data-name="Livello 2"><rect class="cls-1" width="1850.67" height="1569.93" rx="69"/></g><g id="Livello_1-2" data-name="Livello 1"><path class="cls-2" d="M122.27,926.08H608.68a38,38,0,0,1,38,38v163.35a130.08,130.08,0,0,1-130.08,130.08H160.22a38,38,0,0,1-38-38V926.08A0,0,0,0,1,122.27,926.08Z"/><path class="cls-2" d="M1151.5,44.71h538.94a38,38,0,0,1,38,38V1156.84a130.08,130.08,0,0,1-130.08,130.08H1189.46a38,38,0,0,1-38-38V44.71a0,0,0,0,1,0,0Z"/><path class="cls-3" d="M1177.64,132.59h505.3a20,20,0,0,1,20,20V421.75a100,100,0,0,1-100,100h-405.3a20,20,0,0,1-20-20V132.59A0,0,0,0,1,1177.64,132.59Z"/><path class="cls-4" d="M666.83,44.71H1111.3a20,20,0,0,1,20,20V1385.22a100,100,0,0,1-100,100H686.83a20,20,0,0,1-20-20V44.71A0,0,0,0,1,666.83,44.71Z"/><text class="cls-5" transform="translate(685.36 112.59)">mvc/model</text><path class="cls-6" d="M772.26,229.47h259.93A46.57,46.57,0,0,1,1078.76,276V823.7a5,5,0,0,1-5,5H730.69a5,5,0,0,1-5-5V276a46.57,46.57,0,0,1,46.57-46.57Z"/><circle class="cls-7" cx="772.26" cy="276.04" r="37.68"/><text class="cls-8" transform="translate(824.7 284.71)">BookSe<tspan class="cls-9" x="83.24" y="0">t</tspan></text><text class="cls-10" transform="translate(755.16 292.27)">C</text><text class="cls-11" transform="translate(738.59 341.22)">- bookSet: Set&lt;Book&gt; {G+S}<tspan x="0" y="25">- bookIndex: Index&lt;Book&gt; {G+S}</tspan><tspan x="0" y="50">- bookDB: DB {G+S}</tspan><tspan x="0" y="75">- lastKnownDBHash: String {G}</tspan><tspan x="0" y="100">- DBPath: String {G+S}</tspan><tspan x="0" y="125">- serializationPath: String {G+S}</tspan><tspan x="0" y="175">+ updateLastKnownDBHash(): void</tspan><tspan x="0" y="200">+ getListOfBooks(): List&lt;Book&gt;</tspan><tspan class="cls-12"><tspan x="0" y="225">+ loadFromSerialized(String, String): BookSet</tspan></tspan><tspan x="0" y="250">+ rebuildFromDB(String): void</tspan><tspan x="0" y="275">+ addOrEditBook(Book): void</tspan><tspan x="0" y="300">+ removeBook(String): void</tspan><tspan x="0" y="325">+ getBook(String): Book</tspan><tspan x="0" y="350">+ search(String): List&lt;Book&gt;</tspan><tspan x="0" y="375">+ rawSearch(String): List&lt;Book&gt;</tspan><tspan x="0" y="400">+ calculateScore(Book, String): int</tspan><tspan x="0" y="425">+ syncOnWrite(): void</tspan><tspan x="0" y="450">+ saveToSerialized(): void</tspan><tspan x="0" y="475">+ toString(): String</tspan></text><line class="cls-13" x1="871.56" y1="487.48" x2="932.89" y2="487.48"/><path class="cls-6" d="M1259.41,587.51h333.41a46.57,46.57,0,0,1,46.57,46.57v547.66a5,5,0,0,1-5,5H1217.84a5,5,0,0,1-5-5V634.08A46.57,46.57,0,0,1,1259.41,587.51Z"/><circle class="cls-7" cx="1259.41" cy="634.08" r="37.68"/><text class="cls-8" transform="translate(1311.85 642.75)">DB</text><text class="cls-10" transform="translate(1242.31 650.3)">C</text><text class="cls-11" transform="translate(1225.74 699.26)">- DBPath: String {G+S}<tspan x="0" y="25">- cache: List&lt;String&gt;</tspan><tspan x="0" y="50">- DBFileHash: String {G}</tspan><tspan x="0" y="100">+ getDBPathAsPath</tspan><tspan x="0" y="125">+ updateDBFileHash(): void</tspan><tspan x="0" y="150">+ updateAndGetDBFileHash(): String</tspan><tspan x="0" y="175">+ buildCache(): boolean</tspan><tspan x="0" y="200">+ updateDBFromCache(): boolean</tspan><tspan x="0" y="225">+ readNthLine(int): String</tspan><tspan x="0" y="250">+ writeNthLine(int, String, boolean): boolean</tspan><tspan x="0" y="275">+ writeNthLineWShift(int, String): boolean</tspan><tspan x="0" y="300">+ writeNthLineReplace(int, String): boolean</tspan><tspan x="0" y="325">+ removeNthLine(int): String</tspan><tspan x="0" y="350">+ findFirstInstanceOfPattern(Pattern): int</tspan><tspan x="0" y="375">+ readFirstLineContainingPattern(Pattern): String</tspan><tspan x="0" y="400">+ substituteFirstLineContainingPattern(Pattern): boolean</tspan><tspan x="0" y="425">+ deleteFirstLineContainingPattern(Pattern): String</tspan><tspan x="0" y="450">+ appendLine(String): boolean</tspan><tspan x="0" y="475">+ toString(): String </tspan></text><line class="cls-13" x1="1395.45" y1="772.07" x2="1456.79" y2="772.07"/><path class="cls-6" d="M1313.48,229.47h225.28A46.57,46.57,0,0,1,1585.33,276V453.15a5,5,0,0,1-5,5H1271.9a5,5,0,0,1-5-5V276a46.57,46.57,0,0,1,46.57-46.57Z"/><circle class="cls-7" cx="1313.47" cy="276.04" r="37.68"/><text class="cls-8" transform="translate(1365.92 284.71)">Index&lt;T&gt;</text><text class="cls-10" transform="translate(1296.37 292.27)">C</text><text class="cls-11" transform="translate(1279.81 341.22)">- triMappings: Map&lt;String, List&lt;T&gt;&gt; {G} <tspan x="0" y="50">+ generateTrigrams(String): List&lt;String&gt; </tspan><tspan x="0" y="75">+ add(String, T): void</tspan><tspan x="0" y="100">+ remove(T): void</tspan></text><line class="cls-13" x1="1395.45" y1="362.48" x2="1456.79" y2="362.48"/><line class="cls-14" x1="902.23" y1="828.7" x2="902.23" y2="933.78"/><path class="cls-14" d="M1078.76,388.92c100.17,0,34.28,445.7,120.31,487.33"/><polygon points="1212.84 879.36 1191.55 882.3 1198.14 875.6 1195.58 866.55 1212.84 879.36"/><line class="cls-14" x1="1078.76" y1="364.59" x2="1252.78" y2="364.59"/><polygon points="1266.9 364.59 1247.01 372.72 1251.73 364.59 1247.01 356.46 1266.9 364.59"/><line class="cls-14" x1="626.62" y1="1091.77" x2="779.64" y2="1091.77"/><polygon points="612.49 1091.77 632.39 1099.9 627.67 1091.77 632.39 1083.64 612.49 1091.77"/><polyline class="cls-15" points="902.23 828.7 890.09 847.82 902.23 866.94"/><polyline class="cls-16" points="902.23 866.94 914.36 847.82 902.23 828.7"/><rect class="cls-6" x="152.06" y="1045.2" width="460.44" height="93.15" rx="46.57"/><circle class="cls-7" cx="198.63" cy="1091.77" r="37.68"/><text class="cls-8" transform="translate(251.07 1100.44)">Book<tspan class="cls-17" x="57.54" y="0">D</tspan><tspan x="76.74" y="0">ata</tspan><tspan class="cls-18" x="110.88" y="0">N</tspan><tspan x="129.97" y="0">ot</tspan><tspan class="cls-19" x="153.21" y="0">V</tspan><tspan x="168.87" y="0">alidE</tspan><tspan class="cls-9" x="225.86" y="0">x</tspan><tspan class="cls-20" x="237.72" y="0">c</tspan><tspan x="249.21" y="0">eptio</tspan><tspan class="cls-18" x="306.81" y="0">n</tspan></text><text class="cls-10" transform="translate(181.52 1107.99)">C</text><text class="cls-5" transform="translate(1188.16 202.15)">omnisearch</text><text class="cls-5" transform="translate(1163.83 112.59)">db</text><text class="cls-5" transform="translate(131.14 994.04)">exceptions</text><path class="cls-6" d="M826.21,933.78h152a46.57,46.57,0,0,1,46.57,46.57v423.59a5,5,0,0,1-5,5H784.64a5,5,0,0,1-5-5V980.35A46.57,46.57,0,0,1,826.21,933.78Z"/><circle class="cls-7" cx="826.2" cy="980.35" r="37.68"/><text class="cls-8" transform="translate(878.65 989.02)">Boo<tspan class="cls-21" x="43.63" y="0">k</tspan></text><text class="cls-10" transform="translate(809.1 996.58)">C</text><text class="cls-11" transform="translate(792.19 1045.2)">- title: String {G+S}<tspan x="0" y="25">- authors: List&lt;String&gt; {G+S}</tspan><tspan x="0" y="50">- isbn: String {G+S}</tspan><tspan x="0" y="75">- year: int {G+S}</tspan><tspan x="0" y="100">- copies: int {G+S}</tspan><tspan x="0" y="125">- copiesLent: int</tspan><tspan x="0" y="150">- timesLent: int</tspan><tspan class="cls-12"><tspan x="0" y="200">+ isValidIsbn(String): boolean</tspan></tspan><tspan x="0" y="225">+ addCopy(): void</tspan><tspan x="0" y="250">+ removeCopy(): void</tspan><tspan x="0" y="275">+ hashCode(): int</tspan><tspan class="cls-12"><tspan x="0" y="300">+ fromString(String): Book</tspan></tspan><tspan x="0" y="325">+ toSearchableString(): String</tspan><tspan x="0" y="350">+ toString(): String </tspan></text><line class="cls-13" x1="871.56" y1="1215.83" x2="932.89" y2="1215.83"/><text class="cls-11" transform="translate(917.98 843.49)">1</text><text class="cls-11" transform="translate(890.09 927.78)">*</text></g></g></svg>