<svg xmlns="http://www.w3.org/2000/svg" viewBox="0 0 1603.36 1730"><defs><style>.cls-1,.cls-10{fill:#fff;}.cls-11,.cls-2{fill:#f2f2f2;}.cls-10,.cls-11,.cls-12,.cls-2,.cls-23,.cls-29,.cls-3,.cls-4,.cls-5,.cls-6,.cls-7,.cls-8,.cls-9{stroke:#000;}.cls-11,.cls-12,.cls-19,.cls-2,.cls-23,.cls-24,.cls-29,.cls-3,.cls-31,.cls-4,.cls-5,.cls-6,.cls-7,.cls-8,.cls-9{stroke-miterlimit:10;}.cls-2,.cls-3,.cls-5,.cls-6,.cls-7{stroke-width:2px;}.cls-3{fill:#e6e6e6;}.cls-4{font-size:80px;}.cls-31,.cls-4,.cls-8,.cls-9{fill:none;}.cls-19,.cls-24,.cls-31,.cls-4{font-family:OCRAExtended, OCR A Extended;}.cls-5{fill:#e0e6db;}.cls-6{fill:#e6dbe1;}.cls-7{fill:#dbe1e6;}.cls-10,.cls-8{stroke-linecap:round;}.cls-10{stroke-linejoin:round;}.cls-12,.cls-19{fill:#d3e6cf;}.cls-13{font-size:26px;font-family:Constantia;}.cls-14{letter-spacing:0.01em;}.cls-15{letter-spacing:-0.07em;}.cls-16{letter-spacing:-0.01em;}.cls-17{letter-spacing:-0.01em;}.cls-18{letter-spacing:-0.03em;}.cls-19,.cls-24{font-size:50px;}.cls-19{stroke:#284f1d;}.cls-20{letter-spacing:-0.02em;}.cls-21{letter-spacing:-0.02em;}.cls-22{letter-spacing:-0.01em;}.cls-23,.cls-24{fill:#cfd3e6;}.cls-24{stroke:#1d254f;}.cls-25{letter-spacing:-0.03em;}.cls-26{font-size:13px;font-family:Consolas;}.cls-27{letter-spacing:0.02em;}.cls-28{text-decoration:underline;}.cls-29{fill:#e6dbcf;}.cls-30{letter-spacing:-0.01em;}.cls-31{font-size:25px;stroke:#4f361d;}</style></defs><g id="Livello_2" data-name="Livello 2"><g id="Livello_2-2" data-name="Livello 2"><rect class="cls-1" width="1603.36" height="1730" rx="69"/></g><g id="Livello_1-2" data-name="Livello 1"><path class="cls-2" d="M83.26,83.56H1464.21a55.89,55.89,0,0,1,55.89,55.89v1345a161.94,161.94,0,0,1-161.94,161.94h-1219a55.89,55.89,0,0,1-55.89-55.89V83.56A0,0,0,0,1,83.26,83.56Z"/><path class="cls-3" d="M1482.1,781.83v697A130.08,130.08,0,0,1,1352,1608.87H243.92a38,38,0,0,1-38-37.95V193.76H868.14a38,38,0,0,1,38,38v474.2a38,38,0,0,0,37.95,38h500.09A38,38,0,0,1,1482.1,781.83Z"/><text class="cls-4" transform="translate(100.36 152.61)">poco/company/group01pocolib</text><path class="cls-5" d="M318.1,300.87H835.23a20,20,0,0,1,20,20V657.54a100,100,0,0,1-100,100H338.1a20,20,0,0,1-20-20V300.87A0,0,0,0,1,318.1,300.87Z"/><path class="cls-6" d="M318.1,1449.83H835.23a20,20,0,0,1,20,20v16.71a100,100,0,0,1-100,100H338.1a20,20,0,0,1-20-20V1449.83a0,0,0,0,1,0,0Z"/><path class="cls-7" d="M318.1,783.25H1402.77a20,20,0,0,1,20,20v518.29a100,100,0,0,1-100,100H338.1a20,20,0,0,1-20-20V783.25A0,0,0,0,1,318.1,783.25Z"/><line class="cls-8" x1="1162.64" y1="709.33" x2="1162.64" y2="800.28"/><polygon points="1162.64 814.4 1154.51 794.5 1162.64 799.23 1170.77 794.5 1162.64 814.4"/><line class="cls-9" x1="1162.64" y1="475.2" x2="1162.64" y2="368.78"/><polygon class="cls-10" points="1162.64 370.13 1150.81 388.75 1174.46 388.75 1162.64 370.13"/><rect class="cls-11" x="362.2" y="1189.24" width="391.37" height="93.15" rx="46.57"/><circle class="cls-12" cx="408.77" cy="1235.81" r="37.68"/><text class="cls-13" transform="translate(461.21 1244.48)"><tspan class="cls-14">L</tspan><tspan x="14.76" y="0">ending</tspan><tspan class="cls-15" x="92.8" y="0">T</tspan><tspan x="106.97" y="0">ab</tspan><tspan class="cls-16" x="133.94" y="0">C</tspan><tspan x="150.55" y="0">ont</tspan><tspan class="cls-17" x="188.92" y="0">r</tspan><tspan x="198.5" y="0">olle</tspan><tspan class="cls-18" x="239.61" y="0">r</tspan></text><text class="cls-19" transform="translate(391.67 1252.04)">C</text><rect class="cls-11" x="382.48" y="1035.5" width="350.82" height="93.15" rx="46.57"/><circle class="cls-12" cx="429.04" cy="1082.07" r="37.68"/><text class="cls-13" transform="translate(481.49 1090.74)"><tspan class="cls-20">U</tspan><tspan x="18.83" y="0">ser</tspan><tspan class="cls-15" x="51.77" y="0">T</tspan><tspan x="65.94" y="0">ab</tspan><tspan class="cls-16" x="92.9" y="0">C</tspan><tspan x="109.52" y="0">ont</tspan><tspan class="cls-17" x="147.89" y="0">r</tspan><tspan x="157.47" y="0">olle</tspan><tspan class="cls-18" x="198.58" y="0">r</tspan></text><text class="cls-19" transform="translate(411.94 1098.29)">C</text><rect class="cls-11" x="379.59" y="881.75" width="356.59" height="93.15" rx="46.57"/><circle class="cls-12" cx="426.16" cy="928.32" r="37.68"/><text class="cls-13" transform="translate(478.6 936.99)">Book<tspan class="cls-15" x="57.54" y="0">T</tspan><tspan x="71.7" y="0">ab</tspan><tspan class="cls-16" x="98.67" y="0">C</tspan><tspan x="115.29" y="0">ont</tspan><tspan class="cls-17" x="153.65" y="0">r</tspan><tspan x="163.24" y="0">olle</tspan><tspan class="cls-18" x="204.34" y="0">r</tspan></text><text class="cls-19" transform="translate(409.06 944.55)">C</text><rect class="cls-11" x="422.89" y="639.71" width="270" height="93.15" rx="46.57"/><circle class="cls-12" cx="469.45" cy="686.28" r="37.68"/><text class="cls-13" transform="translate(521.9 694.95)"><tspan class="cls-14">L</tspan><tspan x="14.76" y="0">endingSe</tspan><tspan class="cls-21" x="118.51" y="0">t</tspan></text><text class="cls-19" transform="translate(452.35 702.51)">C</text><rect class="cls-11" x="443.78" y="485.97" width="228.22" height="93.15" rx="46.57"/><circle class="cls-12" cx="490.34" cy="532.54" r="37.68"/><text class="cls-13" transform="translate(542.79 541.21)"><tspan class="cls-20">U</tspan><tspan x="18.83" y="0">serSe</tspan><tspan class="cls-21" x="77.48" y="0">t</tspan></text><text class="cls-19" transform="translate(473.24 548.77)">C</text><rect class="cls-11" x="441.26" y="332.22" width="233.26" height="93.15" rx="46.57"/><circle class="cls-12" cx="487.83" cy="378.8" r="37.68"/><text class="cls-13" transform="translate(540.27 387.47)">BookSe<tspan class="cls-21" x="83.24" y="0">t</tspan></text><text class="cls-19" transform="translate(470.73 395.02)">C</text><text class="cls-4" transform="translate(231.56 259.71)">mvc</text><rect class="cls-11" x="1027.15" y="276.98" width="270.98" height="93.15" rx="46.57"/><circle class="cls-12" cx="1073.72" cy="323.55" r="37.68"/><text class="cls-13" transform="translate(1126.16 332.22)"><tspan class="cls-22">A</tspan><tspan x="17.28" y="0">pplicatio</tspan><tspan class="cls-17" x="116.11" y="0">n</tspan></text><text class="cls-19" transform="translate(1056.62 339.78)">C</text><circle class="cls-23" cx="1073.87" cy="323.55" r="37.68"/><text class="cls-24" transform="translate(1058.46 339.78)">A</text><path class="cls-11" d="M1024.32,814.4H1301A46.57,46.57,0,0,1,1347.53,861v499.35a5,5,0,0,1-5,5H982.74a5,5,0,0,1-5-5V861a46.57,46.57,0,0,1,46.57-46.57Z"/><circle class="cls-12" cx="1024.31" cy="860.98" r="37.68"/><text class="cls-13" transform="translate(1076.75 869.65)"><tspan class="cls-25">P</tspan><tspan x="14.36" y="0">o</tspan><tspan class="cls-20" x="28.41" y="0">c</tspan><tspan x="39.9" y="0">oLib</tspan><tspan class="cls-16" x="90.25" y="0">C</tspan><tspan x="106.87" y="0">ont</tspan><tspan class="cls-17" x="145.23" y="0">r</tspan><tspan x="154.82" y="0">olle</tspan><tspan class="cls-18" x="195.93" y="0">r</tspan></text><text class="cls-19" transform="translate(1007.21 877.2)">C</text><text class="cls-26" transform="translate(990.64 926.15)">- bookSet: BookSet<tspan x="0" y="25">- userSet: UserSet</tspan><tspan x="0" y="50">- currentDate: LocalDate</tspan><tspan x="0" y="75">- mainTabPane: TabPane</tspan><tspan x="0" y="100">- bookTab: Tab</tspan><tspan x="0" y="125">- userTab: Tab</tspan><tspan x="0" y="150">- lendingTab: Tab</tspan><tspan x="0" y="175">- bookTabController: BookTabController</tspan><tspan x="0" y="200">- userTabController: UserTabController</tspan><tspan x="0" y="225">- lendingTabController: LendingTabController</tspan><tspan x="0" y="250">- primaryStage: Stage</tspan><tspan x="0" y="275">- selectedTab: Tab</tspan><tspan x="0" y="325">- initialize(): void</tspan><tspan x="0" y="350">+ setPrimaryStage(Stage): void</tspan><tspan x="0" y="375">+ switchToTab(Tab): void</tspan><tspan x="0" y="400">+ loadData(BookSet, UserSet, LendingSet): void</tspan><tspan x="0" y="425">+ refreshTabData(): void</tspan></text><line class="cls-8" x1="1131.97" y1="1221.22" x2="1193.3" y2="1221.22"/><path class="cls-11" d="M1076.86,475.2h171.55A46.57,46.57,0,0,1,1295,521.78V704.33a5,5,0,0,1-5,5h-254.7a5,5,0,0,1-5-5V521.78A46.57,46.57,0,0,1,1076.86,475.2Z"/><circle class="cls-12" cx="1076.86" cy="521.78" r="37.68"/><text class="cls-13" transform="translate(1129.3 530.45)"><tspan class="cls-27">L</tspan><tspan x="14.96" y="0">aunche</tspan><tspan class="cls-18" x="96.89" y="0">r</tspan></text><text class="cls-19" transform="translate(1059.76 538)">C</text><text class="cls-26"><tspan class="cls-28"><tspan x="1043.19" y="595.95">+ restoreBookSet(): BookSet</tspan><tspan x="1043.19" y="620.95">+ restoreUserSet(): UserSet</tspan><tspan x="1043.19" y="645.95">+ restoreLendingSet(): LendingSet</tspan></tspan><tspan x="1043.19" y="670.95">+ start(Stage): void</tspan><tspan class="cls-28"><tspan x="1043.19" y="695.95">+ main(String[]): void</tspan></tspan></text><line class="cls-8" x1="1131.97" y1="568.74" x2="1193.3" y2="568.74"/><path class="cls-9" d="M977.74,1097.54c-232.64,0-158.47-169.22-241.56-169.22"/><path class="cls-9" d="M977.74,1121.54c-97.21,0-138.59-39.47-244.44-39.47"/><path class="cls-9" d="M977.74,1147.32c-100.52,0-111.81,88.49-224.17,88.49"/><path class="cls-9" d="M977.74,1296.65c-111.76,0-174.28,202.71-277.41,220"/><polygon points="686.26 1517.88 705.31 1507.91 701.37 1516.45 706.84 1524.1 686.26 1517.88"/><path class="cls-9" d="M977.74,1022.87c-150.15,0-112.27-612.19-289.15-642.88"/><polygon points="674.52 378.8 695.11 372.63 689.62 380.26 693.54 388.81 674.52 378.8"/><path class="cls-9" d="M977.74,1047.54c-207.07,0-128.64-487.67-291.66-513.9"/><polygon points="672 532.54 692.54 526.19 687.12 533.88 691.1 542.39 672 532.54"/><path class="cls-9" d="M977.74,1072.21c-206.79,0-163.81-356-270.84-384.16"/><polygon points="692.89 686.28 713.74 681.08 707.91 688.45 711.42 697.17 692.89 686.28"/><path class="cls-9" d="M1030.29,592.26c-127.83,0-218.76-198.18-341.68-212.63"/><polygon points="674.52 378.8 694.92 372.04 689.66 379.83 693.82 388.26 674.52 378.8"/><path class="cls-9" d="M1030.29,616.65c-125.17,0-227.36-77.75-344.18-83.74"/><polygon points="672 532.54 692.15 525.05 687.17 533.03 691.63 541.31 672 532.54"/><line class="cls-9" x1="1030.29" y1="641.99" x2="706.89" y2="684.45"/><polygon points="692.89 686.28 711.56 675.63 707.94 684.31 713.68 691.75 692.89 686.28"/><rect class="cls-11" x="429.51" y="1471.3" width="256.75" height="93.15" rx="46.57"/><circle class="cls-29" cx="476.08" cy="1517.87" r="37.68"/><text class="cls-13" transform="translate(528.52 1526.54)"><tspan class="cls-30">M</tspan><tspan x="23.35" y="0">ainVie</tspan><tspan class="cls-20" x="95.58" y="0">w</tspan></text><text class="cls-31" transform="translate(445.88 1525.99)">fxml</text></g></g></svg>