<svg xmlns="http://www.w3.org/2000/svg" viewBox="0 0 1850.67 1569.93"><defs><style>.cls-1,.cls-15,.cls-16{fill:#fff;}.cls-2{fill:#e6e6e6;}.cls-13,.cls-14,.cls-15,.cls-16,.cls-2,.cls-3,.cls-4,.cls-5,.cls-6,.cls-7{stroke:#000;}.cls-10,.cls-13,.cls-14,.cls-2,.cls-3,.cls-4,.cls-5,.cls-6,.cls-7{stroke-miterlimit:10;}.cls-2,.cls-3,.cls-4{stroke-width:2px;}.cls-3{fill:#d9d9d9;}.cls-4{fill:#e0e6db;}.cls-5{font-size:80px;}.cls-13,.cls-14,.cls-5{fill:none;}.cls-10,.cls-5{font-family:OCRAExtended, OCR A Extended;}.cls-6{fill:#f2f2f2;}.cls-10,.cls-7{fill:#d3e6cf;}.cls-8{font-size:26px;font-family:Constantia;}.cls-9{letter-spacing:-0.02em;}.cls-10{font-size:50px;stroke:#284f1d;}.cls-11{font-size:13px;font-family:Consolas;}.cls-12{text-decoration:underline;}.cls-13,.cls-16{stroke-linecap:round;}.cls-15,.cls-16{stroke-linejoin:round;}.cls-17{letter-spacing:-0.01em;}.cls-18{letter-spacing:-0.01em;}.cls-19{letter-spacing:-0.07em;}.cls-20{letter-spacing:-0.02em;}.cls-21{letter-spacing:-0.01em;}</style></defs><g id="Livello_2" data-name="Livello 2"><g id="Livello_2-2" data-name="Livello 2"><rect class="cls-1" width="1850.67" height="1569.93" rx="69"/></g><g id="Livello_1-2" data-name="Livello 1"><path class="cls-2" d="M114.33,926.08H600.74a38,38,0,0,1,38,38v163.35a130.08,130.08,0,0,1-130.08,130.08H152.29a38,38,0,0,1-38-38V926.08A0,0,0,0,1,114.33,926.08Z"/><path class="cls-2" d="M1143.57,44.71h546.81a38,38,0,0,1,38,38V1156.84a130.08,130.08,0,0,1-130.08,130.08H1181.52a38,38,0,0,1-38-38V44.71a0,0,0,0,1,0,0Z"/><path class="cls-3" d="M1169.7,132.59H1675a20,20,0,0,1,20,20V421.75a100,100,0,0,1-100,100H1189.7a20,20,0,0,1-20-20V132.59A0,0,0,0,1,1169.7,132.59Z"/><path class="cls-4" d="M658.9,44.71h444.47a20,20,0,0,1,20,20V1385.22a100,100,0,0,1-100,100H678.9a20,20,0,0,1-20-20V44.71a0,0,0,0,1,0,0Z"/><text class="cls-5" transform="translate(677.43 112.59)">mvc/model</text><path class="cls-6" d="M764.33,229.47h259.93A46.57,46.57,0,0,1,1070.83,276V823.7a5,5,0,0,1-5,5H722.76a5,5,0,0,1-5-5V276A46.57,46.57,0,0,1,764.33,229.47Z"/><circle class="cls-7" cx="764.32" cy="276.04" r="37.68"/><text class="cls-8" transform="translate(816.77 284.71)">BookSe<tspan class="cls-9" x="83.24" y="0">t</tspan></text><text class="cls-10" transform="translate(747.22 292.27)">C</text><text class="cls-11" transform="translate(730.66 341.22)">- bookSet: Set&lt;Book&gt; {G+S}<tspan x="0" y="25">- bookIndex: Index&lt;Book&gt; {G+S}</tspan><tspan x="0" y="50">- bookDB: DB {G+S}</tspan><tspan x="0" y="75">- lastKnownDBHash: String {G}</tspan><tspan x="0" y="100">- DBPath: String {G+S}</tspan><tspan x="0" y="125">- serializationPath: String {G+S}</tspan><tspan x="0" y="175">+ updateLastKnownDBPath(): void</tspan><tspan x="0" y="200">+ getListOfBooks(): List&lt;Book&gt;</tspan><tspan class="cls-12"><tspan x="0" y="225">+ loadFromSerialized(String, String): BookSet</tspan></tspan><tspan x="0" y="250">+ rebuildFromDB(String): void</tspan><tspan x="0" y="275">+ addOrEditBook(Book): void</tspan><tspan x="0" y="300">+ removeBook(String): void</tspan><tspan x="0" y="325">+ getBook(String): Book</tspan><tspan x="0" y="350">+ search(String): List&lt;Book&gt;</tspan><tspan x="0" y="375">+ rawSearch(String): List&lt;Book&gt;</tspan><tspan x="0" y="400">+ calculateScore(Book, String): int</tspan><tspan x="0" y="425">+ syncOnWrite(): void</tspan><tspan x="0" y="450">+ saveToSerialized(): void</tspan><tspan x="0" y="475">+ toString(): String</tspan></text><line class="cls-13" x1="863.63" y1="487.48" x2="924.96" y2="487.48"/><path class="cls-6" d="M1251.48,587.51h333.41a46.57,46.57,0,0,1,46.57,46.57v547.66a5,5,0,0,1-5,5H1209.9a5,5,0,0,1-5-5V634.08A46.57,46.57,0,0,1,1251.48,587.51Z"/><circle class="cls-7" cx="1251.47" cy="634.08" r="37.68"/><text class="cls-8" transform="translate(1303.92 642.75)">DB</text><text class="cls-10" transform="translate(1234.37 650.3)">C</text><text class="cls-11" transform="translate(1217.81 699.26)">- DBPath: String {G+S}<tspan x="0" y="25">- cache: List&lt;String&gt;</tspan><tspan x="0" y="50">- DBFileHash: String {G}</tspan><tspan x="0" y="100">+ getDBPathAsPath</tspan><tspan x="0" y="125">+ updateDBFileHash(): void</tspan><tspan x="0" y="150">+ updateAndGetDBFileHash(): String</tspan><tspan x="0" y="175">+ buildCache(): boolean</tspan><tspan x="0" y="200">+ updateDBFromCache(): boolean</tspan><tspan x="0" y="225">+ readNthLine(int): String</tspan><tspan x="0" y="250">+ writeNthLine(int, String, boolean): boolean</tspan><tspan x="0" y="275">+ writeNthLineWShift(int, String): boolean</tspan><tspan x="0" y="300">+ writeNthLineReplace(int, String): boolean</tspan><tspan x="0" y="325">+ removeNthLine(int): String</tspan><tspan x="0" y="350">+ findFirstInstanceOfPattern(Pattern): int</tspan><tspan x="0" y="375">+ readFirstLineContainingPattern(Pattern): String</tspan><tspan x="0" y="400">+ substituteFirstLineContainingPattern(Pattern): boolean</tspan><tspan x="0" y="425">+ deleteFirstLineContainingPattern(Pattern): String</tspan><tspan x="0" y="450">+ appendLine(String): boolean</tspan><tspan x="0" y="475">+ toString(): String </tspan></text><line class="cls-13" x1="1387.52" y1="772.07" x2="1448.85" y2="772.07"/><path class="cls-6" d="M1305.54,229.47h225.28A46.57,46.57,0,0,1,1577.4,276V453.15a5,5,0,0,1-5,5H1264a5,5,0,0,1-5-5V276a46.57,46.57,0,0,1,46.57-46.57Z"/><circle class="cls-7" cx="1305.54" cy="276.04" r="37.68"/><text class="cls-8" transform="translate(1357.98 284.71)">Index&lt;T&gt;</text><text class="cls-10" transform="translate(1288.44 292.27)">C</text><text class="cls-11" transform="translate(1271.87 341.22)">- triMappings: Map&lt;String, List&lt;T&gt;&gt; {G} <tspan x="0" y="50">+ generateTrigrams(String): List&lt;String&gt; </tspan><tspan x="0" y="75">+ add(String, T): void</tspan><tspan x="0" y="100">+ remove(T): void</tspan></text><line class="cls-13" x1="1387.52" y1="362.48" x2="1448.85" y2="362.48"/><line class="cls-14" x1="894.29" y1="828.7" x2="894.29" y2="933.78"/><path class="cls-14" d="M1070.83,388.92c100.17,0,34.28,445.7,120.3,487.33"/><polygon points="1204.9 879.36 1183.61 882.3 1190.2 875.6 1187.64 866.55 1204.9 879.36"/><line class="cls-14" x1="1070.83" y1="364.59" x2="1244.85" y2="364.59"/><polygon points="1258.97 364.59 1239.07 372.72 1243.79 364.59 1239.07 356.46 1258.97 364.59"/><line class="cls-14" x1="618.68" y1="1091.77" x2="771.7" y2="1091.77"/><polygon points="604.56 1091.77 624.46 1099.9 619.74 1091.77 624.46 1083.64 604.56 1091.77"/><polyline class="cls-15" points="894.29 828.7 882.15 847.82 894.29 866.94"/><polyline class="cls-16" points="894.29 866.94 906.43 847.82 894.29 828.7"/><rect class="cls-6" x="144.12" y="1045.2" width="460.44" height="93.15" rx="46.57"/><circle class="cls-7" cx="190.69" cy="1091.77" r="37.68"/><text class="cls-8" transform="translate(243.13 1100.44)">Book<tspan class="cls-17" x="57.54" y="0">D</tspan><tspan x="76.74" y="0">ata</tspan><tspan class="cls-18" x="110.88" y="0">N</tspan><tspan x="129.97" y="0">ot</tspan><tspan class="cls-19" x="153.21" y="0">V</tspan><tspan x="168.87" y="0">alidE</tspan><tspan class="cls-9" x="225.86" y="0">x</tspan><tspan class="cls-20" x="237.72" y="0">c</tspan><tspan x="249.21" y="0">eptio</tspan><tspan class="cls-18" x="306.81" y="0">n</tspan></text><text class="cls-10" transform="translate(173.59 1107.99)">C</text><text class="cls-5" transform="translate(1180.23 202.15)">omnisearch</text><text class="cls-5" transform="translate(1155.9 112.59)">db</text><text class="cls-5" transform="translate(123.21 994.04)">exceptions</text><path class="cls-6" d="M818.27,933.78h152a46.57,46.57,0,0,1,46.57,46.57v423.59a5,5,0,0,1-5,5H776.7a5,5,0,0,1-5-5V980.35a46.57,46.57,0,0,1,46.57-46.57Z"/><circle class="cls-7" cx="818.27" cy="980.35" r="37.68"/><text class="cls-8" transform="translate(870.71 989.02)">Boo<tspan class="cls-21" x="43.63" y="0">k</tspan></text><text class="cls-10" transform="translate(801.17 996.58)">C</text><text class="cls-11" transform="translate(784.25 1045.2)">- title: String {G+S}<tspan x="0" y="25">- authors: List&lt;String&gt; {G+S}</tspan><tspan x="0" y="50">- isbn: String {G+S}</tspan><tspan x="0" y="75">- year: int {G+S}</tspan><tspan x="0" y="100">- copies: int {G+S}</tspan><tspan x="0" y="125">- copiesLent: int</tspan><tspan x="0" y="150">- timesLent: int</tspan><tspan class="cls-12"><tspan x="0" y="200">+ isValidIsbn(String): boolean</tspan></tspan><tspan x="0" y="225">+ addCopy(): void</tspan><tspan x="0" y="250">+ removeCopy(): void</tspan><tspan x="0" y="275">+ hashCode(): int</tspan><tspan class="cls-12"><tspan x="0" y="300">+ fromString(String): Book</tspan></tspan><tspan x="0" y="325">+ toSearchableString(): String</tspan><tspan x="0" y="350">+ toString(): String </tspan></text><line class="cls-13" x1="863.63" y1="1215.83" x2="924.96" y2="1215.83"/><text class="cls-11" transform="translate(910.04 843.49)">1</text><text class="cls-11" transform="translate(882.16 927.78)">*</text></g></g></svg>