<svg xmlns="http://www.w3.org/2000/svg" viewBox="0 0 1541.76 2140.66"><defs><style>.cls-1,.cls-17,.cls-18{fill:#fff;}.cls-2,.cls-26{fill:#e6e6e6;}.cls-12,.cls-15,.cls-16,.cls-17,.cls-18,.cls-2,.cls-23,.cls-24,.cls-26,.cls-3,.cls-4,.cls-5,.cls-6,.cls-7{stroke:#000;}.cls-11,.cls-12,.cls-13,.cls-15,.cls-16,.cls-2,.cls-23,.cls-24,.cls-26,.cls-3,.cls-4,.cls-5,.cls-6,.cls-7{stroke-miterlimit:10;}.cls-2,.cls-24,.cls-3,.cls-4,.cls-5{stroke-width:2px;}.cls-3{fill:#dbe1e6;}.cls-4{fill:#e6dbe1;}.cls-5{fill:#e0e6db;}.cls-6{fill:#f2f2f2;}.cls-11,.cls-7{fill:#d3e6cf;}.cls-8{font-size:26px;font-family:Constantia;}.cls-9{letter-spacing:-0.02em;}.cls-10{letter-spacing:-0.07em;}.cls-11{font-size:50px;stroke:#284f1d;}.cls-11,.cls-13,.cls-23{font-family:OCRAExtended, OCR A Extended;}.cls-12{fill:#e6dbcf;}.cls-13{font-size:25px;stroke:#4f361d;}.cls-13,.cls-15,.cls-16,.cls-23{fill:none;}.cls-14{letter-spacing:-0.03em;}.cls-15,.cls-18{stroke-linecap:round;}.cls-17,.cls-18{stroke-linejoin:round;}.cls-19{letter-spacing:-0.02em;}.cls-20{font-size:13px;font-family:Consolas;}.cls-21{letter-spacing:-0.01em;}.cls-22{letter-spacing:-0.01em;}.cls-23{font-size:80px;}.cls-24{fill:#d9d9d9;}.cls-25{letter-spacing:-0.03em;}</style></defs><g id="Livello_2" data-name="Livello 2"><g id="Livello_2-2" data-name="Livello 2"><rect class="cls-1" width="1541.76" height="2140.66" rx="69"/></g><g id="Livello_1-2" data-name="Livello 1"><path class="cls-2" d="M1436.24,121V1927c0,72.28-58.24,130.88-130.08,130.88H758.45a38.07,38.07,0,0,1-38-38.19V987a38.06,38.06,0,0,0-38-38.18H143.48a38.07,38.07,0,0,1-37.95-38.19V82.77H1398.29A38.07,38.07,0,0,1,1436.24,121Z"/><path class="cls-3" d="M1402.46,136.57V815.82a100,100,0,0,1-100,100H165.12a20,20,0,0,1-20-20V216.94H337.57a20,20,0,0,0,20-20V116.57H1382.46A20,20,0,0,1,1402.46,136.57Z"/><path class="cls-4" d="M760.23,937h622.23a20,20,0,0,1,20,20v52.82a100,100,0,0,1-100,100H780.23a20,20,0,0,1-20-20V937a0,0,0,0,1,0,0Z"/><path class="cls-5" d="M760.23,1132.51h622.23a20,20,0,0,1,20,20V1923a100,100,0,0,1-100,100H780.23a20,20,0,0,1-20-20V1132.51A0,0,0,0,1,760.23,1132.51Z"/><rect class="cls-6" x="1045.02" y="986.83" width="288.8" height="93.15" rx="46.57"/><circle class="cls-7" cx="1091.59" cy="1033.4" r="37.68"/><text class="cls-8" transform="translate(1144.03 1042.07)"><tspan class="cls-9">U</tspan><tspan x="18.83" y="0">ser</tspan><tspan class="cls-10" x="51.77" y="0">T</tspan><tspan x="65.94" y="0">abVie</tspan><tspan class="cls-9" x="130.17" y="0">w</tspan></text><text class="cls-11" transform="translate(1074.49 1049.63)">C</text><circle class="cls-12" cx="1091.59" cy="1033.4" r="37.68"/><text class="cls-13" transform="translate(1061.39 1041.51)">fxml</text><rect class="cls-6" x="987.56" y="1889.36" width="193" height="93.15" rx="46.57"/><circle class="cls-7" cx="1034.13" cy="1935.93" r="37.68"/><text class="cls-8" transform="translate(1086.57 1944.6)"><tspan class="cls-9">U</tspan><tspan x="18.83" y="0">se</tspan><tspan class="cls-14" x="41.81" y="0">r</tspan></text><text class="cls-11" transform="translate(1017.03 1952.16)">C</text><line class="cls-15" x1="983.12" y1="881.75" x2="983.12" y2="1170.93"/><polygon points="983.12 1185.05 974.99 1165.15 983.12 1169.87 991.25 1165.15 983.12 1185.05"/><line class="cls-15" x1="1191.23" y1="881.75" x2="1191.23" y2="972.71"/><polygon points="1191.23 986.83 1183.1 966.93 1191.23 971.65 1199.36 966.93 1191.23 986.83"/><line class="cls-16" x1="1084.06" y1="1784.28" x2="1084.06" y2="1889.36"/><polyline class="cls-17" points="1084.06 1784.28 1071.92 1803.4 1084.06 1822.52"/><polyline class="cls-18" points="1084.06 1822.52 1096.2 1803.4 1084.06 1784.28"/><path class="cls-6" d="M954.1,1185.05H1214a46.57,46.57,0,0,1,46.57,46.57v547.66a5,5,0,0,1-5,5H912.52a5,5,0,0,1-5-5V1231.62a46.57,46.57,0,0,1,46.57-46.57Z"/><circle class="cls-7" cx="954.09" cy="1231.62" r="37.68"/><text class="cls-8" transform="translate(1006.54 1240.29)"><tspan class="cls-9">U</tspan><tspan x="18.83" y="0">serSe</tspan><tspan class="cls-19" x="77.48" y="0">t</tspan></text><text class="cls-11" transform="translate(936.99 1247.85)">C</text><text class="cls-20" transform="translate(920.43 1296.8)">- userSet: Set&lt;User&gt; {G+S}<tspan x="0" y="25">- userIndex: Index&lt;User&gt; {G+S}</tspan><tspan x="0" y="50">- userDB: DB {G+S}</tspan><tspan x="0" y="75">- lastKnownDBHash: String {G}</tspan><tspan x="0" y="100">- DBPath: String {G+S}</tspan><tspan x="0" y="125">- serializationPath: String {G+S}</tspan><tspan x="0" y="175">+ updateLastKnownDBHash(): void</tspan><tspan x="0" y="200">+ getListOfUsers(): List&lt;User&gt;</tspan><tspan x="0" y="225">+ loadFromSerialized(String, String): UserSet</tspan><tspan x="0" y="250">+ rebuildFromDB(String): void</tspan><tspan x="0" y="275">+ addOrEditUser(User): void</tspan><tspan x="0" y="300">+ removeUser(String): void</tspan><tspan x="0" y="325">+ getUser(String): User</tspan><tspan x="0" y="350">+ search(String): List&lt;User&gt;</tspan><tspan x="0" y="375">+ rawSearch(String): List&lt;User&gt;</tspan><tspan x="0" y="400">+ calculateScore(User, String): int</tspan><tspan x="0" y="425">+ syncOnWrite(): void</tspan><tspan x="0" y="450">+ saveToSerialized(): void</tspan><tspan x="0" y="475">+ toString(): String</tspan></text><line class="cls-15" x1="1053.39" y1="1443.06" x2="1114.73" y2="1443.06"/><path class="cls-6" d="M937.58,132.69h293a46.57,46.57,0,0,1,46.57,46.57V877.35a5,5,0,0,1-5,5H896a5,5,0,0,1-5-5V179.26a46.57,46.57,0,0,1,46.57-46.57Z"/><circle class="cls-7" cx="936.45" cy="179.26" r="37.68"/><text class="cls-8" transform="translate(988.89 187.93)"><tspan class="cls-9">U</tspan><tspan x="18.83" y="0">ser</tspan><tspan class="cls-10" x="51.77" y="0">T</tspan><tspan x="65.94" y="0">ab</tspan><tspan class="cls-21" x="92.9" y="0">C</tspan><tspan x="109.52" y="0">ont</tspan><tspan class="cls-22" x="147.89" y="0">r</tspan><tspan x="157.47" y="0">olle</tspan><tspan class="cls-14" x="198.58" y="0">r</tspan></text><text class="cls-11" transform="translate(919.35 195.48)">C</text><text class="cls-20" transform="translate(902.78 244.44)">- userSet: UserSet<tspan x="0" y="25">- userTab: Tab</tspan><tspan x="0" y="50">- userSearchField: TextField</tspan><tspan x="0" y="75">- userTable: TableView&lt;User&gt;</tspan><tspan x="0" y="100">- userIdColumn: TableColumn&lt;User, String&gt;</tspan><tspan x="0" y="125">- userNameColumn: TableColumn&lt;User, String&gt;</tspan><tspan x="0" y="150">- userEmailColumn: TableColumn&lt;User, String&gt;</tspan><tspan x="0" y="175">- userLentColumn: TableColumn&lt;User, Integer&gt;</tspan><tspan x="0" y="200">- userAddButton: Button</tspan><tspan x="0" y="225">- userViewEditButton: Button</tspan><tspan x="0" y="250">- userData: ObservableArrayList&lt;User&gt;</tspan><tspan x="0" y="275">- selectedUser: User {G}</tspan><tspan x="0" y="300">- selectedBook: Book {S}</tspan><tspan x="0" y="325">- primaryStage: Stage</tspan><tspan x="0" y="350">- mainController: PocoLibController</tspan><tspan x="0" y="400">+ initialize(): void</tspan><tspan x="0" y="425">+ setDependancies(Stage, PocoLibController): void</tspan><tspan x="0" y="450">+ setDataSets(UserSet): void</tspan><tspan x="0" y="475">+ loadData(): void</tspan><tspan x="0" y="500">+ refreshData(): void</tspan><tspan x="0" y="525">+ initializeUserColumns(): void</tspan><tspan x="0" y="550">+ userTableHandler(): void</tspan><tspan x="0" y="575">+ handleUserAdd(): void</tspan><tspan x="0" y="600">+ handleUserViewEdit(): void</tspan><tspan x="0" y="625">+ handleUserLend(): void</tspan></text><line class="cls-15" x1="1053.39" y1="615.46" x2="1114.73" y2="615.46"/><path class="cls-2" d="M105.53,1107H591.94a38,38,0,0,1,38,38V1927.8a130.08,130.08,0,0,1-130.08,130.08H143.49a38,38,0,0,1-38-38V1107A0,0,0,0,1,105.53,1107Z"/><text class="cls-23" transform="translate(117.87 1174.89)">db</text><path class="cls-24" d="M145.12,1194.89h423a20,20,0,0,1,20,20v510.25a100,100,0,0,1-100,100h-323a20,20,0,0,1-20-20V1194.89A0,0,0,0,1,145.12,1194.89Z"/><text class="cls-23" transform="translate(160.43 1264.45)">omni-<tspan x="0" y="96">search</tspan></text><rect class="cls-6" x="238.91" y="1635.35" width="251.69" height="93.15" rx="46.57"/><circle class="cls-7" cx="285.48" cy="1681.92" r="37.68"/><text class="cls-8" transform="translate(337.92 1690.59)">Index&lt;T&gt;</text><text class="cls-11" transform="translate(268.38 1698.15)">C</text><rect class="cls-6" x="238.91" y="1456.7" width="251.69" height="93.15" rx="46.57"/><circle class="cls-7" cx="285.48" cy="1503.27" r="37.68"/><text class="cls-8" transform="translate(337.92 1511.94)">Sea<tspan class="cls-22" x="38.19" y="0">r</tspan><tspan x="47.77" y="0">c</tspan><tspan class="cls-22" x="59.77" y="0">h</tspan></text><text class="cls-11" transform="translate(268.38 1519.49)">C</text><rect class="cls-6" x="276.87" y="1891.46" width="175.78" height="93.15" rx="46.57"/><circle class="cls-7" cx="323.44" cy="1938.03" r="37.68"/><text class="cls-8" transform="translate(375.88 1946.7)">DB</text><text class="cls-11" transform="translate(306.34 1954.26)">C</text><path class="cls-16" d="M891,290.33c-183.87,0-150.1,1167.21-386.34,1211.64"/><polygon points="490.6 1503.27 509.53 1493.08 505.69 1501.66 511.25 1509.24 490.6 1503.27"/><path class="cls-16" d="M907.58,1317.77c-101.76,0-296.48,333.15-403,362.14"/><polygon points="490.6 1681.92 508.97 1670.76 505.59 1679.53 511.53 1686.81 490.6 1681.92"/><path class="cls-16" d="M907.58,1342.43c-101.88,0-331.78,548.13-441.16,594.52"/><polygon points="452.64 1940.08 469.99 1927.39 467.37 1936.42 473.92 1943.17 452.64 1940.08"/><rect class="cls-6" x="201.78" y="543.75" width="348.21" height="93.15" rx="46.57"/><circle class="cls-7" cx="248.34" cy="590.33" r="37.68"/><text class="cls-8" transform="translate(300.79 599)"><tspan class="cls-25">P</tspan><tspan x="14.36" y="0">o</tspan><tspan class="cls-9" x="28.41" y="0">c</tspan><tspan x="39.9" y="0">oLib</tspan><tspan class="cls-21" x="90.25" y="0">C</tspan><tspan x="106.87" y="0">ont</tspan><tspan class="cls-22" x="145.23" y="0">r</tspan><tspan x="154.82" y="0">olle</tspan><tspan class="cls-14" x="195.93" y="0">r</tspan></text><text class="cls-11" transform="translate(231.24 606.55)">C</text><line class="cls-16" x1="891" y1="590.33" x2="549.98" y2="590.33"/><rect class="cls-26" x="194.8" y="744.95" width="362.16" height="93.15" rx="46.57"/><circle class="cls-7" cx="241.37" cy="791.52" r="37.68"/><text class="cls-8" transform="translate(293.81 800.19)"><tspan class="cls-9">U</tspan><tspan x="18.83" y="0">serP</tspan><tspan class="cls-22" x="66.89" y="0">r</tspan><tspan x="76.48" y="0">op</tspan><tspan class="cls-21" x="105.08" y="0">C</tspan><tspan x="121.7" y="0">ont</tspan><tspan class="cls-22" x="160.06" y="0">r</tspan><tspan x="169.65" y="0">olle</tspan><tspan class="cls-14" x="210.75" y="0">r</tspan></text><text class="cls-11" transform="translate(224.27 807.75)">C</text><line class="cls-16" x1="891" y1="791.52" x2="571.08" y2="791.52"/><polygon points="556.96 791.52 576.86 783.39 572.13 791.52 576.86 799.65 556.96 791.52"/><text class="cls-23" transform="translate(125.35 151.88)">mvc</text></g></g></svg>