<svg xmlns="http://www.w3.org/2000/svg" viewBox="0 0 1541.76 1725.33"><defs><style>.cls-1,.cls-14,.cls-15{fill:#fff;}.cls-2{fill:#e6e6e6;}.cls-12,.cls-13,.cls-14,.cls-15,.cls-2,.cls-20,.cls-3,.cls-4,.cls-5,.cls-6{stroke:#000;}.cls-12,.cls-13,.cls-2,.cls-20,.cls-3,.cls-4,.cls-5,.cls-6,.cls-9{stroke-miterlimit:10;}.cls-2,.cls-20,.cls-4{stroke-width:2px;}.cls-3{font-size:80px;}.cls-12,.cls-13,.cls-3{fill:none;}.cls-3,.cls-9{font-family:OCRAExtended, OCR A Extended;}.cls-4{fill:#e0e6db;}.cls-5{fill:#f2f2f2;}.cls-6,.cls-9{fill:#d3e6cf;}.cls-7{font-size:26px;font-family:Constantia;}.cls-8{letter-spacing:-0.02em;}.cls-9{font-size:50px;stroke:#284f1d;}.cls-10{font-size:13px;font-family:Consolas;}.cls-11{text-decoration:underline;}.cls-12,.cls-15{stroke-linecap:round;}.cls-14,.cls-15{stroke-linejoin:round;}.cls-16{letter-spacing:-0.01em;}.cls-17{letter-spacing:-0.01em;}.cls-18{letter-spacing:-0.07em;}.cls-19{letter-spacing:-0.02em;}.cls-20{fill:#d9d9d9;}.cls-21{letter-spacing:-0.01em;}</style></defs><g id="Livello_2" data-name="Livello 2"><g id="Livello_2-2" data-name="Livello 2"><rect class="cls-1" width="1541.76" height="1725.33" rx="69"/></g><g id="Livello_1-2" data-name="Livello 1"><path class="cls-2" d="M228.87,142.41H715.27a38,38,0,0,1,38,38V713.53A130.08,130.08,0,0,1,623.14,843.62H266.82a38,38,0,0,1-38-38V142.41A0,0,0,0,1,228.87,142.41Z"/><text class="cls-3" transform="translate(241.2 210.29)">db</text><path class="cls-2" d="M228.87,1023.78H715.27a38,38,0,0,1,38,38v163.35a130.08,130.08,0,0,1-130.08,130.08H266.82a38,38,0,0,1-38-38V1023.78A0,0,0,0,1,228.87,1023.78Z"/><path class="cls-4" d="M848.43,142.41H1292.9a20,20,0,0,1,20,20V1482.92a100,100,0,0,1-100,100H868.43a20,20,0,0,1-20-20V142.41a0,0,0,0,1,0,0Z"/><text class="cls-3" transform="translate(866.96 210.29)">mvc/model</text><path class="cls-5" d="M953.86,327.17h259.93a46.57,46.57,0,0,1,46.57,46.57V921.41a5,5,0,0,1-5,5H912.29a5,5,0,0,1-5-5V373.75a46.57,46.57,0,0,1,46.57-46.57Z"/><circle class="cls-6" cx="953.86" cy="373.75" r="37.68"/><text class="cls-7" transform="translate(1006.3 382.41)">BookSe<tspan class="cls-8" x="83.24" y="0">t</tspan></text><text class="cls-9" transform="translate(936.75 389.97)">C</text><text class="cls-10" transform="translate(920.19 438.92)">- bookSet: Set&lt;Book&gt; {G+S}<tspan x="0" y="25">- bookIndex: Index&lt;Book&gt; {G+S}</tspan><tspan x="0" y="50">- bookDB: DB {G+S}</tspan><tspan x="0" y="75">- lastKnownDBHash: String {G}</tspan><tspan x="0" y="100">- DBPath: String {G+S}</tspan><tspan x="0" y="125">- serializationPath: String {G+S}</tspan><tspan x="0" y="175">+ updateLastKnownDBHash(): void</tspan><tspan x="0" y="200">+ getListOfBooks(): List&lt;Book&gt;</tspan><tspan class="cls-11"><tspan x="0" y="225">+ loadFromSerialized(String, String): BookSet</tspan></tspan><tspan x="0" y="250">+ rebuildFromDB(String): void</tspan><tspan x="0" y="275">+ addOrEditBook(Book): void</tspan><tspan x="0" y="300">+ removeBook(String): void</tspan><tspan x="0" y="325">+ getBook(String): Book</tspan><tspan x="0" y="350">+ search(String): List&lt;Book&gt;</tspan><tspan x="0" y="375">+ rawSearch(String): List&lt;Book&gt;</tspan><tspan x="0" y="400">+ calculateScore(Book, String): int</tspan><tspan x="0" y="425">+ syncOnWrite(): void</tspan><tspan x="0" y="450">+ saveToSerialized(): void</tspan><tspan x="0" y="475">+ toString(): String</tspan></text><line class="cls-12" x1="1053.16" y1="585.19" x2="1114.49" y2="585.19"/><line class="cls-13" x1="1083.82" y1="926.41" x2="1083.82" y2="1031.48"/><line class="cls-13" x1="733.21" y1="1189.47" x2="961.23" y2="1189.47"/><polygon points="719.09 1189.47 738.99 1197.6 734.27 1189.47 738.99 1181.34 719.09 1189.47"/><polyline class="cls-14" points="1083.83 926.41 1071.69 945.53 1083.83 964.65"/><polyline class="cls-15" points="1083.83 964.65 1095.96 945.53 1083.83 926.41"/><rect class="cls-5" x="258.66" y="1142.9" width="460.44" height="93.15" rx="46.57"/><circle class="cls-6" cx="305.22" cy="1189.47" r="37.68"/><text class="cls-7" transform="translate(357.67 1198.14)">Book<tspan class="cls-16" x="57.54" y="0">D</tspan><tspan x="76.74" y="0">ata</tspan><tspan class="cls-17" x="110.88" y="0">N</tspan><tspan x="129.97" y="0">ot</tspan><tspan class="cls-18" x="153.21" y="0">V</tspan><tspan x="168.87" y="0">alidE</tspan><tspan class="cls-8" x="225.86" y="0">x</tspan><tspan class="cls-19" x="237.72" y="0">c</tspan><tspan x="249.21" y="0">eptio</tspan><tspan class="cls-17" x="306.81" y="0">n</tspan></text><text class="cls-9" transform="translate(288.12 1205.7)">C</text><path class="cls-20" d="M268.46,230.29h423a20,20,0,0,1,20,20V519.46a100,100,0,0,1-100,100h-323a20,20,0,0,1-20-20V230.29A0,0,0,0,1,268.46,230.29Z"/><text class="cls-3" transform="translate(283.76 299.85)">omni-<tspan x="0" y="96">search</tspan></text><text class="cls-3" transform="translate(237.74 1091.74)">exceptions</text><path class="cls-5" d="M1007.81,1031.48h152a46.57,46.57,0,0,1,46.57,46.57v423.59a5,5,0,0,1-5,5H966.23a5,5,0,0,1-5-5V1078.05a46.57,46.57,0,0,1,46.57-46.57Z"/><circle class="cls-6" cx="1007.8" cy="1078.05" r="37.68"/><text class="cls-7" transform="translate(1060.24 1086.72)">Boo<tspan class="cls-21" x="43.63" y="0">k</tspan></text><text class="cls-9" transform="translate(990.7 1094.28)">C</text><text class="cls-10" transform="translate(973.79 1142.9)">- title: String {G+S}<tspan x="0" y="25">- authors: List&lt;String&gt; {G+S}</tspan><tspan x="0" y="50">- isbn: String {G+S}</tspan><tspan x="0" y="75">- year: int {G+S}</tspan><tspan x="0" y="100">- copies: int {G+S}</tspan><tspan x="0" y="125">- copiesLent: int</tspan><tspan x="0" y="150">- timesLent: int</tspan><tspan class="cls-11"><tspan x="0" y="200">+ isValidIsbn(String): boolean</tspan></tspan><tspan x="0" y="225">+ addCopy(): void</tspan><tspan x="0" y="250">+ removeCopy(): void</tspan><tspan x="0" y="275">+ hashCode(): int</tspan><tspan class="cls-11"><tspan x="0" y="300">+ fromString(String): Book</tspan></tspan><tspan x="0" y="325">+ toSearchableString(): String</tspan><tspan x="0" y="350">+ toString(): String </tspan></text><line class="cls-12" x1="1053.16" y1="1313.53" x2="1114.49" y2="1313.53"/><text class="cls-10" transform="translate(1099.58 941.19)">1</text><text class="cls-10" transform="translate(1071.69 1025.48)">*</text><rect class="cls-5" x="362.25" y="466.41" width="251.69" height="93.15" rx="46.57"/><circle class="cls-6" cx="408.81" cy="512.98" r="37.68"/><text class="cls-7" transform="translate(461.26 521.65)">Index&lt;T&gt;</text><text class="cls-9" transform="translate(391.71 529.21)">C</text><rect class="cls-5" x="400.2" y="656.2" width="175.78" height="93.15" rx="46.57"/><circle class="cls-6" cx="446.77" cy="702.77" r="37.68"/><text class="cls-7" transform="translate(499.21 711.44)">DB</text><text class="cls-9" transform="translate(429.67 718.99)">C</text><path class="cls-13" d="M907.29,460.74c-101.47,0-182.91,47.52-279.23,51.92"/><polygon points="613.94 512.98 633.6 504.3 629.11 512.56 634.05 520.56 613.94 512.98"/><path class="cls-13" d="M907.29,485.41c-101.57,0-217.67,198.11-317.25,216.06"/><polygon points="575.98 702.77 594.93 692.62 591.07 701.2 596.61 708.79 575.98 702.77"/></g></g></svg>