<svg xmlns="http://www.w3.org/2000/svg" viewBox="0 0 2882 1730"><defs><style>.cls-1,.cls-25,.cls-26{fill:#fff;}.cls-2,.cls-9{fill:#e6e6e6;}.cls-10,.cls-2,.cls-22,.cls-25,.cls-26,.cls-27,.cls-3,.cls-4,.cls-5,.cls-6,.cls-7,.cls-8,.cls-9{stroke:#000;}.cls-10,.cls-14,.cls-2,.cls-22,.cls-23,.cls-27,.cls-3,.cls-4,.cls-5,.cls-6,.cls-7,.cls-8,.cls-9{stroke-miterlimit:10;}.cls-2,.cls-4,.cls-6,.cls-7{stroke-width:2px;}.cls-3{font-size:78.87px;}.cls-23,.cls-27,.cls-3,.cls-5,.cls-8{fill:none;}.cls-14,.cls-23,.cls-3,.cls-8{font-family:OCRAExtended, OCR A Extended;}.cls-4{fill:#dbe1e6;}.cls-6{fill:#e6dbe1;}.cls-7{fill:#e0e6db;}.cls-8{font-size:80px;}.cls-10,.cls-14{fill:#d3e6cf;}.cls-11{font-size:26px;font-family:Constantia;}.cls-12{letter-spacing:0.02em;}.cls-13{letter-spacing:-0.03em;}.cls-14{font-size:50px;stroke:#284f1d;}.cls-15{letter-spacing:-0.03em;}.cls-16{letter-spacing:-0.02em;}.cls-17{letter-spacing:-0.01em;}.cls-18{letter-spacing:-0.01em;}.cls-19{letter-spacing:0.01em;}.cls-20{letter-spacing:-0.07em;}.cls-21{letter-spacing:-0.02em;}.cls-22{fill:#e6dbcf;}.cls-23{font-size:25px;stroke:#4f361d;}.cls-24{letter-spacing:-0.01em;}.cls-25,.cls-26{stroke-linejoin:round;}.cls-26,.cls-27{stroke-linecap:round;}.cls-28{font-size:13px;font-family:Consolas;}</style></defs><g id="Livello_2" data-name="Livello 2"><g id="Livello_2-2" data-name="Livello 2"><rect class="cls-1" width="2882" height="1730" rx="69"/></g><g id="Livello_1-2" data-name="Livello 1"><path class="cls-2" d="M149,205.81H2713a20,20,0,0,1,20,20V1548.28a100,100,0,0,1-100,100H169a20,20,0,0,1-20-20V205.81A0,0,0,0,1,149,205.81Z"/><text class="cls-3" transform="translate(172.47 281.14) scale(1.01 1)">mvc</text><path class="cls-4" d="M374.81,227.4H2565.94a20,20,0,0,1,20,20V1521.07a100,100,0,0,1-100,100H394.81a20,20,0,0,1-20-20V227.4A0,0,0,0,1,374.81,227.4Z"/><line class="cls-5" x1="802.02" y1="571.31" x2="802.02" y2="1469.03"/><line class="cls-5" x1="1509.32" y1="571.31" x2="1509.32" y2="1469.03"/><line class="cls-5" x1="2213.73" y1="571.31" x2="2213.73" y2="1469.03"/><path class="cls-6" d="M346.17,632.85h2248a20,20,0,0,1,20,20v663.89a100,100,0,0,1-100,100h-2148a20,20,0,0,1-20-20V632.85A0,0,0,0,1,346.17,632.85Z"/><path class="cls-7" d="M315.48,822.07H2621.25a20,20,0,0,1,20,20v275a100,100,0,0,1-100,100H335.48a20,20,0,0,1-20-20v-375A0,0,0,0,1,315.48,822.07Z"/><text class="cls-8" transform="translate(333.99 891.78)">model</text><text class="cls-8" transform="translate(361.32 702.96)">view</text><text class="cls-8" transform="translate(391.01 296.05)">controller</text><rect class="cls-9" x="1384.83" y="81.72" width="248.97" height="93.15" rx="46.57"/><circle class="cls-10" cx="1431.4" cy="128.29" r="37.68"/><text class="cls-11" transform="translate(1483.85 136.96)"><tspan class="cls-12">L</tspan><tspan x="14.96" y="0">aunche</tspan><tspan class="cls-13" x="96.89" y="0">r</tspan></text><text class="cls-14" transform="translate(1414.3 144.52)">C</text><rect class="cls-9" x="1335.22" y="279.94" width="348.21" height="93.15" rx="46.57"/><circle class="cls-10" cx="1381.78" cy="326.51" r="37.68"/><text class="cls-11" transform="translate(1434.23 335.18)"><tspan class="cls-15">P</tspan><tspan x="14.36" y="0">o</tspan><tspan class="cls-16" x="28.41" y="0">c</tspan><tspan x="39.9" y="0">oLib</tspan><tspan class="cls-17" x="90.25" y="0">C</tspan><tspan x="106.87" y="0">ont</tspan><tspan class="cls-18" x="145.23" y="0">r</tspan><tspan x="154.82" y="0">olle</tspan><tspan class="cls-13" x="195.93" y="0">r</tspan></text><text class="cls-14" transform="translate(1364.68 342.74)">C</text><rect class="cls-9" x="1313.63" y="478.16" width="391.37" height="93.15" rx="46.57"/><circle class="cls-10" cx="1360.2" cy="524.74" r="37.68"/><text class="cls-11" transform="translate(1412.64 533.41)"><tspan class="cls-19">L</tspan><tspan x="14.76" y="0">ending</tspan><tspan class="cls-20" x="92.8" y="0">T</tspan><tspan x="106.97" y="0">ab</tspan><tspan class="cls-17" x="133.94" y="0">C</tspan><tspan x="150.55" y="0">ont</tspan><tspan class="cls-18" x="188.92" y="0">r</tspan><tspan x="198.5" y="0">olle</tspan><tspan class="cls-13" x="239.61" y="0">r</tspan></text><text class="cls-14" transform="translate(1343.1 540.96)">C</text><rect class="cls-9" x="2038.32" y="478.16" width="350.82" height="93.15" rx="46.57"/><circle class="cls-10" cx="2084.89" cy="524.74" r="37.68"/><text class="cls-11" transform="translate(2137.33 533.41)"><tspan class="cls-16">U</tspan><tspan x="18.83" y="0">ser</tspan><tspan class="cls-20" x="51.77" y="0">T</tspan><tspan x="65.94" y="0">ab</tspan><tspan class="cls-17" x="92.9" y="0">C</tspan><tspan x="109.52" y="0">ont</tspan><tspan class="cls-18" x="147.89" y="0">r</tspan><tspan x="157.47" y="0">olle</tspan><tspan class="cls-13" x="198.58" y="0">r</tspan></text><text class="cls-14" transform="translate(2067.79 540.96)">C</text><rect class="cls-9" x="623.73" y="478.16" width="356.59" height="93.15" rx="46.57"/><circle class="cls-10" cx="670.3" cy="524.74" r="37.68"/><text class="cls-11" transform="translate(722.74 533.41)">Book<tspan class="cls-20" x="57.54" y="0">T</tspan><tspan x="71.7" y="0">ab</tspan><tspan class="cls-17" x="98.67" y="0">C</tspan><tspan x="115.29" y="0">ont</tspan><tspan class="cls-18" x="153.65" y="0">r</tspan><tspan x="163.24" y="0">olle</tspan><tspan class="cls-13" x="204.34" y="0">r</tspan></text><text class="cls-14" transform="translate(653.2 540.96)">C</text><rect class="cls-9" x="1313.63" y="874.61" width="270" height="93.15" rx="46.57"/><circle class="cls-10" cx="1360.2" cy="921.18" r="37.68"/><text class="cls-11" transform="translate(1412.64 929.85)"><tspan class="cls-19">L</tspan><tspan x="14.76" y="0">endingSe</tspan><tspan class="cls-21" x="118.51" y="0">t</tspan></text><text class="cls-14" transform="translate(1343.1 937.41)">C</text><rect class="cls-9" x="2038.32" y="874.61" width="228.22" height="93.15" rx="46.57"/><circle class="cls-10" cx="2084.89" cy="921.18" r="37.68"/><text class="cls-11" transform="translate(2137.33 929.85)"><tspan class="cls-16">U</tspan><tspan x="18.83" y="0">serSe</tspan><tspan class="cls-21" x="77.48" y="0">t</tspan></text><text class="cls-14" transform="translate(2067.79 937.41)">C</text><rect class="cls-9" x="623.73" y="874.61" width="233.26" height="93.15" rx="46.57"/><circle class="cls-10" cx="670.3" cy="921.18" r="37.68"/><text class="cls-11" transform="translate(722.74 929.85)">BookSe<tspan class="cls-21" x="83.24" y="0">t</tspan></text><text class="cls-14" transform="translate(653.2 937.41)">C</text><rect class="cls-9" x="1441" y="676.38" width="329.98" height="93.15" rx="46.57"/><circle class="cls-10" cx="1487.57" cy="722.96" r="37.68"/><text class="cls-11" transform="translate(1540.01 731.63)"><tspan class="cls-19">L</tspan><tspan x="14.76" y="0">ending</tspan><tspan class="cls-20" x="92.8" y="0">T</tspan><tspan x="106.97" y="0">abVie</tspan><tspan class="cls-16" x="171.2" y="0">w</tspan></text><text class="cls-14" transform="translate(1470.47 739.18)">C</text><circle class="cls-22" cx="1487.57" cy="722.96" r="37.68"/><text class="cls-23" transform="translate(1457.37 731.07)">fxml</text><rect class="cls-9" x="2166.67" y="676.38" width="288.8" height="93.15" rx="46.57"/><circle class="cls-10" cx="2213.23" cy="722.96" r="37.68"/><text class="cls-11" transform="translate(2265.68 731.63)"><tspan class="cls-16">U</tspan><tspan x="18.83" y="0">ser</tspan><tspan class="cls-20" x="51.77" y="0">T</tspan><tspan x="65.94" y="0">abVie</tspan><tspan class="cls-16" x="130.17" y="0">w</tspan></text><text class="cls-14" transform="translate(2196.13 739.18)">C</text><circle class="cls-22" cx="2213.23" cy="722.96" r="37.68"/><text class="cls-23" transform="translate(2183.03 731.07)">fxml</text><rect class="cls-9" x="751.1" y="676.38" width="294.22" height="93.15" rx="46.57"/><circle class="cls-22" cx="797.66" cy="722.96" r="37.68"/><text class="cls-11" transform="translate(850.11 731.63)">Book<tspan class="cls-20" x="57.54" y="0">T</tspan><tspan x="71.7" y="0">abVie</tspan><tspan class="cls-16" x="135.93" y="0">w</tspan></text><text class="cls-23" transform="translate(767.46 731.07)">fxml</text><rect class="cls-9" x="1313.63" y="1469.27" width="402.84" height="93.15" rx="46.57"/><circle class="cls-10" cx="1360.2" cy="1515.85" r="37.68"/><text class="cls-11" transform="translate(1412.64 1524.52)"><tspan class="cls-19">L</tspan><tspan x="14.76" y="0">endingP</tspan><tspan class="cls-18" x="107.92" y="0">r</tspan><tspan x="117.51" y="0">op</tspan><tspan class="cls-17" x="146.11" y="0">C</tspan><tspan x="162.73" y="0">ont</tspan><tspan class="cls-18" x="201.09" y="0">r</tspan><tspan x="210.68" y="0">olle</tspan><tspan class="cls-13" x="251.79" y="0">r</tspan></text><text class="cls-14" transform="translate(1343.1 1532.07)">C</text><rect class="cls-9" x="2038.32" y="1469.27" width="362.16" height="93.15" rx="46.57"/><circle class="cls-10" cx="2084.89" cy="1515.85" r="37.68"/><text class="cls-11" transform="translate(2137.33 1524.52)"><tspan class="cls-16">U</tspan><tspan x="18.83" y="0">serP</tspan><tspan class="cls-18" x="66.89" y="0">r</tspan><tspan x="76.48" y="0">op</tspan><tspan class="cls-17" x="105.08" y="0">C</tspan><tspan x="121.7" y="0">ont</tspan><tspan class="cls-18" x="160.06" y="0">r</tspan><tspan x="169.65" y="0">olle</tspan><tspan class="cls-13" x="210.75" y="0">r</tspan></text><text class="cls-14" transform="translate(2067.79 1532.07)">C</text><rect class="cls-9" x="623.73" y="1469.27" width="369.08" height="93.15" rx="46.57"/><circle class="cls-10" cx="670.3" cy="1515.85" r="37.68"/><text class="cls-11" transform="translate(722.74 1524.52)">BookP<tspan class="cls-18" x="72.66" y="0">r</tspan><tspan x="82.24" y="0">op</tspan><tspan class="cls-17" x="110.84" y="0">C</tspan><tspan x="127.46" y="0">ont</tspan><tspan class="cls-18" x="165.83" y="0">r</tspan><tspan x="175.41" y="0">olle</tspan><tspan class="cls-13" x="216.52" y="0">r</tspan></text><text class="cls-14" transform="translate(653.2 1532.07)">C</text><rect class="cls-9" x="1331.79" y="1072.83" width="233.69" height="93.15" rx="46.57"/><circle class="cls-10" cx="1378.36" cy="1119.4" r="37.68"/><text class="cls-11" transform="translate(1430.8 1128.07)"><tspan class="cls-19">L</tspan><tspan x="14.76" y="0">ending</tspan></text><text class="cls-14" transform="translate(1361.26 1135.63)">C</text><rect class="cls-9" x="2055.93" y="1072.83" width="193" height="93.15" rx="46.57"/><circle class="cls-10" cx="2102.5" cy="1119.4" r="37.68"/><text class="cls-11" transform="translate(2154.94 1128.07)"><tspan class="cls-16">U</tspan><tspan x="18.83" y="0">se</tspan><tspan class="cls-13" x="41.81" y="0">r</tspan></text><text class="cls-14" transform="translate(2085.4 1135.63)">C</text><rect class="cls-9" x="639.73" y="1072.83" width="201.26" height="93.15" rx="46.57"/><circle class="cls-10" cx="686.3" cy="1119.4" r="37.68"/><text class="cls-11" transform="translate(738.74 1128.07)">Boo<tspan class="cls-24" x="43.63" y="0">k</tspan></text><text class="cls-14" transform="translate(669.2 1135.63)">C</text><rect class="cls-9" x="1435.33" y="1271.05" width="341.32" height="93.15" rx="46.57"/><circle class="cls-10" cx="1481.9" cy="1317.62" r="37.68"/><text class="cls-11" transform="translate(1534.34 1326.29)"><tspan class="cls-19">L</tspan><tspan x="14.76" y="0">endingP</tspan><tspan class="cls-18" x="107.92" y="0">r</tspan><tspan x="117.51" y="0">opVie</tspan><tspan class="cls-16" x="183.37" y="0">w</tspan></text><text class="cls-14" transform="translate(1464.8 1333.85)">C</text><circle class="cls-22" cx="1481.9" cy="1317.62" r="37.68"/><text class="cls-23" transform="translate(1451.7 1325.74)">fxml</text><rect class="cls-9" x="2160.91" y="1271.05" width="300.32" height="93.15" rx="46.57"/><circle class="cls-10" cx="2207.47" cy="1317.62" r="37.68"/><text class="cls-11" transform="translate(2259.92 1326.29)"><tspan class="cls-16">U</tspan><tspan x="18.83" y="0">serP</tspan><tspan class="cls-18" x="66.89" y="0">r</tspan><tspan x="76.48" y="0">opVie</tspan><tspan class="cls-16" x="142.34" y="0">w</tspan></text><text class="cls-14" transform="translate(2190.37 1333.85)">C</text><circle class="cls-22" cx="2207.47" cy="1317.62" r="37.68"/><text class="cls-23" transform="translate(2177.27 1325.74)">fxml</text><rect class="cls-9" x="745.93" y="1271.05" width="304.56" height="93.15" rx="46.57"/><circle class="cls-10" cx="792.5" cy="1317.62" r="37.68"/><text class="cls-11" transform="translate(844.94 1326.29)">BookP<tspan class="cls-18" x="72.66" y="0">r</tspan><tspan x="82.24" y="0">opVie</tspan><tspan class="cls-16" x="148.1" y="0">w</tspan></text><text class="cls-14" transform="translate(775.4 1333.85)">C</text><circle class="cls-22" cx="792.5" cy="1317.62" r="37.68"/><text class="cls-23" transform="translate(762.3 1325.74)">fxml</text><line class="cls-5" x1="740.36" y1="967.75" x2="740.36" y2="1072.83"/><polyline class="cls-25" points="740.36 967.75 728.22 986.87 740.36 1005.99"/><polyline class="cls-26" points="740.36 1005.99 752.49 986.87 740.36 967.75"/><line class="cls-27" x1="707.98" y1="571.31" x2="707.98" y2="860.49"/><polygon points="707.98 874.61 699.85 854.71 707.98 859.43 716.11 854.71 707.98 874.61"/><line class="cls-27" x1="1397.88" y1="571.31" x2="1397.88" y2="860.49"/><polygon points="1397.88 874.61 1389.75 854.71 1397.88 859.43 1406.01 854.71 1397.88 874.61"/><line class="cls-27" x1="2120.57" y1="571.31" x2="2120.57" y2="860.49"/><polygon points="2120.57 874.61 2112.44 854.71 2120.57 859.43 2128.7 854.71 2120.57 874.61"/><line class="cls-27" x1="707.98" y1="1180.1" x2="707.98" y2="1469.27"/><polygon points="707.98 1165.97 699.85 1185.87 707.98 1181.15 716.11 1185.87 707.98 1165.97"/><line class="cls-27" x1="1397.88" y1="1180.1" x2="1397.88" y2="1469.27"/><polygon points="1397.88 1165.97 1389.75 1185.87 1397.88 1181.15 1406.01 1185.87 1397.88 1165.97"/><line class="cls-27" x1="2120.57" y1="1180.1" x2="2120.57" y2="1469.27"/><polygon points="2120.57 1165.97 2112.44 1185.87 2120.57 1181.15 2128.7 1185.87 2120.57 1165.97"/><line class="cls-27" x1="894.3" y1="571.31" x2="894.3" y2="662.26"/><polygon points="894.3 676.38 886.17 656.49 894.3 661.21 902.43 656.49 894.3 676.38"/><line class="cls-27" x1="1616.3" y1="571.31" x2="1616.3" y2="662.26"/><polygon points="1616.31 676.38 1608.17 656.49 1616.31 661.21 1624.43 656.49 1616.31 676.38"/><line class="cls-27" x1="2306.3" y1="571.31" x2="2306.3" y2="662.26"/><polygon points="2306.3 676.38 2298.17 656.49 2306.3 661.21 2314.43 656.49 2306.3 676.38"/><line class="cls-27" x1="894.3" y1="1378.32" x2="894.3" y2="1469.27"/><polygon points="894.3 1364.2 886.17 1384.1 894.3 1379.37 902.43 1384.1 894.3 1364.2"/><line class="cls-27" x1="1617.64" y1="1378.32" x2="1617.64" y2="1469.27"/><polygon points="1617.64 1364.2 1609.51 1384.1 1617.64 1379.37 1625.77 1384.1 1617.64 1364.2"/><line class="cls-27" x1="2305.64" y1="1378.32" x2="2305.64" y2="1469.27"/><polygon points="2305.64 1364.2 2297.51 1384.1 2305.64 1379.37 2313.77 1384.1 2305.64 1364.2"/><line class="cls-27" x1="1331.79" y1="1119.4" x2="855.11" y2="1119.4"/><polygon points="840.99 1119.4 860.88 1111.27 856.16 1119.4 860.88 1127.53 840.99 1119.4"/><line class="cls-27" x1="1565.48" y1="1119.4" x2="2041.81" y2="1119.4"/><polygon points="2055.93 1119.4 2036.03 1127.53 2040.75 1119.4 2036.03 1111.27 2055.93 1119.4"/><line class="cls-27" x1="1509.32" y1="174.86" x2="1509.32" y2="265.82"/><polygon points="1509.32 279.94 1501.19 260.04 1509.32 264.76 1517.45 260.04 1509.32 279.94"/><line class="cls-27" x1="1509.32" y1="373.09" x2="1509.32" y2="478.16"/><path class="cls-27" d="M1335.22,326.51C1251,326.51,802,385,802,478.16"/><path class="cls-27" d="M1683.42,326.51c84.23,0,530.31,58.51,530.31,151.65"/><line class="cls-5" x1="1448.63" y1="967.75" x2="1448.63" y2="1072.83"/><polyline class="cls-25" points="1448.63 967.75 1436.5 986.87 1448.63 1005.99"/><polyline class="cls-26" points="1448.63 1005.99 1460.77 986.87 1448.63 967.75"/><line class="cls-5" x1="2152.43" y1="967.75" x2="2152.43" y2="1072.83"/><polyline class="cls-25" points="2152.43 967.75 2140.29 986.87 2152.43 1005.99"/><polyline class="cls-26" points="2152.43 1005.99 2164.57 986.87 2152.43 967.75"/><line class="cls-5" x1="2152.43" y1="967.75" x2="2152.43" y2="1072.83"/><polyline class="cls-25" points="2152.43 967.75 2140.29 986.87 2152.43 1005.99"/><polyline class="cls-26" points="2152.43 1005.99 2164.56 986.87 2152.43 967.75"/><text class="cls-28" transform="translate(2165.75 980.87)">1</text><text class="cls-28" transform="translate(2137.86 1065.16)">*</text><line class="cls-5" x1="1448.65" y1="967.75" x2="1448.65" y2="1072.83"/><polyline class="cls-25" points="1448.65 967.75 1436.51 986.87 1448.65 1005.99"/><polyline class="cls-26" points="1448.65 1005.99 1460.79 986.87 1448.65 967.75"/><text class="cls-28" transform="translate(1461.98 980.87)">1</text><text class="cls-28" transform="translate(1434.09 1065.16)">*</text><line class="cls-5" x1="740.52" y1="967.75" x2="740.52" y2="1072.83"/><polyline class="cls-25" points="740.52 967.75 728.39 986.87 740.52 1005.99"/><polyline class="cls-26" points="740.52 1005.99 752.66 986.87 740.52 967.75"/><text class="cls-28" transform="translate(753.85 980.87)">1</text><text class="cls-28" transform="translate(725.96 1065.16)">*</text></g></g></svg>