<svg xmlns="http://www.w3.org/2000/svg" viewBox="0 0 2534.13 1569.93"><defs><style>.cls-1{fill:#fff;}.cls-2{fill:#dbe1e6;}.cls-17,.cls-18,.cls-2,.cls-20,.cls-25,.cls-3,.cls-4,.cls-5,.cls-6{stroke:#000;}.cls-10,.cls-17,.cls-18,.cls-2,.cls-20,.cls-24,.cls-25,.cls-3,.cls-4,.cls-5,.cls-6{stroke-miterlimit:10;}.cls-17,.cls-18,.cls-2,.cls-4{stroke-width:2px;}.cls-3{font-size:80px;}.cls-20,.cls-25,.cls-3{fill:none;}.cls-10,.cls-24,.cls-3{font-family:OCRAExtended, OCR A Extended;}.cls-4{fill:#e0e6db;}.cls-5{fill:#f2f2f2;}.cls-10,.cls-24,.cls-6{fill:#d3e6cf;}.cls-23,.cls-7{font-size:26px;font-family:Constantia;}.cls-8{letter-spacing:0.01em;}.cls-9{letter-spacing:-0.02em;}.cls-10{font-size:50px;}.cls-10,.cls-24{stroke:#284f1d;}.cls-11{letter-spacing:-0.02em;}.cls-12{letter-spacing:-0.07em;}.cls-13{letter-spacing:-0.01em;}.cls-14{letter-spacing:-0.01em;}.cls-15{letter-spacing:-0.03em;}.cls-16{letter-spacing:-0.03em;}.cls-17{fill:#e6e6e6;}.cls-18{fill:#d9d9d9;}.cls-19,.cls-22{font-size:13px;font-family:Consolas;}.cls-20{stroke-linecap:round;}.cls-21{letter-spacing:-0.01em;}.cls-22,.cls-23{text-decoration:underline;}.cls-24{font-size:36px;}</style></defs><g id="Livello_2" data-name="Livello 2"><g id="Livello_2-2" data-name="Livello 2"><rect class="cls-1" width="2534.13" height="1569.93" rx="69"/></g><g id="Livello_1-2" data-name="Livello 1"><path class="cls-2" d="M1971.17,128.34h444.47a20,20,0,0,1,20,20V1341.59a100,100,0,0,1-100,100H1991.17a20,20,0,0,1-20-20V128.34A0,0,0,0,1,1971.17,128.34Z"/><text class="cls-3" transform="translate(1989.71 196.22)">mvc/cont-<tspan x="0" y="96">roller</tspan></text><path class="cls-4" d="M98.48,128.34H543a20,20,0,0,1,20,20V1341.59a100,100,0,0,1-100,100H118.48a20,20,0,0,1-20-20V128.34A0,0,0,0,1,98.48,128.34Z"/><text class="cls-3" transform="translate(114 196.22)">mvc/model</text><rect class="cls-5" x="195.72" y="738.39" width="270" height="93.15" rx="46.57"/><circle class="cls-6" cx="242.28" cy="784.96" r="37.68"/><text class="cls-7" transform="translate(294.73 793.63)"><tspan class="cls-8">L</tspan><tspan x="14.76" y="0">endingSe</tspan><tspan class="cls-9" x="118.51" y="0">t</tspan></text><text class="cls-10" transform="translate(225.18 801.19)">C</text><rect class="cls-5" x="216.61" y="584.71" width="228.22" height="93.15" rx="46.57"/><circle class="cls-6" cx="263.17" cy="631.28" r="37.68"/><text class="cls-7" transform="translate(315.62 639.95)"><tspan class="cls-11">U</tspan><tspan x="18.83" y="0">serSe</tspan><tspan class="cls-9" x="77.48" y="0">t</tspan></text><text class="cls-10" transform="translate(246.07 647.51)">C</text><rect class="cls-5" x="214.09" y="892.07" width="233.26" height="93.15" rx="46.57"/><circle class="cls-6" cx="260.66" cy="938.65" r="37.68"/><text class="cls-7" transform="translate(313.1 947.32)">BookSe<tspan class="cls-9" x="83.24" y="0">t</tspan></text><text class="cls-10" transform="translate(243.56 954.87)">C</text><rect class="cls-5" x="2010.44" y="815.23" width="391.37" height="93.15" rx="46.57"/><circle class="cls-6" cx="2057.01" cy="861.81" r="37.68"/><text class="cls-7" transform="translate(2109.45 870.48)"><tspan class="cls-8">L</tspan><tspan x="14.76" y="0">ending</tspan><tspan class="cls-12" x="92.8" y="0">T</tspan><tspan x="106.97" y="0">ab</tspan><tspan class="cls-13" x="133.94" y="0">C</tspan><tspan x="150.55" y="0">ont</tspan><tspan class="cls-14" x="188.92" y="0">r</tspan><tspan x="198.5" y="0">olle</tspan><tspan class="cls-15" x="239.61" y="0">r</tspan></text><text class="cls-10" transform="translate(2039.91 878.03)">C</text><rect class="cls-5" x="2028" y="661.55" width="350.82" height="93.15" rx="46.57"/><circle class="cls-6" cx="2074.57" cy="708.12" r="37.68"/><text class="cls-7" transform="translate(2127.01 716.79)"><tspan class="cls-11">U</tspan><tspan x="18.83" y="0">ser</tspan><tspan class="cls-12" x="51.77" y="0">T</tspan><tspan x="65.94" y="0">ab</tspan><tspan class="cls-13" x="92.9" y="0">C</tspan><tspan x="109.52" y="0">ont</tspan><tspan class="cls-14" x="147.89" y="0">r</tspan><tspan x="157.47" y="0">olle</tspan><tspan class="cls-15" x="198.58" y="0">r</tspan></text><text class="cls-10" transform="translate(2057.47 724.35)">C</text><rect class="cls-5" x="2027.83" y="968.92" width="356.59" height="93.15" rx="46.57"/><circle class="cls-6" cx="2074.4" cy="1015.49" r="37.68"/><text class="cls-7" transform="translate(2126.84 1024.16)">Book<tspan class="cls-12" x="57.54" y="0">T</tspan><tspan x="71.7" y="0">ab</tspan><tspan class="cls-13" x="98.67" y="0">C</tspan><tspan x="115.29" y="0">ont</tspan><tspan class="cls-14" x="153.65" y="0">r</tspan><tspan x="163.24" y="0">olle</tspan><tspan class="cls-15" x="204.34" y="0">r</tspan></text><text class="cls-10" transform="translate(2057.3 1031.71)">C</text><rect class="cls-5" x="2021.11" y="507.87" width="348.21" height="93.15" rx="46.57"/><circle class="cls-6" cx="2067.68" cy="554.44" r="37.68"/><text class="cls-7" transform="translate(2120.12 563.11)"><tspan class="cls-16">P</tspan><tspan x="14.36" y="0">o</tspan><tspan class="cls-11" x="28.41" y="0">c</tspan><tspan x="39.9" y="0">oLib</tspan><tspan class="cls-13" x="90.25" y="0">C</tspan><tspan x="106.87" y="0">ont</tspan><tspan class="cls-14" x="145.23" y="0">r</tspan><tspan x="154.82" y="0">olle</tspan><tspan class="cls-15" x="195.93" y="0">r</tspan></text><text class="cls-10" transform="translate(2050.58 570.66)">C</text><path class="cls-17" d="M695,128.34H1774.69a38,38,0,0,1,38,38V1311.51a130.08,130.08,0,0,1-130.08,130.08H733a38,38,0,0,1-38-38V128.34A0,0,0,0,1,695,128.34Z"/><path class="cls-18" d="M730.78,862H1760.63a20,20,0,0,1,20,20v425.74a100,100,0,0,1-100,100H750.78a20,20,0,0,1-20-20V862A0,0,0,0,1,730.78,862Z"/><text class="cls-3" transform="translate(743.41 932.88)">omnisearch</text><text class="cls-3" transform="translate(704 197.99)">db</text><path class="cls-5" d="M823.4,224.47h333.41A46.57,46.57,0,0,1,1203.39,271V818.7a5,5,0,0,1-5,5H781.83a5,5,0,0,1-5-5V271a46.57,46.57,0,0,1,46.57-46.57Z"/><circle class="cls-6" cx="823.4" cy="271.04" r="37.68"/><text class="cls-7" transform="translate(875.84 279.71)">DB</text><text class="cls-10" transform="translate(806.3 287.27)">C</text><text class="cls-19" transform="translate(789.73 336.22)">- DBPath: String {G+S}<tspan x="0" y="25">- cache: List&lt;String&gt;</tspan><tspan x="0" y="50">- DBFileHash: String {G}</tspan><tspan x="0" y="100">+ getDBPathAsPath</tspan><tspan x="0" y="125">+ updateDBFileHash(): void</tspan><tspan x="0" y="150">+ updateAndGetDBFileHash(): String</tspan><tspan x="0" y="175">+ buildCache(): boolean</tspan><tspan x="0" y="200">+ updateDBFromCache(): boolean</tspan><tspan x="0" y="225">+ readNthLine(int): String</tspan><tspan x="0" y="250">+ writeNthLine(int, String, boolean): boolean</tspan><tspan x="0" y="275">+ writeNthLineWShift(int, String): boolean</tspan><tspan x="0" y="300">+ writeNthLineReplace(int, String): boolean</tspan><tspan x="0" y="325">+ removeNthLine(int): String</tspan><tspan x="0" y="350">+ findFirstInstanceOfPattern(Pattern): int</tspan><tspan x="0" y="375">+ readFirstLineContainingPattern(Pattern): String</tspan><tspan x="0" y="400">+ substituteFirstLineContainingPattern(Pattern): boolean</tspan><tspan x="0" y="425">+ deleteFirstLineContainingPattern(Pattern): String</tspan><tspan x="0" y="450">+ appendLine(String): boolean</tspan><tspan x="0" y="475">+ toString(): String </tspan></text><line class="cls-20" x1="959.44" y1="409.03" x2="1020.78" y2="409.03"/><path class="cls-5" d="M872.23,1041.22h225.28a46.57,46.57,0,0,1,46.57,46.57V1264.9a5,5,0,0,1-5,5H830.66a5,5,0,0,1-5-5V1087.79a46.57,46.57,0,0,1,46.57-46.57Z"/><circle class="cls-6" cx="872.23" cy="1087.79" r="37.68"/><text class="cls-7" transform="translate(924.67 1096.46)">Index&lt;T&gt;</text><text class="cls-10" transform="translate(855.13 1104.02)">C</text><text class="cls-19" transform="translate(838.56 1152.97)">- triMappings: Map&lt;String, List&lt;T&gt;&gt; {G} <tspan x="0" y="50">+ generateTrigrams(String): List&lt;String&gt; </tspan><tspan x="0" y="75">+ add(String, T): void</tspan><tspan x="0" y="100">+ remove(T): void</tspan></text><line class="cls-20" x1="954.21" y1="1174.23" x2="1015.54" y2="1174.23"/><path class="cls-5" d="M1390.11,294.3h225.28A46.57,46.57,0,0,1,1662,340.87V490.68a5,5,0,0,1-5,5H1348.53a5,5,0,0,1-5-5V340.87a46.57,46.57,0,0,1,46.57-46.57Z"/><circle class="cls-6" cx="1390.1" cy="340.87" r="37.68"/><text class="cls-7" transform="translate(1442.54 349.54)"><tspan class="cls-21">H</tspan><tspan x="20.38" y="0">as</tspan><tspan class="cls-14" x="43.38" y="0">h</tspan></text><text class="cls-10" transform="translate(1373 357.09)">C</text><text class="cls-22"><tspan x="1356.43" y="431.05">+ getFileHash(Path): String</tspan><tspan x="1356.43" y="456.05">+ compareFileHashes(Path, Path): boolean</tspan><tspan x="1356.43" y="481.05">+ getStringArrayHash(Path): String</tspan></text><line class="cls-20" x1="1472.08" y1="400.46" x2="1533.41" y2="400.46"/><path class="cls-5" d="M1390.11,567.33h225.28A46.57,46.57,0,0,1,1662,613.91V745.5a5,5,0,0,1-5,5H1348.53a5,5,0,0,1-5-5V613.91a46.57,46.57,0,0,1,46.57-46.57Z"/><circle class="cls-6" cx="1390.1" cy="613.91" r="37.68"/><text class="cls-7" transform="translate(1442.54 622.58)">Backu<tspan class="cls-9" x="68.71" y="0">p</tspan></text><text class="cls-10" transform="translate(1373 630.13)">C</text><text class="cls-22"><tspan x="1356.43" y="704.09">+ createBackup(String): void</tspan><tspan x="1356.43" y="729.09">+ restoreBackup(String): boolean</tspan></text><line class="cls-20" x1="1472.08" y1="673.5" x2="1533.41" y2="673.5"/><path class="cls-5" d="M1334.85,977.93h324.27a46.57,46.57,0,0,1,46.57,46.57v301.16a5,5,0,0,1-5,5H1293.28a5,5,0,0,1-5-5V1024.51a46.57,46.57,0,0,1,46.57-46.57Z"/><circle class="cls-6" cx="1334.85" cy="1024.51" r="37.68"/><text class="cls-7" transform="translate(1387.29 1033.17)">Sea<tspan class="cls-14" x="38.19" y="0">r</tspan><tspan x="47.77" y="0">c</tspan><tspan class="cls-14" x="59.77" y="0">h</tspan></text><text class="cls-10" transform="translate(1317.75 1040.73)">C</text><text class="cls-22"><tspan x="1301.18" y="1264.68">+ search(String, Index&lt;T&gt;)&lt;T&gt;: List&lt;SearchResult&lt;T&gt;&gt;</tspan><tspan x="1301.18" y="1289.68">+ distance(String, String): int</tspan><tspan x="1301.18" y="1314.68">+ orderByDistance(String, List&lt;String&gt;): List&lt;String&gt;</tspan></text><line class="cls-20" x1="1466.32" y1="1236.3" x2="1527.65" y2="1236.3"/><path class="cls-5" d="M1406.29,1066.78h236.11a46.57,46.57,0,0,1,46.57,46.57v100.11a5,5,0,0,1-5,5H1364.71a5,5,0,0,1-5-5V1113.35a46.57,46.57,0,0,1,46.57-46.57Z"/><circle class="cls-6" cx="1406.28" cy="1113.35" r="37.68"/><text class="cls-23" transform="translate(1458.73 1122.02)">Sea<tspan class="cls-14" x="38.19" y="0">r</tspan><tspan x="47.77" y="0">ch</tspan><tspan class="cls-14" x="74.84" y="0">R</tspan><tspan x="90.87" y="0">esult&lt;T&gt;</tspan></text><text class="cls-24" transform="translate(1384.54 1125.03)">NC</text><text class="cls-19" transform="translate(1372.61 1178.53)">- item: &lt;T&gt;<tspan x="0" y="25">- hits: int</tspan></text><line class="cls-25" x1="444.83" y1="631.28" x2="608.92" y2="631.28"/><line class="cls-25" x1="465.72" y1="784.96" x2="608.92" y2="784.96"/><line class="cls-25" x1="447.35" y1="938.65" x2="608.92" y2="938.65"/><line class="cls-25" x1="1502.75" y1="567.33" x2="1502.75" y2="509.8"/><polygon points="1502.75 495.68 1510.88 515.58 1502.75 510.86 1494.62 515.58 1502.75 495.68"/><path class="cls-25" d="M608.92,631.28c0-102.83,45.54-107,153.79-107.19"/><polygon points="776.83 524.09 756.97 532.32 761.65 524.16 756.89 516.06 776.83 524.09"/><line class="cls-25" x1="608.92" y1="631.28" x2="608.92" y2="938.65"/><line class="cls-25" x1="1935.93" y1="861.81" x2="1935.93" y2="1015.49"/><path class="cls-25" d="M2021.11,554.44c-142.84,0-244.47,95.35-345,103.87"/><polygon points="1661.96 658.92 1681.41 649.76 1677.12 658.13 1682.26 666 1661.96 658.92"/><line class="cls-20" x1="1288.28" y1="1154.3" x2="1158.21" y2="1154.3"/><polygon points="1144.09 1154.3 1163.99 1146.17 1159.27 1154.3 1163.99 1162.43 1144.09 1154.3"/><path class="cls-25" d="M608.92,938.65c0,179.51,154.61,210.52,202.66,215.83"/><polygon points="825.66 1155.56 805.15 1161.99 810.54 1154.29 806.51 1145.79 825.66 1155.56"/><line class="cls-25" x1="2010.44" y1="861.81" x2="1935.93" y2="861.81"/><path class="cls-25" d="M2028,708.12c-50.64,0-92.07,0-92.07,153.69"/><line class="cls-25" x1="2027.83" y1="1015.49" x2="1935.93" y2="1015.49"/><path class="cls-25" d="M1935.93,1015.49c0,107.61-20.55,137.44-216.11,138.76"/><polygon points="1705.7 1154.3 1725.52 1145.98 1720.87 1154.15 1725.67 1162.24 1705.7 1154.3"/></g></g></svg>