<svg xmlns="http://www.w3.org/2000/svg" viewBox="0 0 1667.77 908.49"><defs><style>.cls-1,.cls-18{fill:#fff;}.cls-2{fill:#f2f2f2;}.cls-10,.cls-13,.cls-16,.cls-17,.cls-18,.cls-2,.cls-3,.cls-9{stroke:#000;}.cls-10,.cls-13,.cls-16,.cls-2,.cls-3,.cls-8,.cls-9{stroke-miterlimit:10;}.cls-3,.cls-8{fill:#d3e6cf;}.cls-4{font-size:26px;font-family:Constantia;}.cls-5{letter-spacing:-0.01em;}.cls-6{letter-spacing:-0.02em;}.cls-7{letter-spacing:-0.02em;}.cls-8{font-size:50px;stroke:#284f1d;}.cls-10,.cls-8{font-family:OCRAExtended, OCR A Extended;}.cls-9{fill:#e6e6e6;}.cls-13,.cls-9{stroke-width:2px;}.cls-10{font-size:80px;}.cls-10,.cls-16,.cls-17{fill:none;}.cls-11{letter-spacing:-0.01em;}.cls-12{letter-spacing:-0.07em;}.cls-13{fill:#e0e6db;}.cls-14{letter-spacing:-0.01em;}.cls-15{letter-spacing:-0.03em;}.cls-17,.cls-18{stroke-linecap:round;stroke-linejoin:round;}</style></defs><g id="Livello_2" data-name="Livello 2"><g id="Livello_2-2" data-name="Livello 2"><rect class="cls-1" width="1667.77" height="908.49" rx="69"/></g><g id="Livello_1-2" data-name="Livello 1"><rect class="cls-2" x="88.21" y="169.99" width="349.49" height="93.15" rx="46.57"/><circle class="cls-3" cx="134.78" cy="216.56" r="37.68"/><text class="cls-4" transform="translate(187.22 225.23)"><tspan class="cls-5">R</tspan><tspan x="16.03" y="0">untimeE</tspan><tspan class="cls-6" x="112.58" y="0">x</tspan><tspan class="cls-7" x="124.44" y="0">c</tspan><tspan x="135.93" y="0">eptio</tspan><tspan class="cls-5" x="193.53" y="0">n</tspan></text><text class="cls-8" transform="translate(117.68 232.79)">C</text><path class="cls-9" d="M311.73,332.91H888.22a38,38,0,0,1,38,38V608.41A130.08,130.08,0,0,1,796.09,738.5H349.68a38,38,0,0,1-38-38V332.91A0,0,0,0,1,311.73,332.91Z"/><text class="cls-10" transform="translate(329.46 402.28)">exceptions</text><rect class="cls-2" x="353.45" y="466.69" width="460.44" height="93.15" rx="46.57"/><circle class="cls-3" cx="400.02" cy="513.27" r="37.68"/><text class="cls-4" transform="translate(452.46 521.94)">Book<tspan class="cls-11" x="57.54" y="0">D</tspan><tspan x="76.74" y="0">ata</tspan><tspan class="cls-5" x="110.88" y="0">N</tspan><tspan x="129.97" y="0">ot</tspan><tspan class="cls-12" x="153.21" y="0">V</tspan><tspan x="168.87" y="0">alidE</tspan><tspan class="cls-6" x="225.86" y="0">x</tspan><tspan class="cls-7" x="237.72" y="0">c</tspan><tspan x="249.21" y="0">eptio</tspan><tspan class="cls-5" x="306.81" y="0">n</tspan></text><text class="cls-8" transform="translate(382.92 529.49)">C</text><rect class="cls-2" x="353.45" y="600.48" width="460.44" height="93.15" rx="46.57"/><circle class="cls-3" cx="400.02" cy="647.05" r="37.68"/><text class="cls-4" transform="translate(452.46 655.72)"><tspan class="cls-7">U</tspan><tspan x="18.83" y="0">ser</tspan><tspan class="cls-11" x="51.77" y="0">D</tspan><tspan x="70.98" y="0">ata</tspan><tspan class="cls-5" x="105.12" y="0">N</tspan><tspan x="124.21" y="0">ot</tspan><tspan class="cls-12" x="147.44" y="0">V</tspan><tspan x="163.11" y="0">alidE</tspan><tspan class="cls-6" x="220.1" y="0">x</tspan><tspan class="cls-7" x="231.96" y="0">c</tspan><tspan x="243.45" y="0">eptio</tspan><tspan class="cls-5" x="301.04" y="0">n</tspan></text><text class="cls-8" transform="translate(382.92 663.28)">C</text><path class="cls-13" d="M1069,332.91h490.57a20,20,0,0,1,20,20V638.5a100,100,0,0,1-100,100H1089a20,20,0,0,1-20-20V332.91A0,0,0,0,1,1069,332.91Z"/><text class="cls-10" transform="translate(1084.51 400.79)">mvc/model</text><rect class="cls-2" x="1223.64" y="466.69" width="201.26" height="93.15" rx="46.57"/><circle class="cls-3" cx="1270.21" cy="513.27" r="37.68"/><text class="cls-4" transform="translate(1322.66 521.94)">Boo<tspan class="cls-14" x="43.63" y="0">k</tspan></text><text class="cls-8" transform="translate(1253.11 529.49)">C</text><rect class="cls-2" x="1227.77" y="600.48" width="193" height="93.15" rx="46.57"/><circle class="cls-3" cx="1274.34" cy="647.05" r="37.68"/><text class="cls-4" transform="translate(1326.78 655.72)"><tspan class="cls-7">U</tspan><tspan x="18.83" y="0">se</tspan><tspan class="cls-15" x="41.81" y="0">r</tspan></text><text class="cls-8" transform="translate(1257.24 663.28)">C</text><line class="cls-16" x1="1223.64" y1="513.27" x2="828.01" y2="513.27"/><polygon points="813.89 513.27 833.79 505.13 829.07 513.27 833.79 521.39 813.89 513.27"/><line class="cls-16" x1="1227.77" y1="647.05" x2="828.01" y2="647.05"/><polygon points="813.89 647.05 833.79 638.92 829.07 647.05 833.79 655.18 813.89 647.05"/><path class="cls-17" d="M353.45,513.27C263,513.27,263,263.14,263,263.14"/><path class="cls-17" d="M353.45,647.05C263,647.05,263,263.14,263,263.14"/><polygon class="cls-18" points="262.95 263.14 251.13 281.76 274.78 281.76 262.95 263.14"/></g></g></svg>