<svg xmlns="http://www.w3.org/2000/svg" viewBox="0 0 2108.15 1410"><defs><style>.cls-1,.cls-28,.cls-8{fill:#fff;}.cls-15,.cls-19,.cls-2{font-size:26px;}.cls-2{font-family:CMUSerif-Roman, CMU Serif;}.cls-3{letter-spacing:-0.03em;}.cls-4{letter-spacing:0.03em;}.cls-12,.cls-27,.cls-5,.cls-6,.cls-7{fill:none;}.cls-10,.cls-11,.cls-12,.cls-13,.cls-14,.cls-23,.cls-25,.cls-28,.cls-5,.cls-6,.cls-7,.cls-8{stroke:#000;}.cls-10,.cls-11,.cls-12,.cls-13,.cls-14,.cls-17,.cls-21,.cls-23,.cls-24,.cls-25,.cls-27,.cls-5,.cls-6,.cls-7{stroke-miterlimit:10;}.cls-10,.cls-11,.cls-5,.cls-6{stroke-width:2px;}.cls-6{stroke-dasharray:11.24 11.24;}.cls-7,.cls-8{stroke-linecap:round;}.cls-28,.cls-8{stroke-linejoin:round;}.cls-18,.cls-9{font-size:13px;font-family:Consolas;}.cls-10{fill:#e6e6e6;}.cls-11{fill:#d9d9d9;}.cls-12{font-size:80px;}.cls-12,.cls-17,.cls-21,.cls-24,.cls-27{font-family:OCRAExtended, OCR A Extended;}.cls-13{fill:#f2f2f2;}.cls-14,.cls-17,.cls-21{fill:#d3e6cf;}.cls-15,.cls-19{font-family:Constantia;}.cls-16{letter-spacing:-0.02em;}.cls-17,.cls-24{font-size:50px;}.cls-17,.cls-21{stroke:#284f1d;}.cls-18,.cls-19{text-decoration:underline;}.cls-20{letter-spacing:-0.01em;}.cls-21{font-size:36px;}.cls-22{letter-spacing:-0.02em;}.cls-23,.cls-24{fill:#cfd3e6;}.cls-24{stroke:#1d254f;}.cls-25{fill:#e6dbcf;}.cls-26{letter-spacing:-0.02em;}.cls-27{font-size:25px;stroke:#4f361d;}</style></defs><g id="Livello_2" data-name="Livello 2"><g id="Livello_2-2" data-name="Livello 2"><rect class="cls-1" width="2108.15" height="1410" rx="69"/></g><g id="Livello_1-2" data-name="Livello 1"><text class="cls-2" transform="translate(155.06 1141.59)"><tspan class="cls-3">P</tspan><tspan x="16.95" y="0">a</tspan><tspan class="cls-3" x="29.95" y="0">ck</tspan><tspan x="53.74" y="0">age De</tspan><tspan class="cls-4" x="131.29" y="0">p</tspan><tspan x="146.44" y="0">endency</tspan></text><text class="cls-2" transform="translate(548.04 1141.59)">Unilateral Ass<tspan class="cls-4" x="161.9" y="0">o</tspan><tspan x="175.63" y="0">ciation</tspan></text><text class="cls-2" transform="translate(955.8 1141.59)">Bilateral Ass<tspan class="cls-4" x="146.38" y="0">o</tspan><tspan x="160.1" y="0">ciation</tspan></text><text class="cls-2" transform="translate(1410.22 1141.59)">Inheritance</text><text class="cls-2" transform="translate(1805.13 1141.59)">Aggregation</text><line class="cls-5" x1="169.65" y1="1079.14" x2="175.65" y2="1079.14"/><line class="cls-6" x1="186.89" y1="1079.14" x2="338.64" y2="1079.14"/><line class="cls-5" x1="344.26" y1="1079.14" x2="350.26" y2="1079.14"/><polygon points="378.5 1079.14 338.7 1095.4 348.14 1079.14 338.7 1062.88 378.5 1079.14"/><line class="cls-7" x1="569.65" y1="1079.14" x2="764.38" y2="1079.14"/><polygon points="778.5 1079.14 758.6 1087.27 763.32 1079.14 758.6 1071.01 778.5 1079.14"/><line class="cls-7" x1="969.65" y1="1079.14" x2="1178.5" y2="1079.14"/><text class="cls-2" transform="translate(903.53 1301.32)">Multiplici<tspan class="cls-3" x="110.26" y="0">t</tspan><tspan x="119.62" y="0">y differe</tspan><tspan class="cls-3" x="212.66" y="0">n</tspan><tspan x="226.36" y="0">t from 1-1</tspan></text><line class="cls-7" x1="969.65" y1="1238.86" x2="1178.5" y2="1238.86"/><line class="cls-7" x1="1369.65" y1="1079.14" x2="1578.5" y2="1079.14"/><line class="cls-7" x1="1769.65" y1="1079.14" x2="1978.5" y2="1079.14"/><polygon class="cls-8" points="1578.5 1079.14 1559.87 1067.31 1559.87 1090.96 1578.5 1079.14"/><text class="cls-9" transform="translate(972.5 1231.94)">1</text><text class="cls-9" transform="translate(1170.83 1253.12)">*</text><path class="cls-10" d="M557.58,99.51h955a38,38,0,0,1,38,38V378.14a130.08,130.08,0,0,1-130.08,130.08h-825a38,38,0,0,1-38-38V99.51A0,0,0,0,1,557.58,99.51Z"/><path class="cls-11" d="M589.6,235.8h908.94a20,20,0,0,1,20,20V374.34a100,100,0,0,1-100,100H609.6a20,20,0,0,1-20-20V235.8A0,0,0,0,1,589.6,235.8Z"/><text class="cls-12" transform="translate(601.98 316.63)">inner-package</text><text class="cls-12" transform="translate(579.31 175.87)">package</text><path class="cls-13" d="M1512.8,621.39h324.27A46.57,46.57,0,0,1,1883.64,668V898.6a5,5,0,0,1-5,5H1471.22a5,5,0,0,1-5-5V668A46.57,46.57,0,0,1,1512.8,621.39Z"/><circle class="cls-14" cx="1512.79" cy="667.96" r="37.68"/><text class="cls-15" transform="translate(1565.24 676.63)">ClassDetail<tspan class="cls-16" x="126.06" y="0">s</tspan></text><text class="cls-17" transform="translate(1495.69 684.18)">C</text><text class="cls-18"><tspan x="1479.12" y="882.23">+ staticMethod(): void</tspan></text><line class="cls-7" x1="1644.26" y1="853.84" x2="1705.6" y2="853.84"/><path class="cls-13" d="M1584.23,710.23h236.11a46.57,46.57,0,0,1,46.57,46.57V831a5,5,0,0,1-5,5H1542.66a5,5,0,0,1-5-5V756.8a46.57,46.57,0,0,1,46.57-46.57Z"/><circle class="cls-14" cx="1584.22" cy="756.8" r="37.68"/><text class="cls-19" transform="translate(1636.67 765.47)">Static<tspan class="cls-20" x="63.45" y="0">N</tspan><tspan x="82.54" y="0">es</tspan><tspan class="cls-20" x="105.52" y="0">t</tspan><tspan x="114.32" y="0">edClas</tspan><tspan class="cls-16" x="188.77" y="0">s</tspan></text><text class="cls-21" transform="translate(1562.48 768.48)">NC</text><text class="cls-9" transform="translate(1550.56 821.98)">- nestedClassPrivateAttribute: Type</text><path class="cls-13" d="M961.43,671.5h225.28a46.57,46.57,0,0,1,46.57,46.57V848.48a5,5,0,0,1-5,5H919.86a5,5,0,0,1-5-5V718.07a46.57,46.57,0,0,1,46.57-46.57Z"/><circle class="cls-14" cx="961.43" cy="718.07" r="37.68"/><text class="cls-15" transform="translate(1013.87 726.74)">ClassDetail<tspan class="cls-16" x="126.06" y="0">s</tspan></text><text class="cls-17" transform="translate(944.33 734.3)">C</text><text class="cls-9" transform="translate(927.76 783.25)">- privateAttribute: Type {Getter+Setter} <tspan x="0" y="50">+ publicMethod(Parameter): ReturnType</tspan></text><line class="cls-7" x1="1043.41" y1="804.52" x2="1104.74" y2="804.52"/><rect class="cls-13" x="366.47" y="595.38" width="203.87" height="93.15" rx="46.57"/><circle class="cls-14" cx="413.04" cy="641.95" r="37.68"/><text class="cls-15" transform="translate(465.48 650.62)">Clas<tspan class="cls-16" x="47.24" y="0">s</tspan></text><text class="cls-17" transform="translate(395.94 658.18)">C</text><rect class="cls-13" x="366.47" y="715.92" width="293.03" height="93.15" rx="46.57"/><text class="cls-15" transform="translate(465.48 771.16)">Abst<tspan class="cls-22" x="51.72" y="0">r</tspan><tspan x="61.24" y="0">actClas</tspan><tspan class="cls-16" x="142.14" y="0">s</tspan></text><circle class="cls-23" cx="413.2" cy="762.49" r="37.68"/><text class="cls-24" transform="translate(397.78 778.72)">A</text><rect class="cls-13" x="365.88" y="836.46" width="283.69" height="93.15" rx="46.57"/><circle class="cls-25" cx="412.45" cy="883.04" r="37.68"/><text class="cls-15" transform="translate(464.89 891.71)">FxmlArtifac<tspan class="cls-26" x="132.89" y="0">t</tspan></text><text class="cls-27" transform="translate(382.24 891.15)">fxml</text><polyline class="cls-28" points="1807.89 1079.14 1788.77 1067 1769.65 1079.14"/><polyline class="cls-8" points="1769.65 1079.14 1788.77 1091.28 1807.89 1079.14"/></g></g></svg>