<svg xmlns="http://www.w3.org/2000/svg" xmlns:xlink="http://www.w3.org/1999/xlink" contentStyleType="text/css" data-diagram-type="CLASS" height="556px" preserveAspectRatio="none" style="width:857px;height:556px;background:#FFFFFF;" version="1.1" viewBox="0 0 857 556" width="857px" zoomAndPan="magnify"><defs/><g><!--cluster poco--><g class="cluster" data-entity="poco" data-source-line="22" data-uid="ent0007" id="cluster_poco"><rect fill="none" height="543" rx="2.5" ry="2.5" style="stroke:#000000;stroke-width:1.5;" width="844.72" x="7" y="7"/><path d="M54.5566,7 L54.5566,16.2969 L44.5566,26.2969 L7,26.2969" fill="none" style="stroke:#000000;stroke-width:1.5;"/><text fill="#000000" font-family="sans-serif" font-size="14" font-weight="bold" lengthAdjust="spacing" textLength="37.5566" x="10" y="20.9951">poco</text></g><!--cluster company--><g class="cluster" data-entity="company" data-source-line="22" data-uid="ent0008" id="cluster_company"><rect fill="none" height="476" rx="2.5" ry="2.5" style="stroke:#000000;stroke-width:1.5;" width="796.72" x="31" y="50"/><path d="M112.0664,50 L112.0664,59.2969 L102.0664,69.2969 L31,69.2969" fill="none" style="stroke:#000000;stroke-width:1.5;"/><text fill="#000000" font-family="sans-serif" font-size="14" font-weight="bold" lengthAdjust="spacing" textLength="71.0664" x="34" y="63.9951">company</text></g><!--cluster group01pocolib--><g class="cluster" data-entity="group01pocolib" data-source-line="9" data-uid="ent0002" id="cluster_group01pocolib"><rect fill="none" height="409" rx="2.5" ry="2.5" style="stroke:#000000;stroke-width:1.5;" width="748.72" x="55" y="93"/><path d="M188.1904,93 L188.1904,102.2969 L178.1904,112.2969 L55,112.2969" fill="none" style="stroke:#000000;stroke-width:1.5;"/><text fill="#000000" font-family="sans-serif" font-size="14" font-weight="bold" lengthAdjust="spacing" textLength="123.1904" x="58" y="106.9951">group01pocolib</text></g><!--cluster mvc--><g class="cluster" data-entity="mvc" data-source-line="19" data-uid="ent0005" id="cluster_mvc"><rect fill="none" height="222" rx="2.5" ry="2.5" style="stroke:#000000;stroke-width:1.5;" width="700.72" x="79" y="196"/><path d="M121.0127,196 L121.0127,205.2969 L111.0127,215.2969 L79,215.2969" fill="none" style="stroke:#000000;stroke-width:1.5;"/><text fill="#000000" font-family="sans-serif" font-size="14" font-weight="bold" lengthAdjust="spacing" textLength="32.0127" x="82" y="209.9951">mvc</text></g><!--cluster model--><g class="cluster" data-entity="model" data-source-line="28" data-uid="ent0010" id="cluster_model"><rect fill="none" height="139" rx="2.5" ry="2.5" style="stroke:#000000;stroke-width:1.5;" width="354.23" x="393.49" y="247"/><path d="M452.0115,247 L452.0115,256.2969 L442.0115,266.2969 L393.49,266.2969" fill="none" style="stroke:#000000;stroke-width:1.5;"/><text fill="#000000" font-family="sans-serif" font-size="14" font-weight="bold" lengthAdjust="spacing" textLength="48.5215" x="396.49" y="260.9951">model</text></g><rect fill="#F1F1F1" height="52.5938" rx="2.5" ry="2.5" style="stroke:#181818;stroke-width:0.5;" width="105.75" x="602.25" y="433.7"/><path d="M698,433.7 L698,442.9969 L688,452.9969 L602.25,452.9969" fill="none" style="stroke:#181818;stroke-width:0.5;"/><text fill="#000000" font-family="sans-serif" font-size="14" font-weight="bold" lengthAdjust="spacing" textLength="85.75" x="605.25" y="447.6951">exceptions</text><rect fill="#F1F1F1" height="52.5938" rx="2.5" ry="2.5" style="stroke:#181818;stroke-width:0.5;" width="72.4453" x="435.79" y="127.7"/><path d="M498.2353,127.7 L498.2353,136.9969 L488.2353,146.9969 L435.79,146.9969" fill="none" style="stroke:#181818;stroke-width:0.5;"/><text fill="#000000" font-family="sans-serif" font-size="14" font-weight="bold" lengthAdjust="spacing" textLength="52.4453" x="438.79" y="141.6951">search</text><!--class Launcher--><g class="entity" data-entity="Launcher" data-source-line="22" data-uid="ent0006" id="entity_Launcher"><rect fill="#F1F1F1" height="48" rx="2.5" ry="2.5" style="stroke:#181818;stroke-width:0.5;" width="97.0645" x="95" y="352"/><ellipse cx="110" cy="368" fill="#C2C2C2" rx="11" ry="11" style="stroke:#181818;stroke-width:1;"/><path d="M112.9688,373.6406 Q112.3906,373.9375 111.75,374.0781 Q111.1094,374.2344 110.4063,374.2344 Q107.9063,374.2344 106.5781,372.5938 Q105.2656,370.9375 105.2656,367.8125 Q105.2656,364.6875 106.5781,363.0313 Q107.9063,361.375 110.4063,361.375 Q111.1094,361.375 111.75,361.5313 Q112.4063,361.6875 112.9688,361.9844 L112.9688,364.7031 Q112.3438,364.125 111.75,363.8594 Q111.1563,363.5781 110.5313,363.5781 Q109.1875,363.5781 108.5,364.6563 Q107.8125,365.7188 107.8125,367.8125 Q107.8125,369.9063 108.5,370.9844 Q109.1875,372.0469 110.5313,372.0469 Q111.1563,372.0469 111.75,371.7813 Q112.3438,371.5 112.9688,370.9219 L112.9688,373.6406 Z " fill="#000000"/><text fill="#000000" font-family="sans-serif" font-size="14" lengthAdjust="spacing" textLength="65.0645" x="124" y="372.8467">Launcher</text><line style="stroke:#181818;stroke-width:0.5;" x1="96" x2="191.0645" y1="384" y2="384"/><line style="stroke:#181818;stroke-width:0.5;" x1="96" x2="191.0645" y1="392" y2="392"/></g><rect fill="#F1F1F1" height="52.5938" rx="2.5" ry="2.5" style="stroke:#181818;stroke-width:0.5;" width="105.4287" x="252.06" y="349.7"/><path d="M347.4887,349.7 L347.4887,358.9969 L337.4887,368.9969 L252.06,368.9969" fill="none" style="stroke:#181818;stroke-width:0.5;"/><text fill="#000000" font-family="sans-serif" font-size="14" font-weight="bold" lengthAdjust="spacing" textLength="85.4287" x="255.06" y="363.6951">controllers</text><rect fill="#F1F1F1" height="52.5938" rx="2.5" ry="2.5" style="stroke:#181818;stroke-width:0.5;" width="137.1953" x="586.52" y="289.7"/><path d="M713.7153,289.7 L713.7153,298.9969 L703.7153,308.9969 L586.52,308.9969" fill="none" style="stroke:#181818;stroke-width:0.5;"/><text fill="#000000" font-family="sans-serif" font-size="14" font-weight="bold" lengthAdjust="spacing" textLength="117.1953" x="589.52" y="303.6951">datastructures</text><rect fill="#F1F1F1" height="52.5938" rx="2.5" ry="2.5" style="stroke:#181818;stroke-width:0.5;" width="109.0313" x="417.49" y="289.7"/><path d="M516.5213,289.7 L516.5213,298.9969 L506.5213,308.9969 L417.49,308.9969" fill="none" style="stroke:#181818;stroke-width:0.5;"/><text fill="#000000" font-family="sans-serif" font-size="14" font-weight="bold" lengthAdjust="spacing" textLength="89.0313" x="420.49" y="303.6951">dbhandling</text><!--link Launcher to controllers--><g class="link" data-entity-1="Launcher" data-entity-2="controllers" data-source-line="41" data-uid="lnk13" id="link_Launcher_controllers"><path codeLine="41" d="M192.31,376 C211,376 226.49,376 245.59,376" fill="none" id="Launcher-to-controllers" style="stroke:#181818;stroke-width:1;stroke-dasharray:7,7;"/><polygon fill="#181818" points="251.59,376,242.59,372,246.59,376,242.59,380,251.59,376" style="stroke:#181818;stroke-width:1;"/></g><!--link controllers to model--><g class="link" data-entity-1="controllers" data-entity-2="model" data-source-line="44" data-uid="lnk14" id="link_controllers_model"><path codeLine="44" d="M357.61,376.63 C363.5713,376.7012 369.7823,376.7758 376.0915,376.8517 C379.2461,376.8897 382.4253,376.928 385.61,376.9664 C387.2023,376.9856 388.796,377.0048 390.3888,377.0241 C391.1852,377.0337 391.9813,377.0433 392.7769,377.0529 C392.9758,377.0553 387.1751,376.9852 387.3739,376.9876" fill="none" id="controllers-to-model" style="stroke:#181818;stroke-width:1;stroke-dasharray:7,7;"/><polygon fill="#181818" points="393.3735,377.0601,384.4224,372.9517,388.3738,376.9997,384.3258,380.9511,393.3735,377.0601" style="stroke:#181818;stroke-width:1;"/></g><!--link model to exceptions--><g class="link" data-entity-1="model" data-entity-2="exceptions" data-source-line="47" data-uid="lnk15" id="link_model_exceptions"><path codeLine="47" d="M491.0584,386.1726 C491.1987,386.2362 491.3397,386.3 491.4814,386.3641 C491.7646,386.4924 492.0506,386.6218 492.3391,386.7525 C492.9162,387.0137 493.5038,387.2797 494.1015,387.5503 C496.4921,388.6326 499.0444,389.7882 501.7363,391.0068 C507.1199,393.4441 513.0616,396.1341 519.3838,398.9963 C544.6725,410.445 570.584,422.1755 596.694,433.9955" fill="none" id="model-to-exceptions" style="stroke:#181818;stroke-width:1;stroke-dasharray:7,7;"/><polygon fill="#181818" points="602.16,436.47,595.6106,429.1143,597.605,434.408,592.3114,436.4023,602.16,436.47" style="stroke:#181818;stroke-width:1;"/></g><!--link search to datastructures--><g class="link" data-entity-1="search" data-entity-2="datastructures" data-source-line="50" data-uid="lnk16" id="link_search_datastructures"><path codeLine="50" d="M502.92,180.75 C536.47,210.77 586.1175,255.1804 619.6975,285.2104" fill="none" id="search-to-datastructures" style="stroke:#181818;stroke-width:1;stroke-dasharray:7,7;"/><polygon fill="#181818" points="624.17,289.21,620.1277,280.2289,620.443,285.877,614.7949,286.1922,624.17,289.21" style="stroke:#181818;stroke-width:1;"/></g><!--link dbhandling to datastructures--><g class="link" data-entity-1="dbhandling" data-entity-2="datastructures" data-source-line="53" data-uid="lnk17" id="link_dbhandling_datastructures"><path codeLine="53" d="M526.86,316 C545.52,316 560.69,316 580.33,316" fill="none" id="dbhandling-to-datastructures" style="stroke:#181818;stroke-width:1;stroke-dasharray:7,7;"/><polygon fill="#181818" points="586.33,316,577.33,312,581.33,316,577.33,320,586.33,316" style="stroke:#181818;stroke-width:1;"/></g><!--SRC=[XLDDZzf03BtdLrXx0GwWzWzKsdP1YiH-Q65xwCrCJB2OZAEPoRPBjV-zdX18igrK3YYn_LwUxUS9pETpoE-V7ZVRsn_vuqCETpbijlbw2TEQF7354Js1dN1LOScEmA1dWn5d2Pk58xiQFLPGYHDpy58HHD_G81CEMCXFTYNiqOPXfaPpn98sySqIx3L2sGHMua-eNnJFvAB6N1H8OWeEqVEkOHLKKMbPG651nOYbpD8-WbPwBWzHQpsPoE8WKyhKvTrobJ_agScbTlZyijs-FD-sFNGguAOM8miZLOtkRL5wQUfFdrFCyku6VcUWl_Pl0ayTX5t1DRb2DNARkdBHBqDr4X0kqFTiN148lJbyoFRKzz-_mTGSTE2YvAIJ3nAZTF3PcAjwDHUYgyeptHh1M0o1zAbnokULK7VaAKPqfLW13c9rXlgrbDX4j4VoNvLQ6mD7jb_-x4hSSlQK_QUxFaRgKWTUh2KVRlvJMab1TbWqoXRgE_L0OsBZANmi6_2DKRi3kiAg0Vz6Z9_Ui_UBNPwNw-uYfYkraacknXYfB1aZdMSudathfMpI3mLVNpaP6UjQZHB9gnfNI5eeCFH3oQw8nUBB81uIMpu8G1FGwRuij6FA1gKjz1nDeAuY0TAD9FqdzIAdEmhYqFBff6ravwg4xVrwxW7EzeHQegVTZg0pkjvUWJRTdUuXfZtekvg_AqzKuoqbkhlh1g2a43deEBd5mVHoG7hpxP0S0dRoPrc_kdym_m40]--></g></svg>