<svg xmlns="http://www.w3.org/2000/svg" viewBox="0 0 2398.89 1440"><defs><style>.cls-1{fill:#fff;}.cls-2{fill:#f2f2f2;}.cls-10,.cls-11,.cls-12,.cls-13,.cls-2,.cls-3,.cls-4,.cls-5,.cls-6,.cls-7,.cls-8,.cls-9{stroke:#000;stroke-miterlimit:10;}.cls-10,.cls-11,.cls-12,.cls-13,.cls-2,.cls-4,.cls-5,.cls-6,.cls-7,.cls-8,.cls-9{stroke-width:2px;}.cls-3{font-size:80px;font-family:OCRAExtended, OCR A Extended;}.cls-10,.cls-11,.cls-12,.cls-13,.cls-3,.cls-9{fill:none;}.cls-4{fill:#e6e6e6;}.cls-5{fill:#e0e6db;}.cls-6{fill:#e6dbe1;}.cls-7{fill:#dbe1e6;}.cls-8{fill:#d9d9d9;}.cls-10{stroke-dasharray:10.77 10.77;}.cls-11{stroke-dasharray:11.24 11.24;}.cls-12{stroke-dasharray:12 12;}.cls-13{stroke-dasharray:12.21 12.21;}</style></defs><g id="Livello_2" data-name="Livello 2"><g id="Livello_2-2" data-name="Livello 2"><rect class="cls-1" width="2398.89" height="1440" rx="69"/></g><g id="Livello_1-2" data-name="Livello 1"><path class="cls-2" d="M101.11,71.33H2241.89a55.89,55.89,0,0,1,55.89,55.89v1079.5a161.94,161.94,0,0,1-161.94,161.94H157a55.89,55.89,0,0,1-55.89-55.89V71.33A0,0,0,0,1,101.11,71.33Z"/><text class="cls-3" transform="translate(118.21 140.38)">poco/company/group01pocolib</text><path class="cls-4" d="M133.79,200.08h955a38,38,0,0,1,38,38v968.15A130.08,130.08,0,0,1,996.7,1336.27h-825a38,38,0,0,1-38-38V200.08a0,0,0,0,1,0,0Z"/><path class="cls-4" d="M1272.83,1004.89h955a38,38,0,0,1,38,38v163.35a130.08,130.08,0,0,1-130.08,130.08h-825a38,38,0,0,1-38-38V1004.89a0,0,0,0,1,0,0Z"/><path class="cls-4" d="M1272.83,200.08h955a38,38,0,0,1,38,38V666A130.08,130.08,0,0,1,2135.74,796h-825a38,38,0,0,1-38-38v-558a0,0,0,0,1,0,0Z"/><text class="cls-3" transform="translate(159.4 266.02)">mvc</text><path class="cls-5" d="M165.82,314.08h908.94a20,20,0,0,1,20,20V452.63a100,100,0,0,1-100,100H185.82a20,20,0,0,1-20-20V314.08A0,0,0,0,1,165.82,314.08Z"/><text class="cls-3" transform="translate(191.14 388.34)">model</text><path class="cls-6" d="M165.82,1065.51h908.94a20,20,0,0,1,20,20v118.55a100,100,0,0,1-100,100H185.82a20,20,0,0,1-20-20V1065.51A0,0,0,0,1,165.82,1065.51Z"/><text class="cls-3" transform="translate(191.14 1135.35)">view</text><path class="cls-7" d="M165.82,689.8h908.94a20,20,0,0,1,20,20V828.35a100,100,0,0,1-100,100H185.82a20,20,0,0,1-20-20V689.8A0,0,0,0,1,165.82,689.8Z"/><path class="cls-8" d="M1304.86,523.61H2213.8a20,20,0,0,1,20,20V662.16a100,100,0,0,1-100,100H1324.86a20,20,0,0,1-20-20V523.61A0,0,0,0,1,1304.86,523.61Z"/><text class="cls-3" transform="translate(191.14 769.22)">controller</text><text class="cls-3" transform="translate(1317.23 604.44)">omnisearch</text><text class="cls-3" transform="translate(1294.57 276.44)">db</text><text class="cls-3" transform="translate(1294.57 1087.26)">exceptions</text><line class="cls-9" x1="630.29" y1="689.8" x2="630.29" y2="683.8"/><line class="cls-10" x1="630.29" y1="673.03" x2="630.29" y2="592.26"/><line class="cls-9" x1="630.29" y1="586.87" x2="630.29" y2="580.87"/><polygon points="630.29 552.63 646.55 592.43 630.29 582.98 614.03 592.43 630.29 552.63"/><line class="cls-9" x1="630.29" y1="1037.27" x2="630.29" y2="1031.27"/><line class="cls-10" x1="630.29" y1="1020.5" x2="630.29" y2="939.73"/><line class="cls-9" x1="630.29" y1="934.35" x2="630.29" y2="928.35"/><polygon points="630.29 1065.51 646.55 1025.72 630.29 1035.16 614.03 1025.72 630.29 1065.51"/><line class="cls-9" x1="1769.33" y1="796.04" x2="1769.33" y2="802.04"/><line class="cls-11" x1="1769.33" y1="813.28" x2="1769.33" y2="965.03"/><line class="cls-9" x1="1769.33" y1="970.65" x2="1769.33" y2="976.65"/><polygon points="1769.33 1004.89 1753.07 965.09 1769.33 974.53 1785.59 965.09 1769.33 1004.89"/><line class="cls-12" x1="1126.79" y1="762.16" x2="1351.01" y2="986.38"/><polygon points="1370.98 1006.35 1331.34 989.71 1349.52 984.89 1354.34 966.72 1370.98 1006.35"/><line class="cls-9" x1="1094.76" y1="433.36" x2="1099.01" y2="437.59"/><line class="cls-13" x1="1107.66" y1="446.22" x2="1276.29" y2="614.39"/><line class="cls-9" x1="1280.61" y1="618.7" x2="1284.86" y2="622.94"/><polygon points="1304.86 642.88 1265.2 626.29 1283.37 621.45 1288.16 603.27 1304.86 642.88"/></g></g></svg>