<svg xmlns="http://www.w3.org/2000/svg" xmlns:xlink="http://www.w3.org/1999/xlink" contentStyleType="text/css" data-diagram-type="SEQUENCE" height="641px" preserveAspectRatio="none" style="width:1153px;height:641px;background:#FFFFFF;" version="1.1" viewBox="0 0 1153 641" width="1153px" zoomAndPan="magnify"><defs/><g><g><title>BookEditController</title><rect fill="#FFFFFF" height="438.5625" style="stroke:#181818;stroke-width:1;" width="10" x="435.6177" y="112.4297"/></g><g><title>Catalog</title><rect fill="#FFFFFF" height="213.7969" style="stroke:#181818;stroke-width:1;" width="10" x="806.2354" y="249.125"/></g><g><title>DB</title><rect fill="#FFFFFF" height="113.3984" style="stroke:#181818;stroke-width:1;" width="10" x="994.4463" y="320.3906"/></g><rect fill="none" height="374.4297" style="stroke:#000000;stroke-width:1.5;" width="1136.2388" x="10" y="169.5625"/><g><title>Bibliotecario</title><rect fill="#000000" fill-opacity="0.00000" height="479.6953" width="8" x="62.6577" y="81.2969"/><line style="stroke:#181818;stroke-width:0.5;stroke-dasharray:5,5;" x1="66" x2="66" y1="81.2969" y2="560.9922"/></g><g><title>BookEditController</title><rect fill="#000000" fill-opacity="0.00000" height="479.6953" width="8" x="436.6177" y="81.2969"/><line style="stroke:#181818;stroke-width:0.5;stroke-dasharray:5,5;" x1="440.0542" x2="440.0542" y1="81.2969" y2="560.9922"/></g><g><title>Book</title><rect fill="#000000" fill-opacity="0.00000" height="343.6484" width="8" x="738.9316" y="217.3438"/><line style="stroke:#181818;stroke-width:0.5;stroke-dasharray:5,5;" x1="742.5103" x2="742.5103" y1="217.3438" y2="560.9922"/></g><g><title>Catalog</title><rect fill="#000000" fill-opacity="0.00000" height="479.6953" width="8" x="807.2354" y="81.2969"/><line style="stroke:#181818;stroke-width:0.5;stroke-dasharray:5,5;" x1="810.353" x2="810.353" y1="81.2969" y2="560.9922"/></g><g><title>DB</title><rect fill="#000000" fill-opacity="0.00000" height="479.6953" width="8" x="995.4463" y="81.2969"/><line style="stroke:#181818;stroke-width:0.5;stroke-dasharray:5,5;" x1="999.2539" x2="999.2539" y1="81.2969" y2="560.9922"/></g><g class="participant participant-head" data-participant="Actor"><text fill="#000000" font-family="sans-serif" font-size="14" lengthAdjust="spacing" textLength="87.3154" x="20" y="77.9951">Bibliotecario</text><ellipse cx="66.6577" cy="13.5" fill="#E2E2F0" rx="8" ry="8" style="stroke:#181818;stroke-width:0.5;"/><path d="M66.6577,21.5 L66.6577,48.5 M53.6577,29.5 L79.6577,29.5 M66.6577,48.5 L53.6577,63.5 M66.6577,48.5 L79.6577,63.5" fill="none" style="stroke:#181818;stroke-width:0.5;"/></g><g class="participant participant-tail" data-participant="Actor"><text fill="#000000" font-family="sans-serif" font-size="14" lengthAdjust="spacing" textLength="87.3154" x="20" y="572.9873">Bibliotecario</text><ellipse cx="66.6577" cy="584.7891" fill="#E2E2F0" rx="8" ry="8" style="stroke:#181818;stroke-width:0.5;"/><path d="M66.6577,592.7891 L66.6577,619.7891 M53.6577,600.7891 L79.6577,600.7891 M66.6577,619.7891 L53.6577,634.7891 M66.6577,619.7891 L79.6577,634.7891" fill="none" style="stroke:#181818;stroke-width:0.5;"/></g><g class="participant participant-head" data-participant="Controller"><rect fill="#E2E2F0" height="30.2969" rx="2.5" ry="2.5" style="stroke:#181818;stroke-width:0.5;" width="145.127" x="368.0542" y="50"/><text fill="#000000" font-family="sans-serif" font-size="14" lengthAdjust="spacing" textLength="131.127" x="375.0542" y="69.9951">BookEditController</text></g><g class="participant participant-tail" data-participant="Controller"><rect fill="#E2E2F0" height="30.2969" rx="2.5" ry="2.5" style="stroke:#181818;stroke-width:0.5;" width="145.127" x="368.0542" y="559.9922"/><text fill="#000000" font-family="sans-serif" font-size="14" lengthAdjust="spacing" textLength="131.127" x="375.0542" y="579.9873">BookEditController</text></g><g class="participant participant-tail" data-participant="NewBook"><rect fill="#E2E2F0" height="30.2969" rx="2.5" ry="2.5" style="stroke:#181818;stroke-width:0.5;" width="48.8428" x="718.5103" y="559.9922"/><text fill="#000000" font-family="sans-serif" font-size="14" lengthAdjust="spacing" textLength="34.8428" x="725.5103" y="579.9873">Book</text></g><g class="participant participant-head" data-participant="Model"><rect fill="#E2E2F0" height="30.2969" rx="2.5" ry="2.5" style="stroke:#181818;stroke-width:0.5;" width="67.7646" x="777.353" y="50"/><text fill="#000000" font-family="sans-serif" font-size="14" lengthAdjust="spacing" textLength="53.7646" x="784.353" y="69.9951">Catalog</text></g><g class="participant participant-tail" data-participant="Model"><rect fill="#E2E2F0" height="30.2969" rx="2.5" ry="2.5" style="stroke:#181818;stroke-width:0.5;" width="67.7646" x="777.353" y="559.9922"/><text fill="#000000" font-family="sans-serif" font-size="14" lengthAdjust="spacing" textLength="53.7646" x="784.353" y="579.9873">Catalog</text></g><g class="participant participant-head" data-participant="Persistence"><rect fill="#E2E2F0" height="30.2969" rx="2.5" ry="2.5" style="stroke:#181818;stroke-width:0.5;" width="34.3848" x="982.2539" y="50"/><text fill="#000000" font-family="sans-serif" font-size="14" lengthAdjust="spacing" textLength="20.3848" x="989.2539" y="69.9951">DB</text></g><g class="participant participant-tail" data-participant="Persistence"><rect fill="#E2E2F0" height="30.2969" rx="2.5" ry="2.5" style="stroke:#181818;stroke-width:0.5;" width="34.3848" x="982.2539" y="559.9922"/><text fill="#000000" font-family="sans-serif" font-size="14" lengthAdjust="spacing" textLength="20.3848" x="989.2539" y="579.9873">DB</text></g><g><title>BookEditController</title><rect fill="#FFFFFF" height="438.5625" style="stroke:#181818;stroke-width:1;" width="10" x="435.6177" y="112.4297"/></g><g><title>Catalog</title><rect fill="#FFFFFF" height="213.7969" style="stroke:#181818;stroke-width:1;" width="10" x="806.2354" y="249.125"/></g><g><title>DB</title><rect fill="#FFFFFF" height="113.3984" style="stroke:#181818;stroke-width:1;" width="10" x="994.4463" y="320.3906"/></g><g class="message" data-participant-1="Actor" data-participant-2="Controller"><polygon fill="#181818" points="423.6177,108.4297,433.6177,112.4297,423.6177,116.4297,427.6177,112.4297" style="stroke:#181818;stroke-width:1;"/><line style="stroke:#181818;stroke-width:1;" x1="66.6577" x2="429.6177" y1="112.4297" y2="112.4297"/><text fill="#000000" font-family="sans-serif" font-size="13" font-weight="bold" lengthAdjust="spacing" textLength="9.0454" x="76.1577" y="107.3638">1</text><text fill="#000000" font-family="sans-serif" font-size="13" lengthAdjust="spacing" textLength="336.9146" x="89.2031" y="107.3638">Inserisce dati (Titolo, Autori, ISBN...) e clicca "Save"</text></g><g class="message" data-participant-1="Controller" data-participant-2="Controller"><line style="stroke:#181818;stroke-width:1;" x1="445.6177" x2="487.6177" y1="141.5625" y2="141.5625"/><line style="stroke:#181818;stroke-width:1;" x1="487.6177" x2="487.6177" y1="141.5625" y2="154.5625"/><line style="stroke:#181818;stroke-width:1;" x1="446.6177" x2="487.6177" y1="154.5625" y2="154.5625"/><polygon fill="#181818" points="456.6177,150.5625,446.6177,154.5625,456.6177,158.5625,452.6177,154.5625" style="stroke:#181818;stroke-width:1;"/><text fill="#000000" font-family="sans-serif" font-size="13" font-weight="bold" lengthAdjust="spacing" textLength="9.0454" x="452.6177" y="136.4966">2</text><text fill="#000000" font-family="sans-serif" font-size="13" lengthAdjust="spacing" textLength="96.002" x="465.6631" y="136.4966">validateInput()</text></g><path d="M10,169.5625 L74.4429,169.5625 L74.4429,176.6953 L64.4429,186.6953 L10,186.6953 L10,169.5625" fill="#EEEEEE" style="stroke:#000000;stroke-width:1.5;"/><rect fill="none" height="374.4297" style="stroke:#000000;stroke-width:1.5;" width="1136.2388" x="10" y="169.5625"/><text fill="#000000" font-family="sans-serif" font-size="13" font-weight="bold" lengthAdjust="spacing" textLength="19.4429" x="25" y="182.6294">alt</text><text fill="#000000" font-family="sans-serif" font-size="11" font-weight="bold" lengthAdjust="spacing" textLength="74.5884" x="89.4429" y="181.7729">[Dati Validi]</text><g class="message" data-participant-1="Controller" data-participant-2="NewBook"><polygon fill="#181818" points="706.5103,203.8281,716.5103,207.8281,706.5103,211.8281,710.5103,207.8281" style="stroke:#181818;stroke-width:1;"/><line style="stroke:#181818;stroke-width:1;" x1="445.6177" x2="712.5103" y1="207.8281" y2="207.8281"/><text fill="#000000" font-family="sans-serif" font-size="13" font-weight="bold" lengthAdjust="spacing" textLength="9.0454" x="457.6177" y="202.7622">3</text><text fill="#000000" font-family="sans-serif" font-size="13" lengthAdjust="spacing" textLength="235.8472" x="470.6631" y="202.7622">new(titolo, autori, anno, isbn, copie)</text></g><rect fill="#E2E2F0" height="30.2969" rx="2.5" ry="2.5" style="stroke:#181818;stroke-width:0.5;" width="48.8428" x="718.5103" y="186.6953"/><text fill="#000000" font-family="sans-serif" font-size="14" lengthAdjust="spacing" textLength="34.8428" x="725.5103" y="206.6904">Book</text><g class="message" data-participant-1="Controller" data-participant-2="Model"><polygon fill="#181818" points="794.2354,245.125,804.2354,249.125,794.2354,253.125,798.2354,249.125" style="stroke:#181818;stroke-width:1;"/><line style="stroke:#181818;stroke-width:1;" x1="445.6177" x2="800.2354" y1="249.125" y2="249.125"/><text fill="#000000" font-family="sans-serif" font-size="13" font-weight="bold" lengthAdjust="spacing" textLength="9.0454" x="556.3081" y="244.0591">4</text><text fill="#000000" font-family="sans-serif" font-size="13" lengthAdjust="spacing" textLength="126.1914" x="569.3535" y="244.0591">addBook(newBook)</text></g><g class="message" data-participant-1="Model" data-participant-2="Model"><line style="stroke:#181818;stroke-width:1;" x1="816.2354" x2="858.2354" y1="278.2578" y2="278.2578"/><line style="stroke:#181818;stroke-width:1;" x1="858.2354" x2="858.2354" y1="278.2578" y2="291.2578"/><line style="stroke:#181818;stroke-width:1;" x1="817.2354" x2="858.2354" y1="291.2578" y2="291.2578"/><polygon fill="#181818" points="827.2354,287.2578,817.2354,291.2578,827.2354,295.2578,823.2354,291.2578" style="stroke:#181818;stroke-width:1;"/><text fill="#000000" font-family="sans-serif" font-size="13" font-weight="bold" lengthAdjust="spacing" textLength="9.0454" x="823.2354" y="273.1919">5</text><text fill="#000000" font-family="sans-serif" font-size="13" lengthAdjust="spacing" textLength="93.8374" x="836.2808" y="273.1919">add(newBook)</text></g><g class="message" data-participant-1="Model" data-participant-2="Persistence"><polygon fill="#181818" points="982.4463,316.3906,992.4463,320.3906,982.4463,324.3906,986.4463,320.3906" style="stroke:#181818;stroke-width:1;"/><line style="stroke:#181818;stroke-width:1;" x1="816.2354" x2="988.4463" y1="320.3906" y2="320.3906"/><text fill="#000000" font-family="sans-serif" font-size="13" font-weight="bold" lengthAdjust="spacing" textLength="9.0454" x="878.531" y="315.3247">6</text><text fill="#000000" font-family="sans-serif" font-size="13" lengthAdjust="spacing" textLength="40.5742" x="891.5764" y="315.3247">save()</text></g><g class="message" data-participant-1="Persistence" data-participant-2="Persistence"><line style="stroke:#181818;stroke-width:1;" x1="1004.4463" x2="1046.4463" y1="349.5234" y2="349.5234"/><line style="stroke:#181818;stroke-width:1;" x1="1046.4463" x2="1046.4463" y1="349.5234" y2="362.5234"/><line style="stroke:#181818;stroke-width:1;" x1="1005.4463" x2="1046.4463" y1="362.5234" y2="362.5234"/><polygon fill="#181818" points="1015.4463,358.5234,1005.4463,362.5234,1015.4463,366.5234,1011.4463,362.5234" style="stroke:#181818;stroke-width:1;"/><text fill="#000000" font-family="sans-serif" font-size="13" font-weight="bold" lengthAdjust="spacing" textLength="9.0454" x="1011.4463" y="344.4575">7</text><text fill="#000000" font-family="sans-serif" font-size="13" lengthAdjust="spacing" textLength="99.7471" x="1024.4917" y="344.4575">createBackup()</text></g><g class="message" data-participant-1="Persistence" data-participant-2="Persistence"><line style="stroke:#181818;stroke-width:1;" x1="1004.4463" x2="1046.4463" y1="391.6563" y2="391.6563"/><line style="stroke:#181818;stroke-width:1;" x1="1046.4463" x2="1046.4463" y1="391.6563" y2="404.6563"/><line style="stroke:#181818;stroke-width:1;" x1="1005.4463" x2="1046.4463" y1="404.6563" y2="404.6563"/><polygon fill="#181818" points="1015.4463,400.6563,1005.4463,404.6563,1015.4463,408.6563,1011.4463,404.6563" style="stroke:#181818;stroke-width:1;"/><text fill="#000000" font-family="sans-serif" font-size="13" font-weight="bold" lengthAdjust="spacing" textLength="9.0454" x="1011.4463" y="386.5903">8</text><text fill="#000000" font-family="sans-serif" font-size="13" lengthAdjust="spacing" textLength="81.4214" x="1024.4917" y="386.5903">writeToFile()</text></g><g class="message" data-participant-1="Persistence" data-participant-2="Model"><polygon fill="#181818" points="827.2354,429.7891,817.2354,433.7891,827.2354,437.7891,823.2354,433.7891" style="stroke:#181818;stroke-width:1;"/><line style="stroke:#181818;stroke-width:1;stroke-dasharray:2,2;" x1="821.2354" x2="998.4463" y1="433.7891" y2="433.7891"/><text fill="#000000" font-family="sans-serif" font-size="13" font-weight="bold" lengthAdjust="spacing" textLength="9.0454" x="830.7354" y="428.7231">9</text><text fill="#000000" font-family="sans-serif" font-size="13" lengthAdjust="spacing" textLength="141.1655" x="843.7808" y="428.7231">conferma salvataggio</text></g><g class="message" data-participant-1="Model" data-participant-2="Controller"><polygon fill="#181818" points="456.6177,458.9219,446.6177,462.9219,456.6177,466.9219,452.6177,462.9219" style="stroke:#181818;stroke-width:1;"/><line style="stroke:#181818;stroke-width:1;stroke-dasharray:2,2;" x1="450.6177" x2="810.2354" y1="462.9219" y2="462.9219"/><text fill="#000000" font-family="sans-serif" font-size="13" font-weight="bold" lengthAdjust="spacing" textLength="18.0908" x="548.2996" y="457.856">10</text><text fill="#000000" font-family="sans-serif" font-size="13" lengthAdjust="spacing" textLength="138.1631" x="570.3904" y="457.856">conferma operazione</text></g><g class="message" data-participant-1="Controller" data-participant-2="Actor"><polygon fill="#181818" points="77.6577,488.0547,67.6577,492.0547,77.6577,496.0547,73.6577,492.0547" style="stroke:#181818;stroke-width:1;"/><line style="stroke:#181818;stroke-width:1;stroke-dasharray:2,2;" x1="71.6577" x2="434.6177" y1="492.0547" y2="492.0547"/><text fill="#000000" font-family="sans-serif" font-size="13" font-weight="bold" lengthAdjust="spacing" textLength="18.0908" x="130.5476" y="486.9888">11</text><text fill="#000000" font-family="sans-serif" font-size="13" lengthAdjust="spacing" textLength="219.0894" x="152.6384" y="486.9888">Chiude finestra / Mostra successo</text></g><line style="stroke:#000000;stroke-width:1;stroke-dasharray:2,2;" x1="10" x2="1146.2388" y1="501.0547" y2="501.0547"/><text fill="#000000" font-family="sans-serif" font-size="11" font-weight="bold" lengthAdjust="spacing" textLength="210.896" x="15" y="511.2651">[Dati Non Validi (es. ISBN errato)]</text><g class="message" data-participant-1="Controller" data-participant-2="Actor"><polygon fill="#181818" points="77.6577,531.9922,67.6577,535.9922,77.6577,539.9922,73.6577,535.9922" style="stroke:#181818;stroke-width:1;"/><line style="stroke:#181818;stroke-width:1;stroke-dasharray:2,2;" x1="71.6577" x2="434.6177" y1="535.9922" y2="535.9922"/><text fill="#000000" font-family="sans-serif" font-size="13" font-weight="bold" lengthAdjust="spacing" textLength="18.0908" x="118.7822" y="530.9263">12</text><text fill="#000000" font-family="sans-serif" font-size="13" lengthAdjust="spacing" textLength="242.6201" x="140.873" y="530.9263">Mostra messaggio di errore (NUR-02)</text></g><!--SRC=[VLJBRjim4BppAnQ-M08IDstHYmy5_6Y07E8MUVI-eJRA8ZIfafG3z6lwB_snBYdPbkmYFXXyxCpkpWurXJKzi-NVx2n1HRLXm1YTPqXROmYqmH0O6lIHD3Te8olK4WAJ9JyPTdACdjq4CC0YNQWKorsi13dt-gtYk78sUYUCFaSUj-VXEM13RsazlbrXHEFg773hfC3nzNgPRtwG3nmYMKrAJU5csxWGCVKeRScv05u8N9DEqB0Ahso51xSGw5UROBSK0jQqC5nRq6IZb8bjTBRTFiaoaMRHaaRmRDeGt1mULvTN7rMM02w_3ZgSItGWpq6Bg1WPYWUEphWBMBH9wmkukLzkPhDP2KblrXfXSeyxcYIbUOUHXdf9zfzITeNxgN7FIc46cxkxowlFNG37ltyoTQcEyDFITfagqerjsbYKIg69i4vy7OS2-KrXvUcGpvYfgsiIdq0UKOhGSYzbxgUMZiOv-vivM7ehOjy_zlsZjRBZy6GlGBk6gSmCVUv5NNDh8mAQVkhdzFby3bXLAKjXksmTpK748pZ_vUqOF0Rs-U_H21ob2WVDtbj2LrolHUmle_iqqQsefrqvpZ4mvHo23BSuAMxesa7oudllKoh5HcB4VWpQMLYYVcqRSIqqddO2TXaqO3hBtCsf0_OLl1V-vZdIWxjciw_t778KK6fw9hz5wU-WI8wlwFqsUvLEh7cWSys-xLEsauaEFI5a-ItEOVN2RKKW7pfv_HxXWy3o8hHQoqjtIf4H4RFhDw9hv_pkGQNt0-GzndwY_y_HCsxpXoCPGV22SbviidaKctmg5TbAgK7nHwP_]--></g></svg>