<svg xmlns="http://www.w3.org/2000/svg" xmlns:xlink="http://www.w3.org/1999/xlink" contentStyleType="text/css" data-diagram-type="SEQUENCE" height="727px" preserveAspectRatio="none" style="width:957px;height:727px;background:#FFFFFF;" version="1.1" viewBox="0 0 957 727" width="957px" zoomAndPan="magnify"><title>Sequenza Aggiunta Libro</title><defs/><g><text fill="#000000" font-family="sans-serif" font-size="14" font-weight="bold" lengthAdjust="spacing" textLength="198.3857" x="380.5549" y="27.9951">Sequenza Aggiunta Libro</text><g><title>BookTabController</title><rect fill="#FFFFFF" height="29.1328" style="stroke:#181818;stroke-width:1;" width="10" x="292.2275" y="149.7266"/></g><g><title>BookTabController</title><rect fill="#FFFFFF" height="428.6953" style="stroke:#181818;stroke-width:1;" width="10" x="292.2275" y="207.9922"/></g><g><title>Book</title><rect fill="#FFFFFF" height="97.5625" style="stroke:#181818;stroke-width:1;" width="10" x="555.2446" y="247.125"/></g><g><title>BookSet</title><rect fill="#FFFFFF" height="145.6641" style="stroke:#181818;stroke-width:1;" width="10" x="699.9351" y="446.8906"/></g><g><title>Backup</title><rect fill="#FFFFFF" height="29.1328" style="stroke:#181818;stroke-width:1;" width="10" x="858.2368" y="476.0234"/></g><g><title>DB</title><rect fill="#FFFFFF" height="29.1328" style="stroke:#181818;stroke-width:1;" width="10" x="918.3032" y="534.2891"/></g><rect fill="none" height="323.2656" style="stroke:#000000;stroke-width:1.5;" width="940.4956" x="10" y="306.4219"/><g><title>Bibliotecario</title><rect fill="#000000" fill-opacity="0.00000" height="528.0938" width="8" x="62.6577" y="118.5938"/><line style="stroke:#181818;stroke-width:0.5;stroke-dasharray:5,5;" x1="66" x2="66" y1="118.5938" y2="646.6875"/></g><g><title>BookTabController</title><rect fill="#000000" fill-opacity="0.00000" height="528.0938" width="8" x="293.2275" y="118.5938"/><line style="stroke:#181818;stroke-width:0.5;stroke-dasharray:5,5;" x1="297.2109" x2="297.2109" y1="118.5938" y2="646.6875"/></g><g><title>Book</title><rect fill="#000000" fill-opacity="0.00000" height="400.0469" width="8" x="556.2446" y="246.6406"/><line style="stroke:#181818;stroke-width:0.5;stroke-dasharray:5,5;" x1="559.8232" x2="559.8232" y1="246.6406" y2="646.6875"/></g><g><title>BookSet</title><rect fill="#000000" fill-opacity="0.00000" height="528.0938" width="8" x="700.9351" y="118.5938"/><line style="stroke:#181818;stroke-width:0.5;stroke-dasharray:5,5;" x1="704.019" x2="704.019" y1="118.5938" y2="646.6875"/></g><g><title>Backup</title><rect fill="#000000" fill-opacity="0.00000" height="528.0938" width="8" x="859.2368" y="118.5938"/><line style="stroke:#181818;stroke-width:0.5;stroke-dasharray:5,5;" x1="862.3628" x2="862.3628" y1="118.5938" y2="646.6875"/></g><g><title>DB</title><rect fill="#000000" fill-opacity="0.00000" height="528.0938" width="8" x="919.3032" y="118.5938"/><line style="stroke:#181818;stroke-width:0.5;stroke-dasharray:5,5;" x1="923.1108" x2="923.1108" y1="118.5938" y2="646.6875"/></g><g class="participant participant-head" data-participant="User"><text fill="#000000" font-family="sans-serif" font-size="14" lengthAdjust="spacing" textLength="87.3154" x="20" y="115.292">Bibliotecario</text><ellipse cx="66.6577" cy="50.7969" fill="#E2E2F0" rx="8" ry="8" style="stroke:#181818;stroke-width:0.5;"/><path d="M66.6577,58.7969 L66.6577,85.7969 M53.6577,66.7969 L79.6577,66.7969 M66.6577,85.7969 L53.6577,100.7969 M66.6577,85.7969 L79.6577,100.7969" fill="none" style="stroke:#181818;stroke-width:0.5;"/></g><g class="participant participant-tail" data-participant="User"><text fill="#000000" font-family="sans-serif" font-size="14" lengthAdjust="spacing" textLength="87.3154" x="20" y="658.6826">Bibliotecario</text><ellipse cx="66.6577" cy="670.4844" fill="#E2E2F0" rx="8" ry="8" style="stroke:#181818;stroke-width:0.5;"/><path d="M66.6577,678.4844 L66.6577,705.4844 M53.6577,686.4844 L79.6577,686.4844 M66.6577,705.4844 L53.6577,720.4844 M66.6577,705.4844 L79.6577,720.4844" fill="none" style="stroke:#181818;stroke-width:0.5;"/></g><g class="participant participant-head" data-participant="Ctrl"><rect fill="#E2E2F0" height="46.5938" rx="2.5" ry="2.5" style="stroke:#181818;stroke-width:0.5;" width="144.0332" x="225.2109" y="71"/><text fill="#000000" font-family="sans-serif" font-size="14" lengthAdjust="spacing" textLength="130.0332" x="232.2109" y="90.9951">BookTabController</text><text fill="#000000" font-family="sans-serif" font-size="14" lengthAdjust="spacing" textLength="118.3438" x="238.0557" y="107.292">(View/Controller)</text></g><g class="participant participant-tail" data-participant="Ctrl"><rect fill="#E2E2F0" height="46.5938" rx="2.5" ry="2.5" style="stroke:#181818;stroke-width:0.5;" width="144.0332" x="225.2109" y="645.6875"/><text fill="#000000" font-family="sans-serif" font-size="14" lengthAdjust="spacing" textLength="130.0332" x="232.2109" y="665.6826">BookTabController</text><text fill="#000000" font-family="sans-serif" font-size="14" lengthAdjust="spacing" textLength="118.3438" x="238.0557" y="681.9795">(View/Controller)</text></g><g class="participant participant-tail" data-participant="ModelBook"><rect fill="#E2E2F0" height="30.2969" rx="2.5" ry="2.5" style="stroke:#181818;stroke-width:0.5;" width="48.8428" x="535.8232" y="645.6875"/><text fill="#000000" font-family="sans-serif" font-size="14" lengthAdjust="spacing" textLength="34.8428" x="542.8232" y="665.6826">Book</text></g><g class="participant participant-head" data-participant="ModelSet"><rect fill="#E2E2F0" height="30.2969" rx="2.5" ry="2.5" style="stroke:#181818;stroke-width:0.5;" width="71.832" x="669.019" y="87.2969"/><text fill="#000000" font-family="sans-serif" font-size="14" lengthAdjust="spacing" textLength="57.832" x="676.019" y="107.292">BookSet</text></g><g class="participant participant-tail" data-participant="ModelSet"><rect fill="#E2E2F0" height="30.2969" rx="2.5" ry="2.5" style="stroke:#181818;stroke-width:0.5;" width="71.832" x="669.019" y="645.6875"/><text fill="#000000" font-family="sans-serif" font-size="14" lengthAdjust="spacing" textLength="57.832" x="676.019" y="665.6826">BookSet</text></g><g class="participant participant-head" data-participant="Backup"><rect fill="#E2E2F0" height="30.2969" rx="2.5" ry="2.5" style="stroke:#181818;stroke-width:0.5;" width="65.748" x="830.3628" y="87.2969"/><text fill="#000000" font-family="sans-serif" font-size="14" lengthAdjust="spacing" textLength="51.748" x="837.3628" y="107.292">Backup</text></g><g class="participant participant-tail" data-participant="Backup"><rect fill="#E2E2F0" height="30.2969" rx="2.5" ry="2.5" style="stroke:#181818;stroke-width:0.5;" width="65.748" x="830.3628" y="645.6875"/><text fill="#000000" font-family="sans-serif" font-size="14" lengthAdjust="spacing" textLength="51.748" x="837.3628" y="665.6826">Backup</text></g><g class="participant participant-head" data-participant="Database"><rect fill="#E2E2F0" height="30.2969" rx="2.5" ry="2.5" style="stroke:#181818;stroke-width:0.5;" width="34.3848" x="906.1108" y="87.2969"/><text fill="#000000" font-family="sans-serif" font-size="14" lengthAdjust="spacing" textLength="20.3848" x="913.1108" y="107.292">DB</text></g><g class="participant participant-tail" data-participant="Database"><rect fill="#E2E2F0" height="30.2969" rx="2.5" ry="2.5" style="stroke:#181818;stroke-width:0.5;" width="34.3848" x="906.1108" y="645.6875"/><text fill="#000000" font-family="sans-serif" font-size="14" lengthAdjust="spacing" textLength="20.3848" x="913.1108" y="665.6826">DB</text></g><g><title>BookTabController</title><rect fill="#FFFFFF" height="29.1328" style="stroke:#181818;stroke-width:1;" width="10" x="292.2275" y="149.7266"/></g><g><title>BookTabController</title><rect fill="#FFFFFF" height="428.6953" style="stroke:#181818;stroke-width:1;" width="10" x="292.2275" y="207.9922"/></g><g><title>Book</title><rect fill="#FFFFFF" height="97.5625" style="stroke:#181818;stroke-width:1;" width="10" x="555.2446" y="247.125"/></g><g><title>BookSet</title><rect fill="#FFFFFF" height="145.6641" style="stroke:#181818;stroke-width:1;" width="10" x="699.9351" y="446.8906"/></g><g><title>Backup</title><rect fill="#FFFFFF" height="29.1328" style="stroke:#181818;stroke-width:1;" width="10" x="858.2368" y="476.0234"/></g><g><title>DB</title><rect fill="#FFFFFF" height="29.1328" style="stroke:#181818;stroke-width:1;" width="10" x="918.3032" y="534.2891"/></g><g class="message" data-participant-1="User" data-participant-2="Ctrl"><polygon fill="#181818" points="280.2275,145.7266,290.2275,149.7266,280.2275,153.7266,284.2275,149.7266" style="stroke:#181818;stroke-width:1;"/><line style="stroke:#181818;stroke-width:1;" x1="66.6577" x2="286.2275" y1="149.7266" y2="149.7266"/><text fill="#000000" font-family="sans-serif" font-size="13" lengthAdjust="spacing" textLength="80.0503" x="73.6577" y="144.6606">Clicca "Add"</text></g><g class="message" data-participant-1="Ctrl" data-participant-2="User"><polygon fill="#181818" points="77.6577,174.8594,67.6577,178.8594,77.6577,182.8594,73.6577,178.8594" style="stroke:#181818;stroke-width:1;"/><line style="stroke:#181818;stroke-width:1;" x1="71.6577" x2="296.2275" y1="178.8594" y2="178.8594"/><text fill="#000000" font-family="sans-serif" font-size="13" lengthAdjust="spacing" textLength="160.6846" x="83.6577" y="173.7935">Mostra form inserimento</text></g><g class="message" data-participant-1="User" data-participant-2="Ctrl"><polygon fill="#181818" points="280.2275,203.9922,290.2275,207.9922,280.2275,211.9922,284.2275,207.9922" style="stroke:#181818;stroke-width:1;"/><line style="stroke:#181818;stroke-width:1;" x1="66.6577" x2="286.2275" y1="207.9922" y2="207.9922"/><text fill="#000000" font-family="sans-serif" font-size="13" lengthAdjust="spacing" textLength="164.9312" x="73.6577" y="202.9263">Inserisce dati e conferma</text></g><g class="message" data-participant-1="Ctrl" data-participant-2="ModelBook"><polygon fill="#181818" points="523.8232,233.125,533.8232,237.125,523.8232,241.125,527.8232,237.125" style="stroke:#181818;stroke-width:1;"/><line style="stroke:#181818;stroke-width:1;" x1="302.2275" x2="529.8232" y1="237.125" y2="237.125"/><text fill="#000000" font-family="sans-serif" font-size="13" lengthAdjust="spacing" textLength="177.7344" x="309.2275" y="232.0591">new Book(Titolo, Autori, ...)</text></g><rect fill="#E2E2F0" height="30.2969" rx="2.5" ry="2.5" style="stroke:#181818;stroke-width:0.5;" width="48.8428" x="535.8232" y="215.9922"/><text fill="#000000" font-family="sans-serif" font-size="14" lengthAdjust="spacing" textLength="34.8428" x="542.8232" y="235.9873">Book</text><g class="message" data-participant-1="ModelBook" data-participant-2="ModelBook"><line style="stroke:#181818;stroke-width:1;" x1="565.2446" x2="607.2446" y1="278.4219" y2="278.4219"/><line style="stroke:#181818;stroke-width:1;" x1="607.2446" x2="607.2446" y1="278.4219" y2="291.4219"/><line style="stroke:#181818;stroke-width:1;" x1="566.2446" x2="607.2446" y1="291.4219" y2="291.4219"/><polygon fill="#181818" points="576.2446,287.4219,566.2446,291.4219,576.2446,295.4219,572.2446,291.4219" style="stroke:#181818;stroke-width:1;"/><text fill="#000000" font-family="sans-serif" font-size="13" lengthAdjust="spacing" textLength="110.6904" x="572.2446" y="273.356">isValidIsbn(ISBN)</text></g><path d="M10,306.4219 L74.4429,306.4219 L74.4429,313.5547 L64.4429,323.5547 L10,323.5547 L10,306.4219" fill="#EEEEEE" style="stroke:#000000;stroke-width:1.5;"/><rect fill="none" height="323.2656" style="stroke:#000000;stroke-width:1.5;" width="940.4956" x="10" y="306.4219"/><text fill="#000000" font-family="sans-serif" font-size="13" font-weight="bold" lengthAdjust="spacing" textLength="19.4429" x="25" y="319.4888">alt</text><text fill="#000000" font-family="sans-serif" font-size="11" font-weight="bold" lengthAdjust="spacing" textLength="108.104" x="89.4429" y="318.6323">[ISBN non valido]</text><g class="message" data-participant-1="ModelBook" data-participant-2="Ctrl"><polygon fill="#181818" points="313.2275,340.6875,303.2275,344.6875,313.2275,348.6875,309.2275,344.6875" style="stroke:#181818;stroke-width:1;"/><line style="stroke:#181818;stroke-width:1;stroke-dasharray:2,2;" x1="307.2275" x2="559.2446" y1="344.6875" y2="344.6875"/><text fill="#000000" font-family="sans-serif" font-size="13" lengthAdjust="spacing" textLength="229.0171" x="319.2275" y="339.6216">Lancia BookDataNotValidException</text></g><line style="stroke:#A80036;stroke-width:2;" x1="551.2446" x2="569.2446" y1="335.6875" y2="353.6875"/><line style="stroke:#A80036;stroke-width:2;" x1="551.2446" x2="569.2446" y1="353.6875" y2="335.6875"/><g class="message" data-participant-1="Ctrl" data-participant-2="User"><polygon fill="#181818" points="77.6577,369.8203,67.6577,373.8203,77.6577,377.8203,73.6577,373.8203" style="stroke:#181818;stroke-width:1;"/><line style="stroke:#181818;stroke-width:1;" x1="71.6577" x2="291.2275" y1="373.8203" y2="373.8203"/><text fill="#000000" font-family="sans-serif" font-size="13" lengthAdjust="spacing" textLength="152.2485" x="83.6577" y="368.7544">Mostra errore (NUR-02)</text></g><line style="stroke:#000000;stroke-width:1;stroke-dasharray:2,2;" x1="10" x2="950.4956" y1="382.8203" y2="382.8203"/><text fill="#000000" font-family="sans-serif" font-size="11" font-weight="bold" lengthAdjust="spacing" textLength="81.0552" x="15" y="393.0308">[ISBN valido]</text><g class="message" data-participant-1="ModelBook" data-participant-2="Ctrl"><polygon fill="#181818" points="313.2275,413.7578,303.2275,417.7578,313.2275,421.7578,309.2275,417.7578" style="stroke:#181818;stroke-width:1;"/><line style="stroke:#181818;stroke-width:1;stroke-dasharray:2,2;" x1="307.2275" x2="559.2446" y1="417.7578" y2="417.7578"/><text fill="#000000" font-family="sans-serif" font-size="13" lengthAdjust="spacing" textLength="158.4756" x="319.2275" y="412.6919">Restituisce istanza Book</text></g><g class="message" data-participant-1="Ctrl" data-participant-2="ModelSet"><polygon fill="#181818" points="687.9351,442.8906,697.9351,446.8906,687.9351,450.8906,691.9351,446.8906" style="stroke:#181818;stroke-width:1;"/><line style="stroke:#181818;stroke-width:1;" x1="302.2275" x2="693.9351" y1="446.8906" y2="446.8906"/><text fill="#000000" font-family="sans-serif" font-size="13" lengthAdjust="spacing" textLength="139.4072" x="309.2275" y="441.8247">addOrEditBook(book)</text></g><g class="message" data-participant-1="ModelSet" data-participant-2="Backup"><polygon fill="#181818" points="846.2368,472.0234,856.2368,476.0234,846.2368,480.0234,850.2368,476.0234" style="stroke:#181818;stroke-width:1;"/><line style="stroke:#181818;stroke-width:1;" x1="709.9351" x2="852.2368" y1="476.0234" y2="476.0234"/><text fill="#000000" font-family="sans-serif" font-size="13" lengthAdjust="spacing" textLength="129.3018" x="716.9351" y="470.9575">createBackup(path)</text></g><g class="message" data-participant-1="Backup" data-participant-2="ModelSet"><polygon fill="#181818" points="720.9351,501.1563,710.9351,505.1563,720.9351,509.1563,716.9351,505.1563" style="stroke:#181818;stroke-width:1;"/><line style="stroke:#181818;stroke-width:1;stroke-dasharray:2,2;" x1="714.9351" x2="862.2368" y1="505.1563" y2="505.1563"/><text fill="#000000" font-family="sans-serif" font-size="13" lengthAdjust="spacing" textLength="93.6914" x="726.9351" y="500.0903">Backup creato</text></g><g class="message" data-participant-1="ModelSet" data-participant-2="Database"><polygon fill="#181818" points="906.3032,530.2891,916.3032,534.2891,906.3032,538.2891,910.3032,534.2891" style="stroke:#181818;stroke-width:1;"/><line style="stroke:#181818;stroke-width:1;" x1="709.9351" x2="912.3032" y1="534.2891" y2="534.2891"/><text fill="#000000" font-family="sans-serif" font-size="13" lengthAdjust="spacing" textLength="184.0059" x="716.9351" y="529.2231">appendLine(book.toString())</text></g><g class="message" data-participant-1="Database" data-participant-2="ModelSet"><polygon fill="#181818" points="720.9351,559.4219,710.9351,563.4219,720.9351,567.4219,716.9351,563.4219" style="stroke:#181818;stroke-width:1;"/><line style="stroke:#181818;stroke-width:1;stroke-dasharray:2,2;" x1="714.9351" x2="922.3032" y1="563.4219" y2="563.4219"/><text fill="#000000" font-family="sans-serif" font-size="13" lengthAdjust="spacing" textLength="99.5122" x="726.9351" y="558.356">Salvataggio OK</text></g><g class="message" data-participant-1="ModelSet" data-participant-2="Ctrl"><polygon fill="#181818" points="313.2275,588.5547,303.2275,592.5547,313.2275,596.5547,309.2275,592.5547" style="stroke:#181818;stroke-width:1;"/><line style="stroke:#181818;stroke-width:1;stroke-dasharray:2,2;" x1="307.2275" x2="703.9351" y1="592.5547" y2="592.5547"/><text fill="#000000" font-family="sans-serif" font-size="13" lengthAdjust="spacing" textLength="125.5757" x="319.2275" y="587.4888">Conferma aggiunta</text></g><g class="message" data-participant-1="Ctrl" data-participant-2="User"><polygon fill="#181818" points="77.6577,617.6875,67.6577,621.6875,77.6577,625.6875,73.6577,621.6875" style="stroke:#181818;stroke-width:1;"/><line style="stroke:#181818;stroke-width:1;" x1="71.6577" x2="291.2275" y1="621.6875" y2="621.6875"/><text fill="#000000" font-family="sans-serif" font-size="13" lengthAdjust="spacing" textLength="201.5698" x="83.6577" y="616.6216">Aggiorna tabella e chiude form</text></g><!--SRC=[XLJ1Rjim3BtxAuYS7A39XXrx692aFGJBKg1fUzg5jjcKg29wCjrk-_f9ScB7Ie7wO4WKt-CZHKfP3S6EVhTa_o4izdjkhI9ik72IPLYgE9WikJ0iIYKwbWbW0uyDkQn6frnoZLQzZyZh0nOhiUh467A_RFx4zFvbi4mZTANEN4BZqK-fo8JTvVcET73ncyG3ozUsZWxTSdnyiun7DwXOO4DP5kJ3x7lK0jUmCboM29D5LKr2plo6IftGwE4z8-BQXs_K8JoBEm1RR-C3MPMieZ4iZR2Elar9KA4o49HYdyaTC0cNbOx2PgZ4IK1lyMoMtY4iymTMCN85YzRV4r_1V3wV3em3oG1EcBXvGiFLkYbiljujjnvj5C8Ah5Xu2uUIWV_EA8QqDcXBngWb57Sh6kbk_vHKAukDo8fypUJlcPnW_RYmv9muWdpxU3_x-csQaMcea_EPb7iVXRMDDUP6CRHp7-piUiOgHb9ElUNPiAhkt6t56ijS-DyqkevfGX_sB3tQCtLDw7cww-osUOtwaj0SkpNOZfZPMCZH6daapUKCVI7XrEmXcRecMstOKinahh9JntQVJnCr_O04Qq-GADgXySxeNmg1kn-ff1558kfiu8xT3tXyS3wyfL5vatu9BvKuY-33aJ4OHkg5suhYR6O-tomToly0]--></g></svg>