<svg xmlns="http://www.w3.org/2000/svg" xmlns:xlink="http://www.w3.org/1999/xlink" contentStyleType="text/css" data-diagram-type="SEQUENCE" height="831px" preserveAspectRatio="none" style="width:1017px;height:831px;background:#FFFFFF;" version="1.1" viewBox="0 0 1017 831" width="1017px" zoomAndPan="magnify"><title>Sequenza Prestito Libro</title><defs/><g><text fill="#000000" font-family="sans-serif" font-size="14" font-weight="bold" lengthAdjust="spacing" textLength="189.4307" x="415.0093" y="27.9951">Sequenza Prestito Libro</text><g><title>LendingEditController</title><rect fill="#FFFFFF" height="590.4922" style="stroke:#181818;stroke-width:1;" width="10" x="304.1631" y="149.7266"/></g><g><title>User</title><rect fill="#FFFFFF" height="29.1328" style="stroke:#181818;stroke-width:1;" width="10" x="530.7085" y="178.8594"/></g><g><title>User</title><rect fill="#FFFFFF" height="29.1328" style="stroke:#181818;stroke-width:1;" width="10" x="530.7085" y="421.7266"/></g><g><title>Book</title><rect fill="#FFFFFF" height="29.1328" style="stroke:#181818;stroke-width:1;" width="10" x="588.085" y="237.125"/></g><g><title>Book</title><rect fill="#FFFFFF" height="29.1328" style="stroke:#181818;stroke-width:1;" width="10" x="588.085" y="363.4609"/></g><g><title>Lending</title><rect fill="#FFFFFF" height="31.2969" style="stroke:#181818;stroke-width:1;" width="10" x="657.4175" y="489.9922"/></g><g><title>LendingSet</title><rect fill="#FFFFFF" height="145.6641" style="stroke:#181818;stroke-width:1;" width="10" x="748.7344" y="550.4219"/></g><g><title>Backup</title><rect fill="#FFFFFF" height="29.1328" style="stroke:#181818;stroke-width:1;" width="10" x="907.0361" y="579.5547"/></g><g><title>DB</title><rect fill="#FFFFFF" height="29.1328" style="stroke:#181818;stroke-width:1;" width="10" x="978.2568" y="637.8203"/></g><rect fill="none" height="451.9609" style="stroke:#000000;stroke-width:1.5;" width="1000.4492" x="10" y="281.2578"/><g><title>Bibliotecario</title><rect fill="#000000" fill-opacity="0.00000" height="631.625" width="8" x="62.6577" y="118.5938"/><line style="stroke:#181818;stroke-width:0.5;stroke-dasharray:5,5;" x1="66" x2="66" y1="118.5938" y2="750.2188"/></g><g><title>LendingEditController</title><rect fill="#000000" fill-opacity="0.00000" height="631.625" width="8" x="305.1631" y="118.5938"/><line style="stroke:#181818;stroke-width:0.5;stroke-dasharray:5,5;" x1="309.1099" x2="309.1099" y1="118.5938" y2="750.2188"/></g><g><title>User</title><rect fill="#000000" fill-opacity="0.00000" height="631.625" width="8" x="531.7085" y="118.5938"/><line style="stroke:#181818;stroke-width:0.5;stroke-dasharray:5,5;" x1="534.7534" x2="534.7534" y1="118.5938" y2="750.2188"/></g><g><title>Book</title><rect fill="#000000" fill-opacity="0.00000" height="631.625" width="8" x="589.085" y="118.5938"/><line style="stroke:#181818;stroke-width:0.5;stroke-dasharray:5,5;" x1="592.6636" x2="592.6636" y1="118.5938" y2="750.2188"/></g><g><title>Lending</title><rect fill="#000000" fill-opacity="0.00000" height="260.7109" width="8" x="658.4175" y="489.5078"/><line style="stroke:#181818;stroke-width:0.5;stroke-dasharray:5,5;" x1="661.5063" x2="661.5063" y1="489.5078" y2="750.2188"/></g><g><title>LendingSet</title><rect fill="#000000" fill-opacity="0.00000" height="631.625" width="8" x="749.7344" y="118.5938"/><line style="stroke:#181818;stroke-width:0.5;stroke-dasharray:5,5;" x1="753.3286" x2="753.3286" y1="118.5938" y2="750.2188"/></g><g><title>Backup</title><rect fill="#000000" fill-opacity="0.00000" height="631.625" width="8" x="908.0361" y="118.5938"/><line style="stroke:#181818;stroke-width:0.5;stroke-dasharray:5,5;" x1="911.1621" x2="911.1621" y1="118.5938" y2="750.2188"/></g><g><title>DB</title><rect fill="#000000" fill-opacity="0.00000" height="631.625" width="8" x="979.2568" y="118.5938"/><line style="stroke:#181818;stroke-width:0.5;stroke-dasharray:5,5;" x1="983.0645" x2="983.0645" y1="118.5938" y2="750.2188"/></g><g class="participant participant-head" data-participant="User"><text fill="#000000" font-family="sans-serif" font-size="14" lengthAdjust="spacing" textLength="87.3154" x="20" y="115.292">Bibliotecario</text><ellipse cx="66.6577" cy="50.7969" fill="#E2E2F0" rx="8" ry="8" style="stroke:#181818;stroke-width:0.5;"/><path d="M66.6577,58.7969 L66.6577,85.7969 M53.6577,66.7969 L79.6577,66.7969 M66.6577,85.7969 L53.6577,100.7969 M66.6577,85.7969 L79.6577,100.7969" fill="none" style="stroke:#181818;stroke-width:0.5;"/></g><g class="participant participant-tail" data-participant="User"><text fill="#000000" font-family="sans-serif" font-size="14" lengthAdjust="spacing" textLength="87.3154" x="20" y="762.2139">Bibliotecario</text><ellipse cx="66.6577" cy="774.0156" fill="#E2E2F0" rx="8" ry="8" style="stroke:#181818;stroke-width:0.5;"/><path d="M66.6577,782.0156 L66.6577,809.0156 M53.6577,790.0156 L79.6577,790.0156 M66.6577,809.0156 L53.6577,824.0156 M66.6577,809.0156 L79.6577,824.0156" fill="none" style="stroke:#181818;stroke-width:0.5;"/></g><g class="participant participant-head" data-participant="Ctrl"><rect fill="#E2E2F0" height="30.2969" rx="2.5" ry="2.5" style="stroke:#181818;stroke-width:0.5;" width="166.1064" x="226.1099" y="87.2969"/><text fill="#000000" font-family="sans-serif" font-size="14" lengthAdjust="spacing" textLength="152.1064" x="233.1099" y="107.292">LendingEditController</text></g><g class="participant participant-tail" data-participant="Ctrl"><rect fill="#E2E2F0" height="30.2969" rx="2.5" ry="2.5" style="stroke:#181818;stroke-width:0.5;" width="166.1064" x="226.1099" y="749.2188"/><text fill="#000000" font-family="sans-serif" font-size="14" lengthAdjust="spacing" textLength="152.1064" x="233.1099" y="769.2139">LendingEditController</text></g><g class="participant participant-head" data-participant="UserModel"><rect fill="#E2E2F0" height="30.2969" rx="2.5" ry="2.5" style="stroke:#181818;stroke-width:0.5;" width="45.9102" x="512.7534" y="87.2969"/><text fill="#000000" font-family="sans-serif" font-size="14" lengthAdjust="spacing" textLength="31.9102" x="519.7534" y="107.292">User</text></g><g class="participant participant-tail" data-participant="UserModel"><rect fill="#E2E2F0" height="30.2969" rx="2.5" ry="2.5" style="stroke:#181818;stroke-width:0.5;" width="45.9102" x="512.7534" y="749.2188"/><text fill="#000000" font-family="sans-serif" font-size="14" lengthAdjust="spacing" textLength="31.9102" x="519.7534" y="769.2139">User</text></g><g class="participant participant-head" data-participant="BookModel"><rect fill="#E2E2F0" height="30.2969" rx="2.5" ry="2.5" style="stroke:#181818;stroke-width:0.5;" width="48.8428" x="568.6636" y="87.2969"/><text fill="#000000" font-family="sans-serif" font-size="14" lengthAdjust="spacing" textLength="34.8428" x="575.6636" y="107.292">Book</text></g><g class="participant participant-tail" data-participant="BookModel"><rect fill="#E2E2F0" height="30.2969" rx="2.5" ry="2.5" style="stroke:#181818;stroke-width:0.5;" width="48.8428" x="568.6636" y="749.2188"/><text fill="#000000" font-family="sans-serif" font-size="14" lengthAdjust="spacing" textLength="34.8428" x="575.6636" y="769.2139">Book</text></g><g class="participant participant-tail" data-participant="LendModel"><rect fill="#E2E2F0" height="30.2969" rx="2.5" ry="2.5" style="stroke:#181818;stroke-width:0.5;" width="69.8223" x="627.5063" y="749.2188"/><text fill="#000000" font-family="sans-serif" font-size="14" lengthAdjust="spacing" textLength="55.8223" x="634.5063" y="769.2139">Lending</text></g><g class="participant participant-head" data-participant="LendSet"><rect fill="#E2E2F0" height="30.2969" rx="2.5" ry="2.5" style="stroke:#181818;stroke-width:0.5;" width="92.8115" x="707.3286" y="87.2969"/><text fill="#000000" font-family="sans-serif" font-size="14" lengthAdjust="spacing" textLength="78.8115" x="714.3286" y="107.292">LendingSet</text></g><g class="participant participant-tail" data-participant="LendSet"><rect fill="#E2E2F0" height="30.2969" rx="2.5" ry="2.5" style="stroke:#181818;stroke-width:0.5;" width="92.8115" x="707.3286" y="749.2188"/><text fill="#000000" font-family="sans-serif" font-size="14" lengthAdjust="spacing" textLength="78.8115" x="714.3286" y="769.2139">LendingSet</text></g><g class="participant participant-head" data-participant="Backup"><rect fill="#E2E2F0" height="30.2969" rx="2.5" ry="2.5" style="stroke:#181818;stroke-width:0.5;" width="65.748" x="879.1621" y="87.2969"/><text fill="#000000" font-family="sans-serif" font-size="14" lengthAdjust="spacing" textLength="51.748" x="886.1621" y="107.292">Backup</text></g><g class="participant participant-tail" data-participant="Backup"><rect fill="#E2E2F0" height="30.2969" rx="2.5" ry="2.5" style="stroke:#181818;stroke-width:0.5;" width="65.748" x="879.1621" y="749.2188"/><text fill="#000000" font-family="sans-serif" font-size="14" lengthAdjust="spacing" textLength="51.748" x="886.1621" y="769.2139">Backup</text></g><g class="participant participant-head" data-participant="Database"><rect fill="#E2E2F0" height="30.2969" rx="2.5" ry="2.5" style="stroke:#181818;stroke-width:0.5;" width="34.3848" x="966.0645" y="87.2969"/><text fill="#000000" font-family="sans-serif" font-size="14" lengthAdjust="spacing" textLength="20.3848" x="973.0645" y="107.292">DB</text></g><g class="participant participant-tail" data-participant="Database"><rect fill="#E2E2F0" height="30.2969" rx="2.5" ry="2.5" style="stroke:#181818;stroke-width:0.5;" width="34.3848" x="966.0645" y="749.2188"/><text fill="#000000" font-family="sans-serif" font-size="14" lengthAdjust="spacing" textLength="20.3848" x="973.0645" y="769.2139">DB</text></g><g><title>LendingEditController</title><rect fill="#FFFFFF" height="590.4922" style="stroke:#181818;stroke-width:1;" width="10" x="304.1631" y="149.7266"/></g><g><title>User</title><rect fill="#FFFFFF" height="29.1328" style="stroke:#181818;stroke-width:1;" width="10" x="530.7085" y="178.8594"/></g><g><title>User</title><rect fill="#FFFFFF" height="29.1328" style="stroke:#181818;stroke-width:1;" width="10" x="530.7085" y="421.7266"/></g><g><title>Book</title><rect fill="#FFFFFF" height="29.1328" style="stroke:#181818;stroke-width:1;" width="10" x="588.085" y="237.125"/></g><g><title>Book</title><rect fill="#FFFFFF" height="29.1328" style="stroke:#181818;stroke-width:1;" width="10" x="588.085" y="363.4609"/></g><g><title>Lending</title><rect fill="#FFFFFF" height="31.2969" style="stroke:#181818;stroke-width:1;" width="10" x="657.4175" y="489.9922"/></g><g><title>LendingSet</title><rect fill="#FFFFFF" height="145.6641" style="stroke:#181818;stroke-width:1;" width="10" x="748.7344" y="550.4219"/></g><g><title>Backup</title><rect fill="#FFFFFF" height="29.1328" style="stroke:#181818;stroke-width:1;" width="10" x="907.0361" y="579.5547"/></g><g><title>DB</title><rect fill="#FFFFFF" height="29.1328" style="stroke:#181818;stroke-width:1;" width="10" x="978.2568" y="637.8203"/></g><g class="message" data-participant-1="User" data-participant-2="Ctrl"><polygon fill="#181818" points="292.1631,145.7266,302.1631,149.7266,292.1631,153.7266,296.1631,149.7266" style="stroke:#181818;stroke-width:1;"/><line style="stroke:#181818;stroke-width:1;" x1="66.6577" x2="298.1631" y1="149.7266" y2="149.7266"/><text fill="#000000" font-family="sans-serif" font-size="13" lengthAdjust="spacing" textLength="218.5054" x="73.6577" y="144.6606">Clicca "Save" (Conferma Prestito)</text></g><g class="message" data-participant-1="Ctrl" data-participant-2="UserModel"><polygon fill="#181818" points="518.7085,174.8594,528.7085,178.8594,518.7085,182.8594,522.7085,178.8594" style="stroke:#181818;stroke-width:1;"/><line style="stroke:#181818;stroke-width:1;" x1="314.1631" x2="524.7085" y1="178.8594" y2="178.8594"/><text fill="#000000" font-family="sans-serif" font-size="13" lengthAdjust="spacing" textLength="79.644" x="321.1631" y="173.7935">canBorrow()</text></g><g class="message" data-participant-1="UserModel" data-participant-2="Ctrl"><polygon fill="#181818" points="325.1631,203.9922,315.1631,207.9922,325.1631,211.9922,321.1631,207.9922" style="stroke:#181818;stroke-width:1;"/><line style="stroke:#181818;stroke-width:1;stroke-dasharray:2,2;" x1="319.1631" x2="534.7085" y1="207.9922" y2="207.9922"/><text fill="#000000" font-family="sans-serif" font-size="13" lengthAdjust="spacing" textLength="61.9849" x="331.1631" y="202.9263">true/false</text></g><g class="message" data-participant-1="Ctrl" data-participant-2="BookModel"><polygon fill="#181818" points="576.085,233.125,586.085,237.125,576.085,241.125,580.085,237.125" style="stroke:#181818;stroke-width:1;"/><line style="stroke:#181818;stroke-width:1;" x1="314.1631" x2="582.085" y1="237.125" y2="237.125"/><text fill="#000000" font-family="sans-serif" font-size="13" lengthAdjust="spacing" textLength="75.1563" x="321.1631" y="232.0591">getCopies()</text></g><g class="message" data-participant-1="BookModel" data-participant-2="Ctrl"><polygon fill="#181818" points="325.1631,262.2578,315.1631,266.2578,325.1631,270.2578,321.1631,266.2578" style="stroke:#181818;stroke-width:1;"/><line style="stroke:#181818;stroke-width:1;stroke-dasharray:2,2;" x1="319.1631" x2="592.085" y1="266.2578" y2="266.2578"/><text fill="#000000" font-family="sans-serif" font-size="13" lengthAdjust="spacing" textLength="45.1318" x="331.1631" y="261.1919">nCopie</text></g><path d="M10,281.2578 L74.4429,281.2578 L74.4429,288.3906 L64.4429,298.3906 L10,298.3906 L10,281.2578" fill="#EEEEEE" style="stroke:#000000;stroke-width:1.5;"/><rect fill="none" height="451.9609" style="stroke:#000000;stroke-width:1.5;" width="1000.4492" x="10" y="281.2578"/><text fill="#000000" font-family="sans-serif" font-size="13" font-weight="bold" lengthAdjust="spacing" textLength="19.4429" x="25" y="294.3247">alt</text><text fill="#000000" font-family="sans-serif" font-size="11" font-weight="bold" lengthAdjust="spacing" textLength="355.9854" x="89.4429" y="293.4683">[Numero prestiti attivi per quell'utente &gt; 3 OR copie = 0]</text><g class="message" data-participant-1="Ctrl" data-participant-2="User"><polygon fill="#181818" points="77.6577,315.5234,67.6577,319.5234,77.6577,323.5234,73.6577,319.5234" style="stroke:#181818;stroke-width:1;"/><line style="stroke:#181818;stroke-width:1;" x1="71.6577" x2="303.1631" y1="319.5234" y2="319.5234"/><text fill="#000000" font-family="sans-serif" font-size="13" lengthAdjust="spacing" textLength="152.2485" x="83.6577" y="314.4575">Mostra errore (NUR-02)</text></g><line style="stroke:#000000;stroke-width:1;stroke-dasharray:2,2;" x1="10" x2="1010.4492" y1="328.5234" y2="328.5234"/><text fill="#000000" font-family="sans-serif" font-size="11" font-weight="bold" lengthAdjust="spacing" textLength="148.6772" x="15" y="338.7339">[Condizioni soddisfatte]</text><g class="message" data-participant-1="Ctrl" data-participant-2="BookModel"><polygon fill="#181818" points="576.085,359.4609,586.085,363.4609,576.085,367.4609,580.085,363.4609" style="stroke:#181818;stroke-width:1;"/><line style="stroke:#181818;stroke-width:1;" x1="314.1631" x2="582.085" y1="363.4609" y2="363.4609"/><text fill="#000000" font-family="sans-serif" font-size="13" lengthAdjust="spacing" textLength="92.771" x="321.1631" y="358.395">removeCopy()</text></g><g class="message" data-participant-1="BookModel" data-participant-2="Ctrl"><polygon fill="#181818" points="325.1631,388.5938,315.1631,392.5938,325.1631,396.5938,321.1631,392.5938" style="stroke:#181818;stroke-width:1;"/><line style="stroke:#181818;stroke-width:1;stroke-dasharray:2,2;" x1="319.1631" x2="592.085" y1="392.5938" y2="392.5938"/><text fill="#000000" font-family="sans-serif" font-size="13" lengthAdjust="spacing" textLength="130.895" x="331.1631" y="387.5278">copie decrementate</text></g><g class="message" data-participant-1="Ctrl" data-participant-2="UserModel"><polygon fill="#181818" points="518.7085,417.7266,528.7085,421.7266,518.7085,425.7266,522.7085,421.7266" style="stroke:#181818;stroke-width:1;"/><line style="stroke:#181818;stroke-width:1;" x1="314.1631" x2="524.7085" y1="421.7266" y2="421.7266"/><text fill="#000000" font-family="sans-serif" font-size="13" lengthAdjust="spacing" textLength="197.5454" x="321.1631" y="416.6606">setBorrowedBooksCount(n+1)</text></g><g class="message" data-participant-1="UserModel" data-participant-2="Ctrl"><polygon fill="#181818" points="325.1631,446.8594,315.1631,450.8594,325.1631,454.8594,321.1631,450.8594" style="stroke:#181818;stroke-width:1;"/><line style="stroke:#181818;stroke-width:1;stroke-dasharray:2,2;" x1="319.1631" x2="534.7085" y1="450.8594" y2="450.8594"/><text fill="#000000" font-family="sans-serif" font-size="13" lengthAdjust="spacing" textLength="107.6563" x="331.1631" y="445.7935">stato aggiornato</text></g><g class="message" data-participant-1="Ctrl" data-participant-2="LendModel"><polygon fill="#181818" points="615.5063,475.9922,625.5063,479.9922,615.5063,483.9922,619.5063,479.9922" style="stroke:#181818;stroke-width:1;"/><line style="stroke:#181818;stroke-width:1;" x1="314.1631" x2="621.5063" y1="479.9922" y2="479.9922"/><text fill="#000000" font-family="sans-serif" font-size="13" lengthAdjust="spacing" textLength="198.834" x="321.1631" y="474.9263">new Lending(book, user, data)</text></g><rect fill="#E2E2F0" height="30.2969" rx="2.5" ry="2.5" style="stroke:#181818;stroke-width:0.5;" width="69.8223" x="627.5063" y="458.8594"/><text fill="#000000" font-family="sans-serif" font-size="14" lengthAdjust="spacing" textLength="55.8223" x="634.5063" y="478.8545">Lending</text><g class="message" data-participant-1="LendModel" data-participant-2="Ctrl"><polygon fill="#181818" points="325.1631,517.2891,315.1631,521.2891,325.1631,525.2891,321.1631,521.2891" style="stroke:#181818;stroke-width:1;"/><line style="stroke:#181818;stroke-width:1;stroke-dasharray:2,2;" x1="319.1631" x2="661.4175" y1="521.2891" y2="521.2891"/><text fill="#000000" font-family="sans-serif" font-size="13" lengthAdjust="spacing" textLength="102.4448" x="331.1631" y="516.2231">istanza Lending</text></g><g class="message" data-participant-1="Ctrl" data-participant-2="LendSet"><polygon fill="#181818" points="736.7344,546.4219,746.7344,550.4219,736.7344,554.4219,740.7344,550.4219" style="stroke:#181818;stroke-width:1;"/><line style="stroke:#181818;stroke-width:1;" x1="314.1631" x2="742.7344" y1="550.4219" y2="550.4219"/><text fill="#000000" font-family="sans-serif" font-size="13" lengthAdjust="spacing" textLength="175.4048" x="321.1631" y="545.356">addOrEditLending(lending)</text></g><g class="message" data-participant-1="LendSet" data-participant-2="Backup"><polygon fill="#181818" points="895.0361,575.5547,905.0361,579.5547,895.0361,583.5547,899.0361,579.5547" style="stroke:#181818;stroke-width:1;"/><line style="stroke:#181818;stroke-width:1;" x1="758.7344" x2="901.0361" y1="579.5547" y2="579.5547"/><text fill="#000000" font-family="sans-serif" font-size="13" lengthAdjust="spacing" textLength="129.3018" x="765.7344" y="574.4888">createBackup(path)</text></g><g class="message" data-participant-1="Backup" data-participant-2="LendSet"><polygon fill="#181818" points="769.7344,604.6875,759.7344,608.6875,769.7344,612.6875,765.7344,608.6875" style="stroke:#181818;stroke-width:1;"/><line style="stroke:#181818;stroke-width:1;stroke-dasharray:2,2;" x1="763.7344" x2="911.0361" y1="608.6875" y2="608.6875"/><text fill="#000000" font-family="sans-serif" font-size="13" lengthAdjust="spacing" textLength="70.9414" x="775.7344" y="603.6216">Backup OK</text></g><g class="message" data-participant-1="LendSet" data-participant-2="Database"><polygon fill="#181818" points="966.2568,633.8203,976.2568,637.8203,966.2568,641.8203,970.2568,637.8203" style="stroke:#181818;stroke-width:1;"/><line style="stroke:#181818;stroke-width:1;" x1="758.7344" x2="972.2568" y1="637.8203" y2="637.8203"/><text fill="#000000" font-family="sans-serif" font-size="13" lengthAdjust="spacing" textLength="200.5225" x="765.7344" y="632.7544">appendLine(lending.toString())</text></g><g class="message" data-participant-1="Database" data-participant-2="LendSet"><polygon fill="#181818" points="769.7344,662.9531,759.7344,666.9531,769.7344,670.9531,765.7344,666.9531" style="stroke:#181818;stroke-width:1;"/><line style="stroke:#181818;stroke-width:1;stroke-dasharray:2,2;" x1="763.7344" x2="982.2568" y1="666.9531" y2="666.9531"/><text fill="#000000" font-family="sans-serif" font-size="13" lengthAdjust="spacing" textLength="99.5122" x="775.7344" y="661.8872">Salvataggio OK</text></g><g class="message" data-participant-1="LendSet" data-participant-2="Ctrl"><polygon fill="#181818" points="325.1631,692.0859,315.1631,696.0859,325.1631,700.0859,321.1631,696.0859" style="stroke:#181818;stroke-width:1;"/><line style="stroke:#181818;stroke-width:1;stroke-dasharray:2,2;" x1="319.1631" x2="752.7344" y1="696.0859" y2="696.0859"/><text fill="#000000" font-family="sans-serif" font-size="13" lengthAdjust="spacing" textLength="111.4585" x="331.1631" y="691.02">Prestito aggiunto</text></g><g class="message" data-participant-1="Ctrl" data-participant-2="User"><polygon fill="#181818" points="77.6577,721.2188,67.6577,725.2188,77.6577,729.2188,73.6577,725.2188" style="stroke:#181818;stroke-width:1;"/><line style="stroke:#181818;stroke-width:1;" x1="71.6577" x2="303.1631" y1="725.2188" y2="725.2188"/><text fill="#000000" font-family="sans-serif" font-size="13" lengthAdjust="spacing" textLength="114.8672" x="83.6577" y="720.1528">Chiude la finestra</text></g><!--SRC=[TLLDKnin3Btlhz3aGfYIbhQtpfIP9d1g80mPk2jh9NXmxArN6wRyclwN_h5AtcI_sEP0Z2qzlVSiAspP4QpfLqN-3U4-KicM0opj9eOimvn3XCdSRfmDJ3b66oQ09JoM5BC28zlS5kWP9alonlhTZR6y29vZS8vYYbrmTFrOpMvWReEXmVayX9TqhekHysEj5ABh_uUiYPieMG_AOFvI5NMXjEmVNy_JqJKoRh2aB5EsCBjAWk0RB9pDSuJ96WyqWQcetbBSjoQUgttsW4or1TaPFA6p1jziy9Gb545hF1387Fqyn1XUfvtargGsTDRIu5ZHfoqwOMXe9Aafr9WfIJkIMoeibTr2hTjjQAUGJndT8cr2XexXhjfJ353K-YqWIvo5GboJ_dBkh6BoadO5Ns7r0Bd2mNUup40-NJkas6qeEIAGc149fdUF3xFBB-SPYKmGfurL4osKmHXRRgKI9PGp-B7RsH0zxgLKW3MZ_BtnmkVldrwThXkHzk508k-tsA518mfrUzIMMeQXN52a9XwPZDga1-_KdbYKnFNbaz6CSX4gprF_uVE0KtkrkZtQ4sMIZKShE0mPzI6EpYqYrQq9gvtqXqw1-X6bSv6dcUrpwyfeThLDwFMKEDs8ZWkefDe567b70oLzi1QaeyIA59rCNIeT8It2KSGznL9oT9gzOoW3G13Hc5NKCNKYwUhl4MuwCHg3JWZQEsbQwDqdK-f_fmNoyx1zwh6IUgVEcVMu73TNFz-rJ9iuB7wQHogbA6H_QJsTH7paiEQegiu7L9enfhiDHf_E6ft4fhOPuTH3wBDgxwlv1L4KwTymTcCzNmSFV_5iAqFW4BQYIuT09XbPT-nenZy0]--></g></svg>